<svg width="24" height="24" viewBox="0 0 24 24" fill="none" xmlns="http://www.w3.org/2000/svg">
<path d="M18.2402 10.6701C20.5302 10.6701 20.8502 8.85012 20.8502 6.65012C20.8502 4.45012 20.5302 2.63012 18.2402 2.63012C15.9502 2.63012 15.6302 4.45012 15.6302 6.65012C15.6302 8.85012 15.9502 10.6701 18.2402 10.6701ZM17.1002 6.59012C17.1002 5.37012 17.1002 4.00012 18.2402 4.00012C19.3802 4.00012 19.3802 5.37012 19.3802 6.59012V6.72012C19.3802 7.93012 19.3802 9.31012 18.2402 9.31012C17.1002 9.31012 17.1002 7.93012 17.1002 6.72012V6.59012Z" fill="#141414"/>
<path d="M5.92023 9.31012C5.39023 9.31012 4.99023 8.98012 4.81023 8.77012C4.66023 8.61012 4.47023 8.52012 4.33023 8.52012C3.93023 8.52012 3.56023 8.97012 3.56023 9.25012C3.56023 9.43012 3.67023 9.62012 3.77023 9.72012C4.02023 9.99012 4.62023 10.6701 5.92023 10.6701C7.52023 10.6701 8.54023 9.70012 8.54023 8.24012C8.54023 7.55012 8.23023 7.02012 7.69023 6.63012C7.66023 6.61012 7.64023 6.57012 7.64023 6.54012C7.64023 6.51012 7.65023 6.48012 7.69023 6.45012C8.10023 6.06012 8.32023 5.54012 8.32023 4.90012C8.32023 3.49012 7.36023 2.64012 5.92023 2.64012C5.05023 2.64012 4.40023 2.96012 3.97023 3.41012C3.81023 3.58012 3.66023 3.75012 3.66023 3.99012C3.66023 4.38012 4.07023 4.68012 4.40023 4.68012C4.63023 4.68012 4.75023 4.59012 4.87023 4.49012C5.22023 4.17012 5.45023 4.02012 5.92023 4.02012C6.47023 4.02012 6.83023 4.37012 6.83023 4.97012C6.83023 5.57012 6.46023 5.88012 5.92023 5.88012H5.81023C5.33023 5.88012 5.16023 6.18012 5.16023 6.54012C5.16023 6.90012 5.33023 7.20012 5.81023 7.20012H5.92023C6.63023 7.20012 7.05023 7.62012 7.05023 8.25012C7.05023 8.88012 6.63023 9.32012 5.92023 9.32012V9.31012Z" fill="#141414"/>
<path d="M12.1202 10.6701C13.8602 10.6701 14.6302 9.45012 14.6302 7.95012C14.6302 6.64012 13.9602 5.48012 12.2202 5.48012C11.9902 5.48012 11.6302 5.55012 11.3502 5.66012C11.2002 5.72012 11.1702 5.76012 11.0902 5.76012C11.0002 5.76012 11.0002 5.65012 11.0002 5.59012C11.0702 4.39012 11.5002 3.99012 12.2202 3.99012C12.3702 3.99012 12.7002 4.02012 13.0002 4.21012C13.2102 4.32012 13.3202 4.38012 13.4602 4.38012C13.8302 4.38012 14.1502 3.97012 14.1502 3.65012C14.1502 3.33012 13.9002 3.15012 13.7202 3.03012C13.1902 2.70012 12.6602 2.62012 12.2802 2.62012C10.1502 2.62012 9.53023 3.83012 9.53023 6.64012C9.53023 8.85012 9.85023 10.6601 12.1402 10.6601L12.1202 10.6701ZM12.1202 6.85012C13.0602 6.85012 13.2102 7.58012 13.2102 8.07012C13.2102 8.56012 13.0002 9.30012 12.1202 9.30012C11.2402 9.30012 11.0302 8.55012 11.0302 8.07012C11.0302 7.59012 11.1802 6.85012 12.1202 6.85012Z" fill="#141414"/>
<path d="M18.2002 12.0401C18.1302 12.0201 18.0502 12.0101 17.9702 12.0101C17.5202 12.0101 17.1402 12.3101 17.0302 12.7501C16.9702 13.0001 17.0102 13.2601 17.1402 13.4801C17.2702 13.7001 17.4902 13.8501 17.7402 13.9101C19.5202 14.3401 20.1802 14.8401 20.3102 15.0301C20.1302 15.3301 18.4802 16.2601 14.5602 16.5901C14.0302 16.6301 13.6402 17.1001 13.6802 17.6301C13.7202 18.1301 14.1402 18.5101 14.6402 18.5101C14.6702 18.5101 14.7002 18.5101 14.7302 18.5101C16.9902 18.3201 22.2502 17.5901 22.2502 15.0001C22.2502 14.0901 21.5502 12.8301 18.1902 12.0301L18.2002 12.0401ZM17.9102 12.2701C17.9102 12.2701 17.9502 12.2601 17.9802 12.2601C18.0402 12.2601 18.0902 12.2601 18.1502 12.2801C18.0702 12.2601 17.9902 12.2601 17.9102 12.2801V12.2701Z" fill="#141414"/>
<path d="M12.8902 17.2901L12.8702 17.2401C12.8402 17.1801 12.8002 17.1201 12.7602 17.0601L12.6102 16.9001L11.3602 15.6501C11.1802 15.4701 10.9402 15.3701 10.6802 15.3701C10.4202 15.3701 10.1802 15.4701 10.0002 15.6501C9.82023 15.8301 9.72023 16.0701 9.72023 16.3301C9.72023 16.4301 9.73023 16.5201 9.76023 16.6201C5.96023 16.3401 3.92023 15.4001 3.69023 15.0201C3.83023 14.8301 4.49023 14.3301 6.26023 13.9101C6.51023 13.8501 6.72023 13.7001 6.86023 13.4801C6.99023 13.2601 7.04023 13.0001 6.97023 12.7501C6.87023 12.3201 6.48023 12.0101 6.03023 12.0101C5.95023 12.0101 5.88023 12.0101 5.80023 12.0401C2.45023 12.8501 1.74023 14.1001 1.74023 15.0101C1.74023 17.2301 5.82024 18.2901 9.81024 18.5601C9.74024 18.6901 9.71023 18.8401 9.71023 18.9901C9.71023 19.2501 9.81023 19.4901 9.99023 19.6701C10.1702 19.8501 10.4102 19.9501 10.6702 19.9501C10.9302 19.9501 11.1702 19.8501 11.3502 19.6701L12.6802 18.3401C12.7702 18.2501 12.8402 18.1501 12.8902 18.0301C12.9402 17.9101 12.9602 17.7801 12.9602 17.6601C12.9602 17.5501 12.9402 17.4401 12.9002 17.3401L12.8802 17.2901H12.8902ZM6.03023 12.2601C6.03023 12.2601 6.07023 12.2601 6.10023 12.2701C6.02023 12.2701 5.95023 12.2601 5.87023 12.2701C5.93023 12.2601 5.98023 12.2501 6.04023 12.2501L6.03023 12.2601Z" fill="#141414"/>
</svg>
