<svg width="24" height="24" viewBox="0 0 24 24" fill="none" xmlns="http://www.w3.org/2000/svg">
<path d="M9.99977 13.96H9.68976C9.56977 13.96 9.53977 13.91 9.53977 13.8V12.7C9.53977 12.03 9.02977 11.79 8.49977 11.79C7.96977 11.79 7.47977 12.03 7.47977 12.7V13.8C7.47977 13.91 7.44977 13.96 7.32977 13.96H5.92977C5.85977 13.96 5.77977 13.93 5.77977 13.85C5.77977 13.8 5.87977 13.56 5.87977 13.56L8.33977 7.60998C8.40977 7.44998 8.43976 7.30998 8.43976 7.17998C8.43976 6.59998 7.77977 6.24998 7.26977 6.24998C6.95977 6.24998 6.64977 6.40998 6.44977 6.86998L3.60977 13.82C3.39977 14.32 3.25977 14.73 3.25977 15C3.25977 15.56 3.68977 15.85 4.33977 15.85H7.30977C7.42977 15.85 7.45977 15.9 7.45977 15.99V16.61C7.45977 17.27 7.96976 17.51 8.47976 17.51C8.98977 17.51 9.51977 17.27 9.51977 16.61V15.99C9.51977 15.89 9.54977 15.85 9.66977 15.85H9.97976C10.5998 15.85 10.8298 15.39 10.8298 14.91C10.8298 14.43 10.5998 13.97 9.97976 13.97L9.99977 13.96ZM19.6698 10.85H17.2398C16.5698 10.85 16.3198 11.35 16.3198 11.84C16.3198 12.33 16.5698 12.85 17.2398 12.85H18.2898C18.3898 12.85 18.4398 12.88 18.4398 12.99V13.6C18.4398 14.11 18.3898 14.38 18.1798 14.69C17.6698 15.44 16.9198 15.49 16.4698 15.49C16.0198 15.49 15.1898 15.49 14.7598 14.69C14.4298 14.08 14.4298 13.14 14.4298 11.87C14.4298 10.6 14.4498 9.65998 14.7598 9.04998C15.1898 8.21998 16.0698 8.21998 16.5998 8.21998C17.3198 8.21998 17.7298 8.32998 18.4098 8.72998C18.5598 8.82998 18.7198 8.88998 18.9498 8.88998C19.4598 8.88998 19.9998 8.32998 19.9998 7.84998C19.9998 7.41998 19.7498 7.18998 19.4398 6.96998C18.7198 6.43998 17.7598 6.22998 16.5598 6.22998C15.1798 6.22998 14.0598 6.43998 13.1798 7.42998C12.5198 8.16998 12.2098 9.69998 12.2098 11.86C12.2098 14.02 12.5198 15.56 13.1798 16.29C14.0698 17.28 15.0998 17.49 16.4698 17.49C17.8398 17.49 18.8998 17.3 19.7598 16.29C20.3998 15.52 20.5498 14.72 20.5498 13.6V11.68C20.5498 11.15 20.1998 10.83 19.6798 10.83L19.6698 10.85Z" fill="#141414"/>
</svg>
