<svg width="24" height="24" viewBox="0 0 24 24" fill="none" xmlns="http://www.w3.org/2000/svg">
<path d="M4.99991 9.99994H7.99991V10.9999C7.99991 11.5499 8.44991 11.9999 8.99991 11.9999C9.54991 11.9999 9.99991 11.5499 9.99991 10.9999V9.99994C10.5499 9.99994 10.9999 9.54994 10.9999 8.99994C10.9999 8.44994 10.5499 7.99994 9.99991 7.99994V6.99994C9.99991 6.44994 9.54991 5.99994 8.99991 5.99994C8.44991 5.99994 7.99991 6.44994 7.99991 6.99994V7.99994H6.47991L7.92991 4.36994C8.13991 3.85994 7.88991 3.27994 7.36991 3.06994C6.84991 2.85994 6.27991 3.10994 6.06991 3.62994L4.06991 8.62994C3.94991 8.93994 3.97991 9.28994 4.16991 9.55994C4.35991 9.82994 4.66991 9.99994 4.99991 9.99994ZM15.7499 11.9999C17.8199 11.9999 19.4999 10.3199 19.4999 8.24994V7.49994C19.4999 6.94994 19.0499 6.49994 18.4999 6.49994H16.4999C15.9499 6.49994 15.4999 6.94994 15.4999 7.49994C15.4999 8.04994 15.9499 8.49994 16.4999 8.49994H17.4799C17.3599 9.34994 16.6299 9.99994 15.7499 9.99994C14.7899 9.99994 13.9999 9.20994 13.9999 8.24994V6.74994C13.9999 5.78994 14.7899 4.99994 15.7499 4.99994C16.1599 4.99994 16.5499 5.13994 16.8599 5.39994C17.2899 5.74994 17.9199 5.68994 18.2699 5.26994C18.6199 4.83994 18.5599 4.20994 18.1399 3.85994C17.4699 3.30994 16.6199 2.99994 15.7499 2.99994C13.6799 2.99994 11.9999 4.67994 11.9999 6.74994V8.24994C11.9999 10.3199 13.6799 11.9999 15.7499 11.9999ZM7.99991 18.9999H5.99991V13.9999C5.99991 13.4499 5.54991 12.9999 4.99991 12.9999C4.44991 12.9999 3.99991 13.4499 3.99991 13.9999V19.9999C3.99991 20.5499 4.44991 20.9999 4.99991 20.9999H7.99991C8.54991 20.9999 8.99991 20.5499 8.99991 19.9999C8.99991 19.4499 8.54991 18.9999 7.99991 18.9999ZM13.4999 12.9999H8.49991C7.94991 12.9999 7.49991 13.4499 7.49991 13.9999C7.49991 14.5499 7.94991 14.9999 8.49991 14.9999H9.99991V19.9999C9.99991 20.5499 10.4499 20.9999 10.9999 20.9999C11.5499 20.9999 11.9999 20.5499 11.9999 19.9999V14.9999H13.4999C14.0499 14.9999 14.4999 14.5499 14.4999 13.9999C14.4999 13.4499 14.0499 12.9999 13.4999 12.9999ZM18.9999 18.9999H16.9999V17.9999H18.2499C18.7999 17.9999 19.2499 17.5499 19.2499 16.9999C19.2499 16.4499 18.7999 15.9999 18.2499 15.9999H16.9999V14.9999H18.9999C19.5499 14.9999 19.9999 14.5499 19.9999 13.9999C19.9999 13.4499 19.5499 12.9999 18.9999 12.9999H15.9999C15.4499 12.9999 14.9999 13.4499 14.9999 13.9999V19.9999C14.9999 20.5499 15.4499 20.9999 15.9999 20.9999H18.9999C19.5499 20.9999 19.9999 20.5499 19.9999 19.9999C19.9999 19.4499 19.5499 18.9999 18.9999 18.9999Z" fill="#141414"/>
</svg>
