<svg width="24" height="24" viewBox="0 0 24 24" fill="none" xmlns="http://www.w3.org/2000/svg">
<path d="M6.07992 9.88004C5.72992 9.88004 5.38992 9.94004 5.06992 10.1C5.00992 10.13 4.94992 10.18 4.88992 10.18C4.81992 10.18 4.78992 10.14 4.78992 10.08V8.59004C4.78992 8.48004 4.81992 8.46004 4.90992 8.46004H7.40992C7.99992 8.46004 8.22992 8.10004 8.22992 7.63004C8.22992 7.20004 8.00992 6.78004 7.40992 6.78004H3.81992C3.35992 6.78004 3.02992 7.09004 3.02992 7.59004V11.58C3.02992 12.2 3.46992 12.45 4.02992 12.45C4.39992 12.45 4.57992 12.2 4.82992 11.96C5.06992 11.74 5.36992 11.51 5.76992 11.51C6.78992 11.51 6.99992 12.29 6.99992 13.22C6.99992 14.51 6.46992 14.91 5.76992 14.91C5.10992 14.91 4.63992 14.49 4.42992 14.24C4.20992 13.97 4.02992 13.93 3.84992 13.93C3.36992 13.93 2.91992 14.49 2.91992 14.84C2.91992 15.06 3.05992 15.29 3.16992 15.41C3.46992 15.75 4.22992 16.57 5.80992 16.57C7.57992 16.57 8.77992 15.48 8.77992 13.21C8.77992 11.32 8.02992 9.85004 6.06992 9.85004L6.07992 9.88004ZM15.9099 10.78H13.8599C13.2899 10.78 13.0899 11.21 13.0899 11.65C13.0899 12.09 13.2999 12.53 13.8599 12.53H14.7399C14.8199 12.53 14.8599 12.56 14.8599 12.66V13.19C14.8599 13.64 14.8199 13.88 14.6399 14.14C14.2099 14.8 13.5799 14.84 13.1999 14.84C12.8199 14.84 12.1199 14.84 11.7599 14.14C11.4799 13.61 11.4799 12.78 11.4799 11.67C11.4799 10.56 11.4899 9.74004 11.7599 9.21004C12.1199 8.48004 12.8699 8.48004 13.3099 8.48004C13.9199 8.48004 14.2599 8.58004 14.8299 8.93004C14.9499 9.01004 15.0899 9.07004 15.2899 9.07004C15.7199 9.07004 16.1699 8.58004 16.1699 8.16004C16.1699 7.78004 15.9599 7.59004 15.6999 7.39004C15.0899 6.93004 14.2899 6.75004 13.2799 6.75004C12.1199 6.75004 11.1799 6.93004 10.4299 7.80004C9.87992 8.44004 9.60992 9.79004 9.60992 11.68C9.60992 13.57 9.86992 14.92 10.4299 15.56C11.1799 16.43 12.0499 16.61 13.1899 16.61C14.3299 16.61 15.2399 16.44 15.9499 15.56C16.4899 14.89 16.6099 14.19 16.6099 13.21V11.53C16.6099 11.07 16.3199 10.79 15.8799 10.79L15.9099 10.78ZM21.6299 7.84004H20.1999C20.1299 7.84004 20.0899 7.80004 20.0899 7.73004V6.33004C20.0899 5.93004 19.8099 5.79004 19.4999 5.79004C19.1899 5.79004 18.9099 5.93004 18.9099 6.33004V7.73004C18.9099 7.80004 18.8899 7.84004 18.7999 7.84004H17.3599C16.9799 7.84004 16.8399 8.09004 16.8399 8.40004C16.8399 8.71004 16.9799 8.98004 17.3599 8.98004H18.7999C18.8799 8.98004 18.9099 9.00004 18.9099 9.09004V10.55C18.9099 10.93 19.2099 11.08 19.4999 11.08C19.7899 11.08 20.0899 10.94 20.0899 10.55V9.09004C20.0899 9.01004 20.1299 8.98004 20.1999 8.98004H21.6299C22.0199 8.98004 22.1599 8.70004 22.1599 8.40004C22.1599 8.10004 22.0199 7.84004 21.6299 7.84004ZM21.5099 13.92H20.1099C20.0399 13.92 20.0099 13.88 20.0099 13.81V12.41C20.0099 12.01 19.7299 11.87 19.4299 11.87C19.1299 11.87 18.8499 12.01 18.8499 12.41V13.81C18.8499 13.88 18.8299 13.92 18.7499 13.92H17.3399C16.9699 13.92 16.8299 14.17 16.8299 14.48C16.8299 14.79 16.9699 15.06 17.3399 15.06H18.7499C18.8299 15.06 18.8499 15.08 18.8499 15.17V16.63C18.8499 17.01 19.1399 17.16 19.4299 17.16C19.7199 17.16 20.0099 17.02 20.0099 16.63V15.17C20.0099 15.09 20.0499 15.06 20.1099 15.06H21.5099C21.8899 15.06 22.0299 14.78 22.0299 14.48C22.0299 14.18 21.8899 13.92 21.5099 13.92Z" fill="#141414"/>
</svg>
