<svg width="24" height="24" viewBox="0 0 24 24" fill="none" xmlns="http://www.w3.org/2000/svg">
<path d="M7.07021 9.86001C6.68021 9.86001 6.28021 9.92001 5.92021 10.12C5.86021 10.15 5.78021 10.22 5.71021 10.22C5.63021 10.22 5.60021 10.17 5.60021 10.11V8.41001C5.60021 8.28001 5.63021 8.27001 5.74021 8.27001H8.60021C9.28021 8.27001 9.53021 7.85001 9.53021 7.33001C9.53021 6.83001 9.28021 6.35001 8.60021 6.35001H4.49021C3.97021 6.35001 3.59021 6.70001 3.59021 7.28001V11.84C3.59021 12.54 4.10021 12.83 4.73021 12.83C5.16021 12.83 5.36021 12.54 5.65021 12.27C5.92021 12.01 6.27021 11.76 6.72021 11.76C7.89021 11.76 8.13021 12.66 8.13021 13.71C8.13021 15.18 7.53021 15.65 6.72021 15.65C5.96021 15.65 5.42021 15.17 5.19021 14.88C4.94021 14.58 4.73022 14.53 4.53022 14.53C3.98022 14.53 3.47021 15.17 3.47021 15.57C3.47021 15.83 3.63021 16.08 3.75021 16.23C4.10021 16.61 4.97021 17.56 6.77021 17.56C8.79021 17.56 10.1702 16.31 10.1702 13.72C10.1702 11.56 9.32022 9.88001 7.07021 9.88001V9.86001ZM18.8402 10.88H16.5002C15.8502 10.88 15.6202 11.38 15.6202 11.87C15.6202 12.36 15.8602 12.88 16.5002 12.88H17.5102C17.6002 12.88 17.6502 12.91 17.6502 13.02V13.63C17.6502 14.14 17.6002 14.41 17.4002 14.72C16.9102 15.47 16.1802 15.52 15.7602 15.52C15.3402 15.52 14.5302 15.52 14.1202 14.72C13.8002 14.11 13.8002 13.17 13.8002 11.9C13.8002 10.63 13.8202 9.69001 14.1202 9.08001C14.5302 8.25001 15.3802 8.25001 15.8902 8.25001C16.5902 8.25001 16.9802 8.36001 17.6302 8.76001C17.7702 8.86001 17.9302 8.92001 18.1502 8.92001C18.6402 8.92001 19.1602 8.36001 19.1602 7.88001C19.1602 7.45001 18.9202 7.22001 18.6202 7.00001C17.9202 6.47001 17.0102 6.26001 15.8602 6.26001C14.5302 6.26001 13.4602 6.47001 12.6102 7.46001C11.9802 8.20001 11.6802 9.73001 11.6802 11.89C11.6802 14.05 11.9802 15.59 12.6102 16.32C13.4602 17.31 14.4602 17.52 15.7702 17.52C17.0802 17.52 18.1102 17.33 18.9302 16.32C19.5502 15.55 19.6902 14.75 19.6902 13.63V11.71C19.6902 11.18 19.3602 10.86 18.8502 10.86L18.8402 10.88Z" fill="#141414"/>
</svg>
