<svg width="24" height="24" viewBox="0 0 24 24" fill="none" xmlns="http://www.w3.org/2000/svg">
<path d="M5.07992 9.88C4.72992 9.88 4.38992 9.94 4.06992 10.1C4.01992 10.13 3.94992 10.18 3.88992 10.18C3.81992 10.18 3.78992 10.14 3.78992 10.08V8.59C3.78992 8.48 3.81992 8.46 3.90992 8.46H6.40992C6.99992 8.46 7.22992 8.1 7.22992 7.63C7.22992 7.2 7.00992 6.78 6.40992 6.78H2.81992C2.35992 6.78 2.02992 7.09 2.02992 7.59V11.58C2.02992 12.2 2.46992 12.45 3.02992 12.45C3.39992 12.45 3.57992 12.2 3.82992 11.96C4.05992 11.74 4.36992 11.51 4.76992 11.51C5.78992 11.51 5.99992 12.29 5.99992 13.22C5.99992 14.51 5.46992 14.91 4.76992 14.91C4.10992 14.91 3.63992 14.49 3.42992 14.24C3.20992 13.97 3.02992 13.93 2.84992 13.93C2.36992 13.93 1.91992 14.49 1.91992 14.84C1.91992 15.06 2.05992 15.29 2.16992 15.41C2.46992 15.75 3.22992 16.57 4.80992 16.57C6.57992 16.57 7.77992 15.48 7.77992 13.21C7.77992 11.32 7.02992 9.85 5.06992 9.85L5.07992 9.88ZM14.9099 10.78H12.8599C12.2899 10.78 12.0899 11.21 12.0899 11.65C12.0899 12.09 12.2999 12.53 12.8599 12.53H13.7399C13.8199 12.53 13.8599 12.56 13.8599 12.66V13.19C13.8599 13.64 13.8199 13.88 13.6399 14.14C13.2099 14.8 12.5799 14.84 12.1999 14.84C11.8199 14.84 11.1199 14.84 10.7599 14.14C10.4799 13.61 10.4799 12.78 10.4799 11.67C10.4799 10.56 10.4899 9.74 10.7599 9.21C11.1199 8.48 11.8699 8.48 12.3099 8.48C12.9199 8.48 13.2599 8.58 13.8299 8.93C13.9499 9.01 14.0899 9.07 14.2899 9.07C14.7199 9.07 15.1699 8.58 15.1699 8.16C15.1699 7.78 14.9599 7.59 14.6999 7.39C14.0899 6.93 13.2899 6.75 12.2799 6.75C11.1199 6.75 10.1799 6.93 9.42992 7.8C8.87992 8.44 8.60992 9.79 8.60992 11.68C8.60992 13.57 8.86992 14.92 9.42992 15.56C10.1799 16.43 11.0499 16.61 12.1899 16.61C13.3299 16.61 14.2399 16.44 14.9499 15.56C15.4899 14.89 15.6099 14.19 15.6099 13.21V11.53C15.6099 11.07 15.3199 10.79 14.8799 10.79L14.9099 10.78ZM21.2599 11.62H19.8299C19.7599 11.62 19.7199 11.58 19.7199 11.51V10.11C19.7199 9.71 19.4399 9.57 19.1299 9.57C18.8199 9.57 18.5399 9.71 18.5399 10.11V11.51C18.5399 11.58 18.5199 11.62 18.4299 11.62H16.9899C16.6099 11.62 16.4699 11.87 16.4699 12.18C16.4699 12.49 16.6099 12.76 16.9899 12.76H18.4299C18.5099 12.76 18.5399 12.78 18.5399 12.87V14.33C18.5399 14.71 18.8399 14.86 19.1299 14.86C19.4199 14.86 19.7199 14.72 19.7199 14.33V12.87C19.7199 12.79 19.7599 12.76 19.8299 12.76H21.2599C21.6499 12.76 21.7899 12.48 21.7899 12.18C21.7899 11.88 21.6499 11.62 21.2599 11.62Z" fill="#141414"/>
</svg>
