<svg width="24" height="24" viewBox="0 0 24 24" fill="none" xmlns="http://www.w3.org/2000/svg">
<path d="M8.32 12.77C7.85 12.77 7.55 13.03 7.55 13.56C7.55 13.98 7.81 14.35 8.32 14.35C8.83 14.35 9.09 13.98 9.09 13.56C9.09 13.03 8.79 12.77 8.32 12.77ZM8.32 11.16C8.75 11.16 9.02 10.91 9.02 10.41C9.02 10 8.78 9.65 8.32 9.65C7.86 9.65 7.62 10 7.62 10.41C7.62 10.91 7.88 11.16 8.32 11.16ZM19 4H5C3.34 4 2 5.34 2 7V17C2 18.66 3.34 20 5 20H19C20.66 20 22 18.66 22 17V7C22 5.34 20.66 4 19 4ZM8.32 16.22C6.69 16.22 5.55 15.26 5.55 13.77C5.55 13.01 5.77 12.46 6.35 11.97C6.4 11.95 6.41 11.91 6.41 11.87C6.41 11.83 6.4 11.81 6.36 11.77C6.07 11.46 5.8 10.83 5.8 10.14C5.8 8.68 6.87 7.76 8.32 7.76C9.77 7.76 10.84 8.67 10.84 10.14C10.84 10.84 10.56 11.46 10.28 11.77C10.24 11.81 10.23 11.83 10.23 11.87C10.23 11.91 10.24 11.94 10.29 11.97C10.88 12.46 11.09 13.01 11.09 13.77C11.09 15.26 9.95 16.22 8.32 16.22ZM17.35 16.22C17.09 16.22 16.82 16.09 16.59 15.73L14.95 13.11C14.91 13.05 14.89 13.03 14.84 13.03C14.8 13.03 14.78 13.05 14.76 13.08L14.38 13.55C14.31 13.65 14.3 13.79 14.3 13.91V15.37C14.3 16.05 13.75 16.22 13.27 16.22C12.79 16.22 12.26 16.05 12.26 15.37V8.63C12.26 7.95 12.81 7.78 13.27 7.78C13.75 7.78 14.3 7.95 14.3 8.63V10.36C14.3 10.44 14.32 10.49 14.38 10.49C14.42 10.49 14.44 10.47 14.45 10.45L16.2 8.18C16.43 7.88 16.68 7.77 16.92 7.77C17.39 7.77 18.01 8.24 18.01 8.77C18.01 8.95 17.94 9.15 17.77 9.37L16.23 11.3C16.23 11.3 16.17 11.37 16.17 11.41C16.17 11.45 16.21 11.51 16.23 11.54L18.26 14.69C18.39 14.89 18.44 15.07 18.44 15.24C18.44 15.76 17.83 16.21 17.35 16.21V16.22Z" fill="#141414"/>
</svg>
