<svg width="24" height="24" viewBox="0 0 24 24" fill="none" xmlns="http://www.w3.org/2000/svg">
<path fill-rule="evenodd" clip-rule="evenodd" d="M20.11 6.16009L15.5 8.82009C14.83 9.20009 14.83 10.1701 15.5 10.5501L21.76 14.1601C21.91 13.4601 22 12.7401 22 11.9901C22 9.81009 21.29 7.80009 20.11 6.15009V6.16009ZM12.5 8.24009L18.76 4.63009C18.23 4.15009 17.65 3.71009 17 3.34009C15.11 2.25009 13.02 1.86009 11 2.06009V7.38009C11 8.15009 11.83 8.63009 12.5 8.25009V8.24009ZM9 9.68009V2.47009C8.32 2.69009 7.65 2.97009 7 3.34009C5.11 4.43009 3.72 6.05009 2.89 7.90009L7.5 10.5601C8.17 10.9401 9 10.4601 9 9.69009V9.68009ZM8.5 13.4301L2.24 9.82009C2.09 10.5201 2 11.2401 2 11.9901C2 14.1701 2.71 16.1801 3.89 17.8301L8.5 15.1701C9.17 14.7901 9.17 13.8201 8.5 13.4401V13.4301ZM11.5 15.7401L5.24 19.3501C5.77 19.8301 6.35 20.2701 7 20.6401C8.89 21.7301 10.98 22.1201 13 21.9201V16.6001C13 15.8301 12.17 15.3501 11.5 15.7301V15.7401ZM15 14.3001V21.5301C15.68 21.3101 16.35 21.0301 17 20.6601C18.89 19.5701 20.28 17.9501 21.11 16.1001L16.5 13.4401C15.83 13.0601 15 13.5401 15 14.3101V14.3001Z" fill="#141414"/>
</svg>
