<svg width="24" height="24" viewBox="0 0 24 24" fill="none" xmlns="http://www.w3.org/2000/svg">
<path fill-rule="evenodd" clip-rule="evenodd" d="M12 3C10.9 3 10 3.9 10 5C10 6.1 10.9 7 12 7C13.1 7 14 6.1 14 5C14 3.9 13.1 3 12 3ZM19 7C20.1 7 21 6.1 21 5C21 3.9 20.1 3 19 3C17.9 3 17 3.9 17 5C17 6.1 17.9 7 19 7ZM5 3C3.9 3 3 3.9 3 5C3 6.1 3.9 7 5 7C6.1 7 7 6.1 7 5C7 3.9 6.1 3 5 3ZM12 10C10.9 10 10 10.9 10 12C10 13.1 10.9 14 12 14C13.1 14 14 13.1 14 12C14 10.9 13.1 10 12 10ZM19 10C17.9 10 17 10.9 17 12C17 13.1 17.9 14 19 14C20.1 14 21 13.1 21 12C21 10.9 20.1 10 19 10ZM5 10C3.9 10 3 10.9 3 12C3 13.1 3.9 14 5 14C6.1 14 7 13.1 7 12C7 10.9 6.1 10 5 10ZM12 17C10.9 17 10 17.9 10 19C10 20.1 10.9 21 12 21C13.1 21 14 20.1 14 19C14 17.9 13.1 17 12 17ZM19 17C17.9 17 17 17.9 17 19C17 20.1 17.9 21 19 21C20.1 21 21 20.1 21 19C21 17.9 20.1 17 19 17ZM5 17C3.9 17 3 17.9 3 19C3 20.1 3.9 21 5 21C6.1 21 7 20.1 7 19C7 17.9 6.1 17 5 17Z" fill="#141414"/>
</svg>
