<svg width="24" height="24" viewBox="0 0 24 24" fill="none" xmlns="http://www.w3.org/2000/svg">
<path d="M13.56 8.99998H6.45001C5.65001 8.99998 5.01001 9.57998 5.01001 10.3V19.7C5.01001 20.42 5.66001 21 6.45001 21H13.56C14.36 21 15 20.42 15 19.7V10.3C15 9.57998 14.35 8.99998 13.56 8.99998ZM10 16.5C9.17001 16.5 8.50001 15.83 8.50001 15C8.50001 14.17 9.17001 13.5 10 13.5C10.83 13.5 11.5 14.17 11.5 15C11.5 15.83 10.83 16.5 10 16.5Z" fill="#141414"/>
<path d="M14.9 1.97998C14.35 1.97998 13.9 2.42998 13.9 2.97998C13.9 3.52998 14.35 3.97998 14.9 3.97998C17.69 3.97998 19.96 6.24998 19.96 9.03998C19.96 9.58998 20.41 10.04 20.96 10.04C21.51 10.04 21.96 9.58998 21.96 9.03998C21.96 5.13998 18.79 1.97998 14.9 1.97998Z" fill="#141414"/>
<path d="M14.5 5.03998C13.95 5.03998 13.5 5.48998 13.5 6.03998C13.5 6.58998 13.95 7.03998 14.5 7.03998C15.88 7.03998 17 8.15998 17 9.53998C17 10.09 17.45 10.54 18 10.54C18.55 10.54 19 10.09 19 9.53998C19 7.05998 16.98 5.03998 14.5 5.03998Z" fill="#141414"/>
</svg>
