<svg width="24" height="24" viewBox="0 0 24 24" fill="none" xmlns="http://www.w3.org/2000/svg">
<path fill-rule="evenodd" clip-rule="evenodd" d="M7.33983 10.53C7.29983 10.42 7.29983 10.33 7.24983 10.33C7.19982 10.33 7.18983 10.41 7.15982 10.53L6.76983 11.92C6.76983 11.92 6.76983 11.94 6.76983 11.96C6.76983 11.99 6.78983 12.01 6.81983 12.01H7.69982C7.69982 12.01 7.74983 11.99 7.74983 11.96C7.74983 11.95 7.74983 11.92 7.74983 11.92L7.35983 10.53H7.33983Z" fill="#141414"/>
<path fill-rule="evenodd" clip-rule="evenodd" d="M7.50983 5.04002C6.33983 5.00002 4.98983 5.32002 3.57983 5.94002C3.21983 6.10002 2.98983 6.46002 2.99983 6.85002V17.98C2.99983 18.15 3.07983 18.31 3.22983 18.4C3.36983 18.49 3.54983 18.51 3.70983 18.44C7.66983 16.6 10.5798 18.78 10.7098 18.88C10.7998 18.95 10.8998 18.98 11.0098 18.98C11.2798 18.98 11.5098 18.76 11.5098 18.48V6.53002C11.5098 6.37002 11.4298 6.21002 11.2898 6.12002C10.1598 5.41002 8.84983 5.04002 7.50983 5.03002V5.04002ZM8.68982 13.97C8.47982 13.97 8.25983 13.87 8.16983 13.58L8.03982 13.15C8.01982 13.09 7.97983 13.07 7.93983 13.07H6.56983C6.56983 13.07 6.48983 13.1 6.46983 13.15L6.33983 13.58C6.24983 13.87 6.02983 13.97 5.81983 13.97C5.52983 13.97 5.19983 13.8 5.19983 13.45C5.19983 13.38 5.20983 13.3 5.23983 13.21L6.44983 9.67002C6.63983 9.12002 6.98983 9.03002 7.25983 9.03002C7.52983 9.03002 7.87983 9.12002 8.05983 9.67002L9.26983 13.21C9.29983 13.3 9.30983 13.38 9.30983 13.45C9.30983 13.78 9.00982 13.97 8.68982 13.97Z" fill="#141414"/>
<path fill-rule="evenodd" clip-rule="evenodd" d="M20.4198 5.93002C19.1898 5.36002 17.8498 5.05002 16.4998 5.02002C15.1698 5.03002 13.8598 5.41002 12.7298 6.11002C12.5898 6.20002 12.5098 6.35002 12.5098 6.52002V18.45C12.5098 18.59 12.5598 18.72 12.6498 18.82C12.7398 18.92 12.8698 18.98 13.0098 18.98C13.1198 18.98 13.2298 18.95 13.3098 18.88C13.4398 18.79 16.3498 16.61 20.2998 18.45C20.4498 18.52 20.6298 18.5 20.7698 18.41C20.9098 18.32 20.9998 18.16 20.9998 17.99V6.85002C20.9798 6.46002 20.7598 6.11002 20.4198 5.94002V5.93002ZM18.1998 13.92H15.5898C15.1298 13.92 15.0698 13.58 15.0698 13.42C15.0698 13.26 15.1298 13.1 15.2298 12.95L16.9098 10.28C16.9098 10.28 16.9298 10.24 16.9298 10.22C16.9298 10.18 16.8898 10.18 16.8798 10.18H15.7298C15.3398 10.18 15.2198 9.91002 15.2198 9.62002C15.2198 9.33002 15.3398 9.05002 15.7298 9.05002H18.0698C18.4398 9.05002 18.6098 9.32002 18.6098 9.61002C18.6098 9.73002 18.5798 9.85002 18.5098 9.95002L16.7298 12.7C16.7298 12.7 16.7098 12.74 16.7098 12.75C16.7098 12.78 16.7198 12.8 16.7598 12.8H18.1998C18.5898 12.8 18.7098 13.07 18.7098 13.37C18.7098 13.67 18.5898 13.93 18.1998 13.93V13.92Z" fill="#141414"/>
</svg>
