<svg width="24" height="24" viewBox="0 0 24 24" fill="none" xmlns="http://www.w3.org/2000/svg">
<path d="M20.94 3.42002C20.24 2.81002 19.27 2.64002 18.4 2.97002L14.68 4.40002C13.83 4.14002 12.93 3.99002 12 3.99002C11.07 3.99002 10.17 4.13002 9.32004 4.40002L5.60004 2.97002C4.73004 2.64002 3.76004 2.81002 3.06004 3.42002C2.36004 4.03002 2.06004 4.97002 2.26004 5.87002L3.34004 10.56C3.12004 11.34 2.99004 12.16 2.99004 13C2.99004 17.97 7.02004 22 11.99 22C16.96 22 20.99 17.97 20.99 13C20.99 12.15 20.86 11.33 20.64 10.56L21.72 5.87002C21.93 4.97002 21.62 4.03002 20.92 3.42002H20.94ZM4.72004 7.62002L4.21004 5.42002C4.15004 5.16002 4.30004 4.99002 4.37004 4.93002C4.42004 4.89002 4.54004 4.81002 4.69004 4.81002C4.75004 4.81002 4.81004 4.82002 4.87004 4.85002L6.87004 5.62002C6.13004 6.14002 5.47004 6.76002 4.91004 7.48002L4.72004 7.64002V7.62002ZM9.27004 11.74C9.16004 11.22 8.61004 10.83 8.00004 10.83C7.39004 10.83 6.85004 11.22 6.73004 11.74C6.64004 12.14 6.24004 12.4 5.84004 12.31C5.44004 12.22 5.18004 11.82 5.27004 11.42C5.53004 10.21 6.68004 9.33002 8.00004 9.33002C9.32004 9.33002 10.47 10.21 10.73 11.42C10.82 11.83 10.56 12.22 10.16 12.31C10.11 12.32 10.05 12.33 10 12.33C9.66004 12.33 9.34004 12.09 9.27004 11.74ZM14.05 17.27L12.88 19.92C12.54 20.68 11.46 20.68 11.13 19.92L9.96004 17.27C9.76004 16.81 9.92004 16.27 10.35 16.01L11.79 15.12L10.88 13.96C10.57 13.56 10.86 13 11.38 13H12.63C13.14 13 13.44 13.56 13.13 13.96L12.22 15.12L13.66 16.01C14.09 16.27 14.25 16.81 14.05 17.27ZM18.16 12.31C18.11 12.32 18.05 12.33 18 12.33C17.66 12.33 17.34 12.09 17.27 11.74C17.16 11.22 16.61 10.83 16 10.83C15.39 10.83 14.85 11.22 14.73 11.74C14.64 12.14 14.24 12.4 13.84 12.31C13.44 12.22 13.18 11.82 13.27 11.42C13.53 10.21 14.68 9.33002 16 9.33002C17.32 9.33002 18.47 10.21 18.73 11.42C18.82 11.83 18.56 12.22 18.16 12.31ZM17.13 5.60002L19.13 4.83002C19.38 4.73002 19.57 4.86002 19.64 4.92002C19.71 4.98002 19.86 5.15002 19.8 5.41002L19.29 7.61002L19.1 7.45002C18.54 6.74002 17.88 6.11002 17.14 5.59002L17.13 5.60002Z" fill="#141414"/>
</svg>
