<svg width="31" height="24" viewBox="0 0 31 24" fill="none" xmlns="http://www.w3.org/2000/svg">
<path d="M7.61796 15H17.7753C19.8702 15 21.5843 13.65 21.5843 12C21.5843 10.35 19.8702 9 17.7753 9H7.61796C6.91964 9 6.34829 8.55 6.34829 8C6.34829 7.45 6.91964 7 7.61796 7H13.9663C15.3629 7 16.5056 6.1 16.5056 5V4C16.5056 3.45 15.9343 3 15.236 3C14.5376 3 13.9663 3.45 13.9663 4V5H7.61796C5.52301 5 3.80896 6.35 3.80896 8C3.80896 9.65 5.52301 11 7.61796 11H17.7753C18.4736 11 19.045 11.45 19.045 12C19.045 12.55 18.4736 13 17.7753 13H7.61796C5.52301 13 3.80896 14.35 3.80896 16C3.80896 17.65 5.52301 19 7.61796 19H16.5056V20C16.5056 20.55 17.077 21 17.7753 21C18.4736 21 19.045 20.55 19.045 20V19C19.045 17.9 17.9023 17 16.5056 17H7.61796C6.91964 17 6.34829 16.55 6.34829 16C6.34829 15.45 6.91964 15 7.61796 15ZM22.854 10C23.1841 10 23.5015 9.9 23.7554 9.71L25.0251 8.71C25.5203 8.32 25.5203 7.69 25.0251 7.3C24.5299 6.91 23.73 6.91 23.2349 7.3L21.9652 8.3C21.47 8.69 21.47 9.32 21.9652 9.71C22.2191 9.91 22.5365 10 22.8667 10H22.854ZM23.7554 14.29C23.2603 13.9 22.4604 13.9 21.9652 14.29C21.47 14.68 21.47 15.31 21.9652 15.7L23.2349 16.7C23.4888 16.9 23.8062 16.99 24.1363 16.99C24.4664 16.99 24.7839 16.89 25.0378 16.7C25.533 16.31 25.533 15.68 25.0378 15.29L23.7681 14.29H23.7554ZM26.663 11H25.3933C24.695 11 24.1236 11.45 24.1236 12C24.1236 12.55 24.695 13 25.3933 13H26.663C27.3613 13 27.9326 12.55 27.9326 12C27.9326 11.45 27.3613 11 26.663 11Z" fill="#141414"/>
</svg>
