<svg width="24" height="24" viewBox="0 0 24 24" fill="none" xmlns="http://www.w3.org/2000/svg">
<path d="M8.45001 12H10.05L9.25001 10.22L8.45001 12ZM14.38 9.5H14V13.5H14.38C15.08 13.5 15.61 13.33 15.97 12.97C16.41 12.53 16.51 11.93 16.51 11.5C16.51 10.25 15.72 9.5 14.39 9.5H14.38ZM20.47 4.68C20.13 4.31 19.67 4.08 19.17 4.02C16.97 3.79 14.82 3.17 12.83 2.19C12.57 2.06 12.29 2 12.01 2C11.73 2 11.45 2.07 11.19 2.19C9.22001 3.17 7.08001 3.79 4.89001 4.02C4.39001 4.06 3.92001 4.29 3.57001 4.66C3.22001 5.03 3.02001 5.51 3.01001 6.02V11.01C3.01001 17.75 9.76001 22 12.01 22C14.26 22 21.01 17.75 21.01 11.01V6.02C21 5.52 20.81 5.05 20.47 4.68ZM11.72 14.46C11.65 14.49 11.58 14.5 11.51 14.5C11.32 14.5 11.14 14.39 11.05 14.21L10.51 13H8.01001L7.47001 14.21C7.36001 14.46 7.06001 14.57 6.81001 14.46C6.56001 14.35 6.45001 14.05 6.56001 13.8L8.81001 8.8C8.97001 8.44 9.56001 8.44 9.72001 8.8L11.97 13.8C12.08 14.05 11.97 14.35 11.72 14.46ZM16.68 13.69C16.14 14.22 15.37 14.5 14.44 14.5H13.51C13.23 14.5 13.01 14.28 13.01 14V9C13.01 8.72 13.23 8.5 13.51 8.5H14.39C16.26 8.5 17.51 9.71 17.51 11.5C17.51 12.39 17.22 13.15 16.68 13.69Z" fill="#141414"/>
</svg>
