<svg width="24" height="24" viewBox="0 0 24 24" fill="none" xmlns="http://www.w3.org/2000/svg">
<path d="M20.12 6.77023C19.56 6.27023 18.79 5.99023 18 5.99023H6C5.2 5.99023 4.44 6.27023 3.88 6.77023C3.32 7.27023 3 7.95023 3 8.66023V19.3302C3 20.0402 3.32 20.7202 3.88 21.2202C4.44 21.7202 5.21 22.0002 6 22.0002H18C18.8 22.0002 19.56 21.7202 20.12 21.2202C20.68 20.7202 21 20.0402 21 19.3302V8.66023C21 7.95023 20.68 7.27023 20.12 6.77023ZM19 15.0802L16.21 12.2802C16.12 12.1902 16.01 12.1102 15.88 12.0602C15.76 12.0102 15.63 11.9802 15.5 11.9802C15.37 11.9802 15.24 12.0102 15.12 12.0602C15 12.1102 14.89 12.1902 14.79 12.2802L10.5 16.5802L9.21 15.2802C9.12 15.1902 9.01 15.1102 8.88 15.0602C8.76 15.0102 8.63 14.9802 8.5 14.9802C8.37 14.9802 8.24 15.0102 8.12 15.0602C8 15.1102 7.89 15.1902 7.79 15.2802L5 18.0802V8.99023C5 8.72023 5.11 8.47023 5.29 8.28023C5.47 8.09023 5.73 7.99023 6 7.99023H18C18.27 7.99023 18.52 8.10023 18.71 8.28023C18.9 8.46023 19 8.72023 19 8.99023V15.0802Z" fill="#141414"/>
<path d="M8.5 10.0002C8.2 10.0002 7.91 10.0902 7.67 10.2502C7.43 10.4102 7.23 10.6502 7.12 10.9202C7.01 11.1902 6.98 11.5002 7.03 11.7902C7.08 12.0802 7.23 12.3502 7.44 12.5602C7.65 12.7702 7.92 12.9102 8.21 12.9702C8.5 13.0302 8.8 13.0002 9.08 12.8802C9.35 12.7702 9.59 12.5702 9.75 12.3302C9.92 12.0802 10 11.7902 10 11.5002C10 11.1002 9.84 10.7202 9.56 10.4402C9.28 10.1602 8.9 10.0002 8.5 10.0002Z" fill="#141414"/>
<path d="M6 4.99023H18C18.55 4.99023 19 4.54023 19 3.99023C19 3.44023 18.55 2.99023 18 2.99023H6C5.45 2.99023 5 3.44023 5 3.99023C5 4.54023 5.45 4.99023 6 4.99023Z" fill="#141414"/>
</svg>
