<svg width="24" height="24" viewBox="0 0 24 24" fill="none" xmlns="http://www.w3.org/2000/svg">
<path d="M20.46 4.68C20.12 4.31 19.66 4.08 19.16 4.02C16.96 3.79 14.81 3.17 12.82 2.19C12.56 2.06 12.28 2 12 2C11.72 2 11.44 2.07 11.18 2.19C9.21 3.17 7.07 3.79 4.88 4.02C4.38 4.06 3.91 4.29 3.56 4.66C3.21 5.03 3.01 5.51 3 6.02V11.01C3 17.75 9.75 22 12 22C14.25 22 21 17.75 21 11.01V6.02C20.99 5.52 20.8 5.05 20.46 4.68ZM15.54 14.12C15.93 14.51 15.93 15.14 15.54 15.53C15.15 15.92 14.52 15.92 14.13 15.53L12.01 13.41L9.89 15.53C9.5 15.92 8.87 15.92 8.48 15.53C8.09 15.14 8.09 14.51 8.48 14.12L10.6 12L8.48 9.88C8.09 9.49 8.09 8.86 8.48 8.47C8.87 8.08 9.5 8.08 9.89 8.47L12.01 10.59L14.13 8.47C14.52 8.08 15.15 8.08 15.54 8.47C15.93 8.86 15.93 9.49 15.54 9.88L13.42 12L15.54 14.12Z" fill="#141414"/>
</svg>
