<svg width="24" height="24" viewBox="0 0 24 24" fill="none" xmlns="http://www.w3.org/2000/svg">
<path d="M14.6198 14.45C14.4698 14.36 14.2998 14.29 14.1198 14.22C13.7398 14.08 13.2398 13.95 12.7498 13.81C12.2598 13.68 11.7498 13.55 11.3598 13.44C11.1598 13.39 10.9998 13.33 10.8798 13.29L10.7698 13.24C10.7698 13.24 10.7398 13.17 10.7198 13.13C10.6798 13.01 10.6198 12.85 10.5698 12.65C10.4598 12.26 10.3298 11.75 10.1998 11.26C10.0698 10.77 9.93976 10.27 9.79977 9.89C9.71977 9.69 9.65976 9.53 9.56976 9.39C9.52976 9.31 9.46977 9.25 9.38977 9.17C9.30977 9.1 9.17977 9.02 9.00977 9.02C8.83977 9.02 8.69976 9.1 8.62976 9.17C8.54976 9.24 8.49976 9.31 8.44976 9.39C8.35976 9.54 8.28977 9.71 8.21977 9.89C8.07977 10.27 7.94977 10.77 7.79977 11.26C7.66976 11.75 7.53977 12.26 7.42977 12.65C7.37977 12.85 7.31977 13.01 7.27977 13.13L7.22977 13.24L7.11976 13.29C6.99977 13.33 6.83977 13.39 6.63977 13.44C6.24977 13.55 5.74977 13.68 5.24977 13.81C4.75977 13.94 4.26977 14.07 3.87977 14.22C3.67977 14.3 3.51977 14.36 3.37977 14.45C3.29977 14.49 3.23977 14.55 3.15977 14.63C3.08977 14.71 3.00977 14.84 3.00977 15.01C3.00977 15.18 3.09977 15.32 3.15977 15.39C3.22977 15.47 3.29977 15.52 3.37977 15.57C3.52977 15.66 3.69977 15.73 3.87977 15.8C4.25977 15.94 4.75977 16.07 5.24977 16.21C5.73977 16.34 6.24977 16.47 6.63977 16.58C6.83977 16.63 6.99977 16.69 7.11976 16.73C7.15977 16.75 7.19977 16.76 7.22977 16.78C7.23977 16.8 7.25977 16.85 7.27977 16.89C7.31977 17.01 7.37977 17.17 7.42977 17.37C7.53977 17.76 7.66976 18.26 7.79977 18.76C7.92977 19.25 8.05977 19.75 8.21977 20.13C8.29977 20.33 8.35976 20.49 8.44976 20.63C8.48976 20.71 8.54976 20.77 8.62976 20.85C8.70976 20.92 8.83977 21 9.00977 21C9.17977 21 9.31977 20.91 9.38977 20.85C9.46977 20.78 9.51976 20.71 9.56976 20.63C9.65976 20.48 9.72977 20.31 9.79977 20.13C9.93976 19.75 10.0698 19.25 10.1998 18.76C10.3298 18.27 10.4598 17.76 10.5698 17.37C10.6198 17.17 10.6798 17.01 10.7198 16.89L10.7698 16.78L10.8798 16.73C10.9998 16.69 11.1598 16.63 11.3598 16.58C11.7498 16.47 12.2498 16.34 12.7498 16.21C13.2398 16.08 13.7298 15.95 14.1198 15.8C14.3198 15.72 14.4798 15.66 14.6198 15.57C14.6998 15.53 14.7598 15.47 14.8398 15.39C14.9098 15.31 14.9898 15.18 14.9898 15.01C14.9898 14.84 14.8998 14.7 14.8398 14.63C14.7698 14.55 14.6998 14.5 14.6198 14.45Z" fill="#141414"/>
<path d="M20.8698 7.16C20.8098 7.09 20.7498 7.05 20.6898 7.01C20.5698 6.93 20.4398 6.89 20.2998 6.83C20.0098 6.72 19.6498 6.62 19.2798 6.53C18.9098 6.43 18.5398 6.34 18.2598 6.26C18.1098 6.22 17.9998 6.18 17.9098 6.15L17.8698 6.13L17.8498 6.09C17.8198 6.01 17.7798 5.89 17.7398 5.74C17.6598 5.46 17.5598 5.09 17.4698 4.72C17.3698 4.35 17.2698 3.99 17.1698 3.7C17.1098 3.55 17.0698 3.43 16.9898 3.31C16.9598 3.25 16.9098 3.19 16.8398 3.13C16.7698 3.07 16.6598 3 16.4998 3C16.3398 3 16.2298 3.07 16.1598 3.13C16.0898 3.2 16.0498 3.25 16.0098 3.31C15.9298 3.43 15.8898 3.56 15.8298 3.7C15.7198 3.99 15.6298 4.35 15.5298 4.72C15.4298 5.09 15.3398 5.46 15.2598 5.74C15.2198 5.89 15.1798 6.01 15.1498 6.09L15.1298 6.13L15.0898 6.15C15.0098 6.18 14.8898 6.22 14.7398 6.26C14.4598 6.34 14.0898 6.44 13.7198 6.53C13.3498 6.63 12.9898 6.73 12.6998 6.83C12.5498 6.89 12.4298 6.93 12.3098 7.01C12.2498 7.04 12.1898 7.09 12.1298 7.16C12.0698 7.23 11.9998 7.34 11.9998 7.5C11.9998 7.66 12.0798 7.77 12.1298 7.84C12.1898 7.91 12.2498 7.95 12.3098 7.99C12.4298 8.07 12.5598 8.11 12.6998 8.17C12.9898 8.28 13.3498 8.38 13.7198 8.47C14.0898 8.57 14.4598 8.66 14.7398 8.74C14.8898 8.78 14.9998 8.82 15.0898 8.85L15.1298 8.87L15.1498 8.91C15.1798 8.99 15.2198 9.11 15.2598 9.26C15.3398 9.54 15.4398 9.91 15.5298 10.28C15.6298 10.65 15.7298 11.01 15.8298 11.3C15.8898 11.45 15.9398 11.57 16.0098 11.69C16.0398 11.75 16.0898 11.81 16.1598 11.87C16.2298 11.93 16.3398 12 16.4998 12C16.6598 12 16.7698 11.92 16.8398 11.87C16.9098 11.81 16.9498 11.75 16.9898 11.69C17.0698 11.57 17.1098 11.44 17.1698 11.3C17.2798 11.01 17.3698 10.65 17.4698 10.28C17.5698 9.91 17.6598 9.54 17.7398 9.26C17.7798 9.11 17.8198 8.99 17.8498 8.91L17.8698 8.87L17.9098 8.85C17.9898 8.82 18.1098 8.78 18.2598 8.74C18.5398 8.66 18.9098 8.56 19.2798 8.47C19.6498 8.37 20.0098 8.27 20.2998 8.17C20.4498 8.11 20.5698 8.07 20.6898 7.99C20.7498 7.96 20.8098 7.91 20.8698 7.84C20.9298 7.77 20.9998 7.66 20.9998 7.5C20.9998 7.34 20.9198 7.23 20.8698 7.16Z" fill="#141414"/>
</svg>
