<svg width="24" height="24" viewBox="0 0 24 24" fill="none" xmlns="http://www.w3.org/2000/svg">
<path d="M12 2C6.48 2 2 6.48 2 12C2 17.52 6.48 22 12 22C17.52 22 22 17.52 22 12C22 6.48 17.52 2 12 2ZM12 5C12.83 5 13.5 5.67 13.5 6.5C13.5 7.33 12.83 8 12 8C11.17 8 10.5 7.33 10.5 6.5C10.5 5.67 11.17 5 12 5ZM17.24 9.97L13.5 10.91V12.77L15.89 17.56C16.14 18.05 15.94 18.65 15.44 18.9C15.3 18.97 15.14 19.01 14.99 19.01C14.62 19.01 14.27 18.81 14.09 18.46L11.98 14.25L9.87 18.46C9.69 18.81 9.34 19.01 8.97 19.01C8.82 19.01 8.67 18.98 8.52 18.9C8.03 18.65 7.83 18.05 8.07 17.56L10.46 12.77V10.91L6.72 9.97C6.18 9.84 5.86 9.29 5.99 8.76C6.12 8.22 6.67 7.9 7.2 8.03L11.08 9H12.83L16.71 8.03C17.25 7.9 17.79 8.22 17.92 8.76C18.05 9.3 17.73 9.84 17.19 9.97H17.24Z" fill="#141414"/>
</svg>
