<svg width="24" height="24" viewBox="0 0 24 24" fill="none" xmlns="http://www.w3.org/2000/svg">
<path d="M8.87023 6.06999C8.98023 5.79999 9.01023 5.48999 8.96023 5.19999C8.90023 4.90999 8.76023 4.63999 8.55023 4.42999C8.34023 4.21999 8.07024 4.07999 7.78023 4.01999C7.49023 3.95999 7.19023 3.98999 6.91023 4.10999C6.64023 4.21999 6.40023 4.41999 6.24023 4.65999C6.08023 4.90999 5.99023 5.19999 5.99023 5.48999C5.99023 5.88999 6.15023 6.26999 6.43023 6.54999C6.71023 6.82999 7.09023 6.98999 7.49023 6.98999C7.79023 6.98999 8.08023 6.89999 8.32023 6.73999C8.57023 6.57999 8.76023 6.33999 8.87023 6.06999ZM16.4002 11.2C16.5002 11.2 16.6002 11.16 16.6802 11.08L17.0802 10.68C17.2402 10.52 17.2402 10.27 17.0802 10.11C16.9202 9.94999 16.6702 9.94999 16.5202 10.11L16.1202 10.51C15.9602 10.67 15.9602 10.92 16.1202 11.08C16.2002 11.16 16.3002 11.2 16.4002 11.2ZM16.6902 12.92C16.5302 12.76 16.2802 12.76 16.1302 12.92C15.9702 13.08 15.9702 13.33 16.1302 13.49L16.5302 13.89C16.6102 13.97 16.7102 14.01 16.8102 14.01C16.9102 14.01 17.0102 13.97 17.0902 13.89C17.2502 13.73 17.2502 13.48 17.0902 13.32L16.6902 12.92ZM17.6002 11.6H17.2002C16.9802 11.6 16.8002 11.78 16.8002 12C16.8002 12.22 16.9802 12.4 17.2002 12.4H17.6002C17.8202 12.4 18.0002 12.22 18.0002 12C18.0002 11.78 17.8202 11.6 17.6002 11.6ZM15.9802 8.91999C15.9802 8.85999 15.9802 8.79999 15.9602 8.73999C15.9402 8.67999 15.9102 8.61999 15.8902 8.55999C15.8602 8.49999 15.8402 8.44999 15.8002 8.39999C15.7602 8.34999 15.7202 8.30999 15.6702 8.26999C15.6202 8.21999 15.5702 8.17999 15.5102 8.14999C15.4902 8.13999 15.4802 8.11999 15.4602 8.10999C15.4202 8.08999 15.3702 8.08999 15.3302 8.07999C15.2902 8.06999 15.2502 8.03999 15.2102 8.02999L10.2102 7.02999C10.0802 6.99999 9.95023 6.99999 9.82023 7.02999C9.56023 7.07999 9.33024 7.22999 9.18024 7.44999C9.03024 7.66999 8.98023 7.93999 9.03023 8.19999C9.05023 8.31999 9.10023 8.43999 9.17023 8.54999C9.17023 8.54999 9.17023 8.55999 9.17023 8.56999L11.9202 12.69L9.30024 15.31C9.30024 15.31 9.28024 15.35 9.26024 15.37C9.22024 15.42 9.18023 15.48 9.15023 15.54C9.12023 15.6 9.08024 15.66 9.06024 15.72C9.06024 15.74 9.04023 15.76 9.03023 15.78L8.03023 19.78C7.90023 20.32 8.22023 20.86 8.76023 20.99C8.84023 21.01 8.92023 21.02 9.00023 21.02C9.45023 21.02 9.86024 20.72 9.97024 20.26L10.9002 16.53L12.7102 14.72L12.0502 16.7C12.0502 16.7 12.0502 16.78 12.0402 16.81C12.0302 16.88 12.0202 16.94 12.0202 17.01C12.0202 17.08 12.0302 17.15 12.0402 17.21C12.0402 17.25 12.0402 17.29 12.0502 17.32L13.0502 20.32C13.1902 20.74 13.5802 21 14.0002 21C14.1002 21 14.2102 20.98 14.3202 20.95C14.8402 20.78 15.1302 20.21 14.9502 19.69L14.0602 17.01L14.9502 14.33C14.9502 14.33 14.9502 14.29 14.9502 14.27C14.9702 14.2 14.9702 14.13 14.9802 14.06C14.9802 14 14.9802 13.94 14.9802 13.88C14.9802 13.82 14.9502 13.76 14.9302 13.7C14.9102 13.63 14.8902 13.57 14.8502 13.51C14.8402 13.49 14.8402 13.47 14.8302 13.45L14.2902 12.65L15.8902 9.44999C15.8902 9.44999 15.9002 9.37999 15.9202 9.34999C15.9402 9.29999 15.9702 9.24999 15.9802 9.19999C15.9802 9.17999 15.9802 9.15999 15.9802 9.12999C15.9802 9.05999 15.9802 8.98999 15.9802 8.91999ZM13.0202 10.72L12.1702 9.44999L13.5202 9.71999L13.0202 10.72Z" fill="#141414"/>
</svg>
