<svg width="24" height="24" viewBox="0 0 24 24" fill="none" xmlns="http://www.w3.org/2000/svg">
<path d="M14 8C14.55 8 15 8.45 15 9C15 9.55 14.55 10 14 10H9C8.45 10 8 10.45 8 11C8 11.55 8.45 12 9 12H14C15.65 12 17 10.65 17 9C17 7.35 15.65 6 14 6C13.45 6 13 6.45 13 7C13 7.55 13.45 8 14 8ZM16 16H6C5.45 16 5 16.45 5 17C5 17.55 5.45 18 6 18H16C16.55 18 17 18.45 17 19C17 19.55 16.55 20 16 20C15.45 20 15 20.45 15 21C15 21.55 15.45 22 16 22C17.65 22 19 20.65 19 19C19 17.35 17.65 16 16 16ZM19 9C18.45 9 18 9.45 18 10C18 10.55 18.45 11 19 11C19.55 11 20 11.45 20 12C20 12.55 19.55 13 19 13H3C2.45 13 2 13.45 2 14C2 14.55 2.45 15 3 15H19C20.65 15 22 13.65 22 12C22 10.35 20.65 9 19 9ZM3 10C3 10.55 3.45 11 4 11C4.55 11 5 10.55 5 10C5 9.45 4.55 9 4 9C3.45 9 3 9.45 3 10ZM3.5 6.5C4.33 6.5 5 5.83 5 5C5 4.17 4.33 3.5 3.5 3.5C2.67 3.5 2 4.17 2 5C2 5.83 2.67 6.5 3.5 6.5ZM8 8C8.83 8 9.5 7.33 9.5 6.5C9.5 5.67 8.83 5 8 5C7.17 5 6.5 5.67 6.5 6.5C6.5 7.33 7.17 8 8 8ZM11 4.5C11.55 4.5 12 4.05 12 3.5C12 2.95 11.55 2.5 11 2.5C10.45 2.5 10 2.95 10 3.5C10 4.05 10.45 4.5 11 4.5Z" fill="#141414"/>
</svg>
