<svg width="24" height="24" viewBox="0 0 24 24" fill="none" xmlns="http://www.w3.org/2000/svg">
<path d="M13.9999 9.99998H8.99992C8.44992 9.99998 7.99992 10.45 7.99992 11C7.99992 11.55 8.44992 12 8.99992 12H13.9999C15.6499 12 16.9999 10.65 16.9999 8.99998C16.9999 7.34998 15.6499 5.99998 13.9999 5.99998C13.4499 5.99998 12.9999 6.44998 12.9999 6.99998C12.9999 7.54998 13.4499 7.99998 13.9999 7.99998C14.5499 7.99998 14.9999 8.44998 14.9999 8.99998C14.9999 9.54998 14.5499 9.99998 13.9999 9.99998ZM16.9999 16H6.99992C6.44992 16 5.99992 16.45 5.99992 17C5.99992 17.55 6.44992 18 6.99992 18H16.9999C17.5499 18 17.9999 18.45 17.9999 19C17.9999 19.55 17.5499 20 16.9999 20C16.4499 20 15.9999 20.45 15.9999 21C15.9999 21.55 16.4499 22 16.9999 22C18.6499 22 19.9999 20.65 19.9999 19C19.9999 17.35 18.6499 16 16.9999 16ZM18.9999 8.99998C18.4499 8.99998 17.9999 9.44998 17.9999 9.99998C17.9999 10.55 18.4499 11 18.9999 11C19.5499 11 19.9999 11.45 19.9999 12C19.9999 12.55 19.5499 13 18.9999 13H2.99992C2.44992 13 1.99992 13.45 1.99992 14C1.99992 14.55 2.44992 15 2.99992 15H18.9999C20.6499 15 21.9999 13.65 21.9999 12C21.9999 10.35 20.6499 8.99998 18.9999 8.99998ZM2.16992 7.94998C2.35992 8.23998 2.67992 8.39998 2.99992 8.39998C3.18992 8.39998 3.37992 8.34998 3.54992 8.22998L4.34992 7.69998V8.65998C4.34992 9.20998 4.79992 9.65998 5.34992 9.65998C5.89992 9.65998 6.34992 9.20998 6.34992 8.65998V7.69998L7.14992 8.22998C7.31992 8.33998 7.50992 8.39998 7.69992 8.39998C8.01992 8.39998 8.33992 8.23998 8.52992 7.94998C8.83992 7.48998 8.70992 6.86998 8.24992 6.55998L7.13992 5.81998L8.24992 5.07998C8.70992 4.76998 8.82992 4.14998 8.52992 3.68998C8.22992 3.22998 7.59992 3.10998 7.13992 3.40998L6.33992 3.93998V2.97998C6.33992 2.42998 5.88992 1.97998 5.33992 1.97998C4.78992 1.97998 4.33992 2.42998 4.33992 2.97998V3.93998L3.53992 3.40998C3.07992 3.09998 2.45992 3.22998 2.14992 3.68998C1.83992 4.14998 1.96992 4.76998 2.42992 5.07998L3.53992 5.81998L2.42992 6.55998C1.96992 6.86998 1.84992 7.48998 2.14992 7.94998H2.16992ZM12.9999 19H4.99992C4.44992 19 3.99992 19.45 3.99992 20C3.99992 20.55 4.44992 21 4.99992 21H12.9999C13.5499 21 13.9999 20.55 13.9999 20C13.9999 19.45 13.5499 19 12.9999 19Z" fill="#141414"/>
</svg>
