<svg width="24" height="24" viewBox="0 0 24 24" fill="none" xmlns="http://www.w3.org/2000/svg">
<path d="M9.69 21.45C9.69 21.45 9.7 21.43 9.71 21.42L9.63 21.49C9.63 21.49 9.67 21.47 9.69 21.45ZM7.5 7C7.37 7 7.24 7.05 7.15 7.15C7.06 7.25 7 7.37 7 7.5V13.45C8.41 10.65 11.22 9 14.94 9H15V7.5C15 7.37 14.95 7.24 14.85 7.15C14.75 7.06 14.63 7 14.5 7H7.5ZM6 7C6 6.73 6.11 6.48 6.29 6.29C6.47 6.1 6.73 6 7 6H8C8.27 6 8.52 5.89 8.71 5.71C8.9 5.52 9 5.27 9 5V4H13V5C13 5.27 13.11 5.52 13.29 5.71C13.47 5.9 13.73 6 14 6H15C15.27 6 15.52 6.11 15.71 6.29C15.9 6.48 16 6.73 16 7V9H18V7C18 6.2 17.68 5.44 17.12 4.88C16.56 4.32 15.79 4 15 4C15 3.47 14.79 2.96 14.41 2.59C14.03 2.22 13.53 2 13 2H9C8.47 2 7.96 2.21 7.59 2.59C7.22 2.97 7 3.47 7 4C6.2 4 5.44 4.32 4.88 4.88C4.32 5.44 4 6.21 4 7V19C4 19.8 4.32 20.56 4.88 21.12C5.44 21.68 6.21 22 7 22H7.37C6.73 21.39 6 20 6 19V7ZM19.98 10.31C19.91 10.21 19.82 10.13 19.72 10.08C19.61 10.03 19.49 10 19.37 10H15.04C10.14 10 7.1 13.07 7.1 18C7.1 19.87 7.63 20.89 8.28 21.42C8.3 21.43 8.33 21.44 8.36 21.44C8.39 21.44 8.41 21.44 8.44 21.44C8.47 21.44 8.49 21.42 8.51 21.4C8.53 21.38 8.54 21.36 8.55 21.34C8.79 17.34 11.11 14.48 15.46 12.76C15.55 12.72 15.64 12.7 15.74 12.7C15.84 12.7 15.93 12.71 16.02 12.74C16.11 12.77 16.19 12.82 16.26 12.88C16.33 12.94 16.39 13.02 16.42 13.1C16.46 13.18 16.48 13.27 16.48 13.36C16.48 13.45 16.46 13.54 16.42 13.62C16.38 13.7 16.33 13.78 16.26 13.84C16.19 13.9 16.11 13.95 16.02 13.98C12.03 15.53 10.06 18.11 9.99 21.82C9.99 21.85 10.01 21.88 10.03 21.91C10.03 21.92 10.03 21.94 10.05 21.95C10.05 21.95 10.08 21.95 10.09 21.96C10.12 21.98 10.15 22 10.19 22C10.48 22 10.76 21.98 11.04 21.96C16.75 21.61 19.39 18.36 19.39 15.33C19.39 12.3 20.03 10.99 20.04 10.96C20.09 10.86 20.12 10.75 20.11 10.63C20.11 10.52 20.07 10.41 20 10.31H19.98ZM9.94 21.94C9.94 21.94 9.97 21.94 9.98 21.95C9.97 21.95 9.95 21.95 9.94 21.94ZM9.88 21.81C9.88 21.81 9.9 21.87 9.92 21.9C9.9 21.87 9.88 21.84 9.88 21.81Z" fill="#141414"/>
</svg>
