<svg width="24" height="24" viewBox="0 0 24 24" fill="none" xmlns="http://www.w3.org/2000/svg">
<path d="M3 10H13C14.65 10 16 8.65 16 7C16 5.35 14.65 4 13 4C12.45 4 12 4.45 12 5C12 5.55 12.45 6 13 6C13.55 6 14 6.45 14 7C14 7.55 13.55 8 13 8H3C2.45 8 2 8.45 2 9C2 9.55 2.45 10 3 10ZM13 14H3C2.45 14 2 14.45 2 15C2 15.55 2.45 16 3 16H13C13.55 16 14 16.45 14 17C14 17.55 13.55 18 13 18C12.45 18 12 18.45 12 19C12 19.55 12.45 20 13 20C14.65 20 16 18.65 16 17C16 15.35 14.65 14 13 14ZM19 7C18.45 7 18 7.45 18 8C18 8.55 18.45 9 19 9C19.55 9 20 9.45 20 10C20 10.55 19.55 11 19 11H3C2.45 11 2 11.45 2 12C2 12.55 2.45 13 3 13H19C20.65 13 22 11.65 22 10C22 8.35 20.65 7 19 7Z" fill="#141414"/>
</svg>
