<svg width="24" height="24" viewBox="0 0 24 24" fill="none" xmlns="http://www.w3.org/2000/svg">
<path d="M8.95006 4H12.9501V5C12.9501 5.27 13.0601 5.52 13.2501 5.71C13.4301 5.9 13.6901 6 13.9501 6H14.9501C15.2201 6 15.4701 6.11 15.6601 6.29C15.8501 6.48 15.9501 6.74 15.9501 7V9H17.9501V7C17.9501 6.21 17.6401 5.44 17.0701 4.88C16.5101 4.32 15.7501 4 14.9501 4C14.9501 3.47 14.7401 2.96 14.3701 2.59C14.0001 2.22 13.4801 2 12.9501 2H8.95006C8.42006 2 7.91006 2.21 7.54006 2.59C7.42006 2.71 7.31006 2.85 7.23006 3L8.95006 4.72V4ZM14.2601 10.03L19.3201 15.09C19.3501 12.2 19.9601 10.99 19.9701 10.96C20.0301 10.86 20.0501 10.75 20.0501 10.63C20.0401 10.52 20.0001 10.41 19.9401 10.31C19.8701 10.22 19.7801 10.14 19.6701 10.08C19.5701 10.03 19.4501 10 19.3201 10H14.9901C14.7401 10 14.5001 10.01 14.2601 10.03ZM14.9501 7.5C14.9501 7.37 14.9001 7.24 14.8101 7.15C14.7101 7.05 14.5901 7 14.4501 7H11.2301L13.3401 9.11C13.8401 9.04 14.3601 9 14.9001 9H14.9501V7.5ZM9.64006 21.45C9.64006 21.45 9.65006 21.43 9.66006 21.42L9.58006 21.49C9.58006 21.49 9.62006 21.47 9.64006 21.45ZM20.8401 19.44C20.8401 19.44 20.7601 19.34 20.7101 19.29L18.8801 17.46L15.5701 14.15L14.5401 13.12L11.1101 9.69L9.03006 7.61L7.42006 6L5.70006 4.28L4.71006 3.29C4.66006 3.24 4.61006 3.2 4.56006 3.16C4.16006 2.91 3.63006 2.95 3.29006 3.29C2.90006 3.68 2.90006 4.32 3.29006 4.71L4.26006 5.68C4.06006 6.09 3.95006 6.54 3.95006 7V19C3.95006 19.8 4.27006 20.56 4.83006 21.12C5.39006 21.69 6.16006 22 6.95006 22H7.32006C6.68006 21.39 5.95006 20 5.95006 19V7.37L6.95006 8.37V13.45C7.51006 12.34 8.29006 11.41 9.27006 10.69L10.0301 11.45C8.13006 12.79 7.05006 15.07 7.05006 18C7.05006 19.87 7.57006 20.89 8.22006 21.42C8.25006 21.43 8.27006 21.44 8.30006 21.44C8.33006 21.45 8.35006 21.44 8.38006 21.44C8.41006 21.43 8.43006 21.41 8.45006 21.4C8.47006 21.38 8.48006 21.36 8.49006 21.33C8.67006 18.25 10.0901 15.85 12.7101 14.13L13.7001 15.12C11.2201 16.68 9.99006 18.9 9.94006 21.82C9.94006 21.85 9.96006 21.88 9.98006 21.91C9.99006 21.92 9.98006 21.94 9.99006 21.95C10.0001 21.95 10.0201 21.95 10.0301 21.96C10.0601 21.98 10.0901 22 10.1301 22C10.4201 22 10.7001 21.98 10.9801 21.96C13.8401 21.78 15.9201 20.89 17.2901 19.65C17.4601 19.5 17.6101 19.34 17.7601 19.18L19.2901 20.71C19.4901 20.9 19.7401 21 20.0001 21C20.2601 21 20.5101 20.9 20.7101 20.71C21.0501 20.37 21.0901 19.84 20.8401 19.44Z" fill="#141414"/>
</svg>
