<svg width="24" height="24" viewBox="0 0 24 24" fill="none" xmlns="http://www.w3.org/2000/svg">
<path d="M14 8.00008C14.55 8.00008 15 8.45008 15 9.00008C15 9.55008 14.55 10.0001 14 10.0001H9C8.45 10.0001 8 10.4501 8 11.0001C8 11.5501 8.45 12.0001 9 12.0001H14C15.65 12.0001 17 10.6501 17 9.00008C17 7.35008 15.65 6.00008 14 6.00008C13.45 6.00008 13 6.45008 13 7.00008C13 7.55008 13.45 8.00008 14 8.00008ZM16 16.0001H6C5.45 16.0001 5 16.4501 5 17.0001C5 17.5501 5.45 18.0001 6 18.0001H16C16.55 18.0001 17 18.4501 17 19.0001C17 19.5501 16.55 20.0001 16 20.0001C15.45 20.0001 15 20.4501 15 21.0001C15 21.5501 15.45 22.0001 16 22.0001C17.65 22.0001 19 20.6501 19 19.0001C19 17.3501 17.65 16.0001 16 16.0001ZM19 9.00008C18.45 9.00008 18 9.45008 18 10.0001C18 10.5501 18.45 11.0001 19 11.0001C19.55 11.0001 20 11.4501 20 12.0001C20 12.5501 19.55 13.0001 19 13.0001H3C2.45 13.0001 2 13.4501 2 14.0001C2 14.5501 2.45 15.0001 3 15.0001H19C20.65 15.0001 22 13.6501 22 12.0001C22 10.3501 20.65 9.00008 19 9.00008ZM7.29 5.71008C7.49 5.91008 7.74 6.00008 8 6.00008C8.26 6.00008 8.51 5.90008 8.71 5.71008L9 5.42008L9.29 5.71008C9.49 5.91008 9.74 6.00008 10 6.00008C10.26 6.00008 10.51 5.90008 10.71 5.71008C11.1 5.32008 11.1 4.69008 10.71 4.30008L10.42 4.01008L10.71 3.72008C11.1 3.33008 11.1 2.70008 10.71 2.31008C10.32 1.92008 9.69 1.92008 9.3 2.31008L9.01 2.60008L8.72 2.31008C8.33 1.92008 7.7 1.92008 7.31 2.31008C6.92 2.70008 6.92 3.33008 7.31 3.72008L7.6 4.01008L7.31 4.30008C6.92 4.69008 6.92 5.32008 7.31 5.71008H7.29ZM2.29 9.71008C2.49 9.91008 2.74 10.0001 3 10.0001C3.26 10.0001 3.51 9.90008 3.71 9.71008L4 9.42008L4.29 9.71008C4.49 9.91008 4.74 10.0001 5 10.0001C5.26 10.0001 5.51 9.90008 5.71 9.71008C6.1 9.32008 6.1 8.69008 5.71 8.30008L5.42 8.01008L5.71 7.72008C6.1 7.33008 6.1 6.70008 5.71 6.31008C5.32 5.92008 4.69 5.92008 4.3 6.31008L4.01 6.60008L3.72 6.31008C3.33 5.92008 2.7 5.92008 2.31 6.31008C1.92 6.70008 1.92 7.33008 2.31 7.72008L2.6 8.01008L2.31 8.30008C1.92 8.69008 1.92 9.32008 2.31 9.71008H2.29Z" fill="#141414"/>
</svg>
