<svg width="24" height="24" viewBox="0 0 24 24" fill="none" xmlns="http://www.w3.org/2000/svg">
<path d="M4.82 11.04C5.19 11.2 5.61 11.24 6.02 11.15C6.43 11.06 6.79 10.87 7.08 10.58C7.37 10.29 7.57 9.93004 7.65 9.52004C7.73 9.11004 7.69 8.70004 7.54 8.32004C7.39 7.94004 7.12 7.62004 6.78 7.39004C6.44 7.16004 6.03 7.04004 5.63 7.04004H5.62C5.07 7.05004 4.54 7.27004 4.15 7.65004C3.77 8.03004 3.55 8.56004 3.55 9.12004C3.55 9.54004 3.67 9.93004 3.9 10.27C4.12 10.6 4.45 10.87 4.83 11.03L4.82 11.04Z" fill="#141414"/>
<path d="M5.63 12.21C4.66 12.21 3.74 12.62 3.06 13.35C2.38 14.09 2 15.08 2 16.11C2 16.46 2.12 16.79 2.35 17.04C2.58 17.29 2.88 17.42 3.2 17.42H8.04C8.36 17.42 8.66 17.28 8.89 17.04C9.12 16.79 9.24 16.46 9.24 16.11C9.24 15.07 8.86 14.08 8.18 13.35C7.49 12.62 6.58 12.21 5.61 12.21H5.63Z" fill="#141414"/>
<path d="M12.36 11.18C12.08 11.18 11.82 11.28 11.62 11.48C11.43 11.68 11.32 11.94 11.32 12.22V16.38C11.32 16.66 11.42 16.92 11.62 17.12C11.82 17.31 12.08 17.42 12.36 17.42C12.64 17.42 12.9 17.32 13.1 17.12C13.29 16.92 13.4 16.66 13.4 16.38V12.22C13.4 11.94 13.3 11.68 13.1 11.48C12.9 11.29 12.64 11.18 12.36 11.18Z" fill="#141414"/>
<path d="M16.54 11.18C16.26 11.18 16 11.28 15.8 11.48C15.61 11.68 15.5 11.94 15.5 12.22V16.38C15.5 16.66 15.6 16.92 15.8 17.12C16 17.31 16.26 17.42 16.54 17.42C16.82 17.42 17.08 17.32 17.28 17.12C17.47 16.92 17.58 16.66 17.58 16.38V12.22C17.58 11.94 17.48 11.68 17.28 11.48C17.08 11.29 16.82 11.18 16.54 11.18Z" fill="#141414"/>
<path d="M20.7 11.18C20.42 11.18 20.16 11.28 19.96 11.48C19.77 11.68 19.66 11.94 19.66 12.22V16.38C19.66 16.66 19.76 16.92 19.96 17.12C20.16 17.31 20.42 17.42 20.7 17.42C20.98 17.42 21.24 17.32 21.44 17.12C21.63 16.92 21.74 16.66 21.74 16.38V12.22C21.74 11.94 21.64 11.68 21.44 11.48C21.24 11.29 20.98 11.18 20.7 11.18Z" fill="#141414"/>
<path d="M12.15 10.15H20.96C22.2 10.15 22.39 8.37004 21.2 8.10004L17.26 7.19004C16.8 7.09004 16.31 7.09004 15.86 7.19004H15.85L11.91 8.10004C10.7 8.38004 10.91 10.15 12.15 10.15Z" fill="#141414"/>
</svg>
