<svg width="24" height="24" viewBox="0 0 24 24" fill="none" xmlns="http://www.w3.org/2000/svg">
<path d="M15.4999 15.4667C16.7517 15.4667 17.7666 14.4518 17.7666 13.2C17.7666 11.9482 16.7517 10.9333 15.4999 10.9333C14.2481 10.9333 13.2332 11.9482 13.2332 13.2C13.2332 14.4518 14.2481 15.4667 15.4999 15.4667Z" fill="#141414"/>
<path d="M9.83324 3H3.03324C2.40731 3 1.8999 3.50741 1.8999 4.13333V7.53333C1.8999 8.15926 2.40731 8.66667 3.03324 8.66667H9.83324C10.4592 8.66667 10.9666 8.15926 10.9666 7.53333V4.13333C10.9666 3.50741 10.4592 3 9.83324 3Z" fill="#141414"/>
<path d="M9.83324 10.9333H3.03324C2.40731 10.9333 1.8999 11.4407 1.8999 12.0667V15.4667C1.8999 16.0926 2.40731 16.6 3.03324 16.6H9.83324C10.4592 16.6 10.9666 16.0926 10.9666 15.4667V12.0667C10.9666 11.4407 10.4592 10.9333 9.83324 10.9333Z" fill="#141414"/>
<path d="M21.1666 3H14.3666C13.7406 3 13.2332 3.50741 13.2332 4.13333V7.53333C13.2332 8.15926 13.7406 8.66667 14.3666 8.66667H21.1666C21.7925 8.66667 22.2999 8.15926 22.2999 7.53333V4.13333C22.2999 3.50741 21.7925 3 21.1666 3Z" fill="#141414"/>
<path d="M20.0332 20H13.2332C12.6099 20 12.0999 19.49 12.0999 18.8667C12.0999 18.2433 12.6099 17.7333 13.2332 17.7333H20.0332C20.6566 17.7333 21.1666 18.2433 21.1666 18.8667C21.1666 19.49 20.6566 20 20.0332 20Z" fill="#141414"/>
</svg>
