<svg width="24" height="24" viewBox="0 0 24 24" fill="none" xmlns="http://www.w3.org/2000/svg">
<path d="M9 12.9998C5.69 12.9998 3 15.6898 3 18.9998C3 20.1098 3.89 20.9998 5 20.9998H13C14.1 20.9998 15 20.0998 15 18.9998C15 15.6898 12.31 12.9998 9 12.9998ZM9 11.9998C10.93 11.9998 12.5 10.4298 12.5 8.49977C12.5 6.56977 10.93 4.99977 9 4.99977C7.07 4.99977 5.5 6.56977 5.5 8.49977C5.5 10.4298 7.07 11.9998 9 11.9998ZM20.56 11.9098C19.52 11.6098 19.39 11.4898 19.09 10.4498C19.02 10.1898 18.77 9.99977 18.5 9.99977C18.23 9.99977 17.98 10.1798 17.91 10.4398C17.61 11.4798 17.49 11.6098 16.45 11.9098C16.19 11.9798 16 12.2298 16 12.4998C16 12.7698 16.18 13.0198 16.44 13.0898C17.48 13.3898 17.61 13.5098 17.91 14.5498C17.98 14.8098 18.23 14.9998 18.5 14.9998C18.77 14.9998 19.02 14.8198 19.09 14.5598C19.39 13.5198 19.51 13.3898 20.55 13.0898C20.81 13.0198 21 12.7698 21 12.4998C21 12.2298 20.82 11.9898 20.56 11.9098ZM17 8.99977C17.29 8.99977 17.55 8.80977 17.63 8.51977C18.01 7.18977 18.19 7.01977 19.51 6.62977C19.79 6.54977 19.99 6.28977 19.99 5.99977C19.99 5.70977 19.8 5.44977 19.51 5.36977C18.18 4.98977 18.01 4.80977 17.62 3.47977C17.54 3.19977 17.28 3.00977 16.99 3.00977C16.7 3.00977 16.44 3.19977 16.36 3.48977C15.98 4.81977 15.8 4.98977 14.48 5.37977C14.2 5.45977 14 5.71977 14 6.01977C14 6.31977 14.2 6.56977 14.48 6.64977C15.81 7.02977 15.99 7.20977 16.37 8.53977C16.45 8.81977 16.71 9.00977 17 9.00977V8.99977Z" fill="#141414"/>
</svg>
