<svg width="24" height="24" viewBox="0 0 24 24" fill="none" xmlns="http://www.w3.org/2000/svg">
<path d="M17.6599 2.08006C17.4499 2.03006 17.2299 2.00006 16.9999 2.00006H6.99995C6.19995 2.00006 5.43995 2.32006 4.87995 2.88006C4.31995 3.44006 3.99995 4.21006 3.99995 5.00006V15.7301L17.6599 2.08006Z" fill="#141414"/>
<path d="M20.2899 2.28006L4.00995 18.5601V18.5801L2.29995 20.2901C1.90995 20.6801 1.90995 21.3101 2.29995 21.7001C2.49995 21.9001 2.74995 21.9901 3.00995 21.9901C3.26995 21.9901 3.51995 21.8901 3.71995 21.7001L4.33995 21.0801C4.50995 21.3501 4.73995 21.5701 5.00995 21.7301C5.30995 21.9101 5.65995 22.0001 6.00995 22.0001C6.35995 22.0001 6.70995 21.9101 7.00995 21.7301L12.0099 18.8501L17.0099 21.7301C17.3099 21.9101 17.6599 22.0001 18.0099 22.0001C18.3599 22.0001 18.7099 21.9101 19.0099 21.7301C19.3099 21.5501 19.5699 21.3001 19.7399 21.0001C19.9199 20.7001 20.0099 20.3501 20.0099 20.0001V5.41006L21.7199 3.70006C22.1099 3.31006 22.1099 2.68006 21.7199 2.29006C21.3299 1.90006 20.6999 1.90006 20.3099 2.29006L20.2899 2.28006Z" fill="#141414"/>
</svg>
