<svg width="24" height="24" viewBox="0 0 24 24" fill="none" xmlns="http://www.w3.org/2000/svg">
<path d="M17.75 9.07023C17.15 7.29023 15.49 5.99023 13.5 5.99023C11.51 5.99023 9.9 7.25023 9.28 8.99023H8C5.24 8.99023 3 11.2302 3 13.9902C3 16.7502 5.24 18.9902 8 18.9902H17C19.76 18.9902 22 16.7502 22 13.9902C22 11.4802 20.15 9.43023 17.75 9.07023ZM10.02 15.7902C9.81 15.7902 9.61 15.7102 9.46 15.5602L7.86 13.9602C7.55 13.6502 7.55 13.1402 7.86 12.8302C8.17 12.5202 8.68 12.5202 8.99 12.8302L9.25 13.0902C9.41 11.0202 11.12 9.39023 13.22 9.39023C13.53 9.39023 13.86 9.44023 14.22 9.53023C14.64 9.64023 14.9 10.0702 14.8 10.5102C14.69 10.9402 14.25 11.1902 13.82 11.0902C13.59 11.0302 13.4 11.0002 13.22 11.0002C12.02 11.0002 11.03 11.8802 10.86 13.0302L11.06 12.8302C11.37 12.5202 11.88 12.5202 12.19 12.8302C12.5 13.1402 12.5 13.6502 12.19 13.9602L10.59 15.5602C10.43 15.7202 10.23 15.7902 10.03 15.7902H10.02ZM18.6 13.9602C18.44 14.1202 18.24 14.1902 18.03 14.1902C17.82 14.1902 17.62 14.1102 17.46 13.9602L17.2 13.7002C17.04 15.7702 15.33 17.4002 13.23 17.4002C12.92 17.4002 12.59 17.3502 12.23 17.2602C11.81 17.1502 11.55 16.7202 11.65 16.2802C11.76 15.8502 12.19 15.6002 12.63 15.7002C12.86 15.7602 13.05 15.7902 13.23 15.7902C14.43 15.7902 15.42 14.9102 15.59 13.7602L15.39 13.9602C15.08 14.2702 14.57 14.2702 14.26 13.9602C13.95 13.6502 13.95 13.1402 14.26 12.8302L15.86 11.2302C16.17 10.9202 16.68 10.9202 16.99 11.2302L18.59 12.8302C18.9 13.1402 18.9 13.6502 18.59 13.9602H18.6Z" fill="#141414"/>
</svg>
