<svg width="24" height="24" viewBox="0 0 24 24" fill="none" xmlns="http://www.w3.org/2000/svg">
<path fill-rule="evenodd" clip-rule="evenodd" d="M20.0299 11.0198V11.5498L20.0399 11.5198C20.7899 11.9598 21.3799 12.6298 21.7099 13.4298C22.0399 14.2298 22.0899 15.1198 21.8699 15.9598C21.6399 16.7998 21.1499 17.5398 20.4599 18.0698C19.7699 18.5998 18.9299 18.8898 18.0599 18.8898H6.21993C5.12994 18.8398 4.08994 18.3898 3.30994 17.6198C2.52994 16.8498 2.05994 15.8198 1.99994 14.7298C1.93994 13.6398 2.27994 12.5598 2.96994 11.7098C3.65994 10.8598 4.63994 10.2898 5.71994 10.1198C6.03994 9.5298 6.50993 9.0198 7.07994 8.6598C7.64994 8.2998 8.29993 8.0898 8.97993 8.0498C9.62993 6.9198 10.6399 6.0398 11.8399 5.5398C13.0399 5.0398 14.3799 4.9498 15.6399 5.2898C16.8999 5.6298 18.0199 6.3798 18.8099 7.4098C19.5999 8.4498 20.0299 9.7198 20.0299 11.0198ZM12.9999 9.9998C12.9999 9.44752 12.5522 8.9998 11.9999 8.9998C11.4477 8.9998 10.9999 9.44752 10.9999 9.9998V13.9998C10.9999 14.3786 11.2139 14.7248 11.5527 14.8942L13.5527 15.8942C14.0467 16.1412 14.6474 15.941 14.8944 15.447C15.1414 14.953 14.9411 14.3524 14.4472 14.1054L12.9999 13.3818V9.9998Z" fill="#141414"/>
</svg>
