<svg width="24" height="24" viewBox="0 0 24 24" fill="none" xmlns="http://www.w3.org/2000/svg">
<path d="M17.22 16.9101L16.5 16.2201C16.12 15.8501 15.62 15.6401 15.09 15.6401C14.56 15.6401 14.05 15.8501 13.68 16.2201L12.97 16.9301C12.88 17.0201 12.77 17.1001 12.64 17.1501C12.52 17.2001 12.39 17.2301 12.26 17.2301C12.13 17.2301 12 17.2001 11.88 17.1501C11.76 17.1001 11.65 17.0301 11.55 16.9301L7.34001 12.6901C7.25001 12.6001 7.17001 12.4901 7.12001 12.3601C7.07001 12.2401 7.04001 12.1101 7.04001 11.9801C7.04001 11.8501 7.07001 11.7201 7.12001 11.6001C7.17001 11.4801 7.24002 11.3701 7.34001 11.2701L8.05001 10.5601C8.42001 10.1901 8.63001 9.68014 8.63001 9.15014C8.63001 8.62014 8.42001 8.11014 8.05001 7.74014L7.34001 7.03014C7.15001 6.84014 6.93001 6.70014 6.69001 6.60014C6.45001 6.50014 6.19001 6.45014 5.92001 6.45014C5.65001 6.45014 5.40001 6.50014 5.15001 6.60014C4.91001 6.70014 4.69001 6.85014 4.50001 7.03014L3.50001 8.03014C3.19001 8.33014 2.98001 8.73014 2.93001 9.16014C2.75001 10.5601 2.85001 13.9001 6.60001 17.6301C10.35 21.3601 13.67 21.4801 15.08 21.3101C15.51 21.2601 15.91 21.0501 16.21 20.7401L17.21 19.7401C17.4 19.5501 17.54 19.3301 17.64 19.0901C17.74 18.8501 17.79 18.5901 17.79 18.3201C17.79 18.0501 17.74 17.8001 17.64 17.5501C17.54 17.3101 17.39 17.0901 17.21 16.9001L17.22 16.9101Z" fill="#141414"/>
<path d="M20.57 8.89014L19.79 8.44014V7.80014L20.57 7.35014C20.82 7.20014 21 6.97014 21.08 6.68014C21.15 6.40014 21.12 6.10014 20.97 5.85014L20.42 4.90014C20.27 4.65014 20.04 4.47014 19.75 4.39014C19.46 4.31014 19.17 4.35014 18.92 4.50014L18.27 4.87014L18.13 4.95014L17.58 4.63014V3.73014C17.58 3.44014 17.46 3.16014 17.26 2.96014C17.05 2.75014 16.78 2.64014 16.49 2.64014H15.39C15.1 2.64014 14.82 2.76014 14.62 2.96014C14.41 3.17014 14.3 3.44014 14.3 3.73014V4.63014L14.16 4.71014L13.75 4.95014L13.61 4.87014L12.96 4.50014C12.71 4.35014 12.41 4.32014 12.13 4.39014C11.85 4.46014 11.61 4.65014 11.46 4.90014L10.91 5.85014C10.76 6.10014 10.73 6.40014 10.8 6.68014C10.88 6.96014 11.06 7.20014 11.31 7.35014L12.09 7.80014V8.44014L11.31 8.89014C11.06 9.04014 10.88 9.27014 10.8 9.56014C10.73 9.84014 10.76 10.1401 10.91 10.3901L11.46 11.3401C11.61 11.5901 11.84 11.7701 12.13 11.8501C12.41 11.9201 12.71 11.8901 12.96 11.7401L13.74 11.2901L14.29 11.6101V12.5101C14.29 12.8001 14.41 13.0801 14.61 13.2801C14.81 13.4801 15.09 13.6001 15.38 13.6001H16.48C16.77 13.6001 17.05 13.4801 17.25 13.2801C17.45 13.0801 17.57 12.8001 17.57 12.5101V11.6101L18.12 11.2901L18.9 11.7401C19.15 11.8901 19.45 11.9201 19.73 11.8501C20.01 11.7801 20.25 11.5901 20.4 11.3401L20.95 10.3901C21.1 10.1401 21.13 9.84014 21.06 9.56014C20.98 9.28014 20.8 9.04014 20.55 8.89014H20.57ZM17.11 9.28014C16.8 9.59014 16.38 9.76014 15.95 9.76014C15.63 9.76014 15.31 9.66014 15.04 9.48014C14.77 9.30014 14.56 9.04014 14.44 8.74014C14.32 8.44014 14.28 8.11014 14.35 7.79014C14.41 7.47014 14.57 7.18014 14.8 6.95014C15.03 6.72014 15.32 6.56014 15.64 6.50014C15.96 6.44014 16.29 6.47014 16.59 6.59014C16.89 6.71014 17.15 6.93014 17.33 7.20014C17.51 7.47014 17.61 7.79014 17.61 8.11014C17.61 8.55014 17.44 8.96014 17.13 9.27014L17.11 9.28014Z" fill="#141414"/>
</svg>
