<svg width="24" height="24" viewBox="0 0 24 24" fill="none" xmlns="http://www.w3.org/2000/svg">
<path d="M18.65 6.76982L19.71 5.70982C20.1 5.31982 20.1 4.68982 19.71 4.29982C19.32 3.90982 18.69 3.90982 18.3 4.29982L17.24 5.35982L16.18 4.29982C15.79 3.90982 15.16 3.90982 14.77 4.29982C14.38 4.68982 14.38 5.31982 14.77 5.70982L15.83 6.76982L14.77 7.82982C14.38 8.21982 14.38 8.84982 14.77 9.23982C15.16 9.62982 15.79 9.62982 16.18 9.23982L17.24 8.17982L18.3 9.23982C18.69 9.62982 19.32 9.62982 19.71 9.23982C20.1 8.84982 20.1 8.21982 19.71 7.82982L18.65 6.76982ZM18.17 14.3198C17.39 13.5398 16.12 13.5398 15.34 14.3198L14.63 15.0298C13.92 15.7398 13.22 15.0298 13.22 15.0298L8.97998 10.7898C8.26998 10.0798 8.97998 9.37982 8.97998 9.37982L9.68998 8.66982C10.47 7.88982 10.47 6.61982 9.68998 5.83982L8.97998 5.12982C8.19998 4.34982 6.92998 4.34982 6.14998 5.12982L5.15998 6.11982C4.84998 6.42982 4.64998 6.81982 4.58998 7.25982C4.41998 8.66982 4.52998 11.9998 8.26998 15.7398C12.01 19.4798 15.35 19.5898 16.75 19.4198C17.18 19.3698 17.58 19.1598 17.89 18.8498L18.88 17.8598C19.66 17.0798 19.66 15.8098 18.88 15.0298L18.17 14.3198Z" fill="#141414"/>
</svg>
