<svg width="24" height="24" viewBox="0 0 24 24" fill="none" xmlns="http://www.w3.org/2000/svg">
<path d="M7.56 13.41C6.52 13.11 6.39 12.99 6.09 11.95C6.02 11.69 5.77 11.5 5.5 11.5C5.23 11.5 4.98 11.68 4.91 11.94C4.61 12.98 4.49 13.11 3.45 13.41C3.19 13.48 3 13.73 3 14C3 14.27 3.18 14.52 3.44 14.59C4.48 14.89 4.61 15.01 4.91 16.05C4.98 16.31 5.23 16.5 5.5 16.5C5.77 16.5 6.02 16.32 6.09 16.06C6.39 15.02 6.51 14.89 7.55 14.59C7.81 14.52 8 14.27 8 14C8 13.73 7.82 13.49 7.56 13.41ZM11.94 6.09C12.98 6.39 13.11 6.51 13.41 7.55C13.48 7.81 13.73 8 14 8C14.27 8 14.52 7.82 14.59 7.56C14.89 6.52 15.01 6.39 16.05 6.09C16.31 6.02 16.5 5.77 16.5 5.5C16.5 5.23 16.32 4.99 16.06 4.91C15.02 4.61 14.89 4.49 14.59 3.45C14.52 3.19 14.27 3 14 3C13.73 3 13.48 3.18 13.41 3.44C13.11 4.48 12.99 4.61 11.95 4.91C11.69 4.98 11.5 5.23 11.5 5.5C11.5 5.77 11.68 6.02 11.94 6.09ZM8.99 5.99C8.99 5.7 8.8 5.44 8.51 5.36C7.18 4.98 7.01 4.8 6.62 3.47C6.54 3.19 6.28 3 5.99 3C5.7 3 5.44 3.19 5.36 3.48C4.98 4.81 4.8 4.98 3.48 5.37C3.2 5.45 3 5.71 3 6.01C3 6.31 3.2 6.56 3.48 6.64C4.81 7.02 4.99 7.2 5.37 8.53C5.45 8.81 5.71 9 6 9C6.29 8.99 6.55 8.8 6.63 8.51C7.01 7.18 7.19 7.01 8.51 6.62C8.79 6.54 8.99 6.28 8.99 5.99ZM19.71 18.29L10.42 9C10.03 8.61 9.4 8.61 9.01 9C8.62 9.39 8.62 10.02 9.01 10.41L18.3 19.7C18.69 20.09 19.32 20.09 19.71 19.7C20.1 19.31 20.1 18.68 19.71 18.29Z" fill="#141414"/>
</svg>
