<svg width="24" height="24" viewBox="0 0 24 24" fill="none" xmlns="http://www.w3.org/2000/svg">
<path d="M16.8399 16.6002L16.1099 15.8502C15.9199 15.6602 15.6999 15.5202 15.4599 15.4202C15.2199 15.3202 14.9599 15.2702 14.6899 15.2702C14.4199 15.2702 14.1699 15.3202 13.9199 15.4202C13.6699 15.5202 13.4599 15.6702 13.2699 15.8502L12.5699 16.5602C12.4799 16.6502 12.3699 16.7302 12.2399 16.7802C12.1199 16.8302 11.9899 16.8602 11.8599 16.8602C11.7299 16.8602 11.5999 16.8302 11.4799 16.7802C11.3599 16.7302 11.2499 16.6502 11.1499 16.5602L6.91992 12.3202C6.82992 12.2302 6.74992 12.1202 6.69992 11.9902C6.64992 11.8702 6.61992 11.7402 6.61992 11.6102C6.61992 11.4802 6.64992 11.3502 6.69992 11.2302C6.74992 11.1102 6.82992 11.0002 6.91992 10.9002L7.62992 10.2002C7.81992 10.0102 7.95992 9.7902 8.05992 9.5502C8.15992 9.3102 8.20992 9.05019 8.20992 8.78019C8.20992 8.51019 8.15992 8.2602 8.05992 8.0102C7.95992 7.7602 7.80992 7.5502 7.62992 7.3602L6.91992 6.6502C6.72992 6.4602 6.50992 6.32019 6.26992 6.2202C6.02992 6.1202 5.76992 6.0702 5.49992 6.0702C5.22992 6.0702 4.97992 6.1202 4.72992 6.2202C4.48992 6.32019 4.26992 6.4702 4.07992 6.6502L3.07992 7.6502C2.77992 7.9602 2.57992 8.35019 2.51992 8.78019C2.35992 10.1802 2.47992 13.5202 6.19992 17.2602C9.91992 21.0002 13.2799 21.1002 14.6899 20.9802C15.1199 20.9202 15.5099 20.7202 15.8199 20.4202L16.8199 19.4202C17.0099 19.2302 17.1499 19.0102 17.2499 18.7702C17.3499 18.5302 17.3999 18.2702 17.3999 18.0002C17.3999 17.7302 17.3499 17.4802 17.2499 17.2302C17.1499 16.9902 16.9999 16.7702 16.8199 16.5802L16.8399 16.6002Z" fill="#141414"/>
<path d="M21.8699 4.2602C21.7799 4.1202 21.6599 4.0102 21.5099 3.9302C21.3599 3.8602 21.1999 3.8302 21.0399 3.8402C20.8799 3.8502 20.7199 3.9102 20.5899 4.0102L19.0599 5.1902V4.7202C19.0599 4.2502 18.8699 3.8002 18.5399 3.4702C18.2099 3.1402 17.7599 2.9502 17.2899 2.9502H11.9899C11.5199 2.9502 11.0699 3.1402 10.7399 3.4702C10.4099 3.8002 10.2199 4.2502 10.2199 4.7202V8.2502C10.2199 8.7202 10.4099 9.1702 10.7399 9.5002C11.0699 9.8302 11.5199 10.0202 11.9899 10.0202H17.2899C17.7599 10.0202 18.2099 9.8302 18.5399 9.5002C18.8699 9.1702 19.0599 8.7202 19.0599 8.2502V7.81019L20.5899 8.9602C20.7199 9.0602 20.8799 9.1202 21.0399 9.1302C21.1999 9.1402 21.3699 9.1102 21.5099 9.0402C21.6599 8.9702 21.7799 8.8502 21.8699 8.7102C21.9599 8.5702 21.9999 8.4102 21.9999 8.2502V4.7202C21.9999 4.5602 21.9499 4.4002 21.8699 4.2602Z" fill="#141414"/>
</svg>
