<svg width="24" height="24" viewBox="0 0 24 24" fill="none" xmlns="http://www.w3.org/2000/svg">
<path d="M17.7901 16.7602L17.0701 16.0702C16.6901 15.7002 16.1901 15.4902 15.6601 15.4902C15.1301 15.4902 14.6201 15.7002 14.2501 16.0702L13.5401 16.7802C13.4501 16.8702 13.3401 16.9502 13.2101 17.0002C13.0901 17.0502 12.9601 17.0802 12.8301 17.0802C12.7001 17.0802 12.5701 17.0502 12.4501 17.0002C12.3301 16.9502 12.2201 16.8802 12.1201 16.7802L7.91008 12.5402C7.82008 12.4502 7.74008 12.3402 7.69008 12.2102C7.64008 12.0902 7.61008 11.9602 7.61008 11.8302C7.61008 11.7002 7.64008 11.5702 7.69008 11.4502C7.74008 11.3302 7.81008 11.2202 7.91008 11.1202L8.62008 10.4102C8.99008 10.0402 9.20008 9.53023 9.20008 9.00023C9.20008 8.47023 8.99008 7.96023 8.62008 7.59023L7.91008 6.88023C7.72008 6.69023 7.50008 6.55023 7.26008 6.45023C7.02008 6.35023 6.76008 6.30023 6.49008 6.30023C6.22008 6.30023 5.97008 6.35023 5.72008 6.45023C5.48008 6.55023 5.26008 6.70023 5.07008 6.88023L4.07008 7.88023C3.76008 8.18023 3.55008 8.58023 3.50008 9.01023C3.32008 10.4102 3.42008 13.7502 7.17008 17.4802C10.9201 21.2102 14.2401 21.3302 15.6501 21.1602C16.0801 21.1102 16.4801 20.9002 16.7801 20.5902L17.7801 19.5902C17.9701 19.4002 18.1101 19.1802 18.2101 18.9402C18.3101 18.7002 18.3601 18.4402 18.3601 18.1702C18.3601 17.9002 18.3101 17.6502 18.2101 17.4002C18.1101 17.1602 17.9601 16.9402 17.7801 16.7502L17.7901 16.7602Z" fill="#141414"/>
<path d="M20.5701 8.12023H20.1301V5.49023C20.1301 4.56023 19.7601 3.67023 19.1001 3.02023C18.4401 2.36023 17.5501 1.99023 16.6201 1.99023C15.6901 1.99023 14.8001 2.36023 14.1401 3.02023C13.4801 3.68023 13.1101 4.57023 13.1101 5.49023V8.12023H12.6701C12.5501 8.12023 12.4401 8.17024 12.3601 8.25024C12.2801 8.33024 12.2301 8.44024 12.2301 8.56024C12.2301 8.68024 12.2801 8.79024 12.3601 8.87023C12.4401 8.95023 12.5501 9.00024 12.6701 9.00024H20.5701C20.6901 9.00024 20.8001 8.95023 20.8801 8.87023C20.9601 8.79024 21.0101 8.68024 21.0101 8.56024C21.0101 8.44024 20.9601 8.33024 20.8801 8.25024C20.8001 8.17024 20.6901 8.12023 20.5701 8.12023ZM16.6201 11.3102C16.9701 11.3102 17.3001 11.1702 17.5501 10.9202C17.8001 10.6702 17.9401 10.3402 17.9401 9.99024H15.3101C15.3101 10.3402 15.4501 10.6702 15.7001 10.9202C15.9501 11.1702 16.2801 11.3102 16.6301 11.3102H16.6201Z" fill="#141414"/>
</svg>
