<svg width="24" height="24" viewBox="0 0 24 24" fill="none" xmlns="http://www.w3.org/2000/svg">
<path d="M18.4998 16.0001H5.49979C4.66979 16.0001 3.99979 16.6701 3.99979 17.5001C3.99979 18.3301 4.66979 19.0001 5.49979 19.0001H18.4998C19.3298 19.0001 19.9998 18.3301 19.9998 17.5001C19.9998 16.6701 19.3298 16.0001 18.4998 16.0001ZM19.4598 7.11012L18.0798 8.27012C17.0698 9.12012 15.5098 8.81012 14.9198 7.64012L14.2898 6.39012C13.3498 4.53012 10.6598 4.53012 9.70979 6.39012L9.07979 7.64012C8.47979 8.81012 6.92979 9.12012 5.91979 8.27012L4.53979 7.11012C3.38979 6.14012 1.65979 7.22012 2.05979 8.66012L3.39979 13.5201C3.63979 14.4001 4.44979 15.0101 5.36979 15.0101H18.6198C19.5398 15.0101 20.3498 14.4001 20.5898 13.5201L21.9298 8.66012C22.3298 7.22012 20.5998 6.14012 19.4498 7.11012H19.4598Z" fill="#141414"/>
</svg>
