<svg width="24" height="24" viewBox="0 0 24 24" fill="none" xmlns="http://www.w3.org/2000/svg">
<path d="M15.6201 15.86C14.8401 15.08 13.5701 15.08 12.7901 15.86L12.0801 16.57C11.3701 17.28 10.6701 16.57 10.6701 16.57L6.43005 12.33C5.72005 11.62 6.43005 10.92 6.43005 10.92L7.14005 10.21C7.92005 9.43 7.92005 8.16 7.14005 7.38L6.43005 6.67C5.65005 5.89 4.38005 5.89 3.60005 6.67L2.61005 7.66C2.30005 7.97 2.10005 8.36 2.04005 8.8C1.87005 10.21 1.98005 13.54 5.72005 17.28C9.46005 21.02 12.8001 21.13 14.2001 20.96C14.6301 20.91 15.0301 20.7 15.3401 20.39L16.3301 19.4C17.1101 18.62 17.1101 17.35 16.3301 16.57L15.6201 15.86ZM16.5001 2C13.4601 2 11.0001 4.46 11.0001 7.5V13H16.5001C19.5401 13 22.0001 10.54 22.0001 7.5C22.0001 4.46 19.5401 2 16.5001 2ZM19.5001 8C19.5001 8.28 19.2801 8.5 19.0001 8.5H17.5001V10C17.5001 10.28 17.2801 10.5 17.0001 10.5H16.0001C15.7201 10.5 15.5001 10.28 15.5001 10V8.5H14.0001C13.7201 8.5 13.5001 8.28 13.5001 8V7C13.5001 6.72 13.7201 6.5 14.0001 6.5H15.5001V5C15.5001 4.72 15.7201 4.5 16.0001 4.5H17.0001C17.2801 4.5 17.5001 4.72 17.5001 5V6.5H19.0001C19.2801 6.5 19.5001 6.72 19.5001 7V8Z" fill="#141414"/>
</svg>
