<svg width="24" height="24" viewBox="0 0 24 24" fill="none" xmlns="http://www.w3.org/2000/svg">
<path d="M15.9942 17.0084C15.5986 17.0084 15.212 17.1257 14.8831 17.3455C14.5542 17.5652 14.2978 17.8776 14.1464 18.243C13.9951 18.6085 13.9555 19.0106 14.0326 19.3986C14.1098 19.7866 14.3003 20.1429 14.58 20.4226C14.8597 20.7023 15.2161 20.8928 15.604 20.97C15.992 21.0472 16.3941 21.0075 16.7596 20.8562C17.125 20.7048 17.4374 20.4485 17.6571 20.1196C17.8769 19.7907 17.9942 19.404 17.9942 19.0084C17.9942 18.478 17.7835 17.9693 17.4084 17.5942C17.0333 17.2191 16.5246 17.0084 15.9942 17.0084ZM2.5842 19.4184L4.5842 21.4184C4.95893 21.7909 5.46583 22 5.9942 22C6.52257 22 7.02948 21.7909 7.4042 21.4184L17.4042 11.4184C17.7798 11.0451 17.992 10.538 17.9942 10.0084V8.00841C17.992 7.83618 17.9685 7.66488 17.9242 7.49841L21.7042 3.71841C21.7979 3.62545 21.8723 3.51485 21.9231 3.39299C21.9739 3.27113 22 3.14043 22 3.00842C22 2.8764 21.9739 2.7457 21.9231 2.62384C21.8723 2.50198 21.7979 2.39138 21.7042 2.29842C21.6112 2.20469 21.5006 2.13029 21.3788 2.07952C21.2569 2.02876 21.1262 2.00262 20.9942 2.00262C20.8622 2.00262 20.7315 2.02876 20.6096 2.07952C20.4878 2.13029 20.3772 2.20469 20.2842 2.29842L16.5042 6.07841C16.3377 6.03415 16.1664 6.01064 15.9942 6.00841H13.9942C13.4646 6.01065 12.9576 6.22283 12.5842 6.59841L2.5842 16.5984C2.2117 16.9731 2.00262 17.48 2.00262 18.0084C2.00262 18.5368 2.2117 19.0437 2.5842 19.4184Z" fill="#141414"/>
</svg>
