<svg width="24" height="24" viewBox="0 0 24 24" fill="none" xmlns="http://www.w3.org/2000/svg">
<path d="M21.7001 13.4598C21.3701 12.6598 20.7801 11.9898 20.0301 11.5498C20.0401 11.3698 20.0401 11.1898 20.0301 11.0198C20.0301 9.7198 19.6001 8.4498 18.8101 7.4098C18.0201 6.3798 16.9001 5.6298 15.6401 5.2898C14.3801 4.9498 13.0401 5.0398 11.8401 5.5398C10.6401 6.0398 9.63006 6.9198 8.98006 8.0498C8.30006 8.0898 7.65006 8.2998 7.08006 8.6598C6.51006 9.01979 6.04006 9.5298 5.72006 10.1198C4.64006 10.2898 3.66006 10.8598 2.97006 11.7098C2.28006 12.5598 1.94006 13.6398 2.00006 14.7298C2.06006 15.8198 2.53006 16.8498 3.31006 17.6198C4.09006 18.3898 5.13006 18.8398 6.22006 18.8898H18.0501C18.9201 18.8898 19.7601 18.5998 20.4501 18.0698C21.1401 17.5398 21.6301 16.7998 21.8601 15.9598C22.0801 15.1198 22.0301 14.2298 21.7001 13.4298V13.4598ZM13.0001 16.9998C12.4501 16.9998 12.0001 16.5498 12.0001 15.9998C12.0001 15.4498 12.4501 14.9998 13.0001 14.9998C13.5501 14.9998 14.0001 15.4498 14.0001 15.9998C14.0001 16.5498 13.5501 16.9998 13.0001 16.9998ZM14.0001 12.9998C14.0001 13.5498 13.5501 13.9998 13.0001 13.9998C12.4501 13.9998 12.0001 13.5498 12.0001 12.9998V8.9998C12.0001 8.4498 12.4501 7.9998 13.0001 7.9998C13.5501 7.9998 14.0001 8.4498 14.0001 8.9998V12.9998Z" fill="#141414"/>
</svg>
