<svg width="24" height="24" viewBox="0 0 24 24" fill="none" xmlns="http://www.w3.org/2000/svg">
<path d="M12.16 13.2C12.1 13.04 12.08 12.84 12 12.84C11.92 12.84 11.9 13.04 11.84 13.2L11.01 15.71C10.98 15.8 10.98 15.85 10.98 15.87C10.98 15.92 11.01 15.94 11.08 15.94H12.91C12.98 15.94 13.01 15.92 13.01 15.87C13.01 15.85 13.01 15.8 12.98 15.71L12.16 13.2Z" fill="#141414"/>
<path d="M18.75 9.29C18.43 8.74 17.98 8.29 17.43 7.97V7.46C17.43 6.01 16.86 4.63 15.84 3.6C14.82 2.58 13.44 2 12 2C10.56 2 9.18001 2.57 8.16001 3.6C7.14001 4.62 6.57001 6.01 6.57001 7.46V7.97C6.02001 8.29 5.57001 8.74 5.25001 9.29C4.93001 9.84 4.76001 10.46 4.76001 11.1V18.37C4.76001 19.33 5.14001 20.26 5.82001 20.94C6.50001 21.62 7.42001 22.01 8.38001 22.01H15.63C16.59 22.01 17.51 21.63 18.19 20.94C18.87 20.26 19.25 19.33 19.25 18.37V11.1C19.25 10.47 19.08 9.84 18.76 9.29H18.75ZM10.71 6.17C11.05 5.83 11.51 5.64 11.99 5.64C12.47 5.64 12.93 5.83 13.27 6.17C13.61 6.51 13.8 6.97 13.8 7.46H10.18C10.18 6.98 10.37 6.52 10.71 6.17ZM14.59 19C14.34 19 14.07 18.89 13.95 18.52L13.6 17.53C13.57 17.43 13.52 17.37 13.43 17.37H10.56C10.47 17.37 10.42 17.43 10.39 17.53L10.04 18.52C9.91001 18.88 9.65001 19 9.40001 19C9.04001 19 8.61001 18.77 8.61001 18.35C8.61001 18.26 8.63001 18.15 8.68001 18.03L10.87 12.03C11.16 11.23 11.41 11 12.01 11C12.61 11 12.86 11.24 13.14 12.03L15.33 18.03C15.38 18.14 15.4 18.26 15.4 18.35C15.4 18.74 15 19 14.61 19H14.59Z" fill="#141414"/>
</svg>
