<svg width="24" height="24" viewBox="0 0 24 24" fill="none" xmlns="http://www.w3.org/2000/svg">
<path d="M10.44 5.62012C10.71 5.88012 11.04 6.06012 11.41 6.16012C11.79 6.26012 12.19 6.26012 12.57 6.16012C12.95 6.06012 13.29 5.87012 13.57 5.61012C13.85 5.34012 14.05 5.01012 14.14 4.65012C14.24 4.29012 14.24 3.90012 14.13 3.54012C14.03 3.19012 13.84 2.87012 13.57 2.61012C13.3 2.35012 12.97 2.17012 12.6 2.07012C12.22 1.97012 11.82 1.97012 11.44 2.07012C11.06 2.17012 10.72 2.36012 10.44 2.62012C10.16 2.89012 9.96 3.22012 9.87 3.58012C9.77 3.94012 9.77 4.33012 9.88 4.69012C9.98 5.04012 10.17 5.36012 10.44 5.62012ZM19.32 11.7501H5.02V11.2301V11.1301V10.3601C5.02 9.45012 5.44 9.12012 5.74 8.97012C6.13 9.54012 6.9 9.69012 7.47 9.29012C8.04 8.89012 8.18 8.11012 7.78 7.54012C7.39 6.97012 6.62 6.82012 6.05 7.22012C5.78 7.41012 5.59 7.70012 5.53 8.02012C4.89 8.24012 4.07 8.88012 4.07 10.3501V12.1501C4.03 12.2401 4 12.3401 4 12.4401V14.0701C4 14.4501 4.31 14.7501 4.68 14.7501H8V20.7301C8 21.2901 8.45 21.7401 9.01 21.7401H14.99C15.55 21.7401 16 21.2901 16 20.7301V14.7501H19.32C19.7 14.7501 20 14.4401 20 14.0701V12.4401C20 12.0601 19.69 11.7601 19.32 11.7601V11.7501ZM15.71 10.2601C15.71 8.33012 14.14 6.76012 12.21 6.76012H11.8C9.87 6.76012 8.3 8.33012 8.3 10.2601V11.0001H15.71V10.2601Z" fill="#141414"/>
</svg>
