<svg width="24" height="24" viewBox="0 0 24 24" fill="none" xmlns="http://www.w3.org/2000/svg">
<path d="M15.01 10.9399C15.39 11.5099 16.02 11.8399 16.7 11.8399H18.21C18.76 11.8399 19.21 11.3899 19.21 10.8399C19.21 10.2899 18.76 9.83988 18.21 9.83988H16.68L15.43 7.94988C14.87 7.09988 13.75 6.79988 12.84 7.25988L8.98 9.18988C8.35 9.50988 7.93 10.1099 7.87 10.8199C7.81 11.5299 8.11 12.1999 8.67 12.6199L11.05 14.4099V17.9999C11.05 18.5499 11.5 18.9999 12.05 18.9999C12.6 18.9999 13.05 18.5499 13.05 17.9999V14.4099C13.05 13.7799 12.75 13.1699 12.24 12.7899L9.88 10.9699L13.77 9.04988L15.02 10.9199L15.01 10.9399Z" fill="#141414"/>
<path d="M17.69 7.70988C18.54 7.70988 19.23 7.01988 19.23 6.16988C19.23 5.31988 18.54 4.62988 17.69 4.62988C16.84 4.62988 16.15 5.31988 16.15 6.16988C16.15 7.01988 16.84 7.70988 17.69 7.70988Z" fill="#141414"/>
<path d="M5.74 12.8899C3.68 12.8899 2 14.5699 2 16.6299C2 18.6899 3.68 20.3699 5.74 20.3699C7.8 20.3699 9.48 18.6899 9.48 16.6299C9.48 14.5699 7.8 12.8899 5.74 12.8899ZM5.74 18.3699C4.78 18.3699 4 17.5899 4 16.6299C4 15.6699 4.78 14.8899 5.74 14.8899C6.7 14.8899 7.48 15.6699 7.48 16.6299C7.48 17.5899 6.7 18.3699 5.74 18.3699Z" fill="#141414"/>
<path d="M18.26 12.8899C16.2 12.8899 14.52 14.5699 14.52 16.6299C14.52 18.6899 16.2 20.3699 18.26 20.3699C20.32 20.3699 22 18.6899 22 16.6299C22 14.5699 20.32 12.8899 18.26 12.8899ZM18.26 18.3699C17.3 18.3699 16.52 17.5899 16.52 16.6299C16.52 15.6699 17.3 14.8899 18.26 14.8899C19.22 14.8899 20 15.6699 20 16.6299C20 17.5899 19.22 18.3699 18.26 18.3699Z" fill="#141414"/>
</svg>
