<svg width="24" height="24" viewBox="0 0 24 24" fill="none" xmlns="http://www.w3.org/2000/svg">
<path d="M12.99 8.99012H11C10.45 8.99012 10 9.41012 10 9.92012V21.9901H14V9.93012C14 9.41012 13.55 8.99012 12.99 8.99012Z" fill="#141414"/>
<path d="M18.98 11.9901H17.02C16.46 11.9901 16 12.4101 16 12.9201V21.9901H20V12.9201C20 12.4101 19.54 11.9901 18.98 11.9901Z" fill="#141414"/>
<path d="M6.99 15.9901H5.01C4.45 15.9901 4 16.3801 4 16.8501V21.9901H8V16.8501C8 16.3701 7.55 15.9901 6.99 15.9901Z" fill="#141414"/>
<path d="M14.21 3.56012L13.15 3.45012C13.04 3.45012 12.93 3.37012 12.88 3.26012L12.44 2.28012C12.28 1.90012 11.73 1.90012 11.57 2.28012L11.13 3.26012C11.08 3.37012 10.99 3.45012 10.86 3.45012L9.8 3.56012C9.39 3.61012 9.23 4.10012 9.53 4.38012L10.32 5.09012C10.4 5.17012 10.46 5.28012 10.43 5.39012L10.21 6.42012C10.13 6.83012 10.56 7.13012 10.92 6.94012L11.85 6.42012C11.96 6.37012 12.07 6.37012 12.18 6.42012L13.11 6.94012C13.46 7.13012 13.9 6.83012 13.82 6.42012L13.6 5.39012C13.57 5.28012 13.63 5.17012 13.71 5.09012L14.5 4.38012C14.8 4.11012 14.64 3.59012 14.23 3.56012H14.21Z" fill="#141414"/>
</svg>
