<svg width="24" height="24" viewBox="0 0 24 24" fill="none" xmlns="http://www.w3.org/2000/svg">
<path d="M15.5 7H19.5C19.5 6.47 19.29 5.96 18.91 5.59L15.91 2.59C15.54 2.21 15.03 2 14.5 2V6C14.5 6.27 14.61 6.52 14.79 6.71C14.98 6.9 15.23 7 15.5 7Z" fill="#141414"/>
<path d="M13.38 8.12C12.82 7.56 12.5 6.79 12.5 6V2H7C6.34 2 5.7 2.26 5.23 2.73C4.76 3.2 4.5 3.83 4.5 4.5V19.5C4.5 20.16 4.76 20.8 5.23 21.27C5.7 21.74 6.33 22 7 22H17C17.66 22 18.3 21.74 18.77 21.27C19.24 20.8 19.5 20.17 19.5 19.5V9H15.5C14.7 9 13.94 8.68 13.38 8.12ZM9.61 18.4C9.44 18.61 8.97 18.98 8.21 18.98C7.76 18.98 7.15 18.85 6.81 18.39C6.53 18.02 6.47 17.41 6.47 16.64C6.47 15.87 6.52 15.25 6.81 14.89C7.18 14.43 7.71 14.3 8.21 14.3C8.67 14.3 9.08 14.43 9.4 14.69C9.55 14.82 9.66 14.92 9.66 15.15C9.66 15.4 9.39 15.71 9.12 15.71C8.99 15.71 8.91 15.69 8.83 15.62C8.6 15.41 8.47 15.37 8.24 15.37C8.06 15.37 7.85 15.46 7.75 15.64C7.64 15.84 7.64 16.17 7.64 16.63C7.64 17.09 7.64 17.42 7.75 17.62C7.86 17.82 8.04 17.89 8.24 17.89C8.41 17.89 8.65 17.81 8.86 17.6C8.95 17.51 9.05 17.44 9.2 17.44C9.47 17.44 9.76 17.77 9.76 18C9.76 18.19 9.69 18.28 9.6 18.39L9.61 18.4ZM11.89 18.98C11.22 18.98 10.62 18.76 10.29 18.4C10.22 18.31 10.12 18.2 10.12 18.03C10.12 17.76 10.39 17.49 10.67 17.49C10.8 17.49 10.92 17.57 11.03 17.66C11.32 17.86 11.59 17.92 11.89 17.92C12.21 17.92 12.43 17.79 12.43 17.58C12.43 17.43 12.28 17.35 12.01 17.26L11.42 17.06C10.66 16.81 10.19 16.44 10.19 15.67C10.19 14.9 10.86 14.32 11.89 14.32C12.5 14.32 12.9 14.51 13.2 14.73C13.35 14.84 13.43 14.98 13.43 15.14C13.43 15.41 13.14 15.7 12.91 15.7C12.77 15.7 12.7 15.65 12.61 15.6C12.38 15.47 12.11 15.39 11.89 15.39C11.57 15.39 11.36 15.5 11.36 15.67C11.36 15.8 11.51 15.9 11.76 15.99L12.35 16.19C13.16 16.46 13.6 16.88 13.6 17.58C13.6 18.46 12.9 18.99 11.89 18.99V18.98ZM15.72 16.95C15.78 16.95 15.79 16.85 15.85 16.68L16.47 14.67C16.56 14.39 16.74 14.31 16.93 14.31C17.21 14.31 17.53 14.49 17.53 14.82C17.53 14.89 17.53 14.95 17.5 15.03L16.39 18.44C16.27 18.81 16.05 18.98 15.73 18.98C15.41 18.98 15.18 18.81 15.07 18.44L13.96 15.03C13.93 14.95 13.93 14.88 13.93 14.82C13.93 14.51 14.23 14.31 14.53 14.31C14.72 14.31 14.9 14.4 14.99 14.67L15.61 16.68C15.66 16.85 15.68 16.95 15.74 16.95H15.72Z" fill="#141414"/>
</svg>
