<svg width="24" height="24" viewBox="0 0 24 24" fill="none" xmlns="http://www.w3.org/2000/svg">
<path d="M21.7001 13.4598C21.3701 12.6598 20.7801 11.9898 20.0301 11.5498C20.0401 11.3698 20.0401 11.1898 20.0301 11.0198C20.0301 9.7198 19.6001 8.4498 18.8101 7.4098C18.0201 6.3698 16.9001 5.6298 15.6401 5.2898C14.3801 4.9498 13.0401 5.0398 11.8401 5.5398C10.6401 6.0398 9.63006 6.9198 8.98006 8.0498C8.30006 8.0898 7.65006 8.2998 7.08006 8.6598C6.51006 9.01979 6.04006 9.5298 5.72006 10.1198C4.64006 10.2898 3.66006 10.8598 2.97006 11.7098C2.28006 12.5598 1.94006 13.6398 2.00006 14.7298C2.06006 15.8198 2.53006 16.8498 3.31006 17.6198C4.09006 18.3898 5.13006 18.8398 6.22006 18.8898H18.0601C18.9301 18.8898 19.7701 18.5998 20.4601 18.0698C21.1501 17.5398 21.6401 16.7998 21.8701 15.9598C22.0901 15.1198 22.0401 14.2298 21.7101 13.4298L21.7001 13.4598ZM12.0001 14.9498C12.0001 15.4998 11.5601 15.9398 11.0101 15.9398C10.4601 15.9398 10.0201 15.4998 10.0201 14.9498V10.9998C10.0201 10.4498 10.4601 10.0098 11.0101 10.0098C11.5601 10.0098 12.0001 10.4498 12.0001 10.9998V14.9498ZM15.9501 14.9498C15.9501 15.4998 15.5101 15.9398 14.9601 15.9398C14.4101 15.9398 13.9701 15.4998 13.9701 14.9498V10.9998C13.9701 10.4498 14.4101 10.0098 14.9601 10.0098C15.5101 10.0098 15.9501 10.4498 15.9501 10.9998V14.9498Z" fill="#141414"/>
</svg>
