<svg width="24" height="24" viewBox="0 0 24 24" fill="none" xmlns="http://www.w3.org/2000/svg">
<path d="M12 5.5C12 4.12 10.88 3 9.5 3C8.12 3 7 4.12 7 5.5V13.89C6.06 14.64 5.5 15.79 5.5 17C5.5 19.21 7.29 21 9.5 21C11.71 21 13.5 19.21 13.5 17C13.5 15.79 12.94 14.65 12 13.89V5.5ZM7.5 17C7.5 16.29 7.88 15.65 8.5 15.28L9 14.99V5.5C9 5.22 9.22 5 9.5 5C9.78 5 10 5.22 10 5.5V14.99L10.5 15.28C11.13 15.65 11.5 16.29 11.5 17H7.5ZM20 9H18.91L19.7 8.21C20.09 7.82 20.09 7.19 19.7 6.8C19.31 6.41 18.68 6.41 18.29 6.8L16.08 9.01H14.99V7.92L17.2 5.71C17.59 5.32 17.59 4.69 17.2 4.3C16.81 3.91 16.18 3.91 15.79 4.3L15 5.09V4C15 3.45 14.55 3 14 3C13.45 3 13 3.45 13 4V12.5C13 12.63 13.03 12.76 13.08 12.88C13.13 13 13.2 13.11 13.3 13.21L15.8 15.71C16 15.91 16.25 16 16.51 16C16.77 16 17.02 15.9 17.22 15.71C17.61 15.32 17.61 14.69 17.22 14.3L15.01 12.09V11H16.1L18.31 13.21C18.51 13.41 18.76 13.5 19.02 13.5C19.28 13.5 19.53 13.4 19.73 13.21C20.12 12.82 20.12 12.19 19.73 11.8L18.94 11.01H20.03C20.58 11.01 21.03 10.56 21.03 10.01C21.03 9.46 20.58 9.01 20.03 9.01L20 9Z" fill="#141414"/>
</svg>
