<svg width="24" height="24" viewBox="0 0 24 24" fill="none" xmlns="http://www.w3.org/2000/svg">
<path d="M14.4659 7.04701H9.51899C8.15294 7.04701 7.04554 8.15441 7.04554 9.52046V14.4674C7.04554 15.8334 8.15294 16.9408 9.51899 16.9408H14.4659C15.832 16.9408 16.9394 15.8334 16.9394 14.4674V9.52046C16.9394 8.15441 15.832 7.04701 14.4659 7.04701Z" fill="#141414"/>
<path d="M21.7008 2.28561C21.4534 2.03826 21.07 2.03826 20.8227 2.28561L18.1637 4.94457V3.96756C18.1637 3.62127 17.8916 3.34919 17.5454 3.34919C17.1991 3.34919 16.927 3.62127 16.927 3.96756V6.44101C16.927 6.78729 17.1991 7.05937 17.5454 7.05937H20.0188C20.3651 7.05937 20.6372 6.78729 20.6372 6.44101C20.6372 6.09473 20.3651 5.82265 20.0188 5.82265H19.0418L21.7008 3.16368C21.9481 2.91634 21.9481 2.53295 21.7008 2.28561Z" fill="#141414"/>
<path d="M6.42718 16.9408H3.95372C3.60744 16.9408 3.33536 17.2129 3.33536 17.5592C3.33536 17.9055 3.60744 18.1775 3.95372 18.1775H4.93074L2.28414 20.8365C2.0368 21.0839 2.0368 21.4672 2.28414 21.7146C2.40781 21.8383 2.56859 21.9001 2.717 21.9001C2.8654 21.9001 3.03855 21.8383 3.14985 21.7146L5.80881 19.0556V20.0326C5.80881 20.3789 6.08089 20.651 6.42718 20.651C6.77346 20.651 7.04554 20.3789 7.04554 20.0326V17.5592C7.04554 17.2129 6.77346 16.9408 6.42718 16.9408Z" fill="#141414"/>
</svg>
