<svg width="24" height="24" viewBox="0 0 24 24" fill="none" xmlns="http://www.w3.org/2000/svg">
<path d="M7.26 15.9C7.88 14.07 9.54 12.71 11.53 12.52C12.66 11.25 14.28 10.5 16 10.5C18.37 10.5 20.48 11.92 21.44 14.01C21.79 13.42 22 12.74 22 12C22 10.48 21.14 9.18 19.9 8.5C19.97 8.18 20 7.84 20 7.5C20 4.74 17.76 2.5 15 2.5C13.33 2.5 11.85 3.33 10.94 4.6C10.63 4.54 10.32 4.5 10 4.5C7.39 4.5 5.28 6.5 5.05 9.05C3.33 9.27 2 10.73 2 12.5C2 14.43 3.57 16 5.5 16H7.08C7.14 15.97 7.2 15.93 7.26 15.9ZM19.9 15.66C19.51 13.86 17.91 12.51 15.99 12.51C14.49 12.51 13.2 13.34 12.52 14.56C12.35 14.53 12.17 14.51 11.99 14.51C10.33 14.51 8.99 15.85 8.99 17.51C7.89 17.51 6.99 18.41 6.99 19.51C6.99 20.61 7.89 21.51 8.99 21.51H18.99C20.65 21.51 21.99 20.17 21.99 18.51C21.99 17.17 21.11 16.05 19.9 15.66Z" fill="#141414"/>
</svg>
