<svg width="24" height="24" viewBox="0 0 24 24" fill="none" xmlns="http://www.w3.org/2000/svg">
<path d="M8.08008 9.19001C8.08008 8.54001 7.63008 8.00001 7.08008 8.00001C6.53008 8.00001 6.08008 8.53001 6.08008 9.19001V13.94H8.08008V9.19001ZM6.08008 14.95V15.58C6.08008 18.03 7.84008 20.01 10.0201 20.01H11.7101C12.0201 20.01 12.2701 19.73 12.2701 19.38V18.75H12.8301C14.0701 18.75 15.0801 17.62 15.0801 16.22V14.96H6.08008V14.95ZM17.6801 12.3C17.5301 12.12 17.3201 12.01 17.0801 12.01H13.4801L14.9301 8.38001C15.1401 7.87001 14.8901 7.29001 14.3701 7.08001C13.8601 6.87001 13.2801 7.12001 13.0701 7.64001L11.0701 12.64C10.8601 13.15 11.1101 13.73 11.6301 13.94C11.7501 13.99 11.8801 14.01 12.0001 14.01C12.0201 14.01 12.0301 14.01 12.0501 14.01C12.0601 14.01 12.0701 14.01 12.0801 14.01H16.0801V19.13C16.0801 19.61 16.5101 20.01 17.0401 20.01C17.5701 20.01 18.0001 19.62 18.0001 19.13V12.94C18.0001 12.68 17.8701 12.45 17.6701 12.29L17.6801 12.3ZM16.5101 7.01001C16.8101 7.01001 17.1001 6.92001 17.3401 6.76001C17.5901 6.60001 17.7801 6.36001 17.8901 6.09001C18.0001 5.82001 18.0301 5.51001 17.9801 5.22001C17.9201 4.93001 17.7801 4.66001 17.5701 4.45001C17.3601 4.24001 17.0901 4.10001 16.8001 4.04001C16.5101 3.98001 16.2101 4.01001 15.9301 4.13001C15.6601 4.24001 15.4201 4.44001 15.2601 4.68001C15.1001 4.93001 15.0101 5.22001 15.0101 5.51001C15.0101 5.91001 15.1701 6.29001 15.4501 6.57001C15.7301 6.85001 16.1101 7.01001 16.5101 7.01001Z" fill="#141414"/>
</svg>
