<svg width="24" height="24" viewBox="0 0 24 24" fill="none" xmlns="http://www.w3.org/2000/svg">
<path d="M16.3399 15.5702L15.6199 14.8202C15.4299 14.6302 15.2099 14.4902 14.9699 14.3902C14.7299 14.2902 14.4699 14.2402 14.1999 14.2402C13.9299 14.2402 13.6799 14.2902 13.4299 14.3902C13.1899 14.4902 12.9699 14.6402 12.7799 14.8202L12.0799 15.5302C11.9899 15.6202 11.8799 15.7002 11.7499 15.7502C11.6299 15.8002 11.4999 15.8302 11.3699 15.8302C11.2399 15.8302 11.1099 15.8002 10.9899 15.7502C10.8699 15.7002 10.7599 15.6202 10.6599 15.5302L6.41992 11.2902C6.32992 11.2002 6.24992 11.0902 6.19992 10.9602C6.14992 10.8302 6.11992 10.7102 6.11992 10.5802C6.11992 10.4502 6.14992 10.3202 6.19992 10.2002C6.24992 10.0802 6.31992 9.97023 6.41992 9.87023L7.12992 9.17023C7.31992 8.98023 7.45992 8.76023 7.55992 8.52024C7.65992 8.28024 7.70992 8.02023 7.70992 7.75023C7.70992 7.48023 7.65992 7.23023 7.55992 6.98023C7.45992 6.73023 7.30992 6.52023 7.12992 6.33023L6.41992 5.62023C6.22992 5.43023 6.00992 5.29023 5.76992 5.19023C5.52992 5.09023 5.26992 5.04023 4.99992 5.04023C4.72992 5.04023 4.47992 5.09023 4.22992 5.19023C3.98992 5.29023 3.76992 5.44023 3.57992 5.62023L2.57992 6.62023C2.27992 6.93023 2.07992 7.32023 2.01992 7.75023C1.85992 9.15023 1.97992 12.4902 5.69992 16.2302C9.41992 19.9702 12.7799 20.0702 14.1899 19.9502C14.6199 19.8902 15.0099 19.6902 15.3199 19.3902L16.3199 18.3902C16.5099 18.2002 16.6499 17.9802 16.7499 17.7402C16.8499 17.5002 16.8999 17.2402 16.8999 16.9702C16.8999 16.7002 16.8499 16.4502 16.7499 16.2002C16.6499 15.9602 16.4999 15.7402 16.3199 15.5502L16.3399 15.5702Z" fill="#141414"/>
<path d="M18.9999 6.99023H16.9999V4.99023C16.9999 4.44023 16.5499 3.99023 15.9999 3.99023C15.4499 3.99023 14.9999 4.44023 14.9999 4.99023V6.99023H12.9999C12.4499 6.99023 11.9999 7.44023 11.9999 7.99023C11.9999 8.54023 12.4499 8.99023 12.9999 8.99023H14.9999V10.9902C14.9999 11.5402 15.4499 11.9902 15.9999 11.9902C16.5499 11.9902 16.9999 11.5402 16.9999 10.9902V8.99023H18.9999C19.5499 8.99023 19.9999 8.54023 19.9999 7.99023C19.9999 7.44023 19.5499 6.99023 18.9999 6.99023Z" fill="#141414"/>
</svg>
