<svg width="24" height="24" viewBox="0 0 24 24" fill="none" xmlns="http://www.w3.org/2000/svg">
<path d="M19.0588 9.64706H14.3529V4.94118C14.3529 4.37647 13.9765 4 13.4118 4C12.8471 4 12.4706 4.37647 12.4706 4.94118V10.5882C12.4706 11.1529 12.8471 11.5294 13.4118 11.5294H19.0588C19.6235 11.5294 20 11.1529 20 10.5882C20 10.0235 19.6235 9.64706 19.0588 9.64706Z" fill="#141414"/>
<path d="M10.5882 12.4706H4.94118C4.37647 12.4706 4 12.8471 4 13.4118C4 13.9765 4.37647 14.3529 4.94118 14.3529H9.64706V19.0588C9.64706 19.6235 10.0235 20 10.5882 20C11.1529 20 11.5294 19.6235 11.5294 19.0588V13.4118C11.5294 12.8471 11.1529 12.4706 10.5882 12.4706Z" fill="#141414"/>
</svg>
