<svg width="24" height="24" viewBox="0 0 24 24" fill="none" xmlns="http://www.w3.org/2000/svg">
<path d="M17.5 6C18.3284 6 19 5.32843 19 4.5C19 3.67157 18.3284 3 17.5 3C16.6716 3 16 3.67157 16 4.5C16 5.32843 16.6716 6 17.5 6Z" fill="#141414"/>
<path d="M22 11.95C21.84 11.97 21.67 12 21.5 12C20.2 12 19.06 11.37 18.33 10.41C18.06 10.47 17.79 10.5 17.5 10.5C15.29 10.5 13.5 8.71 13.5 6.5C13.5 6.07 13.59 5.66 13.71 5.27C12.68 4.55 12 3.35 12 2C6.48 2 2 6.48 2 12C2 17.52 6.48 22 12 22C17.52 22 22 17.52 22 12C22 11.98 22 11.97 22 11.95ZM7.5 16C6.67 16 6 15.33 6 14.5C6 13.67 6.67 13 7.5 13C8.33 13 9 13.67 9 14.5C9 15.33 8.33 16 7.5 16ZM8.5 10.5C7.4 10.5 6.5 9.6 6.5 8.5C6.5 7.4 7.4 6.5 8.5 6.5C9.6 6.5 10.5 7.4 10.5 8.5C10.5 9.6 9.6 10.5 8.5 10.5ZM17 17C16.17 17 15.5 16.33 15.5 15.5C15.5 14.67 16.17 14 17 14C17.83 14 18.5 14.67 18.5 15.5C18.5 16.33 17.83 17 17 17Z" fill="#141414"/>
</svg>
