<svg width="24" height="24" viewBox="0 0 24 24" fill="none" xmlns="http://www.w3.org/2000/svg">
<path d="M18.77 2.73C18.3 2.26 17.67 2 17 2H9.5C8.97 2 8.46 2.21 8.09 2.59L5.09 5.59C4.71 5.96 4.5 6.47 4.5 7V19.5C4.5 20.16 4.76 20.8 5.23 21.27C5.7 21.74 6.33 22 7 22H17C17.66 22 18.3 21.74 18.77 21.27C19.24 20.8 19.5 20.17 19.5 19.5V4.5C19.5 3.84 19.24 3.2 18.77 2.73ZM8.4 19C8.28 19 8.16 18.94 8.06 18.8L7.45 17.88L6.84 18.8C6.74 18.95 6.62 19 6.51 19C6.29 19 6.01 18.8 6.01 18.55C6.01 18.47 6.04 18.39 6.1 18.29L6.91 17.11C6.91 17.11 6.93 17.09 6.93 17.07C6.93 17.05 6.91 17.02 6.91 17.02L6.11 15.84C6.04 15.74 6.02 15.65 6.02 15.58C6.02 15.34 6.28 15.13 6.52 15.13C6.64 15.13 6.76 15.19 6.86 15.34L7.46 16.26L8.06 15.34C8.16 15.19 8.28 15.13 8.4 15.13C8.62 15.13 8.9 15.33 8.9 15.58C8.9 15.66 8.87 15.74 8.81 15.84L8.01 17.02C8.01 17.02 7.99 17.05 7.99 17.07C7.99 17.09 8.01 17.11 8.01 17.11L8.82 18.29C8.89 18.39 8.91 18.48 8.91 18.55C8.91 18.79 8.64 19 8.4 19ZM11.3 18.98H9.79C9.55 18.98 9.34 18.89 9.34 18.57V15.52C9.34 15.21 9.59 15.13 9.8 15.13C10.02 15.13 10.27 15.21 10.27 15.52V18.04C10.27 18.04 10.27 18.09 10.31 18.09H11.29C11.6 18.09 11.69 18.3 11.69 18.54C11.69 18.78 11.61 18.98 11.3 18.98ZM13.46 19C12.9 19 12.4 18.82 12.13 18.52C12.07 18.45 11.99 18.36 11.99 18.21C11.99 17.99 12.22 17.76 12.45 17.76C12.55 17.76 12.65 17.83 12.75 17.9C12.99 18.07 13.22 18.11 13.46 18.11C13.72 18.11 13.91 18.01 13.91 17.83C13.91 17.7 13.78 17.64 13.56 17.57L13.07 17.41C12.44 17.2 12.05 16.89 12.05 16.26C12.05 15.63 12.6 15.14 13.46 15.14C13.97 15.14 14.3 15.3 14.54 15.48C14.67 15.57 14.73 15.68 14.73 15.82C14.73 16.05 14.49 16.29 14.3 16.29C14.18 16.29 14.12 16.25 14.05 16.21C13.86 16.11 13.63 16.03 13.46 16.03C13.2 16.03 13.02 16.12 13.02 16.26C13.02 16.36 13.14 16.45 13.35 16.52L13.84 16.68C14.51 16.91 14.87 17.25 14.87 17.83C14.87 18.56 14.29 19 13.46 19ZM17.5 19C17.38 19 17.26 18.94 17.16 18.8L16.55 17.88L15.94 18.8C15.84 18.95 15.72 19 15.61 19C15.39 19 15.11 18.8 15.11 18.55C15.11 18.47 15.14 18.39 15.2 18.29L16.01 17.11C16.01 17.11 16.03 17.09 16.03 17.07C16.03 17.05 16.01 17.02 16.01 17.02L15.21 15.84C15.14 15.74 15.12 15.65 15.12 15.58C15.12 15.34 15.38 15.13 15.62 15.13C15.74 15.13 15.86 15.19 15.96 15.34L16.56 16.26L17.16 15.34C17.26 15.19 17.38 15.13 17.5 15.13C17.72 15.13 18 15.33 18 15.58C18 15.66 17.97 15.74 17.91 15.84L17.11 17.02C17.11 17.02 17.09 17.05 17.09 17.07C17.09 17.09 17.11 17.11 17.11 17.11L17.92 18.29C17.99 18.39 18.01 18.48 18.01 18.55C18.01 18.79 17.74 19 17.5 19Z" fill="#141414"/>
</svg>
