<svg width="24" height="24" viewBox="0 0 24 24" fill="none" xmlns="http://www.w3.org/2000/svg">
<path d="M14.1039 9.07292C14.1039 7.9053 13.1486 6.94997 11.981 6.94997C10.8133 6.94997 9.85801 7.9053 9.85801 9.07292C9.85801 9.72042 10.1552 10.2936 10.6117 10.6864L8.81776 20.5475C8.71162 21.1207 9.09375 21.6726 9.66694 21.7788C9.73063 21.7894 9.79432 21.8 9.85801 21.8C10.3569 21.8 10.8027 21.4391 10.8983 20.9296L11.981 15.0066L13.0637 20.9296C13.1592 21.4391 13.605 21.8 14.1039 21.8C14.1676 21.8 14.2313 21.8 14.295 21.7788C14.8682 21.6726 15.2503 21.1207 15.1442 20.5475L13.3503 10.6864C13.8067 10.2936 14.1039 9.72042 14.1039 9.07292Z" fill="#141414"/>
<path d="M20.2392 2.39624C19.8677 1.93981 19.199 1.86551 18.7425 2.23702C18.2861 2.60854 18.2118 3.27727 18.5833 3.7337C19.804 5.241 20.4728 7.13042 20.4728 9.07292C20.4728 11.0154 19.8253 12.8836 18.5833 14.4121C18.2118 14.8686 18.2861 15.5373 18.7425 15.9088C18.9336 16.068 19.1778 16.1423 19.4113 16.1423C19.7191 16.1423 20.0269 16.0043 20.2392 15.7496C21.7571 13.8708 22.5957 11.5037 22.5957 9.07292C22.5957 6.64214 21.7571 4.27505 20.2392 2.39624Z" fill="#141414"/>
<path d="M15.59 5.03932C15.1229 5.3896 15.0274 6.05833 15.3777 6.52538C15.9296 7.26841 16.2269 8.14944 16.2269 9.07292C16.2269 9.9964 15.9296 10.8774 15.3777 11.6205C15.0274 12.0875 15.1229 12.7562 15.59 13.1065C15.781 13.2551 16.0039 13.3188 16.2269 13.3188C16.5453 13.3188 16.8637 13.1702 17.076 12.8942C17.9146 11.7903 18.3498 10.4635 18.3498 9.07292C18.3498 7.68239 17.904 6.35555 17.076 5.25161C16.7257 4.78456 16.057 4.68903 15.59 5.03932Z" fill="#141414"/>
<path d="M5.21936 2.23702C4.76293 1.86551 4.0942 1.93981 3.72268 2.39624C2.20478 4.27505 1.36621 6.65276 1.36621 9.07292C1.36621 11.4931 2.20478 13.8708 3.72268 15.7496C3.93498 16.0043 4.24281 16.1423 4.55063 16.1423C4.78416 16.1423 5.01768 16.068 5.21936 15.9088C5.6758 15.5373 5.7501 14.8686 5.37858 14.4121C4.15789 12.9048 3.48916 11.0154 3.48916 9.07292C3.48916 7.13042 4.13666 5.26223 5.37858 3.7337C5.7501 3.27727 5.6758 2.60854 5.21936 2.23702Z" fill="#141414"/>
<path d="M8.37194 5.03932C7.90489 4.68903 7.23617 4.78456 6.88588 5.25161C6.04731 6.35555 5.61211 7.68239 5.61211 9.07292C5.61211 10.4635 6.05793 11.7903 6.88588 12.8942C7.09817 13.1702 7.41662 13.3188 7.73506 13.3188C7.95797 13.3188 8.18088 13.2445 8.37194 13.1065C8.83899 12.7562 8.93453 12.0875 8.58424 11.6205C8.03227 10.8774 7.73506 9.9964 7.73506 9.07292C7.73506 8.14944 8.03227 7.26841 8.58424 6.52538C8.93453 6.05833 8.83899 5.3896 8.37194 5.03932Z" fill="#141414"/>
</svg>
