<svg width="24" height="24" viewBox="0 0 24 24" fill="none" xmlns="http://www.w3.org/2000/svg">
<path d="M8.86 15.53H8.32C8.32 15.53 8.26 15.54 8.26 15.59V17.89C8.26 17.89 8.27 17.95 8.32 17.95H8.86C9.05 17.95 9.24 17.88 9.35 17.71C9.45 17.54 9.46 17.15 9.46 16.74C9.46 16.33 9.46 15.95 9.35 15.77C9.25 15.6 9.06 15.53 8.86 15.53Z" fill="#141414"/>
<path d="M12.76 15.5C12.56 15.5 12.38 15.58 12.27 15.77C12.17 15.95 12.16 16.33 12.16 16.74C12.16 17.15 12.17 17.53 12.27 17.71C12.37 17.9 12.56 17.98 12.76 17.98C12.96 17.98 13.14 17.9 13.25 17.71C13.35 17.54 13.36 17.15 13.36 16.74C13.36 16.33 13.35 15.95 13.25 15.77C13.15 15.58 12.96 15.5 12.76 15.5Z" fill="#141414"/>
<path d="M19.27 2.73C18.8 2.26 18.17 2 17.5 2H10C9.47 2 8.96 2.21 8.59 2.59L5.59 5.59C5.21 5.96 5 6.47 5 7V19.5C5 20.16 5.26 20.8 5.73 21.27C6.2 21.74 6.83 22 7.5 22H17.5C18.16 22 18.8 21.74 19.27 21.27C19.74 20.8 20 20.17 20 19.5V4.5C20 3.84 19.74 3.2 19.27 2.73ZM10.27 18.45C9.91 18.89 9.42 19 8.9 19H7.67C7.4 19 7.15 18.88 7.15 18.51V14.97C7.15 14.6 7.4 14.47 7.67 14.47H8.9C9.42 14.47 9.91 14.58 10.27 15.02C10.54 15.35 10.6 15.94 10.6 16.73C10.6 17.52 10.54 18.12 10.27 18.45ZM14.17 18.45C13.81 18.91 13.28 19.03 12.76 19.03C12.24 19.03 11.71 18.91 11.35 18.45C11.08 18.11 11.02 17.53 11.02 16.74C11.02 15.95 11.08 15.37 11.35 15.03C11.71 14.57 12.24 14.45 12.76 14.45C13.28 14.45 13.81 14.57 14.17 15.03C14.44 15.37 14.5 15.95 14.5 16.74C14.5 17.53 14.44 18.11 14.17 18.45ZM17.99 18.45C17.83 18.65 17.37 19.02 16.62 19.02C16.18 19.02 15.59 18.89 15.25 18.44C14.98 18.08 14.92 17.48 14.92 16.73C14.92 15.98 14.97 15.36 15.25 15.02C15.61 14.56 16.13 14.44 16.62 14.44C17.07 14.44 17.47 14.56 17.78 14.82C17.92 14.94 18.03 15.05 18.03 15.27C18.03 15.52 17.76 15.82 17.5 15.82C17.38 15.82 17.29 15.8 17.22 15.74C17 15.54 16.87 15.5 16.64 15.5C16.46 15.5 16.26 15.58 16.16 15.77C16.06 15.97 16.05 16.29 16.05 16.74C16.05 17.19 16.05 17.51 16.16 17.71C16.26 17.91 16.44 17.98 16.64 17.98C16.81 17.98 17.04 17.9 17.25 17.69C17.34 17.6 17.44 17.53 17.58 17.53C17.84 17.53 18.13 17.85 18.13 18.08C18.13 18.26 18.08 18.34 17.99 18.45Z" fill="#141414"/>
</svg>
