<svg width="24" height="24" viewBox="0 0 24 24" fill="none" xmlns="http://www.w3.org/2000/svg">
<path d="M19.27 2.73C18.8 2.26 18.17 2 17.5 2H10C9.47 2 8.96 2.21 8.59 2.59L5.59 5.59C5.21 5.96 5 6.47 5 7V19.5C5 20.16 5.26 20.8 5.73 21.27C6.2 21.74 6.83 22 7.5 22H17.5C18.16 22 18.8 21.74 19.27 21.27C19.74 20.8 20 20.17 20 19.5V4.5C20 3.84 19.74 3.2 19.27 2.73ZM10.95 15.53H10.29C10.29 15.53 10.23 15.54 10.23 15.59V18.57C10.23 18.95 9.93 19.03 9.68 19.03C9.42 19.03 9.12 18.95 9.12 18.57V15.59C9.12 15.59 9.11 15.53 9.06 15.53H8.42C8.06 15.53 7.95 15.28 7.95 15.01C7.95 14.74 8.06 14.48 8.42 14.48H10.94C11.3 14.48 11.41 14.73 11.41 15.01C11.41 15.29 11.3 15.53 10.94 15.53H10.95ZM13.11 18.57C13.11 18.94 12.81 19.03 12.55 19.03C12.29 19.03 12 18.94 12 18.57V14.92C12 14.55 12.3 14.46 12.55 14.46C12.81 14.46 13.11 14.55 13.11 14.92V18.57ZM16.58 15.53H15.14C15.14 15.53 15.08 15.54 15.08 15.59V16.08C15.08 16.08 15.09 16.14 15.14 16.14H16.17C16.53 16.14 16.64 16.39 16.64 16.67C16.64 16.95 16.53 17.19 16.17 17.19H15.14C15.14 17.19 15.08 17.2 15.08 17.25V18.56C15.08 18.93 14.78 19.02 14.52 19.02C14.26 19.02 13.97 18.93 13.97 18.56V14.97C13.97 14.6 14.22 14.47 14.49 14.47H16.57C16.93 14.47 17.04 14.72 17.04 15C17.04 15.28 16.93 15.52 16.57 15.52L16.58 15.53Z" fill="#141414"/>
</svg>
