<svg width="24" height="24" viewBox="0 0 24 24" fill="none" xmlns="http://www.w3.org/2000/svg">
<path d="M16 7H20C20 6.47 19.79 5.96 19.41 5.59L16.41 2.59C16.03 2.21 15.53 2 15 2V6C15 6.55 15.45 7 16 7ZM12 13C10.9 13 10 13.9 10 15C10 16.1 10.9 17 12 17C13.1 17 14 16.1 14 15C14 13.9 13.1 13 12 13ZM13 6V2H7.5C6.12 2 5 3.12 5 4.5V19.5C5 20.88 6.12 22 7.5 22H17.5C18.88 22 20 20.88 20 19.5V9H16C14.35 9 13 7.65 13 6ZM16.58 12.93C16.86 13.41 16.69 14.02 16.21 14.3L15.94 14.46C15.96 14.64 16 14.82 16 15.01C16 15.2 15.97 15.38 15.94 15.56L16.21 15.72C16.69 16 16.85 16.61 16.58 17.09L16.08 17.96C15.8 18.44 15.19 18.6 14.71 18.33L14.44 18.17C14.15 18.4 13.84 18.59 13.5 18.73V19.03C13.5 19.58 13.05 20.03 12.5 20.03H11.5C10.95 20.03 10.5 19.58 10.5 19.03V18.73C10.16 18.59 9.84 18.4 9.56 18.17L9.29 18.33C8.81 18.61 8.2 18.44 7.92 17.96L7.42 17.09C7.14 16.61 7.31 16 7.79 15.72L8.06 15.56C8.04 15.38 8 15.2 8 15.01C8 14.82 8.03 14.64 8.06 14.46L7.79 14.3C7.31 14.02 7.15 13.41 7.42 12.93L7.92 12.06C8.2 11.58 8.81 11.42 9.29 11.69L9.56 11.85C9.85 11.62 10.16 11.43 10.5 11.29V10.99C10.5 10.44 10.95 9.99 11.5 9.99H12.5C13.05 9.99 13.5 10.44 13.5 10.99V11.29C13.84 11.43 14.16 11.62 14.44 11.85L14.71 11.69C15.19 11.41 15.8 11.58 16.08 12.06L16.58 12.93Z" fill="#141414"/>
</svg>
