<svg width="24" height="24" viewBox="0 0 24 24" fill="none" xmlns="http://www.w3.org/2000/svg">
<path d="M11.9698 17.82C10.3198 17.82 8.80978 17.62 7.53978 17.27C6.36978 16.96 5.42979 16.51 4.77979 15.99V17.27C4.77979 18.75 8.07978 19.99 11.9898 19.99C15.8998 19.99 19.1998 18.75 19.1998 17.27V15.99C18.5598 16.51 17.5898 16.95 16.3998 17.27C15.1498 17.62 13.6198 17.82 11.9698 17.82Z" fill="#141414"/>
<path d="M11.9898 13.94C10.3398 13.94 8.80979 13.75 7.55979 13.42C6.38979 13.12 5.43979 12.71 4.79979 12.22V13.42C4.79979 14.82 8.09979 15.99 12.0098 15.99C15.9198 15.99 19.2198 14.82 19.2198 13.42V12.22C18.5598 12.71 17.5898 13.13 16.4198 13.42C15.1498 13.75 13.6398 13.94 11.9898 13.94Z" fill="#141414"/>
<path d="M16.4198 9.27C15.1498 9.62 13.6398 9.82 11.9898 9.82C10.3398 9.82 8.80979 9.62 7.55979 9.27C6.38979 8.96 5.43979 8.51 4.79979 7.99V9.27C4.79979 10.75 8.09979 11.99 12.0098 11.99C15.9198 11.99 19.2198 10.75 19.2198 9.27V7.99C18.5598 8.51 17.5898 8.95 16.4198 9.27Z" fill="#141414"/>
<path d="M11.9898 8C15.9718 8 19.1998 6.65685 19.1998 5C19.1998 3.34315 15.9718 2 11.9898 2C8.00781 2 4.77979 3.34315 4.77979 5C4.77979 6.65685 8.00781 8 11.9898 8Z" fill="#141414"/>
</svg>
