<svg width="24" height="24" viewBox="0 0 24 24" fill="none" xmlns="http://www.w3.org/2000/svg">
<path d="M6.04998 10.89C6.50998 9.74 7.59998 9 8.83998 9H19.3C18.89 7.84 17.79 7 16.48 7H12.15L11.71 5.68C11.57 5.28 11.19 5 10.76 5H6.47998C5.16998 5 4.05998 5.83 3.65998 7C3.53998 7.31 3.47998 7.65 3.47998 8V16C3.47998 16.32 3.53998 16.63 3.63998 16.92V16.88L6.03998 10.88L6.04998 10.89Z" fill="#141414"/>
<path d="M18.05 18.37L20.45 12.37C20.57 12.06 20.54 11.72 20.35 11.44C20.16 11.16 19.86 11 19.52 11H8.82998C8.41998 11 8.04998 11.25 7.89998 11.63L5.49998 17.63C5.37998 17.94 5.40998 18.28 5.59998 18.56C5.78998 18.84 6.08998 19 6.42998 19H17.12C17.53 19 17.9 18.75 18.05 18.37Z" fill="#141414"/>
</svg>
