<svg width="24" height="24" viewBox="0 0 24 24" fill="none" xmlns="http://www.w3.org/2000/svg">
<path d="M19.27 2.73C18.8 2.26 18.17 2 17.5 2H10C9.47 2 8.96 2.21 8.59 2.59L5.59 5.59C5.21 5.96 5 6.47 5 7V19.5C5 20.16 5.26 20.8 5.73 21.27C6.2 21.74 6.83 22 7.5 22H17.5C18.16 22 18.8 21.74 19.27 21.27C19.74 20.8 20 20.17 20 19.5V4.5C20 3.84 19.74 3.2 19.27 2.73ZM10.08 15.53H9.42C9.42 15.53 9.36 15.54 9.36 15.59V18.57C9.36 18.95 9.06 19.03 8.81 19.03C8.55 19.03 8.25 18.95 8.25 18.57V15.59C8.25 15.59 8.24 15.53 8.19 15.53H7.55C7.19 15.53 7.08 15.28 7.08 15.01C7.08 14.74 7.19 14.48 7.55 14.48H10.07C10.43 14.48 10.54 14.73 10.54 15.01C10.54 15.29 10.43 15.53 10.07 15.53H10.08ZM13.62 19.03C13.48 19.03 13.34 18.96 13.22 18.79L12.53 17.74C12.53 17.74 12.52 17.71 12.49 17.71C12.46 17.71 12.45 17.74 12.45 17.74L11.76 18.79C11.64 18.97 11.5 19.03 11.36 19.03C11.1 19.03 10.77 18.79 10.77 18.5C10.77 18.41 10.8 18.3 10.88 18.19L11.84 16.8C11.84 16.8 11.86 16.77 11.86 16.75C11.86 16.73 11.84 16.69 11.84 16.69L10.9 15.3C10.82 15.18 10.79 15.08 10.79 14.99C10.79 14.71 11.1 14.46 11.38 14.46C11.52 14.46 11.66 14.53 11.78 14.71L12.46 15.76C12.46 15.76 12.47 15.79 12.5 15.79C12.53 15.79 12.54 15.76 12.54 15.76L13.22 14.71C13.34 14.53 13.48 14.46 13.62 14.46C13.88 14.46 14.21 14.7 14.21 14.99C14.21 15.08 14.18 15.18 14.1 15.3L13.16 16.69C13.16 16.69 13.14 16.72 13.14 16.75C13.14 16.78 13.16 16.8 13.16 16.8L14.12 18.19C14.2 18.31 14.23 18.41 14.23 18.5C14.23 18.78 13.92 19.03 13.64 19.03H13.62ZM17.44 15.53H16.78C16.78 15.53 16.72 15.54 16.72 15.59V18.57C16.72 18.95 16.42 19.03 16.17 19.03C15.91 19.03 15.61 18.95 15.61 18.57V15.59C15.61 15.59 15.6 15.53 15.55 15.53H14.91C14.55 15.53 14.44 15.28 14.44 15.01C14.44 14.74 14.55 14.48 14.91 14.48H17.43C17.79 14.48 17.9 14.73 17.9 15.01C17.9 15.29 17.79 15.53 17.43 15.53H17.44Z" fill="#141414"/>
</svg>
