<svg width="24" height="24" viewBox="0 0 24 24" fill="none" xmlns="http://www.w3.org/2000/svg">
<path d="M4.93 18.48C4.56 18.48 4.2 18.34 3.92 18.06C3.36 17.5 3.36 16.6 3.92 16.04L16.04 3.92C16.6 3.36 17.5 3.36 18.06 3.92C18.62 4.48 18.62 5.38 18.06 5.94L5.94 18.06C5.66 18.34 5.3 18.48 4.93 18.48Z" fill="#141414"/>
<path d="M10.99 20.5C10.62 20.5 10.26 20.36 9.98 20.08C9.42 19.52 9.42 18.62 9.98 18.06L18.06 9.98C18.62 9.42 19.52 9.42 20.08 9.98C20.64 10.54 20.64 11.44 20.08 12L12 20.08C11.72 20.36 11.36 20.5 10.99 20.5Z" fill="#141414"/>
</svg>
