<svg width="24" height="24" viewBox="0 0 24 24" fill="none" xmlns="http://www.w3.org/2000/svg">
<path d="M8.75 15.54H8.09C8.09 15.54 8.03 15.55 8.03 15.6V16.38C8.03 16.38 8.04 16.44 8.09 16.44H8.75C9 16.44 9.17 16.28 9.17 16C9.17 15.72 9 15.54 8.75 15.54Z" fill="#141414"/>
<path d="M19.27 2.73C18.8 2.26 18.17 2 17.5 2H10C9.47 2 8.96 2.21 8.59 2.59L5.59 5.59C5.21 5.96 5 6.47 5 7V19.5C5 20.16 5.26 20.8 5.73 21.27C6.2 21.74 6.83 22 7.5 22H17.5C18.16 22 18.8 21.74 19.27 21.27C19.74 20.8 20 20.17 20 19.5V4.5C20 3.84 19.74 3.2 19.27 2.73ZM8.91 17.49H8.09C8.09 17.49 8.03 17.5 8.03 17.55V18.56C8.03 18.93 7.73 19.02 7.47 19.02C7.21 19.02 6.92 18.93 6.92 18.56V14.97C6.92 14.6 7.17 14.47 7.44 14.47H8.9C9.68 14.47 10.3 14.96 10.3 15.98C10.3 17 9.69 17.49 8.91 17.49ZM14.25 18.45C14.25 18.89 14.03 19.02 13.67 19.02C13.42 19.02 13.25 18.94 13.08 18.62L12.06 16.74C12.06 16.74 12.04 16.7 12.01 16.7C11.98 16.7 11.98 16.75 11.98 16.75V18.56C11.98 18.93 11.68 19.02 11.42 19.02C11.16 19.02 10.87 18.93 10.87 18.56V15.02C10.87 14.58 11.09 14.45 11.45 14.45C11.7 14.45 11.87 14.53 12.04 14.85L13.06 16.7C13.06 16.7 13.08 16.74 13.11 16.74C13.14 16.74 13.14 16.69 13.14 16.69V14.92C13.14 14.55 13.44 14.46 13.7 14.46C13.96 14.46 14.25 14.55 14.25 14.92V18.46V18.45ZM18.31 17.4C18.31 17.87 18.16 18.25 18 18.46C17.64 18.91 17.15 19.03 16.64 19.03C16.13 19.03 15.59 18.91 15.23 18.45C14.96 18.11 14.9 17.53 14.9 16.74C14.9 15.95 14.96 15.37 15.23 15.03C15.59 14.57 16.11 14.45 16.65 14.45C17.12 14.45 17.52 14.55 17.83 14.77C17.97 14.87 18.06 14.97 18.06 15.2C18.06 15.46 17.79 15.75 17.53 15.75C17.41 15.75 17.34 15.71 17.26 15.67C17.03 15.54 16.9 15.49 16.66 15.49C16.44 15.49 16.25 15.57 16.15 15.76C16.05 15.94 16.04 16.32 16.04 16.73C16.04 17.14 16.05 17.52 16.15 17.7C16.25 17.89 16.44 17.97 16.64 17.97C16.84 17.97 16.96 17.9 17.08 17.78C17.13 17.74 17.2 17.59 17.2 17.47V17.43C17.2 17.43 17.18 17.37 17.14 17.37H17.06C16.7 17.37 16.59 17.12 16.59 16.85C16.59 16.58 16.7 16.32 17.06 16.32H17.9C18.16 16.32 18.3 16.49 18.3 16.72L18.31 17.4Z" fill="#141414"/>
</svg>
