<svg width="24" height="24" viewBox="0 0 24 24" fill="none" xmlns="http://www.w3.org/2000/svg">
<path d="M16 18.9998H8C7.45 18.9998 7 18.5498 7 17.9998C7 17.4498 7.45 16.9998 8 16.9998H16C16.55 16.9998 17 17.4498 17 17.9998C17 18.5498 16.55 18.9998 16 18.9998Z" fill="#141414"/>
<path d="M13.41 9.99982L16.7 6.70982C17.09 6.31982 17.09 5.68982 16.7 5.29982C16.31 4.90982 15.68 4.90982 15.29 5.29982L12 8.58982L8.71 5.29982C8.32 4.90982 7.69 4.90982 7.3 5.29982C6.91 5.68982 6.91 6.31982 7.3 6.70982L10.59 9.99982L7.3 13.2898C6.91 13.6798 6.91 14.3098 7.3 14.6998C7.5 14.8998 7.75 14.9898 8.01 14.9898C8.27 14.9898 8.52 14.8898 8.72 14.6998L12.01 11.4098L15.3 14.6998C15.5 14.8998 15.75 14.9898 16.01 14.9898C16.27 14.9898 16.52 14.8898 16.72 14.6998C17.11 14.3098 17.11 13.6798 16.72 13.2898L13.43 9.99982H13.41Z" fill="#141414"/>
</svg>
