<svg width="24" height="24" viewBox="0 0 24 24" fill="none" xmlns="http://www.w3.org/2000/svg">
<path d="M7 16C6.5 16 5.5 17.67 5.5 18.5C5.5 19.33 6.17 20 7 20C7.83 20 8.5 19.33 8.5 18.5C8.5 17.67 7.5 16 7 16ZM12 17.5C11.5 17.5 10.5 19.17 10.5 20C10.5 20.83 11.17 21.5 12 21.5C12.83 21.5 13.5 20.83 13.5 20C13.5 19.17 12.5 17.5 12 17.5ZM17 16C16.5 16 15.5 17.67 15.5 18.5C15.5 19.33 16.17 20 17 20C17.83 20 18.5 19.33 18.5 18.5C18.5 17.67 17.5 16 17 16ZM19.44 8.38C19.47 8.17 19.5 7.96 19.5 7.75C19.5 5.13 17.37 3 14.75 3C13.11 3 11.67 3.83 10.82 5.09C10.56 5.03 10.28 5 10 5C8.13 5 6.58 6.28 6.14 8.01C6.09 8.01 6.05 8 6 8C4.34 8 3 9.34 3 11C3 12.66 4.34 14 6 14H18C19.66 14 21 12.66 21 11C21 9.87 20.36 8.89 19.44 8.38Z" fill="#141414"/>
</svg>
