<svg width="24" height="24" viewBox="0 0 24 24" fill="none" xmlns="http://www.w3.org/2000/svg">
<path d="M19.27 2.73C18.8 2.26 18.17 2 17.5 2H10C9.47 2 8.96 2.21 8.59 2.59L5.59 5.59C5.21 5.96 5 6.47 5 7V19.5C5 20.16 5.26 20.8 5.73 21.27C6.2 21.74 6.83 22 7.5 22H17.5C18.16 22 18.8 21.74 19.27 21.27C19.74 20.8 20 20.17 20 19.5V4.5C20 3.84 19.74 3.2 19.27 2.73ZM9.01 19.05C8.87 19.05 8.72 18.98 8.6 18.78L7.84 17.45C7.81 17.39 7.79 17.39 7.74 17.39H7.39C7.39 17.39 7.33 17.39 7.33 17.45V18.59C7.33 18.96 7.03 19.05 6.77 19.05C6.51 19.05 6.23 18.96 6.23 18.59V15.01C6.23 14.64 6.48 14.51 6.75 14.51H8.2C8.98 14.51 9.59 14.98 9.59 15.96C9.59 16.58 9.38 16.98 8.97 17.19C8.94 17.2 8.94 17.22 8.94 17.23C8.94 17.23 8.94 17.25 8.95 17.27L9.51 18.24C9.58 18.35 9.6 18.45 9.6 18.53C9.6 18.81 9.28 19.05 9 19.05H9.01ZM13.22 19.05C13.03 19.05 12.82 18.96 12.74 18.69L12.62 18.29C12.6 18.24 12.57 18.21 12.53 18.21H11.26C11.26 18.21 11.19 18.24 11.17 18.29L11.05 18.69C10.97 18.96 10.76 19.05 10.57 19.05C10.3 19.05 10 18.89 10 18.57C10 18.51 10.01 18.43 10.04 18.35L11.16 15.08C11.34 14.57 11.66 14.49 11.91 14.49C12.16 14.49 12.48 14.57 12.66 15.08L13.78 18.35C13.81 18.43 13.82 18.51 13.82 18.57C13.82 18.87 13.54 19.05 13.25 19.05H13.22ZM19.19 15.15L18.3 18.59C18.25 18.78 18.11 19.04 17.8 19.04C17.51 19.04 17.33 18.88 17.24 18.62L16.54 16.5C16.54 16.5 16.5 16.32 16.46 16.32C16.42 16.32 16.39 16.46 16.38 16.5L15.68 18.62C15.59 18.89 15.4 19.04 15.12 19.04C14.81 19.04 14.67 18.78 14.62 18.59L13.73 15.15C13.71 15.08 13.7 15.03 13.7 14.97C13.7 14.65 13.99 14.48 14.29 14.48C14.48 14.48 14.68 14.57 14.75 14.87L15.21 16.72C15.24 16.85 15.24 16.95 15.28 16.95C15.32 16.95 15.34 16.84 15.38 16.71L15.89 14.99C15.97 14.72 16.08 14.48 16.46 14.48C16.84 14.48 16.95 14.72 17.03 14.99L17.54 16.71C17.58 16.84 17.59 16.95 17.64 16.95C17.69 16.95 17.68 16.85 17.71 16.72L18.17 14.87C18.24 14.57 18.44 14.48 18.63 14.48C18.88 14.48 19.22 14.63 19.22 14.97C19.22 15.02 19.22 15.08 19.19 15.15Z" fill="#141414"/>
<path d="M8.05 15.56H7.4C7.4 15.56 7.34 15.57 7.34 15.62V16.27C7.34 16.33 7.35 16.33 7.4 16.33H8.05C8.3 16.33 8.47 16.19 8.47 15.95C8.47 15.71 8.3 15.56 8.05 15.56Z" fill="#141414"/>
<path d="M11.97 15.86C11.94 15.76 11.94 15.68 11.89 15.68C11.84 15.68 11.84 15.76 11.81 15.86L11.45 17.14C11.45 17.14 11.45 17.16 11.45 17.17C11.45 17.2 11.47 17.22 11.5 17.22H12.32C12.32 17.22 12.37 17.2 12.37 17.17C12.37 17.16 12.37 17.14 12.37 17.14L11.97 15.86Z" fill="#141414"/>
</svg>
