<svg width="24" height="24" viewBox="0 0 24 24" fill="none" xmlns="http://www.w3.org/2000/svg">
<path d="M19.27 2.73C18.8 2.26 18.17 2 17.5 2H10C9.47 2 8.96 2.21 8.59 2.59L5.59 5.59C5.21 5.96 5 6.47 5 7V19.5C5 20.16 5.26 20.8 5.73 21.27C6.2 21.74 6.83 22 7.5 22H17.5C18.16 22 18.8 21.74 19.27 21.27C19.74 20.8 20 20.17 20 19.5V4.5C20 3.84 19.74 3.2 19.27 2.73ZM10.05 19.02C9.91 19.02 9.77 18.95 9.65 18.78L8.96 17.73C8.96 17.73 8.95 17.7 8.92 17.7C8.89 17.7 8.88 17.73 8.88 17.73L8.19 18.78C8.07 18.96 7.93 19.02 7.79 19.02C7.53 19.02 7.2 18.78 7.2 18.49C7.2 18.4 7.23 18.29 7.31 18.18L8.27 16.79C8.27 16.79 8.29 16.76 8.29 16.74C8.29 16.72 8.27 16.68 8.27 16.68L7.33 15.29C7.25 15.17 7.22 15.07 7.22 14.98C7.22 14.7 7.53 14.45 7.81 14.45C7.95 14.45 8.09 14.52 8.21 14.7L8.89 15.75C8.89 15.75 8.9 15.78 8.93 15.78C8.96 15.78 8.97 15.75 8.97 15.75L9.65 14.7C9.77 14.52 9.91 14.45 10.05 14.45C10.31 14.45 10.64 14.69 10.64 14.98C10.64 15.07 10.61 15.17 10.53 15.29L9.59 16.68C9.59 16.68 9.57 16.71 9.57 16.74C9.57 16.77 9.59 16.79 9.59 16.79L10.55 18.18C10.63 18.3 10.66 18.4 10.66 18.49C10.66 18.77 10.35 19.02 10.07 19.02H10.05ZM13.48 18.99H11.69C11.4 18.99 11.16 18.89 11.16 18.5V14.9C11.16 14.53 11.46 14.44 11.71 14.44C11.97 14.44 12.27 14.53 12.27 14.9V17.88C12.27 17.88 12.27 17.94 12.32 17.94H13.48C13.84 17.94 13.95 18.19 13.95 18.47C13.95 18.74 13.84 18.99 13.48 18.99ZM16.04 19.02C15.38 19.02 14.79 18.81 14.47 18.45C14.4 18.37 14.3 18.25 14.3 18.09C14.3 17.83 14.57 17.56 14.84 17.56C14.96 17.56 15.08 17.64 15.2 17.72C15.49 17.91 15.75 17.97 16.04 17.97C16.35 17.97 16.57 17.85 16.57 17.64C16.57 17.49 16.42 17.42 16.16 17.33L15.58 17.14C14.84 16.89 14.38 16.53 14.38 15.78C14.38 15.03 15.04 14.45 16.04 14.45C16.64 14.45 17.03 14.64 17.32 14.85C17.47 14.96 17.55 15.09 17.55 15.25C17.55 15.52 17.27 15.8 17.04 15.8C16.9 15.8 16.83 15.75 16.75 15.7C16.53 15.58 16.26 15.49 16.05 15.49C15.74 15.49 15.53 15.6 15.53 15.76C15.53 15.88 15.67 15.99 15.92 16.07L16.5 16.27C17.29 16.54 17.72 16.95 17.72 17.63C17.72 18.49 17.04 19.01 16.05 19.01L16.04 19.02Z" fill="#141414"/>
</svg>
