<svg width="24" height="24" viewBox="0 0 24 24" fill="none" xmlns="http://www.w3.org/2000/svg">
<path d="M12.4 15.54H11.74C11.74 15.54 11.68 15.55 11.68 15.6V16.38C11.68 16.38 11.69 16.44 11.74 16.44H12.4C12.65 16.44 12.82 16.28 12.82 16C12.82 15.72 12.65 15.54 12.4 15.54Z" fill="#141414"/>
<path d="M19.27 2.73C18.8 2.26 18.17 2 17.5 2H10C9.47 2 8.96 2.21 8.59 2.59L5.59 5.59C5.21 5.96 5 6.47 5 7V19.5C5 20.16 5.26 20.8 5.73 21.27C6.2 21.74 6.83 22 7.5 22H17.5C18.16 22 18.8 21.74 19.27 21.27C19.74 20.8 20 20.17 20 19.5V4.5C20 3.84 19.74 3.2 19.27 2.73ZM9.78 17.69C9.78 18.54 9.24 19.03 8.36 19.03C7.88 19.03 7.48 18.82 7.24 18.41C7.18 18.31 7.16 18.22 7.16 18.14C7.16 17.88 7.44 17.65 7.7 17.65C7.83 17.65 7.96 17.71 8.06 17.86C8.11 17.94 8.2 17.98 8.31 17.98C8.5 17.98 8.67 17.86 8.67 17.6V14.92C8.67 14.55 8.97 14.46 9.22 14.46C9.48 14.46 9.78 14.55 9.78 14.92V17.69ZM12.55 17.48L11.74 17.49C11.74 17.49 11.68 17.5 11.68 17.55V18.56C11.68 18.93 11.38 19.02 11.12 19.02C10.86 19.02 10.57 18.93 10.57 18.56V14.97C10.57 14.6 10.82 14.47 11.09 14.47H12.55C13.33 14.47 13.95 14.96 13.95 15.98C13.95 17 13.33 17.48 12.55 17.48ZM17.7 17.4C17.7 17.87 17.55 18.25 17.39 18.46C17.03 18.91 16.54 19.03 16.03 19.03C15.52 19.03 14.98 18.91 14.62 18.45C14.35 18.11 14.29 17.53 14.29 16.74C14.29 15.95 14.35 15.37 14.62 15.03C14.98 14.57 15.5 14.45 16.04 14.45C16.51 14.45 16.91 14.55 17.22 14.77C17.36 14.87 17.45 14.97 17.45 15.2C17.45 15.46 17.18 15.75 16.92 15.75C16.8 15.75 16.72 15.71 16.65 15.67C16.42 15.54 16.29 15.49 16.05 15.49C15.83 15.49 15.64 15.57 15.54 15.76C15.44 15.94 15.43 16.32 15.43 16.73C15.43 17.14 15.44 17.52 15.54 17.7C15.64 17.89 15.83 17.97 16.03 17.97C16.23 17.97 16.35 17.9 16.47 17.78C16.52 17.74 16.59 17.59 16.59 17.47V17.43C16.59 17.43 16.57 17.37 16.53 17.37H16.45C16.09 17.37 15.98 17.12 15.98 16.85C15.98 16.58 16.09 16.32 16.45 16.32H17.29C17.55 16.32 17.69 16.49 17.69 16.72L17.7 17.4Z" fill="#141414"/>
</svg>
