<svg width="24" height="24" viewBox="0 0 24 24" fill="none" xmlns="http://www.w3.org/2000/svg">
<path d="M18.27 2.73C17.8 2.26 17.17 2 16.5 2H9C8.47 2 7.96 2.21 7.59 2.59L4.59 5.59C4.21 5.96 4 6.47 4 7V19.5C4 20.16 4.26 20.8 4.73 21.27C5.2 21.74 5.83 22 6.5 22H16.5C17.16 22 17.8 21.74 18.27 21.27C18.74 20.8 19 20.17 19 19.5V4.5C19 3.84 18.74 3.2 18.27 2.73ZM8.98 18.41C8.61 18.87 8.07 19 7.55 19C7.03 19 6.49 18.88 6.12 18.41C5.85 18.07 5.78 17.47 5.78 16.67C5.78 15.87 5.85 15.28 6.12 14.93C6.49 14.47 7.02 14.34 7.55 14.34C8.08 14.34 8.61 14.47 8.98 14.93C9.25 15.27 9.32 15.87 9.32 16.67C9.32 17.47 9.25 18.06 8.98 18.41ZM13.13 18.41C12.77 18.86 12.27 18.97 11.74 18.97H10.49C10.21 18.97 9.96 18.85 9.96 18.47V14.88C9.96 14.5 10.21 14.37 10.49 14.37H11.74C12.27 14.37 12.76 14.48 13.13 14.93C13.41 15.27 13.47 15.87 13.47 16.67C13.47 17.47 13.41 18.07 13.13 18.41ZM16.74 15.44H16.07C16.07 15.44 16.01 15.45 16.01 15.5V18.53C16.01 18.91 15.71 19 15.45 19C15.19 19 14.88 18.91 14.88 18.53V15.5C14.88 15.5 14.87 15.44 14.82 15.44H14.17C13.8 15.44 13.69 15.18 13.69 14.91C13.69 14.63 13.8 14.37 14.17 14.37H16.73C17.1 14.37 17.21 14.63 17.21 14.91C17.21 15.19 17.1 15.44 16.73 15.44H16.74Z" fill="#141414"/>
<path d="M11.7 15.44H11.15C11.15 15.44 11.09 15.45 11.09 15.5V17.84C11.09 17.84 11.1 17.9 11.15 17.9H11.7C11.9 17.9 12.09 17.83 12.2 17.66C12.3 17.49 12.31 17.09 12.31 16.68C12.31 16.27 12.31 15.87 12.2 15.69C12.1 15.52 11.9 15.45 11.7 15.45V15.44Z" fill="#141414"/>
<path d="M7.54 15.42C7.34 15.42 7.15 15.5 7.04 15.69C6.94 15.87 6.93 16.26 6.93 16.68C6.93 17.1 6.94 17.49 7.04 17.66C7.15 17.85 7.34 17.93 7.54 17.93C7.74 17.93 7.93 17.85 8.04 17.66C8.14 17.48 8.15 17.09 8.15 16.68C8.15 16.27 8.14 15.87 8.04 15.69C7.93 15.5 7.74 15.42 7.54 15.42Z" fill="#141414"/>
</svg>
