<svg width="24" height="24" viewBox="0 0 24 24" fill="none" xmlns="http://www.w3.org/2000/svg">
<path d="M19.27 2.73C18.8 2.26 18.17 2 17.5 2H10C9.47 2 8.96 2.21 8.59 2.59L5.59 5.59C5.21 5.96 5 6.47 5 7V19.5C5 20.16 5.26 20.8 5.73 21.27C6.2 21.74 6.83 22 7.5 22H17.5C18.16 22 18.8 21.74 19.27 21.27C19.74 20.8 20 20.17 20 19.5V4.5C20 3.84 19.74 3.2 19.27 2.73ZM9.08 17.47H8.26C8.26 17.47 8.2 17.48 8.2 17.53V18.54C8.2 18.91 7.9 19 7.64 19C7.38 19 7.09 18.91 7.09 18.54V14.95C7.09 14.58 7.34 14.45 7.61 14.45H9.07C9.85 14.45 10.47 14.94 10.47 15.96C10.47 16.98 9.86 17.47 9.08 17.47ZM14.15 18.43C13.79 18.87 13.31 18.98 12.79 18.98H11.56C11.29 18.98 11.04 18.86 11.04 18.49V14.95C11.04 14.58 11.29 14.45 11.56 14.45H12.79C13.31 14.45 13.8 14.56 14.15 15C14.42 15.33 14.48 15.92 14.48 16.71C14.48 17.5 14.42 18.1 14.15 18.43ZM17.72 15.51H16.28C16.28 15.51 16.22 15.52 16.22 15.57V16.06C16.22 16.06 16.23 16.12 16.28 16.12H17.31C17.67 16.12 17.78 16.37 17.78 16.65C17.78 16.93 17.67 17.17 17.31 17.17H16.28C16.28 17.17 16.22 17.18 16.22 17.23V18.54C16.22 18.91 15.92 19 15.66 19C15.4 19 15.11 18.91 15.11 18.54V14.95C15.11 14.58 15.36 14.45 15.63 14.45H17.71C18.07 14.45 18.18 14.7 18.18 14.98C18.18 15.26 18.08 15.51 17.72 15.51Z" fill="#141414"/>
<path d="M8.92 15.51H8.26C8.26 15.51 8.2 15.52 8.2 15.57V16.35C8.2 16.35 8.21 16.41 8.26 16.41H8.92C9.17 16.41 9.34 16.25 9.34 15.97C9.34 15.69 9.17 15.51 8.92 15.51Z" fill="#141414"/>
<path d="M12.74 15.51H12.2C12.2 15.51 12.14 15.52 12.14 15.57V17.87C12.14 17.87 12.15 17.93 12.2 17.93H12.74C12.94 17.93 13.12 17.86 13.23 17.69C13.33 17.52 13.34 17.13 13.34 16.72C13.34 16.31 13.34 15.93 13.23 15.75C13.13 15.58 12.94 15.51 12.74 15.51Z" fill="#141414"/>
</svg>
