<svg width="24" height="24" viewBox="0 0 24 24" fill="none" xmlns="http://www.w3.org/2000/svg">
<path d="M7.79 15.45H7.12C7.12 15.45 7.06 15.46 7.06 15.51V16.17C7.06 16.23 7.07 16.23 7.12 16.23H7.79C8.04 16.23 8.21 16.09 8.21 15.85C8.21 15.61 8.04 15.45 7.79 15.45Z" fill="#141414"/>
<path d="M18.27 2.73C17.8 2.26 17.17 2 16.5 2H9C8.47 2 7.96 2.21 7.59 2.59L4.59 5.59C4.21 5.96 4 6.47 4 7V19.5C4 20.16 4.26 20.8 4.73 21.27C5.2 21.74 5.83 22 6.5 22H16.5C17.16 22 17.8 21.74 18.27 21.27C18.74 20.8 19 20.17 19 19.5V4.5C19 3.84 18.74 3.2 18.27 2.73ZM8.75 18.99C8.6 18.99 8.47 18.93 8.35 18.72L7.58 17.37C7.55 17.31 7.53 17.31 7.47 17.31H7.11C7.11 17.31 7.05 17.31 7.05 17.37V18.53C7.05 18.91 6.75 19 6.48 19C6.21 19 5.92 18.91 5.92 18.53V14.88C5.92 14.5 6.17 14.37 6.45 14.37H7.93C8.72 14.37 9.35 14.85 9.35 15.84C9.35 16.47 9.14 16.88 8.72 17.09C8.69 17.1 8.69 17.12 8.69 17.14C8.69 17.14 8.69 17.16 8.7 17.18L9.27 18.16C9.34 18.27 9.36 18.37 9.36 18.46C9.36 18.74 9.03 18.99 8.75 18.99ZM12.87 15.45H12.2C12.2 15.45 12.14 15.46 12.14 15.51V18.54C12.14 18.92 11.84 19.01 11.58 19.01C11.32 19.01 11.01 18.92 11.01 18.54V15.51C11.01 15.51 11 15.45 10.95 15.45H10.3C9.93 15.45 9.82 15.19 9.82 14.92C9.82 14.64 9.93 14.38 10.3 14.38H12.86C13.23 14.38 13.34 14.64 13.34 14.92C13.34 15.2 13.24 15.45 12.87 15.45ZM16.58 15.45H15.12C15.12 15.45 15.06 15.46 15.06 15.51V16.01C15.06 16.01 15.07 16.07 15.12 16.07H16.16C16.53 16.07 16.64 16.33 16.64 16.61C16.64 16.89 16.53 17.14 16.16 17.14H15.12C15.12 17.14 15.06 17.15 15.06 17.2V18.53C15.06 18.91 14.76 19 14.49 19C14.22 19 13.93 18.91 13.93 18.53V14.88C13.93 14.5 14.18 14.37 14.46 14.37H16.57C16.94 14.37 17.05 14.63 17.05 14.91C17.05 15.19 16.95 15.45 16.58 15.45Z" fill="#141414"/>
</svg>
