<svg width="24" height="24" viewBox="0 0 24 24" fill="none" xmlns="http://www.w3.org/2000/svg">
<path d="M17.4764 9.97006L18.3761 9.07034C19.0779 8.36856 19.0779 7.22592 18.3761 6.52414C17.6743 5.82236 16.5317 5.82236 15.8299 6.52414L14.9302 7.42386L14.0305 6.52414C13.3287 5.82236 12.186 5.82236 11.4843 6.52414C10.7825 7.22592 10.7825 8.36856 11.4843 9.07034L4.76336 15.7912C4.59241 15.9622 4.50244 16.1871 4.50244 16.43V19.4981C4.50244 19.9929 4.90731 20.3978 5.40216 20.3978H8.4702C8.71313 20.3978 8.93806 20.2988 9.109 20.1369L15.8299 13.416C16.1808 13.7669 16.6396 13.9468 17.0985 13.9468C17.5574 13.9468 18.0162 13.7669 18.3671 13.416C19.0689 12.7142 19.0689 11.5716 18.3671 10.8698L17.4674 9.97006H17.4764ZM8.10132 18.5984H6.30188V16.7989L9.00104 14.0998H12.5999L8.10132 18.5984Z" fill="#141414"/>
</svg>
