<svg width="24" height="24" viewBox="0 0 24 24" fill="none" xmlns="http://www.w3.org/2000/svg">
<path d="M10.0002 6C10.8302 6 11.5002 5.33 11.5002 4.5C11.5002 3.67 10.8302 3 10.0002 3C9.17016 3 8.50016 3.67 8.50016 4.5C8.50016 5.33 9.17016 6 10.0002 6ZM15.9902 12.98C15.9902 12.84 15.9602 12.69 15.8902 12.55L12.8902 6.55C12.8902 6.55 12.8302 6.48 12.8002 6.44C12.7602 6.38 12.7202 6.32 12.6602 6.27C12.6102 6.23 12.5602 6.2 12.5102 6.17C12.4502 6.13 12.4002 6.1 12.3402 6.07C12.2802 6.05 12.2102 6.04 12.1402 6.03C12.0902 6.03 12.0402 6 11.9902 6C11.9802 6 11.9702 6 11.9602 6C11.9002 6 11.8402 6.02 11.7702 6.04C11.7002 6.06 11.6302 6.06 11.5702 6.09C11.5702 6.09 11.5502 6.09 11.5402 6.09C11.5002 6.11 11.4702 6.15 11.4302 6.18C11.3702 6.22 11.3102 6.26 11.2602 6.31C11.2202 6.36 11.1902 6.41 11.1502 6.47C11.1202 6.52 11.0802 6.57 11.0602 6.64C11.0302 6.71 11.0302 6.78 11.0202 6.85C11.0202 6.9 10.9902 6.94 10.9902 6.99V10.45L8.44016 12.15C7.98016 12.46 7.86016 13.08 8.16016 13.54C8.25016 13.67 8.36016 13.77 8.49016 13.85V21.49C8.49016 21.77 8.71016 21.99 8.99016 21.99C9.27016 21.99 9.49016 21.77 9.49016 21.49V13.85C9.49016 13.85 9.53016 13.84 9.54016 13.82L12.5402 11.82C12.5402 11.82 12.5802 11.77 12.6102 11.75C12.6602 11.71 12.7102 11.66 12.7502 11.6C12.7902 11.55 12.8202 11.5 12.8502 11.45C12.8802 11.39 12.9002 11.34 12.9202 11.28C12.9302 11.25 12.9502 11.22 12.9602 11.18L13.9802 13.22V21.12C13.9802 21.6 14.4302 21.98 14.9802 21.98C15.5302 21.98 15.9802 21.59 15.9802 21.12V13C15.9802 13 15.9802 12.98 15.9802 12.97L15.9902 12.98Z" fill="#141414"/>
</svg>
