<svg width="24" height="24" viewBox="0 0 24 24" fill="none" xmlns="http://www.w3.org/2000/svg">
<path d="M20.46 4.68C20.12 4.31 19.66 4.08 19.16 4.02C16.96 3.79 14.81 3.17 12.82 2.19C12.56 2.06 12.28 2 12 2C11.72 2 11.44 2.07 11.18 2.19C9.21 3.17 7.07 3.79 4.88 4.02C4.38 4.06 3.91 4.29 3.56 4.66C3.21 5.03 3.01 5.51 3 6.02V11.01C3 17.75 9.75 22 12 22C14.25 22 21 17.75 21 11.01V6.02C20.99 5.52 20.8 5.05 20.46 4.68ZM13.52 10.5C14.07 10.5 14.52 10.95 14.52 11.5C14.52 12.05 14.07 12.5 13.52 12.5H10.5V14.5H14.5C15.05 14.5 15.5 14.95 15.5 15.5C15.5 16.05 15.05 16.5 14.5 16.5H9.5C8.95 16.5 8.5 16.05 8.5 15.5V7.5C8.5 6.95 8.95 6.5 9.5 6.5H14.5C15.05 6.5 15.5 6.95 15.5 7.5C15.5 8.05 15.05 8.5 14.5 8.5H10.5V10.5H13.52Z" fill="#141414"/>
</svg>
