<svg width="24" height="24" viewBox="0 0 24 24" fill="none" xmlns="http://www.w3.org/2000/svg">
<path d="M18.12 2.88C17.56 2.32 16.79 2 16 2H11C10.54 2 10.09 2.09 9.68 2.29C9.27 2.49 8.91 2.77 8.62 3.13L5.62 6.83C5.21 7.37 5 8.02 5 8.7V19C5 19.8 5.32 20.56 5.88 21.12C6.44 21.68 7.21 22 8 22H16C16.8 22 17.56 21.68 18.12 21.12C18.68 20.56 19 19.79 19 19V5C19 4.2 18.68 3.44 18.12 2.88ZM8.27 5.44C9.29 4.52 10.63 4 12.01 4C13.39 4 14.72 4.51 15.75 5.44C15.83 5.51 15.88 5.61 15.88 5.72C15.88 5.83 15.85 5.93 15.78 6.01C15.74 6.05 15.7 6.08 15.65 6.11C15.6 6.13 15.54 6.14 15.49 6.14C15.39 6.14 15.3 6.11 15.22 6.04C14.34 5.25 13.2 4.81 12.02 4.81C10.84 4.81 9.7 5.25 8.82 6.04C8.74 6.11 8.64 6.15 8.53 6.14C8.42 6.13 8.32 6.09 8.25 6.01C8.18 5.93 8.14 5.83 8.15 5.72C8.16 5.61 8.2 5.51 8.28 5.44H8.27ZM12 8.01C11.66 8.01 11.32 8.12 11.04 8.33C10.96 8.39 10.85 8.42 10.74 8.41C10.63 8.39 10.54 8.34 10.48 8.25C10.42 8.17 10.39 8.06 10.4 7.95C10.42 7.84 10.47 7.75 10.56 7.69C10.97 7.38 11.48 7.21 12 7.21C12.52 7.21 13.02 7.38 13.44 7.69C13.52 7.74905 13.54 7.81 13.54 7.81C13.54 7.81 13.59 7.875 13.59 7.96C13.59 7.96 13.6047 8.04671 13.59 8.12C13.58 8.17 13.55 8.22 13.52 8.26C13.48 8.31 13.43 8.35 13.38 8.38C13.33 8.41 13.26 8.42 13.2 8.42C13.11 8.42 13.03 8.39 12.96 8.34C12.68 8.13 12.35 8.01 12 8.01ZM12.6 9.4C12.6 9.52 12.56 9.63 12.5 9.73C12.44 9.83 12.34 9.91 12.23 9.95C12.12 10 12 10.01 11.88 9.98C11.76 9.96 11.66 9.9 11.57 9.82C11.49 9.74 11.43 9.63 11.41 9.51C11.39 9.39 11.4 9.27 11.44 9.16C11.49 9.05 11.56 8.96 11.66 8.89C11.76 8.82 11.87 8.79 11.99 8.79C12.15 8.79 12.3 8.85 12.41 8.97C12.52 9.08 12.59 9.24 12.59 9.39L12.6 9.4ZM12 6.4C11.24 6.4 10.5 6.67 9.92 7.16C9.84 7.23 9.73 7.26 9.63 7.25C9.52 7.25 9.43 7.19 9.36 7.11C9.29 7.03 9.26 6.92 9.27 6.82C9.27 6.71 9.33 6.62 9.41 6.55C10.13 5.93 11.05 5.59 12.01 5.59C12.96 5.59 13.88 5.93 14.61 6.55C14.69 6.62 14.74 6.72 14.75 6.82C14.75 6.93 14.72 7.03 14.66 7.11C14.59 7.19 14.49 7.24 14.39 7.25C14.28 7.25 14.18 7.22 14.1 7.16C13.52 6.67 12.77 6.4 12 6.4ZM7 12H10V15H7V12ZM12 20H8C7.73 20 7.48 19.89 7.29 19.71C7.1 19.52 7 19.27 7 19V17H12V20ZM17 19C17 19.27 16.89 19.52 16.71 19.71C16.52 19.9 16.27 20 16 20H14V17H17V19ZM17 15H12V12H17V15Z" fill="#141414"/>
</svg>
