<svg width="24" height="24" viewBox="0 0 24 24" fill="none" xmlns="http://www.w3.org/2000/svg">
<path d="M20.82 4.98C20.71 4.87 20.55 4.8 20.4 4.8H19.8V3.6C19.8 3.44 19.74 3.29 19.62 3.18C19.5 3.07 19.35 3 19.2 3C19.05 3 18.89 3.06 18.78 3.18C18.67 3.3 18.6 3.45 18.6 3.6V4.8H17.4V3.6C17.4 3.44 17.34 3.29 17.22 3.18C17.1 3.07 16.95 3 16.8 3C16.65 3 16.49 3.06 16.38 3.18C16.27 3.3 16.2 3.45 16.2 3.6V4.8H15.6C15.44 4.8 15.29 4.86 15.18 4.98C15.07 5.09 15 5.25 15 5.4V7.8C15 8.28 15.19 8.74 15.53 9.07C15.87 9.41 16.33 9.6 16.8 9.6H17V18C17 18.55 16.55 19 16 19C15.45 19 15 18.55 15 18V11C15 9.9 14.1 9 13 9H11V5C11 3.9 10.1 3 9 3H5C3.9 3 3 3.9 3 5V20C3 20.55 3.45 21 4 21H10C10.55 21 11 20.55 11 20V11H13V18C13 19.65 14.35 21 16 21C17.65 21 19 19.65 19 18V9.6H19.2C19.68 9.6 20.14 9.41 20.47 9.07C20.81 8.73 21 8.27 21 7.8V5.4C21 5.24 20.94 5.09 20.82 4.98ZM9.49 9.3L6.53 12.81C6.44 12.91 6.31 12.97 6.18 12.99C6.05 13.01 5.91 12.99 5.8 12.91C5.68 12.84 5.6 12.74 5.55 12.61C5.5 12.48 5.5 12.35 5.54 12.22L6.25 10.37H5.13C4.98 10.37 4.84 10.32 4.71 10.24C4.59 10.16 4.49 10.05 4.42 9.91C4.36 9.78 4.33 9.63 4.35 9.48C4.37 9.33 4.42 9.19 4.51 9.07L7.6 5.21C7.69 5.1 7.81 5.03 7.95 5C8.09 4.97 8.23 5 8.35 5.07C8.47 5.14 8.57 5.25 8.61 5.38C8.66 5.51 8.66 5.66 8.61 5.79L7.81 7.99H8.88C9.03 7.99 9.17 8.04 9.3 8.12C9.42 8.2 9.52 8.32 9.59 8.45C9.65 8.59 9.68 8.73 9.66 8.88C9.64 9.03 9.58 9.17 9.49 9.29V9.3Z" fill="#141414"/>
</svg>
