<svg width="24" height="24" viewBox="0 0 24 24" fill="none" xmlns="http://www.w3.org/2000/svg">
<path d="M19.1111 4H13.7778C13.2444 4 12.8889 4.35556 12.8889 4.88889C12.8889 5.42222 13.2444 5.77778 13.7778 5.77778H18.2222V10.2222C18.2222 10.7556 18.5778 11.1111 19.1111 11.1111C19.6444 11.1111 20 10.7556 20 10.2222V4.88889C20 4.35556 19.6444 4 19.1111 4Z" fill="#141414"/>
<path d="M10.2222 18.2222H5.77778V13.7778C5.77778 13.2444 5.42222 12.8889 4.88889 12.8889C4.35556 12.8889 4 13.2444 4 13.7778V19.1111C4 19.6444 4.35556 20 4.88889 20H10.2222C10.7556 20 11.1111 19.6444 11.1111 19.1111C11.1111 18.5778 10.7556 18.2222 10.2222 18.2222Z" fill="#141414"/>
</svg>
