<svg width="24" height="24" viewBox="0 0 24 24" fill="none" xmlns="http://www.w3.org/2000/svg">
<path d="M16 7H20C20 6.47 19.79 5.96 19.41 5.59L16.41 2.59C16.04 2.21 15.53 2 15 2V6C15 6.27 15.11 6.52 15.29 6.71C15.47 6.9 15.73 7 16 7Z" fill="#141414"/>
<path d="M13.88 8.12C13.32 7.56 13 6.79 13 6V2H7.5C6.84 2 6.2 2.26 5.73 2.73C5.26 3.2 5 3.83 5 4.5V19.5C5 20.16 5.26 20.8 5.73 21.27C6.2 21.74 6.83 22 7.5 22H17.5C18.16 22 18.8 21.74 19.27 21.27C19.74 20.8 20 20.17 20 19.5V9H16C15.2 9 14.44 8.68 13.88 8.12ZM16.92 15.62C17.02 15.86 17.02 16.14 16.92 16.38C16.87 16.5 16.8 16.61 16.7 16.71L13.7 19.71C13.5 19.91 13.25 20 12.99 20C12.73 20 12.48 19.9 12.28 19.71C11.89 19.32 11.89 18.69 12.28 18.3L13.57 17.01H8.98C8.43 17.01 7.98 16.56 7.98 16.01C7.98 15.46 8.43 15.01 8.98 15.01H13.57L12.28 13.72C11.89 13.33 11.89 12.7 12.28 12.31C12.67 11.92 13.3 11.92 13.69 12.31L16.69 15.31C16.78 15.4 16.87 15.49 16.92 15.62Z" fill="#141414"/>
</svg>
