<svg width="24" height="24" viewBox="0 0 24 24" fill="none" xmlns="http://www.w3.org/2000/svg">
<path d="M12.31 13.47C12.16 13.41 12 13.39 11.84 13.42C11.68 13.45 11.54 13.53 11.42 13.64C11.31 13.75 11.23 13.9 11.2 14.06C11.17 14.22 11.18 14.38 11.25 14.53C11.31 14.68 11.42 14.81 11.55 14.9C11.68 14.99 11.84 15.04 12 15.04C12.22 15.04 12.42 14.95 12.58 14.8C12.73 14.65 12.82 14.44 12.82 14.22C12.82 14.06 12.77 13.9 12.68 13.77C12.59 13.64 12.46 13.53 12.31 13.47Z" fill="#141414"/>
<path d="M12 10.14C11.78 10.14 11.57 10.23 11.42 10.38C11.27 10.53 11.18 10.74 11.18 10.96H12.82C12.82 10.74 12.73 10.53 12.58 10.38C12.43 10.23 12.22 10.14 12 10.14Z" fill="#141414"/>
<path d="M21.12 6.88C20.56 6.32 19.79 6 19 6H12.41L11.29 4.88C10.73 4.32 9.97 4 9.17 4H5C4.2 4 3.44 4.32 2.88 4.88C2.32 5.44 2 6.21 2 7V17C2 17.8 2.32 18.56 2.88 19.12C3.44 19.68 4.21 20 5 20H19C19.8 20 20.56 19.68 21.12 19.12C21.68 18.56 22 17.79 22 17V9C22 8.2 21.68 7.44 21.12 6.88ZM15.27 15.86C15.27 16.29 15.1 16.71 14.79 17.02C14.48 17.33 14.07 17.5 13.63 17.5H10.36C9.93 17.5 9.51 17.33 9.2 17.02C8.89 16.71 8.72 16.3 8.72 15.86V12.59C8.72 12.3 8.8 12.02 8.94 11.78C9.08 11.53 9.29 11.33 9.54 11.19V10.96C9.54 10.31 9.8 9.68 10.26 9.22C10.72 8.76 11.34 8.5 12 8.5C12.66 8.5 13.28 8.76 13.74 9.22C14.2 9.68 14.46 10.3 14.46 10.96V11.19C14.71 11.33 14.91 11.54 15.06 11.78C15.2 12.03 15.28 12.31 15.28 12.59V15.86H15.27Z" fill="#141414"/>
</svg>
