<svg width="24" height="24" viewBox="0 0 24 24" fill="none" xmlns="http://www.w3.org/2000/svg">
<path d="M19.46 9.24981C19.53 9.50981 19.69 9.7298 19.92 9.85981C20.07 9.94981 20.25 9.99981 20.43 9.99981C20.6 9.99981 20.77 9.94981 20.92 9.86981C21.07 9.78981 21.2 9.65981 21.28 9.50981C21.74 8.75981 21.98 7.88981 21.98 7.00981C21.98 6.12981 21.74 5.25981 21.28 4.5098C21.13 4.3098 20.92 4.1698 20.68 4.1198C20.44 4.0698 20.19 4.1098 19.97 4.2298C19.76 4.3498 19.6 4.5498 19.52 4.7898C19.44 5.0298 19.46 5.2798 19.56 5.5098C19.83 5.95981 19.98 6.46981 19.99 6.9998C19.99 7.52981 19.83 8.03981 19.56 8.48981C19.42 8.71981 19.39 8.98981 19.45 9.24981H19.46Z" fill="#141414"/>
<path d="M13.08 9.8698C13.23 9.9598 13.4 9.9998 13.57 9.9998C13.75 9.9998 13.93 9.9498 14.08 9.8598C14.31 9.7198 14.47 9.4998 14.54 9.2498C14.61 8.9998 14.57 8.7198 14.43 8.4898C14.16 8.0398 14.01 7.5298 14 6.9998C14 6.4698 14.16 5.95981 14.43 5.5098C14.53 5.2798 14.55 5.0298 14.47 4.7898C14.39 4.5498 14.23 4.3498 14.02 4.2298C13.81 4.1098 13.55 4.0598 13.31 4.1198C13.07 4.1698 12.85 4.3098 12.71 4.5098C12.25 5.2598 12.01 6.1298 12.01 7.0098C12.01 7.8898 12.25 8.7598 12.71 9.5098C12.8 9.6598 12.92 9.7798 13.07 9.8698H13.08Z" fill="#141414"/>
<path d="M22 16.9998V14.9998C22 14.1998 21.68 13.4398 21.12 12.8798C20.56 12.3198 19.79 11.9998 19 11.9998H18V4.9998C18 4.7298 17.89 4.4798 17.71 4.2898C17.53 4.0998 17.27 3.9998 17 3.9998C16.73 3.9998 16.48 4.1098 16.29 4.2898C16.1 4.4698 16 4.7298 16 4.9998V11.9998H13.42L4.7 3.2798C4.31 2.8898 3.68 2.8898 3.29 3.2798C2.9 3.6698 2.9 4.2998 3.29 4.6898L20.29 21.6898C20.49 21.8898 20.74 21.9798 21 21.9798C21.26 21.9798 21.51 21.8798 21.71 21.6898C22.1 21.2998 22.1 20.6698 21.71 20.2798L20.81 19.3798C20.92 19.2998 21.03 19.2198 21.13 19.1198C21.69 18.5598 22.01 17.7898 22.01 16.9998H22Z" fill="#141414"/>
<path d="M5 11.9998C4.2 11.9998 3.44 12.3198 2.88 12.8798C2.32 13.4398 2 14.2098 2 14.9998V16.9998C2 17.7998 2.32 18.5598 2.88 19.1198C3.44 19.6798 4.21 19.9998 5 19.9998H15.76L7.76 11.9998H5ZM6.71 16.7098C6.52 16.8998 6.27 16.9998 6 16.9998C5.8 16.9998 5.61 16.9398 5.44 16.8298C5.27 16.7198 5.15 16.5598 5.07 16.3798C4.99 16.1998 4.97 15.9998 5.01 15.7998C5.05 15.6098 5.14 15.4298 5.28 15.2898C5.42 15.1498 5.6 15.0498 5.79 15.0198C5.98 14.9798 6.19 14.9998 6.37 15.0798C6.55 15.1598 6.71 15.2798 6.82 15.4498C6.93 15.6098 6.99 15.8098 6.99 16.0098C6.99 16.2798 6.88 16.5298 6.7 16.7198L6.71 16.7098ZM9.02 15.8098C9.06 15.6198 9.15 15.4398 9.29 15.2998C9.43 15.1598 9.61 15.0598 9.8 15.0298C9.99 14.9898 10.2 15.0098 10.38 15.0898C10.56 15.1698 10.72 15.2898 10.83 15.4598C10.94 15.6198 11 15.8198 11 16.0198C11 16.2898 10.89 16.5398 10.71 16.7298C10.53 16.9198 10.27 17.0198 10 17.0198C9.8 17.0198 9.61 16.9598 9.44 16.8498C9.27 16.7398 9.15 16.5798 9.07 16.3998C8.99 16.2198 8.97 16.0198 9.01 15.8198L9.02 15.8098Z" fill="#141414"/>
</svg>
