<svg width="24" height="24" viewBox="0 0 24 24" fill="none" xmlns="http://www.w3.org/2000/svg">
<path d="M10.19 9.00023C10.59 9.00023 11.04 8.86023 11.04 8.29023V6.74023C11.04 6.67023 11.06 6.65023 11.13 6.65023H12.38C13.57 6.65023 14.52 5.90023 14.52 4.35023C14.52 2.80023 13.58 2.03023 12.38 2.03023H10.14C9.72 2.03023 9.34 2.23023 9.34 2.80023V8.29023C9.34 8.86023 9.8 9.00023 10.18 9.00023H10.19ZM11.04 3.75023C11.04 3.68023 11.06 3.66023 11.13 3.66023H12.13C12.51 3.66023 12.77 3.92023 12.77 4.36023C12.77 4.80023 12.51 5.04023 12.13 5.04023H11.13C11.06 5.04023 11.04 5.02023 11.04 4.95023V3.76023V3.75023ZM17.68 7.39023C17.24 7.39023 16.83 7.30023 16.4 7.00023C16.22 6.87023 16.04 6.75023 15.85 6.75023C15.43 6.75023 15.02 7.17023 15.02 7.57023C15.02 7.83023 15.17 8.00023 15.28 8.13023C15.77 8.68023 16.67 9.01023 17.68 9.01023C19.19 9.01023 20.24 8.20023 20.24 6.89023C20.24 5.85023 19.58 5.22023 18.37 4.81023L17.49 4.51023C17.11 4.38023 16.89 4.22023 16.89 4.03023C16.89 3.78023 17.21 3.61023 17.69 3.61023C18.01 3.61023 18.43 3.74023 18.76 3.93023C18.89 4.00023 19 4.08023 19.21 4.08023C19.57 4.08023 20 3.64023 20 3.23023C20 2.98023 19.88 2.78023 19.65 2.61023C19.2 2.28023 18.61 1.99023 17.69 1.99023C16.15 1.99023 15.14 2.87023 15.14 4.02023C15.14 5.17023 15.85 5.72023 16.98 6.10023L17.87 6.40023C18.27 6.54023 18.5 6.65023 18.5 6.88023C18.5 7.20023 18.17 7.39023 17.69 7.39023H17.68ZM4.59 9.00023C4.99 9.00023 5.44 8.86023 5.44 8.29023V6.28023C5.44 6.21023 5.46 6.19023 5.53 6.19023H7.1C7.66 6.19023 7.83 5.80023 7.83 5.39023C7.83 4.98023 7.66 4.57023 7.1 4.57023H5.53C5.46 4.57023 5.44 4.55023 5.44 4.48023V3.72023C5.44 3.65023 5.46 3.63023 5.53 3.63023H7.73C8.29 3.63023 8.46 3.24023 8.46 2.83023C8.46 2.42023 8.29 2.01023 7.73 2.01023H4.55C4.13 2.01023 3.75 2.21023 3.75 2.78023V8.27024C3.75 8.84024 4.21 8.98023 4.59 8.98023V9.00023ZM19 10.0002H5C3.34 10.0002 2 11.3402 2 13.0002V19.0002C2 20.6602 3.34 22.0002 5 22.0002H19C20.66 22.0002 22 20.6602 22 19.0002V13.0002C22 11.3402 20.66 10.0002 19 10.0002ZM8.98 20.0002C6.68 20.0002 6.32 18.2702 6.32 16.0002C6.32 13.7302 6.65 12.0002 9.14 12.0002C9.57 12.0002 10.09 12.1002 10.63 12.4302C10.86 12.5702 11.16 12.8002 11.16 13.2102C11.16 13.6202 10.74 14.1102 10.29 14.1102C10.1 14.1102 9.97 14.0602 9.74 13.9302C9.49 13.7802 9.29 13.7502 9.16 13.7502C8.77 13.7502 8.48 13.8902 8.38 14.1402C8.3 14.3202 8.27 14.5502 8.26 14.8002C8.26 14.8502 8.26 14.8802 8.33 14.8802C8.35 14.8802 8.44 14.8502 8.44 14.8502C8.68 14.7702 8.87 14.7502 9.1 14.7502C10.66 14.7502 11.54 15.6702 11.54 17.2502C11.54 18.9402 10.69 20.0102 8.98 20.0102V20.0002ZM15.07 20.0002C12.73 20.0002 12.41 18.1902 12.41 16.0002C12.41 13.8102 12.73 12.0002 15.07 12.0002C17.41 12.0002 17.73 13.8102 17.73 16.0002C17.73 18.1902 17.41 20.0002 15.07 20.0002ZM8.98 16.4402C8.38 16.4402 8.29 16.9702 8.29 17.3402V17.3902C8.29 17.7202 8.44 18.2402 8.98 18.2402C9.52 18.2402 9.68 17.6902 9.68 17.3402C9.68 16.9902 9.54 16.4402 8.98 16.4402ZM15.07 13.7702C14.35 13.7702 14.3 14.4702 14.3 15.9402V16.0502C14.3 17.5202 14.36 18.2202 15.07 18.2202C15.78 18.2202 15.84 17.5202 15.84 16.0502V15.9502C15.84 14.4702 15.78 13.7702 15.07 13.7702Z" fill="#141414"/>
</svg>
