<svg width="24" height="24" viewBox="0 0 24 24" fill="none" xmlns="http://www.w3.org/2000/svg">
<path d="M10.5 15C9.67 15 9 15.67 9 16.5C9 17.33 9.67 18 10.5 18C11.33 18 12 17.33 12 16.5C12 15.67 11.33 15 10.5 15ZM18 15.5C17.5 15.5 16.5 17.17 16.5 18C16.5 18.83 17.17 19.5 18 19.5C18.83 19.5 19.5 18.83 19.5 18C19.5 17.17 18.5 15.5 18 15.5ZM6.5 17C6 17 5 18.67 5 19.5C5 20.33 5.67 21 6.5 21C7.33 21 8 20.33 8 19.5C8 18.67 7 17 6.5 17ZM14 19C13.17 19 12.5 19.67 12.5 20.5C12.5 21.33 13.17 22 14 22C14.83 22 15.5 21.33 15.5 20.5C15.5 19.67 14.83 19 14 19ZM19.44 8.38C19.47 8.17 19.5 7.96 19.5 7.75C19.5 5.13 17.37 3 14.75 3C13.11 3 11.67 3.83 10.82 5.09C10.56 5.03 10.28 5 10 5C8.13 5 6.58 6.28 6.14 8.01C6.09 8.01 6.05 8 6 8C4.34 8 3 9.34 3 11C3 12.66 4.34 14 6 14H18C19.66 14 21 12.66 21 11C21 9.87 20.36 8.89 19.44 8.38Z" fill="#141414"/>
</svg>
