<svg width="24" height="24" viewBox="0 0 24 24" fill="none" xmlns="http://www.w3.org/2000/svg">
<path d="M5 11V13C5 13.55 5.45 14 6 14H18C18.55 14 19 13.55 19 13V11C19 10.45 18.55 10 18 10H6C5.45 10 5 10.45 5 11ZM3 10C2.45 10 2 10.45 2 11V13C2 13.55 2.45 14 3 14C3.55 14 4 13.55 4 13V11C4 10.45 3.55 10 3 10ZM21 10C20.45 10 20 10.45 20 11V13C20 13.55 20.45 14 21 14C21.55 14 22 13.55 22 13V11C22 10.45 21.55 10 21 10ZM17.66 16.24C17.27 15.85 16.64 15.85 16.25 16.24C15.86 16.63 15.86 17.26 16.25 17.65L17.66 19.06C18.05 19.45 18.68 19.45 19.07 19.06C19.46 18.67 19.46 18.04 19.07 17.65L17.66 16.24ZM6.35 16.24L4.94 17.65C4.55 18.04 4.55 18.67 4.94 19.06C5.33 19.45 5.96 19.45 6.35 19.06L7.76 17.65C8.15 17.26 8.15 16.63 7.76 16.24C7.37 15.85 6.74 15.85 6.35 16.24ZM12.01 18C11.46 18 11.01 18.45 11.01 19V21C11.01 21.55 11.46 22 12.01 22C12.56 22 13.01 21.55 13.01 21V19C13.01 18.45 12.56 18 12.01 18ZM6.34 7.76C6.73 8.15 7.36 8.15 7.75 7.76C8.14 7.37 8.14 6.74 7.75 6.35L6.34 4.94C5.95 4.55 5.32 4.55 4.93 4.94C4.54 5.33 4.54 5.96 4.93 6.35L6.34 7.76ZM17.65 4.93L16.24 6.34C15.85 6.73 15.85 7.36 16.24 7.75C16.63 8.14 17.26 8.14 17.65 7.75L19.06 6.34C19.45 5.95 19.45 5.32 19.06 4.93C18.67 4.54 18.04 4.54 17.65 4.93ZM11.99 6C12.54 6 12.99 5.55 12.99 5V3C12.99 2.45 12.54 2 11.99 2C11.44 2 10.99 2.45 10.99 3V5C10.99 5.55 11.44 6 11.99 6Z" fill="#141414"/>
</svg>
