<svg width="24" height="24" viewBox="0 0 24 24" fill="none" xmlns="http://www.w3.org/2000/svg">
<path d="M21 13H3C2.45 13 2 13.45 2 14C2 14.55 2.45 15 3 15H21C21.55 15 22 14.55 22 14C22 13.45 21.55 13 21 13ZM16 17C16 16.45 15.55 16 15 16H4.5C3.95 16 3.5 16.45 3.5 17C3.5 17.55 3.95 18 4.5 18H15C15.55 18 16 17.55 16 17ZM19 19H11C10.45 19 10 19.45 10 20C10 20.55 10.45 21 11 21H19C19.55 21 20 20.55 20 20C20 19.45 19.55 19 19 19ZM21.06 11C21.64 10.4 22.01 9.58 22.01 8.67C22.01 7.18 21.04 5.94 19.71 5.51C19.28 3.51 17.52 2 15.41 2C13.76 2 12.34 2.93 11.59 4.28C11.4 4.25 11.21 4.22 11.01 4.22C9.19 4.22 7.71 5.71 7.71 7.55C6.49 7.55 5.51 8.54 5.51 9.77C5.51 10.22 5.65 10.64 5.87 10.99H21.06V11Z" fill="#141414"/>
</svg>
