<svg width="24" height="24" viewBox="0 0 24 24" fill="none" xmlns="http://www.w3.org/2000/svg">
<path d="M9.75 16.99H14.25C14.85 16.99 15.42 16.75 15.84 16.33C16.26 15.91 16.5 15.34 16.5 14.74V4.25C16.5 3.65 16.26 3.08 15.84 2.66C15.42 2.24 14.85 2 14.25 2H9.75C9.15 2 8.58 2.24 8.16 2.66C7.74 3.08 7.5 3.65 7.5 4.25V14.74C7.5 15.34 7.74 15.91 8.16 16.33C8.58 16.75 9.15 16.99 9.75 16.99ZM11.02 13.79C11.06 13.6 11.15 13.42 11.29 13.28C11.43 13.14 11.61 13.04 11.8 13.01C11.99 12.97 12.2 12.99 12.38 13.07C12.56 13.15 12.72 13.27 12.83 13.44C12.94 13.6 13 13.8 13 14C13 14.27 12.89 14.52 12.71 14.71C12.53 14.9 12.27 15 12 15C11.8 15 11.61 14.94 11.44 14.83C11.28 14.72 11.15 14.56 11.07 14.38C10.99 14.2 10.97 14 11.01 13.8L11.02 13.79Z" fill="#141414"/>
<path d="M18.04 14.26L17.83 14.24C17.39 14.24 17.02 14.53 16.91 14.96C16.85 15.2 16.89 15.46 17.02 15.67C17.15 15.88 17.36 16.03 17.61 16.09C19.35 16.51 19.99 17 20.12 17.18C19.94 17.47 18.34 18.38 14.51 18.7C13.99 18.74 13.61 19.2 13.65 19.71C13.69 20.2 14.1 20.57 14.59 20.57H14.68C16.88 20.38 22.01 19.67 22.01 17.15C22.01 16.26 21.33 15.03 18.05 14.25L18.04 14.26Z" fill="#141414"/>
<path d="M12.86 19.39H12.87L12.85 19.34C12.82 19.28 12.78 19.22 12.74 19.16L12.59 19L11.37 17.78C11.19 17.6 10.96 17.51 10.71 17.51C10.46 17.51 10.22 17.61 10.05 17.78C9.87 17.96 9.78 18.19 9.78 18.44C9.78 18.54 9.78 18.63 9.82 18.72C6.11 18.45 4.12 17.53 3.9 17.16C4.04 16.97 4.68 16.49 6.41 16.08C6.65 16.02 6.86 15.88 6.99 15.66C7.12 15.45 7.17 15.19 7.1 14.95C7 14.53 6.62 14.23 6.18 14.23C6.1 14.23 6.03 14.23 5.96 14.26C2.69 15.05 2 16.27 2 17.16C2 19.32 5.98 20.36 9.87 20.62C9.8 20.75 9.77 20.89 9.77 21.04C9.77 21.29 9.87 21.53 10.04 21.7C10.22 21.88 10.45 21.97 10.7 21.97C10.95 21.97 11.19 21.87 11.36 21.7L12.66 20.4C12.75 20.31 12.82 20.21 12.87 20.1C12.92 19.98 12.94 19.86 12.94 19.74C12.94 19.63 12.92 19.53 12.88 19.43L12.86 19.38V19.39Z" fill="#141414"/>
</svg>
