<svg width="24" height="24" viewBox="0 0 24 24" fill="none" xmlns="http://www.w3.org/2000/svg">
<mask id="mask0_1700_106" style="mask-type:alpha" maskUnits="userSpaceOnUse" x="2" y="2" width="20" height="20">
<circle cx="12" cy="12" r="10" fill="#C4C4C4"/>
</mask>
<g mask="url(#mask0_1700_106)">
<path d="M27.1786 2H-3.17859V22.1786H27.1786V2Z" fill="white"/>
<path d="M27.1786 2H-3.17859V8.72619H27.1786V2Z" fill="#FF9932"/>
<path d="M27.1784 15.4526H-3.17871V22.1788H27.1784V15.4526Z" fill="#128808"/>
<path d="M12.4632 12.0672C12.4621 12.0415 12.4588 12.0159 12.4534 11.9908L12.9096 11.9274L14.1966 11.5023L12.8688 11.7757L12.4421 11.9481C12.4343 11.9236 12.4245 11.8998 12.4128 11.877L12.8366 11.6981L13.9694 10.9555L12.7589 11.5622L12.3907 11.8386C12.3768 11.817 12.3612 11.7965 12.344 11.7774L12.7066 11.4956L13.608 10.4858L12.5953 11.3846L12.3126 11.7461C12.2935 11.7288 12.2731 11.7131 12.2514 11.6992L12.5285 11.3333L13.137 10.1255L12.392 11.255L12.2129 11.6769C12.1901 11.665 12.1663 11.6551 12.1418 11.6473L12.3143 11.2228L12.5885 9.89896L12.1622 11.1822L12.0988 11.6362C12.0736 11.6307 12.0479 11.6273 12.0222 11.6261L12.0787 11.1721L11.9999 9.82178L11.9212 11.1712L11.9777 11.6252C11.9519 11.6264 11.9263 11.6298 11.9011 11.6353L11.8377 11.1813L11.4113 9.89896L11.6856 11.2228L11.8581 11.6473C11.8336 11.6551 11.8098 11.665 11.7869 11.6769L11.6078 11.255L10.8629 10.1255L11.4714 11.3333L11.7485 11.6992C11.7268 11.7131 11.7063 11.7288 11.6872 11.7461L11.4046 11.3846L10.3918 10.4858L11.2933 11.4956L11.6559 11.7774C11.6387 11.7965 11.6231 11.817 11.6092 11.8386L11.2418 11.5622L10.0304 10.9555L11.1632 11.6981L11.5871 11.877C11.5753 11.8998 11.5655 11.9236 11.5577 11.9481L11.131 11.7757L9.80324 11.5023L11.0902 11.9274L11.5464 11.9908C11.541 12.0159 11.5377 12.0415 11.5366 12.0672L11.0793 12.0107L9.72583 12.0892L11.0793 12.1677L11.5368 12.1112C11.5381 12.1368 11.5415 12.1623 11.5471 12.1874L11.0902 12.2509L9.80324 12.676L11.131 12.4026L11.5586 12.2298C11.5665 12.2542 11.5764 12.278 11.5884 12.3007L11.1632 12.4801L10.0304 13.2229L11.2418 12.6162L11.6105 12.3386C11.6245 12.3602 11.6402 12.3806 11.6576 12.3996L11.2933 12.6828L10.3918 13.6925L11.4046 12.7937L11.6886 12.4304C11.7077 12.4476 11.7282 12.4633 11.75 12.4771L11.4714 12.8459L10.8629 14.0537L11.6078 12.9242L11.7879 12.4996C11.8108 12.5115 11.8347 12.5214 11.8593 12.5292L11.6856 12.9564L11.4113 14.2794L11.8377 12.9962L11.9016 12.5395C11.9267 12.545 11.9523 12.5483 11.978 12.5494L11.9212 13.0071L11.9999 14.3566L12.0787 13.0071L12.0218 12.5494C12.0475 12.5483 12.0731 12.545 12.0982 12.5395L12.1622 12.9962L12.5885 14.2794L12.3143 12.9555L12.1406 12.5284C12.1652 12.5206 12.189 12.5107 12.2119 12.4988L12.392 12.9234L13.137 14.0529L12.5285 12.8459L12.2499 12.478C12.2716 12.4641 12.2921 12.4485 12.3113 12.4312L12.5953 12.7937L13.608 13.6925L12.7066 12.6828L12.3423 12.3996C12.3597 12.3806 12.3754 12.3602 12.3893 12.3386L12.7589 12.6162L13.9703 13.2229L12.8374 12.4801L12.4114 12.3007C12.4234 12.278 12.4334 12.2542 12.4413 12.2298L12.8688 12.4026L14.1966 12.676L12.9096 12.2509L12.4527 12.1874C12.4583 12.1623 12.4618 12.1368 12.463 12.1112L12.9206 12.1677L14.274 12.0892L12.9206 12.0107L12.4632 12.0672Z" fill="#000089"/>
<path d="M14.675 11.7383C14.6054 11.2107 14.3804 10.7156 14.0285 10.3155C13.6766 9.91543 13.2137 9.62836 12.6982 9.49062C12.1827 9.35288 11.6378 9.37065 11.1324 9.54169C10.627 9.71272 10.1838 10.0293 9.85893 10.4515C9.53402 10.8736 9.34197 11.3824 9.30705 11.9134C9.27213 12.4444 9.39592 12.9738 9.66276 13.4346C9.9296 13.8954 10.3275 14.267 10.8062 14.5024C11.2848 14.7378 11.8227 14.8263 12.3519 14.7569C13.0614 14.6637 13.7048 14.2934 14.1404 13.7273C14.5761 13.1612 14.7684 12.4458 14.675 11.7383ZM14.3546 12.2731C14.3221 12.2701 14.2898 12.2798 14.2643 12.3002C14.2388 12.3205 14.2223 12.3498 14.218 12.3821C14.2138 12.4143 14.2222 12.4469 14.2415 12.4731C14.2608 12.4993 14.2896 12.517 14.3217 12.5226C14.2993 12.6421 14.2676 12.7596 14.2269 12.8742C14.1963 12.8629 14.1625 12.8638 14.1326 12.8768C14.1027 12.8898 14.0789 12.9139 14.0664 12.9439C14.0538 12.974 14.0535 13.0077 14.0653 13.038C14.0772 13.0683 14.1003 13.0929 14.13 13.1066C14.0772 13.2161 14.016 13.3214 13.947 13.4215C13.9203 13.4031 13.8875 13.3956 13.8555 13.4006C13.8234 13.4055 13.7945 13.4227 13.7747 13.4483C13.755 13.474 13.7459 13.5063 13.7493 13.5384C13.7528 13.5706 13.7685 13.6002 13.7933 13.6211C13.7141 13.7134 13.6278 13.7994 13.5353 13.8784C13.5143 13.8538 13.4846 13.8382 13.4524 13.8349C13.4201 13.8315 13.3878 13.8406 13.3621 13.8603C13.3365 13.88 13.3193 13.9088 13.3143 13.9407C13.3093 13.9726 13.3168 14.0052 13.3353 14.0318C13.2347 14.1005 13.129 14.1613 13.019 14.2137C13.0053 14.1843 12.9807 14.1613 12.9504 14.1495C12.92 14.1377 12.8863 14.138 12.8562 14.1504C12.8261 14.1628 12.802 14.1863 12.7889 14.2161C12.7758 14.2458 12.7747 14.2794 12.7858 14.3099C12.6708 14.3502 12.5529 14.3815 12.4332 14.4037C12.4273 14.3719 12.4094 14.3434 12.3831 14.3244C12.3568 14.3053 12.3242 14.2971 12.292 14.3015C12.2598 14.3058 12.2305 14.3223 12.2102 14.3476C12.1899 14.373 12.1802 14.4051 12.183 14.4374C12.0616 14.4468 11.9396 14.4468 11.8181 14.4374C11.8209 14.405 11.8111 14.3728 11.7907 14.3475C11.7703 14.3222 11.7409 14.3057 11.7086 14.3015C11.6763 14.2973 11.6437 14.3057 11.6174 14.3249C11.5912 14.3442 11.5734 14.3728 11.5678 14.4047C11.448 14.3825 11.3302 14.3511 11.2153 14.3106C11.2264 14.2801 11.2253 14.2466 11.2122 14.2169C11.1991 14.1872 11.1751 14.1637 11.145 14.1513C11.115 14.1388 11.0813 14.1384 11.051 14.1501C11.0207 14.1618 10.9961 14.1847 10.9822 14.2141C10.8724 14.1616 10.7667 14.1008 10.6662 14.0321C10.6866 14.0055 10.6956 13.9719 10.6912 13.9387C10.6868 13.9055 10.6694 13.8753 10.6427 13.855C10.616 13.8346 10.5823 13.8256 10.549 13.83C10.5156 13.8344 10.4854 13.8518 10.465 13.8784C10.3724 13.7995 10.286 13.7136 10.2066 13.6215C10.2316 13.6006 10.2475 13.5709 10.2511 13.5386C10.2546 13.5063 10.2455 13.4739 10.2256 13.4481C10.2057 13.4224 10.1766 13.4053 10.1444 13.4004C10.1121 13.3956 10.0793 13.4033 10.0526 13.4221C9.98358 13.3219 9.92246 13.2166 9.86983 13.1069C9.89918 13.0932 9.92209 13.0686 9.93381 13.0385C9.94552 13.0083 9.94516 12.9748 9.93278 12.9449C9.92039 12.915 9.89695 12.891 9.8673 12.8779C9.83766 12.8647 9.80408 12.8635 9.77353 12.8744C9.73298 12.7597 9.7014 12.6421 9.67908 12.5226C9.71154 12.5173 9.74066 12.4996 9.76023 12.4733C9.77981 12.4469 9.7883 12.414 9.78391 12.3815C9.77952 12.349 9.76258 12.3195 9.73671 12.2992C9.71083 12.279 9.67806 12.2696 9.64535 12.2731C9.63591 12.1518 9.63591 12.0301 9.64535 11.9088C9.67817 11.9124 9.71107 11.9029 9.73701 11.8826C9.76295 11.8622 9.77986 11.8326 9.78414 11.7999C9.78841 11.7673 9.77971 11.7343 9.75989 11.708C9.74006 11.6816 9.7107 11.6641 9.67807 11.6591C9.70026 11.5396 9.73184 11.422 9.77251 11.3073C9.8031 11.3183 9.83675 11.3171 9.86649 11.304C9.89622 11.2909 9.91976 11.2669 9.93221 11.237C9.94466 11.2071 9.94508 11.1735 9.93337 11.1433C9.92166 11.113 9.89872 11.0884 9.86932 11.0746C9.92196 10.9649 9.98302 10.8595 10.052 10.7592C10.0786 10.7782 10.1117 10.7862 10.1442 10.7814C10.1766 10.7766 10.2059 10.7593 10.2259 10.7333C10.2458 10.7074 10.2549 10.6747 10.251 10.6422C10.2472 10.6097 10.2309 10.5799 10.2054 10.5592C10.2847 10.4668 10.371 10.3805 10.4635 10.3013C10.4839 10.3277 10.5141 10.345 10.5473 10.3493C10.5805 10.3536 10.6141 10.3446 10.6406 10.3242C10.6672 10.3038 10.6845 10.2738 10.6888 10.2407C10.6932 10.2075 10.6841 10.174 10.6637 10.1476C10.7643 10.0788 10.8702 10.0178 10.9802 9.9653C10.994 9.99449 11.0186 10.0173 11.0488 10.029C11.0789 10.0406 11.1125 10.0403 11.1424 10.0281C11.1724 10.0158 11.1965 9.99256 11.2097 9.9631C11.223 9.93364 11.2244 9.90024 11.2136 9.86978C11.3287 9.82939 11.4468 9.79796 11.5668 9.77579C11.5717 9.80842 11.5893 9.83784 11.6157 9.8577C11.6421 9.87755 11.6753 9.88627 11.7082 9.88198C11.741 9.87768 11.7708 9.86071 11.7912 9.83472C11.8116 9.80873 11.8209 9.77579 11.8172 9.743C11.9389 9.73358 12.0611 9.73358 12.1827 9.743C12.1782 9.77611 12.1871 9.80964 12.2075 9.83621C12.2278 9.86277 12.2579 9.88021 12.2911 9.88467C12.3243 9.88913 12.3579 9.88025 12.3846 9.85999C12.4112 9.83973 12.4287 9.80974 12.4332 9.77663C12.5531 9.79851 12.6711 9.82965 12.7861 9.86978C12.774 9.90049 12.7744 9.93474 12.7873 9.96515C12.8002 9.99556 12.8245 10.0197 12.8551 10.0324C12.8857 10.0451 12.9201 10.0453 12.9508 10.0329C12.9815 10.0206 13.0061 9.99674 13.0194 9.96647C13.1293 10.0191 13.235 10.0801 13.3356 10.1489C13.317 10.1755 13.3095 10.2082 13.3145 10.2403C13.3194 10.2723 13.3366 10.3012 13.3624 10.3209C13.3881 10.3407 13.4206 10.3498 13.4529 10.3463C13.4852 10.3429 13.515 10.3272 13.536 10.3024C13.6286 10.3813 13.715 10.4671 13.7943 10.5592C13.7685 10.5798 13.7518 10.6097 13.7479 10.6424C13.7439 10.6751 13.7529 10.7081 13.7731 10.7342C13.7932 10.7604 13.8228 10.7776 13.8555 10.7823C13.8883 10.7869 13.9215 10.7785 13.9481 10.759C14.0172 10.8592 14.0783 10.9647 14.1308 11.0744C14.1009 11.0879 14.0775 11.1124 14.0654 11.1428C14.0533 11.1732 14.0536 11.207 14.0661 11.2372C14.0786 11.2674 14.1024 11.2916 14.1324 11.3047C14.1624 11.3177 14.1964 11.3186 14.2271 11.3072C14.2675 11.4219 14.2989 11.5395 14.321 11.6591C14.2883 11.664 14.2588 11.6815 14.2389 11.7079C14.219 11.7342 14.2102 11.7673 14.2145 11.8001C14.2188 11.8328 14.2359 11.8625 14.2619 11.8829C14.288 11.9032 14.321 11.9125 14.3539 11.9088C14.3634 12.0301 14.3634 12.1518 14.3539 12.2731H14.3546Z" fill="#000089"/>
</g>
</svg>
