<svg width="24" height="24" viewBox="0 0 24 24" fill="none" xmlns="http://www.w3.org/2000/svg">
<path d="M17.69 7.39023C17.25 7.39023 16.84 7.30023 16.41 7.00023C16.23 6.87023 16.05 6.75023 15.86 6.75023C15.44 6.75023 15.03 7.17023 15.03 7.57023C15.03 7.83023 15.18 8.00023 15.29 8.13023C15.78 8.68023 16.68 9.01023 17.69 9.01023C19.2 9.01023 20.25 8.20023 20.25 6.89023C20.25 5.85023 19.59 5.22023 18.38 4.81023L17.5 4.51023C17.12 4.38023 16.9 4.22023 16.9 4.03023C16.9 3.78023 17.22 3.61023 17.7 3.61023C18.02 3.61023 18.44 3.74023 18.77 3.93023C18.9 4.00023 19.01 4.08023 19.22 4.08023C19.58 4.08023 20.01 3.64023 20.01 3.23023C20.01 2.98023 19.89 2.78023 19.66 2.61023C19.21 2.28023 18.62 1.99023 17.7 1.99023C16.16 1.99023 15.15 2.87023 15.15 4.02023C15.15 5.17023 15.86 5.72023 16.99 6.10023L17.88 6.40023C18.28 6.54023 18.51 6.65023 18.51 6.88023C18.51 7.20023 18.18 7.39023 17.7 7.39023H17.69ZM10.19 9.00023C10.59 9.00023 11.04 8.86023 11.04 8.29023V6.74023C11.04 6.67023 11.06 6.65023 11.13 6.65023H12.38C13.57 6.65023 14.52 5.90023 14.52 4.35023C14.52 2.80023 13.58 2.03023 12.38 2.03023H10.14C9.72 2.03023 9.34 2.23023 9.34 2.80023V8.29023C9.34 8.86023 9.8 9.00023 10.18 9.00023H10.19ZM11.04 3.75023C11.04 3.68023 11.06 3.66023 11.13 3.66023H12.13C12.51 3.66023 12.77 3.92023 12.77 4.36023C12.77 4.80023 12.51 5.04023 12.13 5.04023H11.13C11.06 5.04023 11.04 5.02023 11.04 4.95023V3.76023V3.75023ZM4.59 9.00023C4.99 9.00023 5.44 8.86023 5.44 8.29023V6.28023C5.44 6.21023 5.46 6.19023 5.53 6.19023H7.1C7.66 6.19023 7.83 5.80023 7.83 5.39023C7.83 4.98023 7.66 4.57023 7.1 4.57023H5.53C5.46 4.57023 5.44 4.55023 5.44 4.48023V3.72023C5.44 3.65023 5.46 3.63023 5.53 3.63023H7.73C8.29 3.63023 8.46 3.24023 8.46 2.83023C8.46 2.42023 8.29 2.01023 7.73 2.01023H4.55C4.13 2.01023 3.75 2.21023 3.75 2.78023V8.27024C3.75 8.84024 4.21 8.98023 4.59 8.98023V9.00023ZM19 10.0002H5C3.34 10.0002 2 11.3402 2 13.0002V19.0002C2 20.6602 3.34 22.0002 5 22.0002H19C20.66 22.0002 22 20.6602 22 19.0002V13.0002C22 11.3402 20.66 10.0002 19 10.0002ZM8.79 20.0002C7.47 20.0002 6.87 19.3202 6.61 19.0302C6.5 18.9102 6.36 18.6702 6.36 18.4302C6.36 18.0702 6.81 17.5302 7.3 17.5302C7.48 17.5302 7.63 17.5602 7.93 17.8502C8.09 18.0102 8.38 18.2502 8.79 18.2502C9.24 18.2502 9.54 17.9502 9.54 17.4902C9.54 17.0302 9.21 16.7202 8.76 16.7202H8.65C8.13 16.7202 7.89 16.3802 7.89 15.8902C7.89 15.4002 8.15 15.0802 8.66 15.0802H8.77C9.15 15.0802 9.42 14.8002 9.42 14.4102C9.42 14.0002 9.17 13.7502 8.8 13.7502C8.45 13.7502 8.25 13.9402 7.97 14.1502C7.82 14.2902 7.66 14.4002 7.37 14.4002C6.95 14.4002 6.44 14.0102 6.44 13.5302C6.44 13.2202 6.67 12.9402 6.85 12.7502C7.28 12.3202 7.85 12.0102 8.8 12.0102C10.35 12.0102 11.28 12.9402 11.28 14.2902C11.28 14.9802 11 15.4802 10.63 15.8002C10.6 15.8202 10.57 15.8602 10.57 15.8902C10.57 15.9202 10.59 15.9502 10.63 15.9802C11 16.2902 11.41 16.7902 11.41 17.6002C11.41 18.9302 10.47 20.0002 8.8 20.0002H8.79ZM14.99 20.0002C12.65 20.0002 12.33 18.1902 12.33 16.0002C12.33 13.8102 12.65 12.0002 14.99 12.0002C17.33 12.0002 17.65 13.8102 17.65 16.0002C17.65 18.1902 17.33 20.0002 14.99 20.0002ZM14.99 13.7702C14.27 13.7702 14.22 14.4702 14.22 15.9402V16.0502C14.22 17.5202 14.28 18.2202 14.99 18.2202C15.7 18.2202 15.76 17.5202 15.76 16.0502V15.9502C15.76 14.4702 15.7 13.7702 14.99 13.7702Z" fill="#141414"/>
</svg>
