<svg width="24" height="24" viewBox="0 0 24 24" fill="none" xmlns="http://www.w3.org/2000/svg">
<path d="M11 9C9.9 9 9 9.9 9 11C9 12.1 9.9 13 11 13C12.1 13 13 12.1 13 11C13 9.9 12.1 9 11 9ZM16.5 2H7.5C5.84 2 4.5 3.34 4.5 5V19C4.5 20.66 5.84 22 7.5 22H16.5C18.16 22 19.5 20.66 19.5 19V5C19.5 3.34 18.16 2 16.5 2ZM16.71 16.71C16.51 16.91 16.26 17 16 17C15.74 17 15.49 16.9 15.29 16.71L13.02 14.44C12.43 14.79 11.74 15.01 11 15.01C8.79 15.01 7 13.22 7 11.01C7 8.8 8.79 7.01 11 7.01C13.21 7.01 15 8.8 15 11.01C15 11.75 14.78 12.43 14.43 13.03L16.7 15.3C17.09 15.69 17.09 16.32 16.7 16.71H16.71Z" fill="#141414"/>
</svg>
