<svg width="24" height="24" viewBox="0 0 24 24" fill="none" xmlns="http://www.w3.org/2000/svg">
<path d="M12 16.99C12.42 16.99 13 16.25 13.27 14.99H10.72C11.02 16.25 11.57 16.99 11.99 16.99H12Z" fill="#141414"/>
<path d="M9.69 10.99C9.8 10.44 9.97 9.91 10.21 9.42C9.51 9.77 8.93 10.32 8.53 10.99H9.69Z" fill="#141414"/>
<path d="M8.54 14.99C8.93 15.66 9.5 16.21 10.19 16.56C9.96 16.06 9.79 15.53 9.69 14.99H8.54Z" fill="#141414"/>
<path d="M12 8.99C11.58 8.99 11.02 9.73 10.73 10.99H13.28C12.98 9.73 12.43 8.99 12.01 8.99H12Z" fill="#141414"/>
<path d="M9.5 12.99C9.5 12.65 9.5 12.31 9.54 11.99H8.12C8.04 12.32 7.99 12.65 7.99 12.99C7.99 13.33 8.04 13.66 8.12 13.99H9.54C9.5 13.67 9.5 13.33 9.5 12.99Z" fill="#141414"/>
<path d="M15.46 10.99C15.07 10.32 14.5 9.77 13.81 9.42C14.04 9.92 14.21 10.45 14.31 10.99H15.46Z" fill="#141414"/>
<path d="M10.56 11.99C10.49 12.65 10.49 13.33 10.56 13.99H13.45C13.49 13.66 13.51 13.32 13.51 12.99C13.51 12.66 13.49 12.32 13.45 11.99H10.56Z" fill="#141414"/>
<path d="M21.12 6.88C20.56 6.32 19.79 6 19 6H12.41L11.29 4.88C10.73 4.32 9.97 4 9.17 4H5C4.2 4 3.44 4.32 2.88 4.88C2.32 5.44 2 6.21 2 7V17C2 17.8 2.32 18.56 2.88 19.12C3.44 19.68 4.21 20 5 20H19C19.8 20 20.56 19.68 21.12 19.12C21.68 18.56 22 17.79 22 17V9C22 8.2 21.68 7.44 21.12 6.88ZM16.16 15.77C15.61 16.59 14.83 17.23 13.92 17.61C13.01 17.99 12 18.09 11.03 17.89C10.06 17.7 9.17 17.22 8.47 16.52C7.77 15.82 7.29 14.93 7.1 13.96C6.91 12.99 7.01 11.98 7.38 11.07C7.76 10.16 8.4 9.38 9.22 8.83C10.04 8.28 11.01 7.99 12 7.99C12.66 7.99 13.31 8.12 13.91 8.37C14.52 8.62 15.07 8.99 15.53 9.45C15.99 9.91 16.36 10.47 16.61 11.07C16.86 11.68 16.99 12.33 16.99 12.98C16.99 13.97 16.7 14.94 16.15 15.76L16.16 15.77Z" fill="#141414"/>
<path d="M14.46 11.99C14.5 12.31 14.5 12.65 14.5 12.99C14.5 13.33 14.48 13.67 14.46 13.99H15.88C16.05 13.33 16.05 12.65 15.88 11.99H14.46Z" fill="#141414"/>
<path d="M13.78 16.57C14.47 16.21 15.05 15.67 15.43 15H14.28C14.18 15.54 14.01 16.07 13.78 16.57Z" fill="#141414"/>
</svg>
