<svg width="24" height="24" viewBox="0 0 24 24" fill="none" xmlns="http://www.w3.org/2000/svg">
<path d="M15 7.00001H19C19 6.47001 18.79 5.96001 18.41 5.59001L15.41 2.59001C15.04 2.21001 14.53 2.00001 14 2.00001V6.00001C14 6.27001 14.11 6.52001 14.29 6.71001C14.47 6.90001 14.73 7.00001 15 7.00001Z" fill="#141414"/>
<path d="M12.88 8.12C12.32 7.56 12 6.79 12 6V2H6.5C5.84 2 5.2 2.26 4.73 2.73C4.26 3.2 4 3.83 4 4.5V19.5C4 20.16 4.26 20.8 4.73 21.27C5.2 21.74 5.83 22 6.5 22H16.5C17.16 22 17.8 21.74 18.27 21.27C18.74 20.8 19 20.17 19 19.5V9H15C14.2 9 13.44 8.68 12.88 8.12ZM15 17.99C15 18.54 14.55 18.99 14 18.99C13.45 18.99 13 18.54 13 17.99V16.41L9.71 19.7C9.51 19.9 9.26 19.99 9 19.99C8.74 19.99 8.49 19.89 8.29 19.7C7.9 19.31 7.9 18.68 8.29 18.29L11.58 15H10C9.45 15 9 14.55 9 14C9 13.45 9.45 13 10 13H14C14.13 13 14.26 13.03 14.38 13.08C14.63 13.18 14.82 13.38 14.92 13.62C14.97 13.74 15 13.87 15 14V17.99Z" fill="#141414"/>
</svg>
