<svg width="24" height="24" viewBox="0 0 24 24" fill="none" xmlns="http://www.w3.org/2000/svg">
<path d="M20.46 4.68C20.12 4.31 19.66 4.08 19.16 4.02C16.96 3.79 14.81 3.17 12.82 2.19C12.56 2.06 12.28 2 12 2C11.72 2 11.44 2.07 11.18 2.19C9.21 3.17 7.07 3.79 4.88 4.02C4.38 4.06 3.91 4.29 3.56 4.66C3.21 5.03 3.01 5.51 3 6.02V11.01C3 17.75 9.75 22 12 22C14.25 22 21 17.75 21 11.01V6.02C20.99 5.52 20.8 5.05 20.46 4.68ZM15 9H11V11H14.02C14.57 11 15.02 11.45 15.02 12C15.02 12.55 14.57 13 14.02 13H11V16C11 16.55 10.55 17 10 17C9.45 17 9 16.55 9 16V8C9 7.45 9.45 7 10 7H15C15.55 7 16 7.45 16 8C16 8.55 15.55 9 15 9Z" fill="#141414"/>
</svg>
