<svg width="24" height="24" viewBox="0 0 24 24" fill="none" xmlns="http://www.w3.org/2000/svg">
<path d="M12.01 11C10.91 11 10.01 11.9 10.01 13C10.01 14.1 10.91 15 12.01 15C13.11 15 14.01 14.1 14.01 13C14.01 11.9 13.11 11 12.01 11ZM21.12 3.88C20.56 3.32 19.79 3 19 3H5C4.2 3 3.44 3.32 2.88 3.88C2.32 4.44 2 5.21 2 6V18C2 18.8 2.32 19.56 2.88 20.12C3.44 20.68 4.21 21 5 21H19C19.8 21 20.56 20.68 21.12 20.12C21.68 19.56 22 18.79 22 18V6C22 5.2 21.68 4.44 21.12 3.88ZM10.29 5.29C10.48 5.1 10.73 5 11 5C11.2 5 11.39 5.06 11.56 5.17C11.73 5.28 11.85 5.44 11.93 5.62C12.01 5.8 12.03 6 11.99 6.2C11.95 6.4 11.86 6.57 11.72 6.71C11.58 6.85 11.4 6.95 11.21 6.98C11.02 7.02 10.81 7 10.63 6.92C10.45 6.84 10.29 6.72 10.18 6.55C10.07 6.39 10.01 6.19 10.01 5.99C10.01 5.72 10.12 5.47 10.3 5.28L10.29 5.29ZM5.98 6.19C5.94 6.38 5.85 6.56 5.71 6.7C5.57 6.84 5.39 6.94 5.2 6.97C5.01 7.01 4.8 6.99 4.62 6.91C4.44 6.83 4.28 6.71 4.17 6.54C4.06 6.38 4 6.18 4 5.98C4 5.71 4.11 5.46 4.29 5.27C4.48 5.08 4.73 4.98 5 4.98C5.2 4.98 5.39 5.04 5.56 5.15C5.72 5.26 5.85 5.42 5.93 5.6C6.01 5.78 6.03 5.98 5.99 6.18L5.98 6.19ZM7.62 6.92C7.44 6.84 7.28 6.72 7.17 6.55C7.06 6.39 7 6.19 7 5.99C7 5.72 7.11 5.47 7.29 5.28C7.48 5.09 7.73 4.99 8 4.99C8.2 4.99 8.39 5.05 8.56 5.16C8.73 5.27 8.85 5.43 8.93 5.61C9.01 5.79 9.03 5.99 8.99 6.19C8.95 6.39 8.86 6.56 8.72 6.7C8.58 6.84 8.4 6.94 8.21 6.97C8.02 7.01 7.81 6.99 7.63 6.91L7.62 6.92ZM17.72 18.71C17.52 18.91 17.27 19 17.01 19C16.75 19 16.5 18.9 16.3 18.71L14.03 16.44C13.44 16.79 12.75 17.01 12.01 17.01C9.8 17.01 8.01 15.22 8.01 13.01C8.01 10.8 9.8 9.01 12.01 9.01C14.22 9.01 16.01 10.8 16.01 13.01C16.01 13.75 15.79 14.43 15.44 15.03L17.71 17.3C18.1 17.69 18.1 18.32 17.71 18.71H17.72Z" fill="#141414"/>
</svg>
