<svg width="24" height="24" viewBox="0 0 24 24" fill="none" xmlns="http://www.w3.org/2000/svg">
<path d="M17.69 7.39023C17.25 7.39023 16.84 7.30023 16.41 7.00023C16.23 6.87023 16.05 6.75023 15.86 6.75023C15.44 6.75023 15.03 7.17023 15.03 7.57023C15.03 7.83023 15.18 8.00023 15.29 8.13023C15.78 8.68023 16.68 9.01023 17.69 9.01023C19.2 9.01023 20.25 8.20023 20.25 6.89023C20.25 5.85023 19.59 5.22023 18.38 4.81023L17.5 4.51023C17.12 4.38023 16.9 4.22023 16.9 4.03023C16.9 3.78023 17.22 3.61023 17.7 3.61023C18.02 3.61023 18.44 3.74023 18.77 3.93023C18.9 4.00023 19.01 4.08023 19.22 4.08023C19.58 4.08023 20.01 3.64023 20.01 3.23023C20.01 2.98023 19.89 2.78023 19.66 2.61023C19.21 2.28023 18.62 1.99023 17.7 1.99023C16.16 1.99023 15.15 2.87023 15.15 4.02023C15.15 5.17023 15.86 5.72023 16.99 6.10023L17.88 6.40023C18.28 6.54023 18.51 6.65023 18.51 6.88023C18.51 7.20023 18.18 7.39023 17.7 7.39023H17.69ZM10.19 9.00023C10.59 9.00023 11.04 8.86023 11.04 8.29023V6.74023C11.04 6.67023 11.06 6.65023 11.13 6.65023H12.38C13.57 6.65023 14.52 5.90023 14.52 4.35023C14.52 2.80023 13.58 2.03023 12.38 2.03023H10.14C9.72 2.03023 9.34 2.23023 9.34 2.80023V8.29023C9.34 8.86023 9.8 9.00023 10.18 9.00023H10.19ZM11.04 3.75023C11.04 3.68023 11.06 3.66023 11.13 3.66023H12.13C12.51 3.66023 12.77 3.92023 12.77 4.36023C12.77 4.80023 12.51 5.04023 12.13 5.04023H11.13C11.06 5.04023 11.04 5.02023 11.04 4.95023V3.76023V3.75023ZM4.59 9.00023C4.99 9.00023 5.44 8.86023 5.44 8.29023V6.28023C5.44 6.21023 5.46 6.19023 5.53 6.19023H7.1C7.66 6.19023 7.83 5.80023 7.83 5.39023C7.83 4.98023 7.66 4.57023 7.1 4.57023H5.53C5.46 4.57023 5.44 4.55023 5.44 4.48023V3.72023C5.44 3.65023 5.46 3.63023 5.53 3.63023H7.73C8.29 3.63023 8.46 3.24023 8.46 2.83023C8.46 2.42023 8.29 2.01023 7.73 2.01023H4.55C4.13 2.01023 3.75 2.21023 3.75 2.78023V8.27024C3.75 8.84024 4.21 8.98023 4.59 8.98023V9.00023ZM19 10.0002H5C3.34 10.0002 2 11.3402 2 13.0002V19.0002C2 20.6602 3.34 22.0002 5 22.0002H19C20.66 22.0002 22 20.6602 22 19.0002V13.0002C22 11.3402 20.66 10.0002 19 10.0002ZM7.64 19.1802C7.64 19.8002 7.19 20.0002 6.72 20.0002C6.25 20.0002 5.8 19.8102 5.8 19.1802V15.3202C5.8 15.3202 5.8 15.2202 5.74 15.2202C5.7 15.2202 5.67 15.2402 5.64 15.2802C5.44 15.4802 5.23 15.5602 5.04 15.5602C4.59 15.5602 4.06 15.1102 4.06 14.6202C4.06 14.4202 4.15 14.1902 4.38 13.9602L6.06 12.3002C6.31 12.0502 6.59 12.0002 6.73 12.0002C7.18 12.0002 7.64 12.2402 7.64 12.9702V19.1902V19.1802ZM11.32 18.2002H12.85C13.49 18.2002 13.71 18.6002 13.71 19.0702C13.71 19.5402 13.48 19.9502 12.85 19.9502H9.79C9.05 19.9502 8.78 19.5402 8.78 19.0702C8.78 18.3502 9.11 17.6902 10 16.7802L11.39 15.3302C11.73 14.9802 11.89 14.7202 11.89 14.4402C11.89 14.0402 11.67 13.7702 11.25 13.7702C10.9 13.7702 10.66 13.9302 10.36 14.1902C10.22 14.3102 10.05 14.4302 9.77 14.4302C9.35 14.4302 8.84 14.0202 8.84 13.5302C8.84 13.2102 9.01 13.0202 9.19 12.8302C9.64 12.3602 10.36 12.0002 11.25 12.0002C12.91 12.0002 13.74 13.0002 13.74 14.4302C13.74 15.0202 13.46 15.7002 12.79 16.4202L11.59 17.6902C11.4 17.8902 11.34 17.9702 11.26 18.0902C11.26 18.0902 11.24 18.1202 11.24 18.1502C11.24 18.2102 11.33 18.2102 11.33 18.2102L11.32 18.2002ZM17.27 20.0002C14.93 20.0002 14.61 18.1902 14.61 16.0002C14.61 13.8102 14.93 12.0002 17.27 12.0002C19.61 12.0002 19.93 13.8102 19.93 16.0002C19.93 18.1902 19.61 20.0002 17.27 20.0002ZM17.27 13.7702C16.55 13.7702 16.5 14.4702 16.5 15.9402V16.0502C16.5 17.5202 16.56 18.2202 17.27 18.2202C17.98 18.2202 18.04 17.5202 18.04 16.0502V15.9502C18.04 14.4702 17.98 13.7702 17.27 13.7702Z" fill="#141414"/>
</svg>
