<svg width="24" height="24" viewBox="0 0 24 24" fill="none" xmlns="http://www.w3.org/2000/svg">
<path d="M21.12 6.88C20.56 6.32 19.79 6 19 6H12.41L11.29 4.88C10.73 4.32 9.97 4 9.17 4H5C4.2 4 3.44 4.32 2.88 4.88C2.32 5.44 2 6.21 2 7V17C2 17.8 2.32 18.56 2.88 19.12C3.44 19.68 4.21 20 5 20H19C19.8 20 20.56 19.68 21.12 19.12C21.68 18.56 22 17.79 22 17V9C22 8.2 21.68 7.44 21.12 6.88ZM10.71 11.7L8.71 13.7C8.51 13.9 8.26 13.99 8 13.99C7.74 13.99 7.49 13.89 7.29 13.7L5.29 11.7C4.9 11.31 4.9 10.68 5.29 10.29C5.68 9.9 6.31 9.9 6.7 10.29L6.99 10.58V7.99C6.99 7.44 7.44 6.99 7.99 6.99C8.54 6.99 8.99 7.44 8.99 7.99V10.58L9.28 10.29C9.67 9.9 10.3 9.9 10.69 10.29C11.08 10.68 11.08 11.31 10.69 11.7H10.71Z" fill="#141414"/>
</svg>
