<svg width="24" height="24" viewBox="0 0 24 24" fill="none" xmlns="http://www.w3.org/2000/svg">
<path d="M19.44 8.38C19.47 8.17 19.5 7.96 19.5 7.75C19.5 5.13 17.37 3 14.75 3C13.11 3 11.67 3.83 10.82 5.09C10.56 5.03 10.28 5 10 5C8.13 5 6.58 6.28 6.14 8.01C6.09 8.01 6.05 8 6 8C4.34 8 3 9.34 3 11C3 12.66 4.34 14 6 14H18C19.66 14 21 12.66 21 11C21 9.87 20.36 8.89 19.44 8.38ZM12 17C11.03 17 10.25 17.78 10.25 18.75C10.25 19.72 11.03 20.5 12 20.5C12.97 20.5 13.75 19.72 13.75 18.75C13.75 17.78 12.97 17 12 17ZM17 15.5C16.03 15.5 15.25 16.28 15.25 17.25C15.25 18.22 16.03 19 17 19C17.97 19 18.75 18.22 18.75 17.25C18.75 16.28 17.97 15.5 17 15.5ZM7 15.5C6.03 15.5 5.25 16.28 5.25 17.25C5.25 18.22 6.03 19 7 19C7.97 19 8.75 18.22 8.75 17.25C8.75 16.28 7.97 15.5 7 15.5Z" fill="#141414"/>
</svg>
