<svg width="24" height="24" viewBox="0 0 24 24" fill="none" xmlns="http://www.w3.org/2000/svg">
<path d="M15.5 7H19.5C19.5 6.47 19.29 5.96 18.91 5.59L15.91 2.59C15.54 2.21 15.03 2 14.5 2V6C14.5 6.27 14.61 6.52 14.79 6.71C14.97 6.9 15.23 7 15.5 7Z" fill="#141414"/>
<path d="M13.38 8.12C12.82 7.56 12.5 6.79 12.5 6V2H7C6.34 2 5.7 2.26 5.23 2.73C4.76 3.2 4.5 3.83 4.5 4.5V19.5C4.5 20.16 4.76 20.8 5.23 21.27C5.7 21.74 6.33 22 7 22H17C17.66 22 18.3 21.74 18.77 21.27C19.24 20.8 19.5 20.17 19.5 19.5V9H15.5C14.7 9 13.94 8.68 13.38 8.12ZM15.71 16.7L12.71 19.7C12.62 19.79 12.51 19.87 12.38 19.92C12.26 19.97 12.13 20 12 20C11.87 20 11.74 19.97 11.62 19.92C11.5 19.87 11.39 19.8 11.29 19.7L8.29 16.7C7.9 16.31 7.9 15.68 8.29 15.29C8.68 14.9 9.31 14.9 9.7 15.29L10.99 16.58V10.99C10.99 10.44 11.44 9.99 11.99 9.99C12.54 9.99 12.99 10.44 12.99 10.99V16.58L14.28 15.29C14.67 14.9 15.3 14.9 15.69 15.29C16.08 15.68 16.08 16.31 15.69 16.7H15.71Z" fill="#141414"/>
</svg>
