<svg width="24" height="24" viewBox="0 0 24 24" fill="none" xmlns="http://www.w3.org/2000/svg">
<path d="M20.19 7.77002C19.07 6.65002 17.55 6.02002 15.96 6.02002H7.98C6.39 6.02002 4.87 6.65002 3.75 7.77002C2.63 8.89002 2 10.41 2 12C2 13.59 2.63 15.11 3.75 16.23C4.87 17.35 6.39 17.98 7.98 17.98C9.15 17.98 10.28 17.63 11.25 16.98H12.69C13.66 17.63 14.8 17.97 15.96 17.98C17.55 17.98 19.07 17.35 20.19 16.23C21.31 15.11 21.94 13.59 21.94 12C21.94 10.41 21.31 8.89002 20.19 7.77002ZM6.61 12.25C6.58 12.33 6.53 12.41 6.46 12.47C6.4 12.53 6.32 12.58 6.24 12.62C6.16 12.65 6.07 12.67 5.98 12.67C5.89 12.67 5.8 12.65 5.72 12.62C5.64 12.59 5.56 12.54 5.5 12.47L4.15 11.12C4.09 11.06 4.04 10.98 4 10.9C3.97 10.82 3.95 10.73 3.95 10.64C3.95 10.55 3.97 10.46 4 10.38C4.03 10.3 4.08 10.22 4.15 10.16L5.5 8.81002C5.63 8.68002 5.8 8.61002 5.98 8.61002C6.16 8.61002 6.33 8.68002 6.46 8.81002C6.59 8.94002 6.66 9.11002 6.66 9.29002C6.66 9.47002 6.59 9.64002 6.46 9.77002L5.58 10.64L6.46 11.51C6.52 11.57 6.57 11.65 6.61 11.73C6.64 11.81 6.66 11.9 6.66 11.99C6.66 12.08 6.64 12.17 6.61 12.25ZM10.91 13.62C10.88 13.7 10.83 13.78 10.76 13.84L9.41 15.19C9.35 15.25 9.27 15.3 9.19 15.34C9.11 15.38 9.02 15.39 8.93 15.39C8.84 15.39 8.75 15.37 8.67 15.34C8.59 15.31 8.51 15.26 8.45 15.19C8.39 15.13 8.34 15.05 8.3 14.97C8.27 14.89 8.25 14.8 8.25 14.71C8.25 14.62 8.27 14.53 8.3 14.45C8.33 14.37 8.38 14.29 8.45 14.23L9.33 13.36L8.45 12.49C8.39 12.43 8.34 12.35 8.3 12.27C8.27 12.19 8.25 12.1 8.25 12.01C8.25 11.92 8.27 11.83 8.3 11.75C8.33 11.67 8.38 11.59 8.45 11.53C8.51 11.47 8.59 11.42 8.67 11.38C8.75 11.35 8.84 11.33 8.93 11.33C9.02 11.33 9.11 11.35 9.19 11.38C9.27 11.41 9.35 11.46 9.41 11.53L10.76 12.88C10.82 12.94 10.87 13.02 10.91 13.1C10.94 13.18 10.96 13.27 10.96 13.36C10.96 13.45 10.94 13.54 10.91 13.62ZM16.43 8.41002C17.12 8.41002 17.68 8.97002 17.68 9.66002C17.68 10.35 17.12 10.91 16.43 10.91C15.74 10.91 15.18 10.35 15.18 9.66002C15.18 8.97002 15.74 8.41002 16.43 8.41002ZM14.1 13.25C13.41 13.25 12.85 12.69 12.85 12C12.85 11.31 13.41 10.75 14.1 10.75C14.79 10.75 15.35 11.31 15.35 12C15.35 12.69 14.79 13.25 14.1 13.25ZM16.43 15.59C15.74 15.59 15.18 15.03 15.18 14.34C15.18 13.65 15.74 13.09 16.43 13.09C17.12 13.09 17.68 13.65 17.68 14.34C17.68 15.03 17.12 15.59 16.43 15.59ZM18.77 13.25C18.08 13.25 17.52 12.69 17.52 12C17.52 11.31 18.08 10.75 18.77 10.75C19.46 10.75 20.02 11.31 20.02 12C20.02 12.69 19.46 13.25 18.77 13.25Z" fill="#141414"/>
</svg>
