<svg width="24" height="24" viewBox="0 0 24 24" fill="none" xmlns="http://www.w3.org/2000/svg">
<path d="M12.21 5.62C12.21 5.62 12.16 5.55 12.12 5.53C12.08 5.51 12.04 5.5 12 5.5C11.96 5.5 11.92 5.51 11.88 5.53C11.84 5.55 11.81 5.58 11.79 5.62L10.61 7.6C10.4 7.95 10.29 8.34 10.29 8.75C10.29 9.21 10.47 9.66 10.79 9.99C11.11 10.32 11.54 10.5 11.99 10.5C12.44 10.5 12.87 10.32 13.19 9.99C13.51 9.66 13.69 9.22 13.69 8.75C13.69 8.34 13.58 7.95 13.37 7.6L12.19 5.62H12.21ZM16.48 2H7.53C6.69 2 6 2.68 6 3.53V10C6 12.62 7.69 14.85 10.03 15.66C10.19 14.72 11.01 14 12 14C12.99 14 13.8 14.72 13.97 15.66C16.32 14.85 18 12.62 18 10V3.53C18 2.69 17.32 2 16.47 2H16.48ZM16.01 10.9C16.01 11.51 15.52 12 14.91 12H9.12C8.51 12 8.02 11.51 8.02 10.9V5.11C8.02 4.5 8.51 4.01 9.12 4.01H14.91C15.52 4.01 16.01 4.5 16.01 5.11V10.9ZM12.01 15C11.46 15 11.01 15.45 11.01 16V21C11.01 21.55 11.46 22 12.01 22C12.56 22 13.01 21.55 13.01 21V16C13.01 15.45 12.56 15 12.01 15Z" fill="#141414"/>
</svg>
