<svg width="24" height="24" viewBox="0 0 24 24" fill="none" xmlns="http://www.w3.org/2000/svg">
<path d="M21 14C20.25 14 19.92 13.7 19.41 13.25C18.82 12.72 18 12 16.5 12C15 12 14.18 12.72 13.59 13.25C13.08 13.7 12.75 14 12 14C11.25 14 10.92 13.7 10.41 13.25C9.82 12.72 9 12 7.5 12C6 12 5.18 12.72 4.59 13.25C4.08 13.7 3.75 14 3 14C2.45 14 2 14.45 2 15C2 15.55 2.45 16 3 16C4.5 16 5.32 15.28 5.91 14.75C6.42 14.3 6.75 14 7.5 14C8.25 14 8.58 14.3 9.09 14.75C9.68 15.28 10.5 16 12 16C13.5 16 14.32 15.28 14.91 14.75C15.42 14.3 15.75 14 16.5 14C17.25 14 17.58 14.3 18.09 14.75C18.68 15.28 19.5 16 21 16C21.55 16 22 15.55 22 15C22 14.45 21.55 14 21 14ZM21 18C20.25 18 19.92 17.7 19.41 17.25C18.82 16.72 18 16 16.5 16C15 16 14.18 16.72 13.59 17.25C13.08 17.7 12.75 18 12 18C11.25 18 10.92 17.7 10.41 17.25C9.82 16.72 9 16 7.5 16C6 16 5.18 16.72 4.59 17.25C4.08 17.7 3.75 18 3 18C2.45 18 2 18.45 2 19C2 19.55 2.45 20 3 20C4.5 20 5.32 19.28 5.91 18.75C6.42 18.3 6.75 18 7.5 18C8.25 18 8.58 18.3 9.09 18.75C9.68 19.28 10.5 20 12 20C13.5 20 14.32 19.28 14.91 18.75C15.42 18.3 15.75 18 16.5 18C17.25 18 17.58 18.3 18.09 18.75C18.68 19.28 19.5 20 21 20C21.55 20 22 19.55 22 19C22 18.45 21.55 18 21 18ZM3 8C4.5 8 5.32 7.28 5.91 6.75C6.42 6.3 6.75 6 7.5 6C8.25 6 8.58 6.3 9.09 6.75C9.68 7.28 10.5 8 12 8C13.5 8 14.32 7.28 14.91 6.75C15.42 6.3 15.75 6 16.5 6C17.25 6 17.58 6.3 18.09 6.75C18.68 7.28 19.5 8 21 8C21.55 8 22 7.55 22 7C22 6.45 21.55 6 21 6C20.25 6 19.92 5.7 19.41 5.25C18.82 4.72 18 4 16.5 4C15 4 14.18 4.72 13.59 5.25C13.08 5.7 12.75 6 12 6C11.25 6 10.92 5.7 10.41 5.25C9.82 4.72 9 4 7.5 4C6 4 5.18 4.72 4.59 5.25C4.08 5.7 3.75 6 3 6C2.45 6 2 6.45 2 7C2 7.55 2.45 8 3 8ZM21 10C20.25 10 19.92 9.7 19.41 9.25C18.82 8.72 18 8 16.5 8C15 8 14.18 8.72 13.59 9.25C13.08 9.7 12.75 10 12 10C11.25 10 10.92 9.7 10.41 9.25C9.82 8.72 9 8 7.5 8C6 8 5.18 8.72 4.59 9.25C4.08 9.7 3.75 10 3 10C2.45 10 2 10.45 2 11C2 11.55 2.45 12 3 12C4.5 12 5.32 11.28 5.91 10.75C6.42 10.3 6.75 10 7.5 10C8.25 10 8.58 10.3 9.09 10.75C9.68 11.28 10.5 12 12 12C13.5 12 14.32 11.28 14.91 10.75C15.42 10.3 15.75 10 16.5 10C17.25 10 17.58 10.3 18.09 10.75C18.68 11.28 19.5 12 21 12C21.55 12 22 11.55 22 11C22 10.45 21.55 10 21 10Z" fill="#141414"/>
</svg>
