<svg width="24" height="24" viewBox="0 0 24 24" fill="none" xmlns="http://www.w3.org/2000/svg">
<path d="M21 18.9999C20.25 18.9999 19.92 18.6999 19.41 18.2499C18.82 17.7199 18 16.9999 16.5 16.9999C15 16.9999 14.18 17.7199 13.59 18.2499C13.08 18.6999 12.75 18.9999 12 18.9999C11.25 18.9999 10.92 18.6999 10.41 18.2499C9.82 17.7199 9 16.9999 7.5 16.9999C6 16.9999 5.18 17.7199 4.59 18.2499C4.08 18.6999 3.75 18.9999 3 18.9999C2.45 18.9999 2 19.4499 2 19.9999C2 20.5499 2.45 20.9999 3 20.9999C4.5 20.9999 5.32 20.2799 5.91 19.7499C6.42 19.2999 6.75 18.9999 7.5 18.9999C8.25 18.9999 8.58 19.2999 9.09 19.7499C9.68 20.2799 10.5 20.9999 12 20.9999C13.5 20.9999 14.32 20.2799 14.91 19.7499C15.42 19.2999 15.75 18.9999 16.5 18.9999C17.25 18.9999 17.58 19.2999 18.09 19.7499C18.68 20.2799 19.5 20.9999 21 20.9999C21.55 20.9999 22 20.5499 22 19.9999C22 19.4499 21.55 18.9999 21 18.9999ZM16.94 10.9999C16.94 11.5899 17.41 12.0599 18 12.0599H20C20.59 12.0599 21.06 11.5899 21.06 10.9999C21.06 10.4099 20.59 9.93994 20 9.93994H18C17.41 9.93994 16.94 10.4099 16.94 10.9999ZM12 6.05994C12.59 6.05994 13.06 5.58994 13.06 4.99994V2.99994C13.06 2.40994 12.59 1.93994 12 1.93994C11.41 1.93994 10.94 2.40994 10.94 2.99994V4.99994C10.94 5.58994 11.41 6.05994 12 6.05994ZM16.24 7.81994C16.51 7.81994 16.78 7.71994 16.99 7.50994L18.41 6.08994C18.82 5.67994 18.82 4.99994 18.41 4.58994C18 4.17994 17.32 4.17994 16.91 4.58994L15.49 6.00994C15.08 6.41994 15.08 7.09994 15.49 7.50994C15.7 7.71994 15.97 7.81994 16.24 7.81994ZM3 16.9999C4.5 16.9999 5.32 16.2799 5.91 15.7499C6.42 15.2999 6.75 14.9999 7.5 14.9999C8.25 14.9999 8.58 15.2999 9.09 15.7499C9.68 16.2799 10.5 16.9999 12 16.9999C13.5 16.9999 14.32 16.2799 14.91 15.7499C15.42 15.2999 15.75 14.9999 16.5 14.9999C17.25 14.9999 17.58 15.2999 18.09 15.7499C18.68 16.2799 19.5 16.9999 21 16.9999C21.55 16.9999 22 16.5499 22 15.9999C22 15.4499 21.55 14.9999 21 14.9999C20.25 14.9999 19.92 14.6999 19.41 14.2499C18.82 13.7199 18 12.9999 16.5 12.9999C16.06 12.9999 15.69 13.0699 15.36 13.1699C15.76 12.5499 16 11.7999 16 10.9999C16 8.78994 14.21 6.99994 12 6.99994C9.79 6.99994 8 8.78994 8 10.9999C8 11.7999 8.24 12.5399 8.64 13.1699C8.31 13.0699 7.93 12.9999 7.5 12.9999C6 12.9999 5.18 13.7199 4.59 14.2499C4.08 14.6999 3.75 14.9999 3 14.9999C2.45 14.9999 2 15.4499 2 15.9999C2 16.5499 2.45 16.9999 3 16.9999ZM4 12.0599H6C6.59 12.0599 7.06 11.5899 7.06 10.9999C7.06 10.4099 6.59 9.93994 6 9.93994H4C3.41 9.93994 2.94 10.4099 2.94 10.9999C2.94 11.5899 3.41 12.0599 4 12.0599ZM7.01 7.50994C7.22 7.71994 7.49 7.81994 7.76 7.81994C8.03 7.81994 8.3 7.71994 8.51 7.50994C8.92 7.09994 8.92 6.41994 8.51 6.00994L7.09 4.58994C6.68 4.17994 6 4.17994 5.59 4.58994C5.18 4.99994 5.18 5.67994 5.59 6.08994L7.01 7.50994Z" fill="#141414"/>
</svg>
