<svg width="24" height="24" viewBox="0 0 24 24" fill="none" xmlns="http://www.w3.org/2000/svg">
<path d="M21 6C20.25 6 19.92 5.7 19.41 5.25C18.82 4.72 18 4 16.5 4C15 4 14.18 4.72 13.59 5.25C13.08 5.7 12.75 6 12 6C11.25 6 10.92 5.7 10.41 5.25C9.82 4.72 9 4 7.5 4C6 4 5.18 4.72 4.59 5.25C4.08 5.7 3.75 6 3 6C2.45 6 2 6.45 2 7C2 7.55 2.45 8 3 8C4.5 8 5.32 7.28 5.91 6.75C6.42 6.3 6.75 6 7.5 6C8.25 6 8.58 6.3 9.09 6.75C9.68 7.28 10.5 8 12 8C13.5 8 14.32 7.28 14.91 6.75C15.42 6.3 15.75 6 16.5 6C17.25 6 17.58 6.3 18.09 6.75C18.68 7.28 19.5 8 21 8C21.55 8 22 7.55 22 7C22 6.45 21.55 6 21 6ZM15.32 9.05C14.79 8.88 14.23 9.16 14.06 9.68L11.06 18.68C10.89 19.2 11.17 19.77 11.69 19.94C11.8 19.98 11.9 19.99 12.01 19.99C12.43 19.99 12.82 19.73 12.96 19.31L15.96 10.31C16.13 9.79 15.85 9.22 15.33 9.05H15.32ZM19.32 9.05C18.79 8.88 18.23 9.16 18.06 9.68L15.06 18.68C14.89 19.2 15.17 19.77 15.69 19.94C15.8 19.98 15.9 19.99 16.01 19.99C16.43 19.99 16.82 19.73 16.96 19.31L19.96 10.31C20.13 9.79 19.85 9.22 19.33 9.05H19.32ZM11.32 9.05C10.79 8.88 10.23 9.16 10.06 9.68L7.06 18.68C6.89 19.2 7.17 19.77 7.69 19.94C7.8 19.98 7.9 19.99 8.01 19.99C8.43 19.99 8.82 19.73 8.96 19.31L11.96 10.31C12.13 9.79 11.85 9.22 11.33 9.05H11.32ZM7.32 9.05C6.79 8.88 6.23 9.16 6.06 9.68L3.06 18.68C2.89 19.2 3.17 19.77 3.69 19.94C3.8 19.98 3.9 19.99 4.01 19.99C4.43 19.99 4.82 19.73 4.96 19.31L7.96 10.31C8.13 9.79 7.85 9.22 7.33 9.05H7.32Z" fill="#141414"/>
</svg>
