<svg width="24" height="24" viewBox="0 0 24 24" fill="none" xmlns="http://www.w3.org/2000/svg">
<path d="M7.25 15.5C6.56 15.5 6 16.06 6 16.75C6 17.44 6.56 18 7.25 18C7.94 18 8.5 17.44 8.5 16.75C8.5 16.06 7.94 15.5 7.25 15.5ZM5.75 18.5C5.06 18.5 4.5 19.06 4.5 19.75C4.5 20.44 5.06 21 5.75 21C6.44 21 7 20.44 7 19.75C7 19.06 6.44 18.5 5.75 18.5ZM12.25 15.5C11.56 15.5 11 16.06 11 16.75C11 17.44 11.56 18 12.25 18C12.94 18 13.5 17.44 13.5 16.75C13.5 16.06 12.94 15.5 12.25 15.5ZM10.75 18.5C10.06 18.5 9.5 19.06 9.5 19.75C9.5 20.44 10.06 21 10.75 21C11.44 21 12 20.44 12 19.75C12 19.06 11.44 18.5 10.75 18.5ZM17.25 15.5C16.56 15.5 16 16.06 16 16.75C16 17.44 16.56 18 17.25 18C17.94 18 18.5 17.44 18.5 16.75C18.5 16.06 17.94 15.5 17.25 15.5ZM15.75 18.5C15.06 18.5 14.5 19.06 14.5 19.75C14.5 20.44 15.06 21 15.75 21C16.44 21 17 20.44 17 19.75C17 19.06 16.44 18.5 15.75 18.5ZM19.44 8.38C19.47 8.17 19.5 7.96 19.5 7.75C19.5 5.13 17.37 3 14.75 3C13.11 3 11.67 3.83 10.82 5.09C10.56 5.03 10.28 5 10 5C8.13 5 6.58 6.28 6.14 8.01C6.09 8.01 6.05 8 6 8C4.34 8 3 9.34 3 11C3 12.66 4.34 14 6 14H18C19.66 14 21 12.66 21 11C21 9.87 20.36 8.89 19.44 8.38Z" fill="#141414"/>
</svg>
