<svg width="24" height="24" viewBox="0 0 24 24" fill="none" xmlns="http://www.w3.org/2000/svg">
<path d="M19.43 10.09C18.98 9.88 18.45 10.03 18.17 10.44L16.46 13C16.32 13.21 16 13.11 16 12.86V5C16 4.45 15.55 4 15 4C14.45 4 14 4.45 14 5V10.5C14 10.78 13.78 11 13.5 11C13.22 11 13 10.78 13 10.5V3C13 2.45 12.55 2 12 2C11.45 2 11 2.45 11 3V10.5C11 10.78 10.78 11 10.5 11C10.22 11 10 10.78 10 10.5V4C10 3.45 9.55 3 9 3C8.45 3 8 3.45 8 4V11.5C8 11.78 7.78 12 7.5 12C7.22 12 7 11.78 7 11.5V7C7 6.45 6.55 6 6 6C5.45 6 5 6.45 5 7V14.99C5 18.7 7.88 21.92 11.59 22C14.65 22.06 17.31 20.12 18.19 17.2L19.96 11.29C20.1 10.82 19.88 10.31 19.43 10.1V10.09Z" fill="#141414"/>
</svg>
