<svg width="24" height="24" viewBox="0 0 24 24" fill="none" xmlns="http://www.w3.org/2000/svg">
<path d="M16.1702 11C16.0602 10.69 16.0002 10.35 16.0002 10C16.0002 8.35 17.3502 7 19.0002 7C19.1602 7 19.3102 7.03 19.4702 7.05C19.4802 6.95 19.5002 6.85 19.5002 6.75C19.5002 4.13 17.3702 2 14.7502 2C13.1102 2 11.6702 2.83 10.8202 4.09C10.5602 4.03 10.2802 4 10.0002 4C8.13018 4 6.58018 5.28 6.14018 7.01C6.09018 7.01 6.05018 7 6.00018 7C4.34018 7 3.00018 8.34 3.00018 10C3.00018 11.66 4.34018 13 6.00018 13H10.1802C10.5902 11.84 11.6902 11 13.0002 11H16.1702ZM19.0002 9C18.4502 9 18.0002 9.45 18.0002 10C18.0002 10.55 18.4502 11 19.0002 11C19.5502 11 20.0002 11.45 20.0002 12C20.0002 12.55 19.5502 13 19.0002 13H13.0002C12.4502 13 12.0002 13.45 12.0002 14C12.0002 14.55 12.4502 15 13.0002 15H19.0002C20.6502 15 22.0002 13.65 22.0002 12C22.0002 10.35 20.6502 9 19.0002 9ZM20.0002 16H17.0002C16.4502 16 16.0002 16.45 16.0002 17C16.0002 17.55 16.4502 18 17.0002 18H20.0002C20.5502 18 21.0002 17.55 21.0002 17C21.0002 16.45 20.5502 16 20.0002 16ZM9.54018 16.05C9.23018 15.59 8.61018 15.47 8.15018 15.77L7.35018 16.3V15.34C7.35018 14.79 6.90018 14.34 6.35018 14.34C5.80018 14.34 5.35018 14.79 5.35018 15.34V16.3L4.55018 15.77C4.09018 15.46 3.47018 15.59 3.16018 16.05C2.85018 16.51 2.98018 17.13 3.44018 17.44L4.55018 18.18L3.44018 18.92C2.98018 19.23 2.86018 19.85 3.16018 20.31C3.35018 20.6 3.67018 20.76 3.99018 20.76C4.18018 20.76 4.37018 20.71 4.54018 20.59L5.34018 20.06V21.02C5.34018 21.57 5.79018 22.02 6.34018 22.02C6.89018 22.02 7.34018 21.57 7.34018 21.02V20.06L8.14018 20.59C8.31018 20.7 8.50017 20.76 8.69018 20.76C9.01018 20.76 9.33018 20.6 9.52018 20.31C9.83018 19.85 9.70018 19.23 9.24018 18.92L8.13018 18.18L9.24018 17.44C9.70018 17.13 9.82018 16.51 9.52018 16.05H9.54018ZM14.7102 16.3C14.3202 15.91 13.6902 15.91 13.3002 16.3L13.0102 16.59L12.7202 16.3C12.3302 15.91 11.7002 15.91 11.3102 16.3C10.9202 16.69 10.9202 17.32 11.3102 17.71L11.6002 18L11.3102 18.29C10.9202 18.68 10.9202 19.31 11.3102 19.7C11.5102 19.9 11.7602 19.99 12.0202 19.99C12.2802 19.99 12.5302 19.89 12.7302 19.7L13.0202 19.41L13.3102 19.7C13.5102 19.9 13.7602 19.99 14.0202 19.99C14.2802 19.99 14.5302 19.89 14.7302 19.7C15.1202 19.31 15.1202 18.68 14.7302 18.29L14.4402 18L14.7302 17.71C15.1202 17.32 15.1202 16.69 14.7302 16.3H14.7102Z" fill="#141414"/>
</svg>
