<svg width="24" height="24" viewBox="0 0 24 24" fill="none" xmlns="http://www.w3.org/2000/svg">
<path d="M9.69008 13.8799C9.38008 13.4199 8.76008 13.2999 8.30008 13.5999L7.50008 14.1299V13.1699C7.50008 12.6199 7.05008 12.1699 6.50008 12.1699C5.95008 12.1699 5.50008 12.6199 5.50008 13.1699V14.1299L4.70008 13.5999C4.24008 13.2899 3.62008 13.4199 3.31008 13.8799C3.00008 14.3399 3.13008 14.9599 3.59008 15.2699L4.70008 16.0099L3.59008 16.7499C3.13008 17.0599 3.01008 17.6799 3.31008 18.1399C3.50008 18.4299 3.82008 18.5899 4.14008 18.5899C4.33008 18.5899 4.52008 18.5399 4.69008 18.4199L5.49008 17.8899V18.8499C5.49008 19.3999 5.94008 19.8499 6.49008 19.8499C7.04008 19.8499 7.49008 19.3999 7.49008 18.8499V17.8899L8.29008 18.4199C8.46008 18.5299 8.65008 18.5899 8.84008 18.5899C9.16008 18.5899 9.48008 18.4299 9.67008 18.1399C9.98008 17.6799 9.85008 17.0599 9.39008 16.7499L8.28008 16.0099L9.39008 15.2699C9.85008 14.9599 9.97008 14.3399 9.67008 13.8799H9.69008ZM19.3101 15.9999L20.4201 15.2599C20.8801 14.9499 21.0001 14.3299 20.7001 13.8699C20.3901 13.4099 19.7701 13.2899 19.3101 13.5899L18.5101 14.1199V13.1599C18.5101 12.6099 18.0601 12.1599 17.5101 12.1599C16.9601 12.1599 16.5101 12.6099 16.5101 13.1599V14.1199L15.7101 13.5899C15.2501 13.2799 14.6301 13.4099 14.3201 13.8699C14.0101 14.3299 14.1401 14.9499 14.6001 15.2599L15.7101 15.9999L14.6001 16.7399C14.1401 17.0499 14.0201 17.6699 14.3201 18.1299C14.5101 18.4199 14.8301 18.5799 15.1501 18.5799C15.3401 18.5799 15.5301 18.5299 15.7001 18.4099L16.5001 17.8799V18.8399C16.5001 19.3899 16.9501 19.8399 17.5001 19.8399C18.0501 19.8399 18.5001 19.3899 18.5001 18.8399V17.8799L19.3001 18.4099C19.4701 18.5199 19.6601 18.5799 19.8501 18.5799C20.1701 18.5799 20.4901 18.4199 20.6801 18.1299C20.9901 17.6699 20.8601 17.0499 20.4001 16.7399L19.2901 15.9999H19.3101ZM15.1901 9.1199C15.5001 8.6599 15.3701 8.0399 14.9101 7.7299L13.8001 6.9899L14.9101 6.2499C15.3701 5.9399 15.4901 5.3199 15.1901 4.8599C14.8801 4.3999 14.2601 4.2799 13.8001 4.5799L13.0001 5.1099V4.1499C13.0001 3.5999 12.5501 3.1499 12.0001 3.1499C11.4501 3.1499 11.0001 3.5999 11.0001 4.1499V5.1099L10.2001 4.5799C9.74008 4.2699 9.12008 4.3999 8.81008 4.8599C8.50008 5.3199 8.63008 5.9399 9.09008 6.2499L10.2001 6.9899L9.09008 7.7299C8.63008 8.0399 8.51008 8.6599 8.81008 9.1199C9.00008 9.4099 9.32008 9.5699 9.64008 9.5699C9.83008 9.5699 10.0201 9.5199 10.1901 9.3999L10.9901 8.8699V9.8299C10.9901 10.3799 11.4401 10.8299 11.9901 10.8299C12.5401 10.8299 12.9901 10.3799 12.9901 9.8299V8.8699L13.7901 9.3999C13.9601 9.5099 14.1501 9.5699 14.3401 9.5699C14.6601 9.5699 14.9801 9.4099 15.1701 9.1199H15.1901Z" fill="#141414"/>
</svg>
