<svg width="24" height="24" viewBox="0 0 24 24" fill="none" xmlns="http://www.w3.org/2000/svg">
<path d="M19.4998 13.59H16.2898L16.9298 10.59H19.4998C20.3298 10.59 20.9998 9.92 20.9998 9.09C20.9998 8.26 20.3298 7.59 19.4998 7.59H17.5798L18.1198 5.09C18.2898 4.28 17.7798 3.48 16.9698 3.31C16.1598 3.14 15.3598 3.65 15.1898 4.46L14.5198 7.59H11.3898L11.9298 5.09C12.0998 4.28 11.5898 3.48 10.7798 3.31C9.96977 3.14 9.16977 3.65 8.99977 4.46L8.32977 7.59H4.51977C3.68977 7.59 3.01977 8.26 3.01977 9.09C3.01977 9.92 3.68977 10.59 4.51977 10.59H7.67977L7.03977 13.59H4.50977C3.67977 13.59 3.00977 14.26 3.00977 15.09C3.00977 15.92 3.67977 16.59 4.50977 16.59H6.38977L5.88977 18.92C5.71977 19.73 6.22977 20.53 7.03977 20.7C7.14977 20.72 7.24977 20.73 7.35977 20.73C8.04977 20.73 8.66976 20.25 8.81977 19.54L9.44977 16.59H12.5798L12.0798 18.92C11.9098 19.73 12.4198 20.53 13.2298 20.7C13.3398 20.72 13.4398 20.73 13.5498 20.73C14.2398 20.73 14.8598 20.25 15.0098 19.54L15.6398 16.59H19.4898C20.3198 16.59 20.9898 15.92 20.9898 15.09C20.9898 14.26 20.3198 13.59 19.4898 13.59H19.4998ZM10.0998 13.59L10.7398 10.59H13.8698L13.2298 13.59H10.0998Z" fill="#141414"/>
</svg>
