<svg width="24" height="24" viewBox="0 0 24 24" fill="none" xmlns="http://www.w3.org/2000/svg">
<path d="M15.0001 4C14.4501 4 14.0001 4.45 14.0001 5V5.76L15.5601 4.2C15.4001 4.09 15.2101 4 15.0001 4ZM10.0001 4C10.0001 3.45 9.55006 3 9.00006 3C8.45006 3 8.00006 3.45 8.00006 4V11.76L10.0001 9.76V4ZM13.0001 3C13.0001 2.45 12.5501 2 12.0001 2C11.4501 2 11.0001 2.45 11.0001 3V8.76L13.0001 6.76V3ZM7.00006 12.5V7C7.00006 6.45 6.55006 6 6.00006 6C5.45006 6 5.00006 6.45 5.00006 7V14.76L7.05006 12.71C7.02006 12.65 7.00006 12.58 7.00006 12.5ZM20.7101 4.71C21.1001 4.32 21.1001 3.69 20.7101 3.3C20.3201 2.91 19.6901 2.91 19.3001 3.3L3.29006 19.29C2.90006 19.68 2.90006 20.31 3.29006 20.7C3.49006 20.9 3.74006 20.99 4.00006 20.99C4.26006 20.99 4.51006 20.89 4.71006 20.7L6.31006 19.1C7.50006 20.8 9.40006 21.95 11.5901 21.99C14.6501 22.05 17.3101 20.11 18.1901 17.19L19.9601 11.28C20.1001 10.81 19.8801 10.3 19.4301 10.09C18.9801 9.87 18.4501 10.02 18.1701 10.43L16.4601 12.99C16.3201 13.2 16.0001 13.1 16.0001 12.85V9.41L20.7101 4.7V4.71Z" fill="#141414"/>
</svg>
