<svg width="24" height="24" viewBox="0 0 24 24" fill="none" xmlns="http://www.w3.org/2000/svg">
<path d="M7.6 15.2C7.16 14.87 6.53 14.96 6.2 15.4L3.2 19.4C2.87 19.84 2.96 20.47 3.4 20.8C3.58 20.93 3.79 21 4 21C4.3 21 4.6 20.86 4.8 20.6L7.8 16.6C8.13 16.16 8.04 15.53 7.6 15.2ZM10.2 15.4L7.2 19.4C6.87 19.84 6.96 20.47 7.4 20.8C7.58 20.93 7.79 21 8 21C8.3 21 8.6 20.86 8.8 20.6L11.8 16.6C12.13 16.16 12.04 15.53 11.6 15.2C11.16 14.87 10.53 14.96 10.2 15.4ZM6 13H10C10 10.24 12.24 8 15 8C16.65 8 18 9.35 18 11C18 11.35 17.94 11.69 17.83 12H20.22C20.7 11.47 21 10.77 21 10C21 8.87 20.36 7.89 19.44 7.38C19.47 7.17 19.5 6.96 19.5 6.75C19.5 4.13 17.37 2 14.75 2C13.11 2 11.67 2.83 10.82 4.09C10.56 4.03 10.28 4 10 4C8.13 4 6.58 5.28 6.14 7.01C6.09 7.01 6.05 7 6 7C4.34 7 3 8.34 3 10C3 11.66 4.34 13 6 13ZM21 14H15C14.45 14 14 13.55 14 13C14 12.45 14.45 12 15 12C15.55 12 16 11.55 16 11C16 10.45 15.55 10 15 10C13.35 10 12 11.35 12 13C12 14.65 13.35 16 15 16H21C21.55 16 22 15.55 22 15C22 14.45 21.55 14 21 14ZM19 17H14C13.45 17 13 17.45 13 18C13 18.55 13.45 19 14 19H19C19.55 19 20 18.55 20 18C20 17.45 19.55 17 19 17Z" fill="#141414"/>
</svg>
