<svg width="24" height="24" viewBox="0 0 24 24" fill="none" xmlns="http://www.w3.org/2000/svg">
<path d="M20.94 10.6499C20.89 10.5199 20.82 10.4099 20.73 10.3099C20.64 10.2099 20.52 10.1299 20.4 10.0799C20.28 10.0299 20.14 9.99991 20.01 9.99991H4C3.73 9.99991 3.48 10.1099 3.29 10.2899C3.1 10.4799 3 10.7299 3 10.9999C3 12.6699 3.47 14.3099 4.35 15.7399C5.23 17.1599 6.5 18.3099 8 19.0499V19.9999C8 20.2699 8.11 20.5199 8.29 20.7099C8.48 20.8999 8.73 20.9999 9 20.9999H15C15.27 20.9999 15.52 20.8899 15.71 20.7099C15.9 20.5299 16 20.2699 16 19.9999V19.0499C17.49 18.3099 18.75 17.1699 19.63 15.7599C20.51 14.3499 20.99 12.7199 21 11.0499C21 10.9099 20.99 10.7799 20.94 10.6499ZM20.85 7.20991C21.12 6.73991 20.96 6.12991 20.49 5.85991L18.37 4.62991C17.9 4.35991 17.29 4.51991 17.02 4.98991C17.02 6.28991 16.62 7.54991 15.88 8.61991C15.79 8.74991 15.71 8.86991 15.62 8.99991H18.7C19.23 8.20991 19.98 7.58991 20.86 7.20991H20.85ZM7.73 8.99991H10.51C10.51 8.16991 9.84 7.49991 9.01 7.49991C8.62 7.49991 8.27 7.64991 8 7.89991C7.95 6.83991 7.08 5.99991 6.01 5.99991C4.94 5.99991 4.01 6.89991 4.01 7.99991C4.01 8.36991 4.12 8.70991 4.29 8.99991H7.73Z" fill="#141414"/>
</svg>
