<svg width="24" height="24" viewBox="0 0 24 24" fill="none" xmlns="http://www.w3.org/2000/svg">
<path d="M17.87 7.35988C16.27 6.82988 14.52 6.92988 12.99 7.65988V7.00988C12.96 6.18988 12.7 5.39988 12.25 4.71988C11.8 4.03988 11.17 3.48988 10.44 3.12988C10.32 3.06988 10.19 3.02988 10.05 3.01988C9.92 2.99988 9.78 2.99988 9.65 3.01988C9.52 3.04988 9.39 3.11988 9.29 3.20988C9.17 3.28988 9.06 3.40988 9 3.53988C8.94 3.65988 8.9 3.78988 8.9 3.92988C8.89 4.06988 8.91 4.19988 8.96 4.32988C9.01 4.45988 9.08 4.57988 9.17 4.67988C9.27 4.77988 9.38 4.85988 9.51 4.90988C9.91 5.09988 10.26 5.39988 10.51 5.76988C10.78 6.13988 10.95 6.56988 11 7.01988V7.66988C9.47 6.93988 7.72 6.83988 6.12 7.36988C4 8.21988 3 10.1799 3 13.3499C3 16.3499 4.08 18.7699 6 20.0499C6.95 20.6799 8.06 21.0099 9.2 20.9999C9.94 20.9899 10.67 20.8699 11.38 20.6599C11.78 20.5399 12.22 20.5399 12.62 20.6599C12.71 20.6899 12.81 20.6999 12.91 20.7299C11.06 18.8099 10 17.2199 10 15.3899C10 14.8899 10.08 14.3999 10.26 13.9299C10.44 13.4599 10.71 13.0299 11.05 12.6699C11.4 12.2999 11.8 12.0099 12.26 11.8099C12.72 11.6099 13.2 11.5099 13.69 11.5099H13.71C14.35 11.5299 14.97 11.7199 15.5 12.0299C16.04 11.7099 16.64 11.5299 17.27 11.5099H17.3C17.3 11.5099 17.31 11.5099 17.32 11.5099C17.81 11.5099 18.29 11.6099 18.75 11.8099C19.21 12.0099 19.61 12.2999 19.96 12.6699C20.3 13.0399 20.57 13.4599 20.75 13.9399C20.83 14.1499 20.89 14.3799 20.93 14.5999C20.98 14.1799 21.01 13.7599 21.01 13.3099C21.01 10.3199 20.01 8.22988 17.88 7.37988L17.87 7.35988ZM18.39 14.1499C18.19 13.9399 17.96 13.7799 17.71 13.6599C17.45 13.5499 17.18 13.4899 16.9 13.4899C16.38 13.5099 15.88 13.7199 15.5 14.0899C15.11 13.7199 14.62 13.5099 14.1 13.4899C13.82 13.4899 13.55 13.5499 13.29 13.6599C13.03 13.7699 12.8 13.9399 12.61 14.1499C12.41 14.3599 12.26 14.6099 12.16 14.8799C12.06 15.1499 12 15.4399 12.01 15.7399C12.01 17.1199 13.03 18.3899 14.79 20.0999L14.98 20.2799C15.12 20.4199 15.31 20.4999 15.5 20.4999C15.69 20.4999 15.88 20.4199 16.03 20.2799L16.22 20.0999C17.99 18.3899 19 17.1199 19 15.7399C19 15.4499 18.95 15.1499 18.85 14.8799C18.75 14.6099 18.59 14.3599 18.4 14.1499H18.39Z" fill="#141414"/>
</svg>
