<svg width="24" height="24" viewBox="0 0 24 24" fill="none" xmlns="http://www.w3.org/2000/svg">
<path d="M19.7601 3.70003C20.1601 3.45003 20.0001 2.84003 19.5401 2.78003C10.5401 1.67003 5.96011 6.18003 5.15011 10.58C5.15011 10.6 5.15011 10.62 5.14011 10.64C5.11011 10.83 5.07011 11.03 5.05011 11.22C5.02011 11.48 5.00011 11.74 5.00011 12C5.00011 13.94 5.79011 15.7 7.07011 16.97L7.00011 17C7.00011 17 7.00011 18.56 4.24011 20.3C3.84011 20.55 4.00011 21.16 4.46011 21.22C13.4601 22.33 18.0401 17.82 18.8501 13.42C18.8501 13.4 18.8501 13.38 18.8601 13.36C18.8901 13.17 18.9301 12.97 18.9501 12.78C18.9801 12.52 19.0001 12.26 19.0001 12C19.0001 10.06 18.2101 8.30003 16.9301 7.03003L17.0001 7.00003C17.0001 7.00003 17.0001 5.44003 19.7601 3.70003ZM12.0001 15C10.3501 15 9.00011 13.65 9.00011 12C9.00011 10.35 10.3501 9.00003 12.0001 9.00003C13.6501 9.00003 15.0001 10.35 15.0001 12C15.0001 13.65 13.6501 15 12.0001 15Z" fill="#141414"/>
</svg>
