<svg width="24" height="24" viewBox="0 0 24 24" fill="none" xmlns="http://www.w3.org/2000/svg">
<path d="M12 5.5C12 4.12 10.88 3 9.5 3C8.12 3 7 4.12 7 5.5V13.89C6.06 14.64 5.5 15.79 5.5 17C5.5 19.21 7.29 21 9.5 21C11.71 21 13.5 19.21 13.5 17C13.5 15.79 12.94 14.65 12 13.89V5.5ZM10 8H9V5.5C9 5.22 9.22 5 9.5 5C9.78 5 10 5.22 10 5.5V8ZM14 6C14.55 6 15 5.55 15 5V4C15 3.45 14.55 3 14 3C13.45 3 13 3.45 13 4V5C13 5.55 13.45 6 14 6ZM21 10H20C19.45 10 19 10.45 19 11C19 11.55 19.45 12 20 12H21C21.55 12 22 11.55 22 11C22 10.45 21.55 10 21 10ZM18.95 7.46L19.66 6.75C20.05 6.36 20.05 5.73 19.66 5.34C19.27 4.95 18.64 4.95 18.25 5.34L17.54 6.05C17.15 6.44 17.15 7.07 17.54 7.46C17.93 7.85 18.56 7.85 18.95 7.46ZM18.95 14.53C18.56 14.14 17.93 14.14 17.54 14.53C17.15 14.92 17.15 15.55 17.54 15.94L18.25 16.65C18.64 17.04 19.27 17.04 19.66 16.65C20.05 16.26 20.05 15.63 19.66 15.24L18.95 14.53ZM14 6.99C13.65 6.99 13.32 7.05 13 7.13V13.44C13.45 13.88 13.8 14.41 14.06 14.99C16.24 14.96 18 13.18 18 11C18 8.82 16.21 7 14 7V6.99Z" fill="#141414"/>
</svg>
