<svg width="24" height="24" viewBox="0 0 24 24" fill="none" xmlns="http://www.w3.org/2000/svg">
<path d="M10.2102 11.99C10.2202 12.05 10.2502 12.11 10.2702 12.17C10.4502 12.68 10.7902 13.1 11.2702 13.29C11.2802 13.29 11.3002 13.3 11.3102 13.31C11.3202 13.31 11.3402 13.32 11.3502 13.33C12.3102 13.72 13.4302 13.24 14.0702 12.25V12.23C14.1702 12.07 14.2502 11.91 14.3302 11.73C14.4002 11.57 14.4502 11.4 14.4902 11.23V11.21C14.5902 10.79 14.6202 10.36 14.6502 9.93998C14.7302 8.77998 14.8002 7.58998 16.3802 6.14998C16.8102 5.81998 17.2302 5.47998 17.6502 5.16998C18.0002 4.89998 18.1402 4.38998 17.9602 3.99998C17.7802 3.61998 17.3402 3.50998 16.9802 3.75998C16.4802 4.08998 16.0602 4.42998 15.6902 4.74998C13.8002 6.23998 10.9002 8.67998 10.3802 9.95998C10.3802 9.97998 10.3602 9.99998 10.3602 10.02C10.3602 10.04 10.3402 10.06 10.3402 10.08C10.0702 10.73 10.0502 11.41 10.2202 11.98V12L10.2102 11.99ZM8.31024 14.14V14.02C8.31024 13.69 8.31023 13.05 9.00023 11.55H5.72023C4.77023 11.55 3.99023 12.33 3.99023 13.28V15.01H8.41023C8.35023 14.72 8.31024 14.44 8.31024 14.15V14.14ZM18.2402 11.47H14.9102C14.9402 11.53 14.9602 11.59 14.9902 11.66C15.1902 12.15 15.3802 12.65 15.4802 13.18V13.22L15.5002 13.25V13.28C15.5602 13.58 15.5902 13.85 15.5902 14.13C15.5902 14.41 15.5502 14.71 15.4902 15.01H20.0002V13.24C20.0002 12.27 19.2102 11.47 18.2302 11.47H18.2402ZM12.0202 18L11.9102 17.99C10.9702 17.99 10.0502 17.53 9.34023 16.7C9.32023 16.68 9.30023 16.66 9.28023 16.64L9.25023 16.61L9.15023 16.48L9.07023 16.38L9.05023 16.35C8.97023 16.24 8.91023 16.12 8.84023 16H4.00023V18C4.00023 19.1 4.72023 20 5.60023 20H18.4002C19.2802 20 20.0002 19.1 20.0002 18V16H15.1802C14.4502 17.22 13.3002 17.99 12.0102 18H12.0202Z" fill="#141414"/>
</svg>
