<svg width="24" height="24" viewBox="0 0 24 24" fill="none" xmlns="http://www.w3.org/2000/svg">
<path d="M5 13H9.59L9.3 13.29C8.91 13.68 8.91 14.31 9.3 14.7C9.5 14.9 9.75 14.99 10.01 14.99C10.27 14.99 10.52 14.89 10.72 14.7L12.72 12.7C13.11 12.31 13.11 11.68 12.72 11.29L10.72 9.29C10.33 8.9 9.7 8.9 9.31 9.29C8.92 9.68 8.92 10.31 9.31 10.7L9.6 10.99H3C2.45 10.99 2 11.44 2 11.99C2 12.54 2.45 12.99 3 12.99H5V13Z" fill="#141414"/>
<path d="M19 4H6C4.35 4 3 5.35 3 7V9H5V7C5 6.45 5.45 6 6 6H19C19.55 6 20 6.45 20 7V17C20 17.55 19.55 18 19 18H6C5.45 18 5 17.55 5 17V15H3V17C3 18.65 4.35 20 6 20H19C20.65 20 22 18.65 22 17V7C22 5.35 20.65 4 19 4Z" fill="#141414"/>
</svg>
