<svg width="24" height="24" viewBox="0 0 24 24" fill="none" xmlns="http://www.w3.org/2000/svg">
<path d="M19.75 9.19C18.1 7.63 15.43 7.63 13.79 9.17L9.00001 13.72C8.02001 14.65 6.39001 14.65 5.40001 13.7C4.93001 13.25 4.66001 12.64 4.66001 11.99C4.66001 11.34 4.92001 10.73 5.42001 10.28C6.40001 9.35 8.03001 9.35 9.02001 10.3L9.73001 10.98C10.04 11.28 10.53 11.28 10.84 10.98C11.18 10.66 11.18 10.13 10.84 9.81L10.17 9.17C8.54001 7.62 5.87001 7.61 4.23001 9.15C2.60001 10.71 2.58001 13.27 4.23001 14.83C5.03001 15.59 6.07001 16 7.20001 16C8.33001 16 9.40001 15.59 10.19 14.83L14.98 10.28C15.96 9.35 17.59 9.35 18.58 10.3C19.56 11.25 19.56 12.78 18.56 13.72C17.58 14.65 15.95 14.65 14.96 13.7L14.25 13.02C13.94 12.72 13.45 12.72 13.14 13.02C12.8 13.34 12.8 13.87 13.14 14.19L13.79 14.81C14.59 15.57 15.66 16 16.78 16C17.9 16 18.96 15.59 19.75 14.83C20.55 14.07 20.98 13.07 21 12.01C20.98 10.95 20.55 9.94 19.75 9.19Z" fill="#141414"/>
</svg>
