<svg width="24" height="24" viewBox="0 0 24 24" fill="none" xmlns="http://www.w3.org/2000/svg">
<path d="M4.20001 9.42C3.80001 9.42 3.38001 9.6 3.38001 10.16V15.41C3.38001 15.96 3.80001 16.15 4.20001 16.15C4.60001 16.15 5.01001 15.96 5.01001 15.41V10.16C5.01001 9.6 4.61001 9.42 4.20001 9.42ZM4.20001 7C3.64001 7 3.26001 7.39 3.26001 7.94C3.26001 8.49 3.64001 8.88 4.20001 8.88C4.76001 8.88 5.14001 8.48 5.14001 7.94C5.14001 7.4 4.74001 7 4.20001 7ZM18.49 10.95L17.28 10.49C16.59 10.24 16.16 10.05 16.16 9.53C16.16 8.97 16.75 8.61 17.59 8.61C17.93 8.61 18.46 8.65 19.1 9.05C19.22 9.13 19.35 9.22 19.57 9.22C19.99 9.22 20.4 8.75 20.4 8.35C20.4 8.1 20.24 7.88 20.06 7.74C19.2 7.09 18.31 7 17.59 7C15.63 7 14.4 8.01 14.4 9.54C14.4 11.07 15.26 11.57 16.71 12.1L17.93 12.56C18.59 12.81 19 13.07 19 13.56C19 14.18 18.43 14.55 17.58 14.55C16.73 14.55 16.21 14.3 15.75 13.94C15.58 13.81 15.41 13.68 15.18 13.68C14.75 13.68 14.31 14.19 14.31 14.54C14.31 14.8 14.43 14.97 14.56 15.1C15.2 15.74 16.2 16.17 17.59 16.17C19.49 16.17 20.76 15.18 20.76 13.57C20.76 12.24 19.93 11.52 18.48 10.97L18.49 10.95ZM9.83001 7C8.74001 7 7.92001 7.17 7.20001 7.98C6.68001 8.58 6.43001 9.83 6.43001 11.58C6.43001 13.33 6.68001 14.58 7.20001 15.18C7.91001 15.99 8.73001 16.15 9.83001 16.15C10.93 16.15 11.74 15.98 12.46 15.18C12.98 14.58 13.23 13.33 13.23 11.58C13.23 9.83 12.98 8.58 12.46 7.98C11.75 7.17 10.93 7 9.83001 7ZM11.21 13.86C10.87 14.51 10.2 14.51 9.83001 14.51C9.46001 14.51 8.79001 14.51 8.45001 13.86C8.19001 13.37 8.19001 12.6 8.19001 11.57C8.19001 10.54 8.20001 9.78 8.45001 9.28C8.79001 8.6 9.46001 8.6 9.83001 8.6C10.2 8.6 10.86 8.6 11.21 9.28C11.46 9.77 11.47 10.54 11.47 11.57C11.47 12.6 11.47 13.36 11.21 13.86Z" fill="#141414"/>
</svg>
