<svg width="24" height="24" viewBox="0 0 24 24" fill="none" xmlns="http://www.w3.org/2000/svg">
<path d="M20.2901 15.63L18.9201 14.84L20.0001 14.55C20.5301 14.41 20.8501 13.86 20.7101 13.33C20.5701 12.8 20.0201 12.48 19.4901 12.62L16.4801 13.43L14.0101 12L16.4801 10.57L19.4901 11.38C19.5801 11.4 19.6601 11.41 19.7501 11.41C20.1901 11.41 20.6001 11.12 20.7201 10.67C20.8601 10.14 20.5501 9.59 20.0101 9.45L18.9301 9.16L20.3001 8.37C20.7801 8.09 20.9401 7.48 20.6701 7C20.3901 6.52 19.7801 6.36 19.3001 6.63L17.9301 7.42L18.2201 6.34C18.3601 5.81 18.0501 5.26 17.5101 5.12C16.9801 4.98 16.4301 5.29 16.2901 5.83L15.4801 8.84L13.0101 10.27V7.42L15.2201 5.21C15.6101 4.82 15.6101 4.19 15.2201 3.8C14.8301 3.41 14.2001 3.41 13.8101 3.8L13.0201 4.59V3C13.0201 2.45 12.5701 2 12.0201 2C11.4701 2 11.0201 2.45 11.0201 3V4.59L10.2301 3.8C9.84009 3.41 9.21008 3.41 8.82009 3.8C8.43009 4.19 8.43009 4.82 8.82009 5.21L11.0301 7.42V10.27L8.56009 8.84L7.75009 5.83C7.61009 5.3 7.06009 4.98 6.53009 5.12C6.00009 5.26 5.68009 5.81 5.82009 6.34L6.11009 7.42L4.74009 6.63C4.26008 6.35 3.65009 6.52 3.37009 7C3.09009 7.48 3.26009 8.09 3.74009 8.37L5.11009 9.16L4.03009 9.45C3.50009 9.59 3.18009 10.14 3.32009 10.67C3.44009 11.12 3.84009 11.41 4.29009 11.41C4.38009 11.41 4.46009 11.4 4.55009 11.38L7.56009 10.57L10.0301 12L7.56009 13.43L4.55009 12.62C4.02009 12.48 3.47009 12.79 3.33009 13.33C3.19009 13.86 3.50009 14.41 4.04009 14.55L5.12009 14.84L3.75009 15.63C3.27009 15.91 3.11009 16.52 3.38009 17C3.57009 17.32 3.90009 17.5 4.25009 17.5C4.42009 17.5 4.59009 17.46 4.75009 17.37L6.12009 16.58L5.83009 17.66C5.69009 18.19 6.00009 18.74 6.54009 18.88C6.63009 18.9 6.71009 18.91 6.80009 18.91C7.24009 18.91 7.65009 18.62 7.77009 18.17L8.58009 15.16L11.0501 13.73V16.58L8.84009 18.79C8.45009 19.18 8.45009 19.81 8.84009 20.2C9.23009 20.59 9.86009 20.59 10.2501 20.2L11.0401 19.41V21C11.0401 21.55 11.4901 22 12.0401 22C12.5901 22 13.0401 21.55 13.0401 21V19.41L13.8301 20.2C14.0301 20.4 14.2801 20.49 14.5401 20.49C14.8001 20.49 15.0501 20.39 15.2501 20.2C15.6401 19.81 15.6401 19.18 15.2501 18.79L13.0401 16.58V13.73L15.5101 15.16L16.3201 18.17C16.4401 18.62 16.8401 18.91 17.2901 18.91C17.3801 18.91 17.4601 18.9 17.5501 18.88C18.0801 18.74 18.4001 18.19 18.2601 17.66L17.9701 16.58L19.3401 17.37C19.5001 17.46 19.6701 17.5 19.8401 17.5C20.1901 17.5 20.5201 17.32 20.7101 17C20.9901 16.52 20.8201 15.91 20.3401 15.63H20.2901Z" fill="#141414"/>
</svg>
