<svg width="24" height="24" viewBox="0 0 24 24" fill="none" xmlns="http://www.w3.org/2000/svg">
<path d="M20.46 4.68C20.12 4.31 19.66 4.08 19.16 4.02C16.96 3.79 14.81 3.17 12.82 2.19C12.56 2.06 12.28 2 12 2C11.72 2 11.44 2.07 11.18 2.19C9.21 3.17 7.07 3.79 4.88 4.02C4.38 4.06 3.91 4.29 3.56 4.66C3.21 5.03 3.01 5.51 3 6.02V11.01C3 17.75 9.75 22 12 22C14.25 22 21 17.75 21 11.01V6.02C20.99 5.52 20.8 5.05 20.46 4.68ZM9.5 6.5C10.33 6.5 11 7.17 11 8C11 8.83 10.33 9.5 9.5 9.5C8.67 9.5 8 8.83 8 8C8 7.17 8.67 6.5 9.5 6.5ZM17.71 9.27L12.16 14.82C11.92 15.06 11.57 15.16 11.23 15.09L10.61 14.95L8.68 16.88C8.39 17.17 7.91 17.17 7.62 16.88C7.33 16.59 7.33 16.11 7.62 15.82L9.55 13.89L9.41 13.27C9.33 12.94 9.44 12.59 9.68 12.34L15.23 6.79C15.62 6.4 16.25 6.4 16.64 6.79L17.7 7.85C18.09 8.24 18.09 8.87 17.7 9.26L17.71 9.27Z" fill="#141414"/>
</svg>
