<svg width="24" height="24" viewBox="0 0 24 24" fill="none" xmlns="http://www.w3.org/2000/svg">
<path d="M19.02 6.28977C18.74 5.95977 18.36 5.75977 17.95 5.71977C16.12 5.52977 14.34 4.99977 12.69 4.16977C12.48 4.05977 12.24 4.00977 12.01 4.00977C11.78 4.00977 11.54 4.05977 11.33 4.16977C9.68998 4.99977 7.91998 5.52977 6.09998 5.71977C5.68998 5.75977 5.28998 5.94977 5.00998 6.25977C4.71998 6.56977 4.54998 6.97977 4.53998 7.41977V11.6698C4.53998 17.3898 10.14 21.0098 12 21.0098C13.86 21.0098 19.46 17.3998 19.46 11.6698V7.41977C19.46 7.00977 19.29 6.59977 19.01 6.29977H19.02V6.28977Z" fill="#141414"/>
</svg>
