<svg width="24" height="24" viewBox="0 0 24 24" fill="none" xmlns="http://www.w3.org/2000/svg">
<path d="M19.9801 3.36999C19.8601 3.24999 19.7201 3.15999 19.5601 3.08999C19.4001 3.02999 19.2401 2.98999 19.0701 2.98999H4.93014C4.59014 2.98999 4.26014 3.12999 4.02014 3.36999C3.78014 3.60999 3.64014 3.93999 3.64014 4.27999V11.99C3.64014 17.97 11.2401 20.8 11.5601 20.91C11.8401 21.01 12.1501 21.01 12.4301 20.91C12.7501 20.79 20.3501 17.97 20.3501 11.99V4.27999C20.3501 4.10999 20.3201 3.93999 20.2501 3.78999C20.1901 3.62999 20.0901 3.48999 19.9701 3.36999H19.9801ZM7.23014 7.22999C7.44014 7.01999 7.72014 6.88999 8.02014 6.85999C8.32014 6.82999 8.62014 6.90999 8.86014 7.07999C9.07014 7.21999 9.23014 7.41999 9.32014 7.65999C9.42014 7.89999 9.45014 8.14999 9.40014 8.40999C9.35014 8.65999 9.23014 8.87999 9.05014 9.05999C8.87014 9.23999 8.64014 9.35999 8.40014 9.40999C8.15014 9.45999 7.89014 9.42999 7.65014 9.32999C7.41014 9.23999 7.21014 9.07999 7.07014 8.86999C6.90014 8.61999 6.82014 8.31999 6.85014 8.02999C6.88014 7.72999 7.01014 7.44999 7.22014 7.23999L7.23014 7.22999ZM16.8201 13.66C16.2201 14.35 15.4801 14.91 14.6501 15.29C13.8201 15.67 12.9201 15.87 12.0001 15.87C11.0801 15.87 10.1801 15.67 9.35014 15.29C8.52014 14.91 7.77014 14.35 7.18014 13.66C7.04014 13.54 6.92014 13.39 6.85014 13.22C6.76014 13.05 6.72014 12.87 6.72014 12.68C6.72014 12.49 6.76014 12.31 6.84014 12.14C6.92014 11.97 7.03014 11.81 7.17014 11.69C7.31014 11.57 7.48014 11.48 7.66014 11.43C7.84014 11.39 8.03014 11.39 8.21014 11.43C8.40014 11.45 8.57014 11.52 8.72014 11.64C8.88014 11.74 9.01014 11.88 9.11014 12.04C9.47014 12.45 9.90014 12.78 10.4001 13C10.9001 13.23 11.4401 13.35 11.9801 13.35C12.5201 13.35 13.0701 13.23 13.5601 13C14.0501 12.77 14.4901 12.44 14.8501 12.04C15.0201 11.86 15.2401 11.73 15.4801 11.68C15.7201 11.62 15.9701 11.64 16.2101 11.72C16.4401 11.8 16.6501 11.95 16.8001 12.15C16.9501 12.35 17.0401 12.58 17.0601 12.83C17.0901 13.14 17.0101 13.45 16.8301 13.7V13.66H16.8201ZM16.8201 9.01999C16.6101 9.22999 16.3301 9.35999 16.0301 9.38999C15.7301 9.41999 15.4301 9.33999 15.1901 9.16999C14.9801 9.02999 14.8201 8.82999 14.7301 8.58999C14.6301 8.34999 14.6001 8.09999 14.6501 7.83999C14.7001 7.59999 14.8101 7.37999 14.9801 7.20999C15.1501 7.02999 15.3601 6.90999 15.6001 6.84999C15.8501 6.79999 16.1101 6.82999 16.3501 6.92999C16.5901 7.01999 16.7901 7.17999 16.9301 7.38999C17.1001 7.63999 17.1801 7.93999 17.1501 8.22999C17.1201 8.52999 16.9901 8.80999 16.7801 9.01999H16.8301H16.8201Z" fill="#141414"/>
</svg>
