<svg width="24" height="24" viewBox="0 0 24 24" fill="none" xmlns="http://www.w3.org/2000/svg">
<g clip-path="url(#clip0_71067_17850)">
<mask id="mask0_71067_17850" style="mask-type:luminance" maskUnits="userSpaceOnUse" x="0" y="0" width="24" height="24">
<path d="M24 0H0V24H24V0Z" fill="white"/>
</mask>
<g mask="url(#mask0_71067_17850)">
<path d="M24 12C24 5.37258 18.6274 0 12 0C5.37258 0 0 5.37258 0 12C0 18.6274 5.37258 24 12 24C18.6274 24 24 18.6274 24 12Z" fill="url(#paint0_linear_71067_17850)"/>
<path d="M8.47791 7.23736H8.07787C7.31878 7.23736 6.90411 7.66537 6.90411 8.52157V12.6509C6.90411 13.714 6.545 14.0872 5.70255 14.0872C5.03988 14.0872 4.50144 13.7969 4.07322 13.2722C4.03166 13.2172 3.16211 13.6312 3.16211 14.6533C3.16211 15.758 4.19721 16.4349 6.11767 16.4349C8.45099 16.4349 9.68076 15.2609 9.68076 12.6925V8.52157C9.67941 7.6665 9.26519 7.23736 8.47791 7.23736ZM17.7779 9.25357C15.5128 9.25357 14.0077 10.6898 14.0077 12.8314C14.0077 15.0274 15.4572 16.4362 17.7361 16.4362C20.0005 16.4362 21.4917 15.0274 21.4917 12.8456C21.493 10.6898 20.015 9.25357 17.7779 9.25357ZM17.7501 14.4045C16.8659 14.4045 16.2586 13.7556 16.2586 12.8302C16.2586 11.9191 16.8808 11.2698 17.7501 11.2698C18.6194 11.2698 19.2415 11.9191 19.2415 12.8443C19.2417 13.7416 18.6064 14.4045 17.7501 14.4045ZM12.0939 9.3225H11.8172C11.141 9.3225 10.6301 9.63982 10.6301 10.6069V15.026C10.6301 16.0067 11.1274 16.3107 11.8452 16.3107H12.1216C12.7984 16.3107 13.2814 15.9789 13.2814 15.026V10.6069C13.2814 9.61267 12.8123 9.3225 12.0939 9.3225ZM11.9421 6.11914C11.0857 6.11914 10.5472 6.6027 10.5472 7.36225C10.5472 8.13517 11.0999 8.61847 11.9834 8.61847C12.8397 8.61847 13.3783 8.13517 13.3783 7.36225C13.3783 6.58936 12.8259 6.11914 11.9421 6.11914Z" fill="white"/>
</g>
</g>
<defs>
<linearGradient id="paint0_linear_71067_17850" x1="0" y1="0" x2="24" y2="24" gradientUnits="userSpaceOnUse">
<stop offset="0.35" stop-color="#FFDBAB"/>
<stop offset="0.6" stop-color="#AA761D"/>
</linearGradient>
<clipPath id="clip0_71067_17850">
<rect width="24" height="24" fill="white"/>
</clipPath>
</defs>
</svg>
