<svg width="24" height="24" viewBox="0 0 24 24" fill="none" xmlns="http://www.w3.org/2000/svg">
<g clip-path="url(#clip0_7826_127526)">
<path d="M12 0C5.37244 0 0 5.37267 0 12C0 18.6273 5.37244 24 12 24C18.6276 24 24 18.6276 24 12C24 5.37244 18.6273 0 12 0ZM9.67933 12.6927C9.67933 15.2611 8.45022 16.4351 6.11622 16.4351C4.19689 16.4351 3.16067 15.7582 3.16067 14.6536C3.16067 13.6313 4.03022 13.2173 4.07178 13.2724C4.5 13.7971 5.03844 14.0873 5.70111 14.0873C6.54356 14.0873 6.90267 13.7142 6.90267 12.6511V8.52178C6.90267 7.66556 7.31733 7.23733 8.07644 7.23733H8.47644C9.26378 7.23733 9.678 7.66556 9.678 8.52178L9.67933 12.6927ZM13.2813 15.026C13.2813 15.9789 12.7982 16.3107 12.1216 16.3107H11.8444C11.1264 16.3107 10.6291 16.0067 10.6291 15.026V10.6076C10.6291 9.64044 11.1402 9.32311 11.8162 9.32311H12.0929C12.8113 9.32311 13.2804 9.61333 13.2804 10.6076L13.2813 15.026ZM11.9833 8.61867C11.0998 8.61867 10.5471 8.13533 10.5471 7.36244C10.5471 6.60267 11.0856 6.11933 11.942 6.11933C12.8258 6.11933 13.3782 6.58933 13.3782 7.36244C13.3782 8.13556 12.8396 8.61867 11.9833 8.61867ZM17.7362 16.4351C15.4573 16.4351 14.0078 15.0262 14.0078 12.8302C14.0078 10.6898 15.5129 9.25356 17.778 9.25356C20.0149 9.25356 21.4929 10.6898 21.4929 12.8442C21.4929 15.0262 20 16.4351 17.7362 16.4351ZM17.7502 11.27C16.88 11.27 16.2587 11.9193 16.2587 12.8304C16.2587 13.7558 16.866 14.4047 17.7502 14.4047C18.6064 14.4047 19.2416 13.7418 19.2416 12.8444C19.2416 11.9193 18.6202 11.27 17.7502 11.27Z" fill="#3535F3"/>
</g>
<defs>
<clipPath id="clip0_7826_127526">
<rect width="24" height="24" fill="white"/>
</clipPath>
</defs>
</svg>
