<svg width="24" height="24" viewBox="0 0 24 24" fill="none" xmlns="http://www.w3.org/2000/svg">
<g clip-path="url(#clip0_5207_79934)">
<rect width="24" height="24" rx="12" fill="#3535F3"/>
<path d="M8.47789 7.23736H8.07789C7.31878 7.23736 6.90411 7.66536 6.90411 8.52159V12.6509C6.90411 13.714 6.545 14.0871 5.70255 14.0871C5.03989 14.0871 4.50144 13.7969 4.07322 13.2723C4.03167 13.2171 3.16211 13.6311 3.16211 14.6534C3.16211 15.758 4.19722 16.4349 6.11767 16.4349C8.451 16.4349 9.68078 15.2609 9.68078 12.6925V8.52159C9.67944 7.66647 9.26522 7.23736 8.47789 7.23736ZM17.7779 9.25359C15.5128 9.25359 14.0077 10.6898 14.0077 12.8314C14.0077 15.0274 15.4572 16.4363 17.7361 16.4363C20.0006 16.4363 21.4917 15.0274 21.4917 12.8456C21.493 10.6898 20.015 9.25359 17.7779 9.25359ZM17.7501 14.4045C16.8659 14.4045 16.2586 13.7556 16.2586 12.8303C16.2586 11.9191 16.8808 11.2698 17.7501 11.2698C18.6194 11.2698 19.2414 11.9191 19.2414 12.8443C19.2417 13.7416 18.6066 14.4045 17.7503 14.4045H17.7501ZM12.0939 9.32247H11.8172C11.141 9.32247 10.6301 9.63981 10.6301 10.6069V15.026C10.6301 16.0067 11.1274 16.3107 11.8452 16.3107H12.1217C12.7983 16.3107 13.2814 15.9789 13.2814 15.026V10.6069C13.2814 9.6127 12.8123 9.32247 12.0939 9.32247ZM11.9421 6.11914C11.0857 6.11914 10.5472 6.6027 10.5472 7.36225C10.5472 8.13514 11.0999 8.61847 11.9834 8.61847C12.8397 8.61847 13.3783 8.13514 13.3783 7.36225C13.3783 6.58936 12.8259 6.11914 11.9421 6.11914Z" fill="white"/>
</g>
<defs>
<clipPath id="clip0_5207_79934">
<rect width="24" height="24" fill="white"/>
</clipPath>
</defs>
</svg>
