<svg width="24" height="24" viewBox="0 0 24 24" fill="none" xmlns="http://www.w3.org/2000/svg">
<path d="M13.4 18.15C13.4 17.96 13.43 17.78 13.46 17.59C11.74 17.21 10.44 15.67 10.44 13.84C10.44 11.72 12.17 9.98999 14.29 9.98999C15.23 9.98999 16.08 10.34 16.75 10.91C17.03 10.68 17.33 10.48 17.66 10.33L12.85 2.46999C12.76 2.32999 12.64 2.20999 12.49 2.11999C12.34 2.03999 12.17 1.98999 12 1.98999C11.83 1.98999 11.66 2.02999 11.51 2.11999C11.36 2.19999 11.24 2.31999 11.15 2.46999L6.3 10.39C5.45 11.77 5 13.37 5 14.99C5 16.85 5.74 18.63 7.05 19.94C8.36 21.25 10.14 21.99 12 21.99C13.06 21.99 14.1 21.74 15.04 21.29C14.05 20.59 13.4 19.45 13.4 18.15Z" fill="#141414"/>
<path d="M20.74 12.81C20.61 12.61 20.44 12.44 20.24 12.31C19.95 12.11 19.59 11.99 19.21 11.99C19.08 11.99 18.96 12 18.84 12.03C18.6 12.08 18.38 12.18 18.18 12.31C18.08 12.38 17.99 12.45 17.91 12.54C17.91 12.54 17.91 12.55 17.9 12.56C18.05 12.97 18.14 13.4 18.14 13.85C18.14 14.04 18.11 14.22 18.08 14.41C18.84 14.58 19.51 14.97 20.02 15.51C20.1 15.47 20.17 15.44 20.25 15.39C20.45 15.26 20.62 15.09 20.75 14.89C20.95 14.6 21.07 14.24 21.07 13.86C21.07 13.48 20.95 13.12 20.75 12.83L20.74 12.81Z" fill="#141414"/>
<path d="M15.32 12.32C15.03 12.12 14.67 12 14.29 12C14.04 12 13.79 12.05 13.57 12.15C12.91 12.43 12.44 13.09 12.44 13.85C12.44 14.61 12.9 15.27 13.57 15.55C13.79 15.64 14.03 15.7 14.29 15.7C14.3 15.7 14.31 15.7 14.32 15.7C14.76 15.18 15.34 14.77 16 14.55C16.09 14.34 16.14 14.11 16.14 13.86C16.14 13.48 16.02 13.12 15.82 12.83C15.76 12.74 15.69 12.65 15.61 12.57C15.52 12.48 15.43 12.4 15.32 12.33V12.32Z" fill="#141414"/>
<path d="M17.97 16.45C17.75 16.36 17.51 16.3 17.25 16.3C16.99 16.3 16.75 16.35 16.53 16.45C16.08 16.64 15.72 17.01 15.54 17.46C15.45 17.67 15.4 17.9 15.4 18.15C15.4 18.91 15.86 19.57 16.53 19.85C16.75 19.94 16.99 20 17.25 20C17.51 20 17.75 19.95 17.97 19.85C18.63 19.57 19.1 18.91 19.1 18.15C19.1 17.98 19.07 17.82 19.03 17.67C18.88 17.12 18.49 16.67 17.97 16.45Z" fill="#141414"/>
</svg>
