<svg width="24" height="24" viewBox="0 0 24 24" fill="none" xmlns="http://www.w3.org/2000/svg">
<path d="M7.58988 14.48H5.02988C4.94988 14.48 4.91988 14.46 4.91988 14.38V8.62C4.91988 8.12 4.51988 8 4.14988 8C3.77988 8 3.37988 8.12 3.37988 8.62V15.24C3.37988 15.67 3.63988 15.91 4.04988 15.91H7.57988C8.06988 15.91 8.23988 15.56 8.23988 15.21C8.23988 14.86 8.05988 14.49 7.57988 14.49L7.58988 14.48ZM19.4899 14.48H16.3599C16.2799 14.48 16.2499 14.46 16.2499 14.38V12.66C16.2499 12.58 16.2699 12.56 16.3599 12.56H18.9199C19.4099 12.56 19.5799 12.2 19.5799 11.85C19.5799 11.5 19.3999 11.14 18.9199 11.14H16.3599C16.2799 11.14 16.2499 11.12 16.2499 11.04V9.57C16.2499 9.49 16.2699 9.47 16.3599 9.47H19.3699C19.8599 9.47 20.0299 9.11 20.0299 8.76C20.0299 8.41 19.8499 8.05 19.3699 8.05H15.3899C14.9799 8.05 14.7199 8.29 14.7199 8.72V15.25C14.7199 15.68 14.9799 15.92 15.3899 15.92H19.4899C19.9799 15.92 20.1499 15.57 20.1499 15.22C20.1499 14.87 19.9699 14.5 19.4899 14.5V14.48ZM12.8699 8.04H8.15988C7.66988 8.04 7.49988 8.4 7.49988 8.75C7.49988 9.1 7.67988 9.46 8.15988 9.46H9.63988C9.71988 9.46 9.74988 9.48 9.74988 9.56V15.32C9.74988 15.82 10.1599 15.94 10.5199 15.94C10.8799 15.94 11.2899 15.82 11.2899 15.32V9.56C11.2899 9.48 11.3299 9.46 11.3999 9.46H12.8799C13.3699 9.46 13.5399 9.11 13.5399 8.75C13.5399 8.39 13.3599 8.04 12.8799 8.04H12.8699Z" fill="#141414"/>
</svg>
