<svg width="24" height="24" viewBox="0 0 24 24" fill="none" xmlns="http://www.w3.org/2000/svg">
<path d="M15.6477 12.1249H14.9881V11.4653C14.9881 10.7656 14.7082 10.096 14.2184 9.6062C13.7287 9.11644 13.059 8.83658 12.3594 8.83658C11.6597 8.83658 10.9901 9.11644 10.5003 9.6062C10.0106 10.096 9.73069 10.7656 9.73069 11.4653V12.1249H9.07102C8.55128 12.1249 8.04154 12.3348 7.67172 12.7046C7.30191 13.0745 7.09201 13.5742 7.09201 14.1039V20.021C7.09201 20.5407 7.30191 21.0505 7.67172 21.4203C8.04154 21.7901 8.54129 22 9.07102 22H15.6477C16.1675 22 16.6772 21.7901 17.047 21.4203C17.4168 21.0505 17.6267 20.5507 17.6267 20.021V14.1039C17.6267 13.5842 17.4168 13.0745 17.047 12.7046C16.6772 12.3348 16.1775 12.1249 15.6477 12.1249ZM13.2889 17.6622C13.039 17.912 12.7092 18.052 12.3594 18.052C12.0995 18.052 11.8496 17.972 11.6297 17.8321C11.4099 17.6922 11.2399 17.4823 11.15 17.2424C11.06 17.0025 11.02 16.7326 11.08 16.4828C11.13 16.2229 11.2599 15.993 11.4398 15.8131C11.6197 15.6332 11.8596 15.5032 12.1095 15.4533C12.3694 15.4033 12.6292 15.4333 12.8691 15.5232C13.109 15.6132 13.3189 15.7931 13.4588 16.003C13.5988 16.2229 13.6787 16.4728 13.6787 16.7326C13.6787 17.0825 13.5388 17.4123 13.2889 17.6622ZM11.04 12.1249V11.4653C11.04 11.1154 11.18 10.7856 11.4298 10.5357C11.6797 10.2859 12.0096 10.1459 12.3594 10.1459C12.7092 10.1459 13.039 10.2859 13.2889 10.5357C13.5388 10.7856 13.6787 11.1154 13.6787 11.4653V12.1249H11.04Z" fill="#141414"/>
<path d="M7.95158 9.44628C8.3214 9.63618 8.78117 9.49625 8.98107 9.12644C9.66073 7.84708 10.9301 7.05747 12.3994 7.05747C13.8686 7.05747 15.088 7.86707 15.7577 9.17641C15.8876 9.43628 16.1575 9.58621 16.4373 9.58621C16.5573 9.58621 16.6772 9.55622 16.7872 9.50625C17.157 9.31634 17.3069 8.85657 17.117 8.48676C16.1875 6.66767 14.3784 5.54823 12.3194 5.54823C10.3804 5.54823 8.58127 6.64768 7.64174 8.42679C7.44184 8.7966 7.59176 9.25637 7.96158 9.45627L7.95158 9.44628Z" fill="#141414"/>
<path d="M20.0655 6.42779C18.5063 3.69915 15.5778 2 12.4393 2H12.2794C9.13099 2 6.21245 3.69915 4.65323 6.42779C4.44333 6.78761 4.57327 7.25737 4.93309 7.46727C5.3029 7.67716 5.76267 7.54723 5.97257 7.18741C7.26193 4.92854 9.68072 3.51924 12.2794 3.51924H12.4393C15.038 3.51924 17.4568 4.92854 18.7462 7.18741C18.8861 7.43728 19.146 7.56722 19.4059 7.56722C19.5358 7.56722 19.6657 7.53723 19.7857 7.46727C20.1455 7.25737 20.2754 6.7976 20.0655 6.42779Z" fill="#141414"/>
</svg>
