<svg width="24" height="24" viewBox="0 0 24 24" fill="none" xmlns="http://www.w3.org/2000/svg">
<path d="M12.29 10.2901C11.9 10.6801 11.9 11.3101 12.29 11.7001C13.16 12.5701 13.29 13.8601 12.59 14.5701L9.51996 17.6401C9.19996 17.9701 8.73996 18.1201 8.21996 18.0901C7.64996 18.0501 7.09996 17.7901 6.65996 17.3401C6.21996 16.9001 5.94996 16.3401 5.91996 15.7801C5.87996 15.2601 6.03996 14.8001 6.36996 14.4801L7.64996 13.2001C8.03996 12.8101 8.03996 12.1801 7.64996 11.7901C7.25996 11.4001 6.62996 11.4001 6.23996 11.7901L4.95996 13.0701C4.21996 13.8101 3.85996 14.8201 3.92996 15.9201C3.99996 16.9701 4.46996 17.9801 5.25996 18.7601C6.03996 19.5401 7.04996 20.0101 8.09996 20.0901C8.19996 20.0901 8.28996 20.0901 8.38996 20.0901C9.37996 20.0901 10.28 19.7301 10.96 19.0501L14.03 15.9801C15.52 14.4901 15.38 11.9401 13.73 10.2801C13.34 9.89014 12.71 9.89014 12.32 10.2801L12.29 10.2901ZM18.76 5.24014C17.98 4.46014 16.97 3.99014 15.92 3.91014C14.82 3.83014 13.8 4.20014 13.07 4.94014L9.99996 8.01014C9.25996 8.75014 8.89996 9.76014 8.96996 10.8601C9.03996 11.9101 9.50996 12.9201 10.3 13.7001C10.5 13.9001 10.75 13.9901 11.01 13.9901C11.27 13.9901 11.52 13.8901 11.72 13.7001C12.11 13.3101 12.11 12.6801 11.72 12.2901C11.28 11.8501 11.01 11.2901 10.98 10.7301C10.94 10.2101 11.1 9.75014 11.43 9.43014L14.5 6.36014C14.83 6.03014 15.29 5.88014 15.8 5.91014C16.37 5.95014 16.92 6.21014 17.36 6.66014C17.8 7.10014 18.07 7.66014 18.1 8.22014C18.14 8.74014 17.98 9.20014 17.65 9.52014L16.37 10.8001C15.98 11.1901 15.98 11.8201 16.37 12.2101C16.76 12.6001 17.39 12.6001 17.78 12.2101L19.06 10.9301C19.8 10.1901 20.16 9.18014 20.09 8.08014C20.02 7.03014 19.55 6.02014 18.76 5.24014Z" fill="#141414"/>
</svg>
