<svg width="24" height="24" viewBox="0 0 24 24" fill="none" xmlns="http://www.w3.org/2000/svg">
<path d="M20.5 6H18V4C18 3.45 17.55 3 17 3C16.45 3 16 3.45 16 4V12C18.76 12 21 9.76 21 7V6.5C21 6.22 20.78 6 20.5 6Z" fill="#141414"/>
<path d="M16.45 16.11C15.4 15.58 15.11 14.68 15.03 14.25C14.63 14.89 14.12 15.46 13.52 15.93C13.88 16.63 14.5 17.37 15.55 17.9C15.69 17.97 15.85 18.01 16 18.01C16.37 18.01 16.72 17.81 16.9 17.46C17.15 16.97 16.95 16.37 16.45 16.12V16.11Z" fill="#141414"/>
<path d="M13 6H6C4.34 6 3 7.27 3 8.83V16.11C3 16.25 3.02 16.39 3.05 16.53C3.06 16.57 3.08 16.61 3.09 16.66C3.12 16.75 3.15 16.83 3.19 16.92C3.21 16.97 3.24 17.01 3.27 17.05C3.31 17.12 3.36 17.19 3.41 17.26C3.44 17.3 3.48 17.34 3.52 17.38C3.58 17.44 3.64 17.5 3.7 17.55C3.74 17.58 3.78 17.62 3.83 17.65C3.9 17.7 3.98 17.74 4.06 17.78C4.1 17.8 4.15 17.83 4.19 17.85C4.28 17.89 4.38 17.92 4.48 17.95C4.51 17.95 4.55 17.97 4.58 17.98C4.72 18.01 4.86 18.02 5 18.02C5.16 18.02 5.32 18 5.48 17.96C6.62 17.68 7.87 17.17 8.58 16.21C8.74 15.99 8.93 15.8 9.16 15.65C9.39 15.5 9.71 15.38 9.99 15.34C9.97 15.35 10.06 15.32 9.99 15.34V17C9.99 17.06 9.94 18.42 8.54 19.12C8.05 19.37 7.85 19.97 8.09 20.46C8.27 20.81 8.62 21.01 8.99 21.01C9.14 21.01 9.29 20.98 9.44 20.9C11.96 19.64 11.99 17.11 11.99 17.01V14.54C13.21 13.71 13.99 12.37 13.99 10.88V7.02C13.99 6.47 13.54 6.02 12.99 6.02L13 6Z" fill="#141414"/>
</svg>
