<svg width="24" height="24" viewBox="0 0 24 24" fill="none" xmlns="http://www.w3.org/2000/svg">
<path d="M12.01 14.0042C13.1146 14.0042 14.01 13.1088 14.01 12.0042C14.01 10.8997 13.1146 10.0042 12.01 10.0042C10.9054 10.0042 10.01 10.8997 10.01 12.0042C10.01 13.1088 10.9054 14.0042 12.01 14.0042Z" fill="#141414"/>
<path d="M18.72 19.0042C18.48 19.0042 18.24 18.9242 18.05 18.7542C17.64 18.3842 17.6 17.7542 17.97 17.3442C19.28 15.8742 20.01 13.9842 20.01 12.0142C20.01 10.0442 19.29 8.14423 17.97 6.68423C17.6 6.27423 17.64 5.64423 18.05 5.27423C18.46 4.90423 19.09 4.94423 19.46 5.35423C21.1 7.18423 22.01 9.55423 22.01 12.0242C22.01 14.4942 21.11 16.8542 19.46 18.6942C19.26 18.9142 18.99 19.0242 18.71 19.0242L18.72 19.0042Z" fill="#141414"/>
<path d="M16.01 16.0042C15.8 16.0042 15.59 15.9342 15.41 15.8042C14.97 15.4742 14.88 14.8442 15.21 14.4042C15.73 13.7042 16.01 12.8742 16.01 12.0042C16.01 11.1342 15.73 10.3042 15.21 9.60423C14.88 9.16423 14.97 8.53423 15.41 8.20423C15.85 7.87423 16.48 7.96423 16.81 8.40423C17.6 9.45423 18.01 10.6942 18.01 12.0042C18.01 13.3142 17.59 14.5642 16.81 15.6042C16.61 15.8642 16.31 16.0042 16.01 16.0042Z" fill="#141414"/>
<path d="M5.3 19.0042C5.03 19.0042 4.75 18.8942 4.55 18.6742C2.91 16.8442 2 14.4742 2 12.0042C2 9.53423 2.9 7.17423 4.55 5.33423C4.92 4.92423 5.55 4.88423 5.96 5.25423C6.37 5.62423 6.41 6.25423 6.04 6.66423C4.73 8.13423 4 10.0242 4 11.9942C4 13.9642 4.72 15.8642 6.04 17.3242C6.41 17.7342 6.37 18.3642 5.96 18.7342C5.77 18.9042 5.53 18.9842 5.29 18.9842L5.3 19.0042Z" fill="#141414"/>
<path d="M8.01 16.0042C7.71 16.0042 7.41 15.8642 7.21 15.6042C6.42 14.5542 6.01 13.3142 6.01 12.0042C6.01 10.6942 6.43 9.44423 7.21 8.40423C7.54 7.96423 8.17 7.87423 8.61 8.20423C9.05 8.53423 9.14 9.16423 8.81 9.60423C8.29 10.3042 8.01 11.1342 8.01 12.0042C8.01 12.8742 8.29 13.7042 8.81 14.4042C9.14 14.8442 9.05 15.4742 8.61 15.8042C8.43 15.9342 8.22 16.0042 8.01 16.0042Z" fill="#141414"/>
</svg>
