<svg width="24" height="24" viewBox="0 0 24 24" fill="none" xmlns="http://www.w3.org/2000/svg">
<path d="M8.53 6.5502H15.48L16.16 5.2502C16.23 5.1202 16.26 4.9802 16.26 4.8302C16.26 4.6802 16.22 4.5402 16.14 4.4102C16.06 4.2802 15.96 4.1802 15.83 4.1002C15.7 4.0202 15.56 3.9902 15.41 3.9902H13.71C13.5 3.9902 13.29 4.0702 13.13 4.2202L12.43 4.8402L11.73 4.1902C11.57 4.0502 11.36 3.9802 11.15 3.9902H8.6C8.46 3.9902 8.31 4.0302 8.18 4.1002C8.05 4.1702 7.95 4.2802 7.87 4.4102C7.79 4.5402 7.75 4.6802 7.75 4.8302C7.75 4.9802 7.78 5.1202 7.85 5.2502L8.53 6.5502Z" fill="#141414"/>
<path d="M17.98 11.27H17.99C17.43 10.09 16.6 9.06 15.56 8.25H8.44998C7.41998 9.05 6.58998 10.09 6.01998 11.27C5.45998 12.45 5.17998 13.74 5.19998 15.05C5.19998 15.11 5.27998 21 12 21C18.72 21 18.8 15.11 18.8 15.05C18.83 13.74 18.54 12.45 17.98 11.27Z" fill="#141414"/>
</svg>
