<svg width="24" height="24" viewBox="0 0 24 24" fill="none" xmlns="http://www.w3.org/2000/svg">
<path d="M4.64001 15.1198C4.23001 14.1598 4.00001 13.1098 4.00001 11.9998C4.00001 9.94982 4.77001 8.07982 6.04001 6.66982C6.41001 6.25982 6.37001 5.62982 5.96001 5.25982C5.55001 4.88982 4.92001 4.92982 4.55001 5.33982C2.97001 7.10982 2.01001 9.43983 2.01001 12.0098C2.01001 13.6698 2.42001 15.2398 3.15001 16.6298L4.64001 15.1198Z" fill="#141414"/>
<path d="M19.7401 5.66982L20.7001 4.70982C21.0901 4.31982 21.0901 3.68982 20.7001 3.29982C20.3101 2.90982 19.6801 2.90982 19.2901 3.29982L3.29006 19.2998C2.90006 19.6898 2.90006 20.3198 3.29006 20.7098C3.49006 20.9098 3.74006 20.9998 4.00006 20.9998C4.26006 20.9998 4.51006 20.8998 4.71006 20.7098L11.4901 13.9298C11.6501 13.9698 11.8201 13.9998 12.0001 13.9998C13.1001 13.9998 14.0001 13.0998 14.0001 11.9998C14.0001 11.8198 13.9701 11.6498 13.9301 11.4898L15.4501 9.96982C15.8001 10.5698 16.0101 11.2498 16.0101 11.9998C16.0101 12.9098 15.7201 13.7298 15.2101 14.3998C14.8801 14.8398 14.9701 15.4698 15.4101 15.7998C15.8501 16.1298 16.4801 16.0398 16.8101 15.5998C17.5601 14.5898 18.0101 13.3598 18.0101 11.9998C18.0101 10.7298 17.6201 9.55982 16.9501 8.58982L16.9001 8.51982L18.3301 7.08982C19.3801 8.43982 20.0101 10.1498 20.0101 11.9898C20.0101 14.0298 19.2401 15.9098 17.9701 17.3198C17.6001 17.7298 17.6401 18.3598 18.0501 18.7298C18.4601 19.0998 19.0901 19.0598 19.4601 18.6498C21.0401 16.8798 22.0001 14.5398 22.0001 11.9798C22.0001 9.58982 21.1601 7.38982 19.7401 5.66982Z" fill="#141414"/>
<path d="M6.21 13.5398L8.02 11.7298C8.07 10.9298 8.34 10.1998 8.8 9.59982L8.86 9.51982C9.12 9.08983 9.02 8.51982 8.6 8.20982C8.19 7.89982 7.61 7.95982 7.27 8.32982L7.2 8.40982C6.45 9.41982 6 10.6498 6 12.0098C6 12.5498 6.08 13.0498 6.21 13.5398Z" fill="#141414"/>
</svg>
