<svg width="24" height="24" viewBox="0 0 24 24" fill="none" xmlns="http://www.w3.org/2000/svg">
<path d="M6.00001 12.0002C6.55001 12.0002 7.00001 11.5502 7.00001 11.0002V8.91023L12.29 14.2002C12.49 14.4002 12.74 14.4902 13 14.4902C13.26 14.4902 13.51 14.3902 13.71 14.2002L18.71 9.20023C19.1 8.81023 19.1 8.18023 18.71 7.79023C18.32 7.40023 17.69 7.40023 17.3 7.79023L13.01 12.0802L8.42001 7.49023H10.51C11.06 7.49023 11.51 7.04023 11.51 6.49023C11.51 5.94023 11.06 5.49023 10.51 5.49023H6.01001C5.46001 5.49023 5.01001 5.94023 5.01001 6.49023V10.9902C5.01001 11.5402 5.46001 11.9902 6.01001 11.9902L6.00001 12.0002Z" fill="#141414"/>
<path d="M18 16.5402H6.00001C5.47001 16.5402 5.04001 16.9702 5.04001 17.5002C5.04001 18.0302 5.47001 18.4602 6.00001 18.4602H18C18.53 18.4602 18.96 18.0302 18.96 17.5002C18.96 16.9702 18.53 16.5402 18 16.5402Z" fill="#141414"/>
</svg>
