<svg width="24" height="24" viewBox="0 0 24 24" fill="none" xmlns="http://www.w3.org/2000/svg">
<path d="M18 13.9999H6C5.73 13.9999 5.48 14.1099 5.29 14.2899C5.1 14.4699 5 14.7299 5 14.9999C5 15.2699 5.11 15.5199 5.29 15.7099C5.47 15.8999 5.73 15.9999 6 15.9999H18C18.27 15.9999 18.52 15.8899 18.71 15.7099C18.9 15.5299 19 15.2699 19 14.9999C19 14.7299 18.89 14.4799 18.71 14.2899C18.53 14.0999 18.27 13.9999 18 13.9999ZM16 17.9999H8C7.73 17.9999 7.48 18.1099 7.29 18.2899C7.1 18.4699 7 18.7299 7 18.9999C7 19.2699 7.11 19.5199 7.29 19.7099C7.47 19.8999 7.73 19.9999 8 19.9999H16C16.27 19.9999 16.52 19.8899 16.71 19.7099C16.9 19.5299 17 19.2699 17 18.9999C17 18.7299 16.89 18.4799 16.71 18.2899C16.53 18.0999 16.27 17.9999 16 17.9999ZM20 9.99989H17.72C17.79 9.77989 17.85 9.54989 17.9 9.30989C18.46 6.44989 17.2 3.67989 14.95 2.15989C14.21 1.65989 13.29 2.36989 13.46 3.23989C13.64 4.16989 13.6 5.16989 13.29 6.15989C12.73 7.94989 11.33 9.35989 9.6 9.98989H4C3.45 9.98989 3 10.4399 3 10.9899C3 11.5399 3.45 11.9899 4 11.9899H20C20.55 11.9899 21 11.5399 21 10.9899C21 10.4399 20.55 9.98989 20 9.98989V9.99989Z" fill="#141414"/>
</svg>
