<svg width="24" height="24" viewBox="0 0 24 24" fill="none" xmlns="http://www.w3.org/2000/svg">
<path d="M17.12 2.88C16.56 2.32 15.79 2 15 2H9C8.2 2 7.44 2.32 6.88 2.88C6.32 3.44 6 4.21 6 5V19C6 19.8 6.32 20.56 6.88 21.12C7.44 21.68 8.21 22 9 22H15C15.8 22 16.56 21.68 17.12 21.12C17.68 20.56 18 19.79 18 19V5C18 4.2 17.68 3.44 17.12 2.88ZM12.88 19.63C12.65 19.86 12.33 20 12 20C11.75 20 11.51 19.93 11.31 19.79C11.1 19.65 10.94 19.46 10.85 19.23C10.76 19 10.73 18.75 10.78 18.51C10.83 18.27 10.95 18.04 11.12 17.87C11.29 17.7 11.52 17.58 11.76 17.53C12 17.48 12.25 17.51 12.48 17.6C12.71 17.69 12.9 17.85 13.04 18.06C13.18 18.27 13.25 18.51 13.25 18.75C13.25 19.08 13.12 19.4 12.88 19.63ZM14.71 7.7C14.32 8.09 13.69 8.09 13.3 7.7L13.01 7.41V14C13.01 14.55 12.56 15 12.01 15C11.46 15 11.01 14.55 11.01 14V7.41L10.72 7.7C10.33 8.09 9.7 8.09 9.31 7.7C8.92 7.31 8.92 6.68 9.31 6.29L11.31 4.29C11.4 4.2 11.51 4.12 11.64 4.07C11.76 4.02 11.89 3.99 12.02 3.99C12.15 3.99 12.28 4.02 12.4 4.07C12.52 4.12 12.63 4.19 12.73 4.29L14.73 6.29C15.12 6.68 15.12 7.31 14.73 7.7H14.71Z" fill="#141414"/>
</svg>
