<svg width="24" height="24" viewBox="0 0 24 24" fill="none" xmlns="http://www.w3.org/2000/svg">
<path d="M8.71006 7.70017L11.0001 5.41017V8.76017L13.0101 6.75017V5.41017L13.6801 6.08017L15.1001 4.66017L12.7301 2.29017C12.3401 1.90017 11.7101 1.90017 11.3201 2.29017L7.31006 6.29017C6.92006 6.68017 6.92006 7.31017 7.31006 7.70017C7.70006 8.09017 8.33006 8.09017 8.72006 7.70017H8.71006Z" fill="#141414"/>
<path d="M21.7101 3.70017C22.1001 3.31017 22.1001 2.68017 21.7101 2.29017C21.3201 1.90017 20.7101 1.90017 20.3201 2.27017L2.53006 20.0602C2.53006 20.0602 2.51006 20.0702 2.50006 20.0802L2.29006 20.2902C1.90006 20.6802 1.90006 21.3102 2.29006 21.7002C2.49006 21.9002 2.74006 21.9902 3.00006 21.9902C3.26006 21.9902 3.51006 21.8902 3.71006 21.7002L4.07006 21.3402C4.21006 21.7202 4.57006 22.0002 5.00006 22.0002H6.00006C8.55006 22.0002 10.7801 20.6302 12.0001 18.5902C13.2201 20.6302 15.4501 22.0002 18.0001 22.0002H19.0001C19.5501 22.0002 20.0001 21.5502 20.0001 21.0002C20.0001 20.4502 19.5501 20.0002 19.0001 20.0002H18.0101C15.2501 20.0002 13.0101 17.7602 13.0101 15.0002V12.3902L21.7101 3.70017ZM11.0001 15.0002C11.0001 17.7602 8.76006 20.0002 6.00006 20.0002H5.40006L11.0001 14.4002V15.0002Z" fill="#141414"/>
</svg>
