<svg width="24" height="24" viewBox="0 0 24 24" fill="none" xmlns="http://www.w3.org/2000/svg">
<path d="M16.7399 12.33C15.8199 11.14 14.4799 10.34 12.9999 10.09V5.40999L15.2899 7.70999C15.3799 7.79999 15.4899 7.87999 15.6199 7.92999C15.7399 7.97999 15.8699 8.00999 15.9999 8.00999C16.1299 8.00999 16.2599 7.97999 16.3799 7.92999C16.4999 7.87999 16.6099 7.79999 16.7099 7.70999C16.7999 7.61999 16.8799 7.50999 16.9299 7.37999C16.9799 7.25999 17.0099 7.12999 17.0099 6.99999C17.0099 6.86999 16.9799 6.73999 16.9299 6.61999C16.8799 6.49999 16.7999 6.38999 16.7099 6.28999L12.7099 2.28999C12.6199 2.19999 12.5099 2.11999 12.3799 2.06999C12.2599 2.01999 12.1299 1.98999 11.9999 1.98999C11.8699 1.98999 11.7399 2.01999 11.6199 2.06999C11.4999 2.11999 11.3899 2.19999 11.2899 2.28999L7.28987 6.28999C7.19987 6.37999 7.11987 6.48999 7.06987 6.61999C7.01987 6.74999 6.98987 6.86999 6.98987 6.99999C6.98987 7.12999 7.01987 7.25999 7.06987 7.37999C7.11987 7.49999 7.18987 7.60999 7.28987 7.70999C7.37987 7.79999 7.48987 7.87999 7.61987 7.92999C7.73987 7.97999 7.86987 8.00999 7.99987 8.00999C8.12987 8.00999 8.25987 7.97999 8.37987 7.92999C8.49987 7.87999 8.60987 7.80999 8.70987 7.70999L10.9999 5.40999V10.09C9.51987 10.34 8.17987 11.14 7.25987 12.33C6.33987 13.52 5.89987 15.01 6.01987 16.51C6.14987 18.01 6.82987 19.41 7.93987 20.42C9.04987 21.44 10.4999 22 11.9999 22C13.4999 22 14.9499 21.43 16.0599 20.42C17.1699 19.4 17.8499 18 17.9799 16.51C18.1099 15.01 17.6599 13.52 16.7399 12.33ZM14.8299 18.83C14.0799 19.58 13.0599 20 11.9999 20C11.2099 20 10.4399 19.77 9.77987 19.33C9.11987 18.89 8.60987 18.27 8.30987 17.53C8.00987 16.8 7.92987 15.99 8.07987 15.22C8.22987 14.44 8.61987 13.73 9.16987 13.17C9.71987 12.61 10.4399 12.23 11.2199 12.08C11.9999 11.93 12.7999 12 13.5299 12.31C14.2599 12.61 14.8899 13.13 15.3299 13.78C15.7699 14.44 15.9999 15.21 15.9999 16C15.9999 17.06 15.5799 18.08 14.8299 18.83ZM13.6499 14.38C13.5399 14.26 13.4099 14.17 13.2599 14.1C13.1099 14.04 12.9599 14 12.7999 14C12.4999 14.01 12.2199 14.13 11.9999 14.34C11.7799 14.13 11.4999 14.01 11.1999 14C11.0399 14 10.8799 14.03 10.7399 14.1C10.5899 14.16 10.4599 14.26 10.3499 14.38C10.2399 14.5 10.1499 14.64 10.0899 14.8C10.0299 14.96 9.99987 15.12 9.99987 15.29C9.99987 16.08 10.5799 16.8 11.5899 17.78L11.6999 17.88C11.7799 17.96 11.8899 18 11.9999 18C12.1099 18 12.2199 17.96 12.2999 17.88L12.4099 17.78C13.4199 16.8 13.9999 16.08 13.9999 15.29C13.9999 15.12 13.9699 14.96 13.9099 14.8C13.8499 14.64 13.7599 14.5 13.6499 14.38Z" fill="#141414"/>
</svg>
