<svg width="24" height="24" viewBox="0 0 24 24" fill="none" xmlns="http://www.w3.org/2000/svg">
<path d="M17.12 2.88C16.56 2.32 15.79 2 15 2H9C8.2 2 7.44 2.32 6.88 2.88C6.32 3.44 6 4.21 6 5V19C6 19.8 6.32 20.56 6.88 21.12C7.44 21.68 8.21 22 9 22H15C15.8 22 16.56 21.68 17.12 21.12C17.68 20.56 18 19.79 18 19V5C18 4.2 17.68 3.44 17.12 2.88ZM12.88 19.64C12.65 19.87 12.33 20.01 12 20.01C11.75 20.01 11.51 19.94 11.31 19.8C11.1 19.66 10.94 19.47 10.85 19.24C10.76 19.01 10.73 18.76 10.78 18.52C10.83 18.28 10.95 18.05 11.12 17.88C11.29 17.71 11.52 17.59 11.76 17.54C12 17.49 12.25 17.52 12.48 17.61C12.71 17.7 12.9 17.86 13.04 18.07C13.18 18.28 13.25 18.52 13.25 18.76C13.25 19.09 13.12 19.41 12.88 19.64ZM14.7 12.7L12.7 14.7C12.61 14.79 12.5 14.87 12.37 14.92C12.25 14.97 12.12 15 11.99 15C11.86 15 11.73 14.97 11.61 14.92C11.49 14.87 11.38 14.8 11.28 14.7L9.28 12.7C8.89 12.31 8.89 11.68 9.28 11.29C9.67 10.9 10.3 10.9 10.69 11.29L10.98 11.58V4.99C10.98 4.44 11.43 3.99 11.98 3.99C12.53 3.99 12.98 4.44 12.98 4.99V11.58L13.27 11.29C13.66 10.9 14.29 10.9 14.68 11.29C15.07 11.68 15.07 12.31 14.68 12.7H14.7Z" fill="#141414"/>
</svg>
