<svg width="24" height="24" viewBox="0 0 24 24" fill="none" xmlns="http://www.w3.org/2000/svg">
<path d="M17.7897 6.7132C17.7977 7.00903 17.7097 7.30486 17.5338 7.54473C17.3579 7.7846 17.1021 7.9605 16.8222 8.04045L13.1443 9.03989V16.6756C13.1443 17.3312 12.9524 17.9709 12.5846 18.5226C12.2168 19.0663 11.6971 19.498 11.0974 19.7459C10.4898 19.9938 9.82614 20.0657 9.1785 19.9378C8.53086 19.8099 7.93919 19.49 7.47545 19.0263C7.01171 18.5626 6.69189 17.9709 6.56396 17.3232C6.43604 16.6756 6.5 16.012 6.75586 15.4043C7.00372 14.7967 7.43548 14.277 7.97917 13.9172C8.52287 13.5494 9.1705 13.3575 9.82614 13.3575C10.05 13.3575 10.2739 13.3815 10.4898 13.4214V6.7132C10.4818 6.41736 10.5697 6.12153 10.7456 5.88166C10.9215 5.6418 11.1774 5.4659 11.4572 5.38594L16.1026 4.05069C16.3025 3.99472 16.5024 3.98672 16.7023 4.01871C16.9022 4.05868 17.0941 4.13864 17.254 4.25857C17.4219 4.3785 17.5498 4.54641 17.6458 4.73031C17.7417 4.9142 17.7897 5.12209 17.7897 5.32198V6.7132Z" fill="#141414"/>
</svg>
