<svg width="24" height="24" viewBox="0 0 24 24" fill="none" xmlns="http://www.w3.org/2000/svg">
<path d="M15.0001 17.9999H9.00009C8.73009 17.9999 8.48009 18.1099 8.29009 18.2899C8.10009 18.4799 8.00009 18.7299 8.00009 18.9999C8.00009 19.2699 8.11009 19.5199 8.29009 19.7099C8.48009 19.8999 8.73009 19.9999 9.00009 19.9999H15.0001C15.2701 19.9999 15.5201 19.8899 15.7101 19.7099C15.9001 19.5299 16.0001 19.2699 16.0001 18.9999C16.0001 18.7299 15.8901 18.4799 15.7101 18.2899C15.5301 18.0999 15.2701 17.9999 15.0001 17.9999ZM18.0001 13.9999H15.8301C16.8601 13.0299 17.6101 11.7599 17.9001 10.3099C18.4601 7.44989 17.2001 4.67989 14.9501 3.15989C14.2101 2.65989 13.2901 3.36989 13.4601 4.23989C13.6401 5.16989 13.6001 6.16989 13.2901 7.15989C12.5601 9.51989 10.3501 11.2299 7.88009 11.3499C7.29009 11.3799 6.73009 11.3199 6.20009 11.1999C5.32009 10.9899 4.69009 12.0199 5.18009 12.7799C5.47009 13.2199 5.81009 13.6299 6.19009 13.9899H6.01009C5.46009 13.9899 5.01009 14.4399 5.01009 14.9899C5.01009 15.5399 5.46009 15.9899 6.01009 15.9899H18.0101C18.5601 15.9899 19.0101 15.5399 19.0101 14.9899C19.0101 14.4399 18.5601 13.9899 18.0101 13.9899L18.0001 13.9999Z" fill="#141414"/>
</svg>
