<svg width="24" height="24" viewBox="0 0 24 24" fill="none" xmlns="http://www.w3.org/2000/svg">
<path d="M15 20H9C8.73 20 8.48 20.11 8.29 20.29C8.1 20.48 8 20.73 8 21C8 21.27 8.11 21.52 8.29 21.71C8.48 21.9 8.73 22 9 22H15C15.27 22 15.52 21.89 15.71 21.71C15.9 21.53 16 21.27 16 21C16 20.73 15.89 20.48 15.71 20.29C15.53 20.1 15.27 20 15 20ZM12 15C12.25 15 12.5 14.96 12.74 14.89C12.27 14.03 12 13.05 12 12C12 9.78 13.21 7.85 15 6.81V5C15 4.2 14.68 3.44 14.12 2.88C13.56 2.32 12.79 2 12 2C11.21 2 10.44 2.32 9.88 2.88C9.32 3.44 9 4.21 9 5V12C9 12.8 9.32 13.56 9.88 14.12C10.44 14.68 11.21 15 12 15ZM12 17C10.67 17 9.4 16.47 8.46 15.54C7.52 14.6 7 13.33 7 12V11C7 10.73 6.89 10.48 6.71 10.29C6.52 10.1 6.27 10 6 10C5.73 10 5.48 10.11 5.29 10.29C5.1 10.48 5 10.73 5 11V12C5 13.86 5.74 15.64 7.05 16.95C8.36 18.26 10.14 19 12 19C13.47 19 14.9 18.53 16.08 17.68C15.34 17.43 14.66 17.04 14.08 16.53C13.43 16.83 12.73 17 12 17ZM14 12C14 14.21 15.79 16 18 16C18.74 16 19.43 15.79 20.02 15.43L14.57 9.98C14.22 10.57 14 11.26 14 12ZM18 8C17.26 8 16.57 8.21 15.98 8.57L21.43 14.02C21.78 13.43 22 12.74 22 12C22 9.79 20.21 8 18 8Z" fill="#141414"/>
</svg>
