<svg width="22" height="24" viewBox="0 0 22 24" fill="none" xmlns="http://www.w3.org/2000/svg">
<path d="M18.5776 14.2669V9.77233C19.528 9.22783 19.8547 8.02003 19.3102 7.06963C18.7657 6.11923 17.5579 5.80243 16.6075 6.34693L12.7168 4.09963C12.7168 3.01063 11.8258 2.11963 10.7368 2.11963C9.64785 2.11963 8.75685 3.01063 8.75685 4.09963L4.87605 6.33703C4.87605 6.33703 4.87605 6.33703 4.86615 6.33703C3.91575 5.79253 2.70795 6.11923 2.16345 7.05973C1.61895 8.01013 1.94565 9.21793 2.88615 9.76243C2.88615 9.76243 2.89605 9.76243 2.90595 9.76243V14.2372C2.90595 14.2372 2.88615 14.2372 2.87625 14.2372C1.92585 14.7817 1.60905 15.9994 2.15355 16.9399C2.69805 17.8903 3.91575 18.2071 4.85625 17.6626L8.72715 19.9099C8.72715 19.9099 8.72715 19.9198 8.72715 19.9297C8.72715 21.0187 9.61815 21.9097 10.7071 21.9097C11.7961 21.9097 12.6871 21.0286 12.6871 19.9297L16.5778 17.6923C17.5282 18.2368 18.736 17.9101 19.2805 16.9696C19.825 16.0291 19.5082 14.8213 18.5677 14.2669H18.5776ZM4.87605 9.75253L7.81635 11.4553C7.78665 11.6335 7.75695 11.8117 7.75695 11.9998C7.75695 12.1879 7.77675 12.3463 7.80645 12.5146L4.85625 14.2174V9.75253H4.87605ZM9.74685 18.1972L5.84625 15.94L8.79645 14.2372C9.07365 14.4748 9.39045 14.6629 9.73695 14.7916V18.2071L9.74685 18.1972ZM9.74685 9.20803C9.40035 9.32683 9.09345 9.51493 8.82615 9.74263L5.86605 8.03983L9.74685 5.81233V9.21793V9.20803ZM11.7268 5.79253L15.5878 8.02993L12.6376 9.73273C12.3703 9.50503 12.0634 9.32683 11.7268 9.20803V5.79253ZM15.6076 15.9598L11.7268 18.1873V14.7817C12.0733 14.6629 12.3901 14.4748 12.6574 14.2372L15.6076 15.94C15.6076 15.94 15.6076 15.94 15.6076 15.9499V15.9598ZM16.5976 14.2372L13.6573 12.5344C13.687 12.3562 13.7068 12.1879 13.7068 11.9998C13.7068 11.8117 13.687 11.6236 13.6474 11.4355L16.5778 9.74263C16.5778 9.74263 16.5877 9.74263 16.5976 9.75253V14.2372Z" fill="#141414"/>
</svg>
