<svg width="24" height="24" viewBox="0 0 24 24" fill="none" xmlns="http://www.w3.org/2000/svg">
<path d="M6.25 15.5C5.56 15.5 5 16.06 5 16.75C5 17.44 5.56 18 6.25 18C6.94 18 7.5 17.44 7.5 16.75C7.5 16.06 6.94 15.5 6.25 15.5ZM4.75 18.5C4.06 18.5 3.5 19.06 3.5 19.75C3.5 20.44 4.06 21 4.75 21C5.44 21 6 20.44 6 19.75C6 19.06 5.44 18.5 4.75 18.5ZM18.25 15.5C17.56 15.5 17 16.06 17 16.75C17 17.44 17.56 18 18.25 18C18.94 18 19.5 17.44 19.5 16.75C19.5 16.06 18.94 15.5 18.25 15.5ZM16.75 18.5C16.06 18.5 15.5 19.06 15.5 19.75C15.5 20.44 16.06 21 16.75 21C17.44 21 18 20.44 18 19.75C18 19.06 17.44 18.5 16.75 18.5ZM19.44 8.38C19.47 8.17 19.5 7.96 19.5 7.75C19.5 5.13 17.37 3 14.75 3C13.11 3 11.67 3.83 10.82 5.09C10.56 5.03 10.28 5 10 5C8.13 5 6.58 6.28 6.14 8.01C6.09 8.01 6.05 8 6 8C4.34 8 3 9.34 3 11C3 12.66 4.34 14 6 14H18C19.66 14 21 12.66 21 11C21 9.87 20.36 8.89 19.44 8.38ZM11 15.63C10.52 15.35 9.91 15.52 9.63 16L7.63 19.46C7.35 19.94 7.52 20.55 8 20.83C8.48 21.11 9.09 20.94 9.37 20.46L11.37 17C11.65 16.52 11.48 15.91 11 15.63ZM15 15.63C14.52 15.35 13.91 15.52 13.63 16L11.63 19.46C11.35 19.94 11.52 20.55 12 20.83C12.48 21.11 13.09 20.94 13.37 20.46L15.37 17C15.65 16.52 15.48 15.91 15 15.63Z" fill="#141414"/>
</svg>
