<svg width="24" height="24" viewBox="0 0 24 24" fill="none" xmlns="http://www.w3.org/2000/svg">
<path d="M8.04989 14.9601C6.38989 15.1701 4.80989 14.8701 3.44989 14.1901C2.57989 13.7501 1.67989 14.6801 2.10989 15.5401C2.81989 16.9501 3.85989 18.1601 5.10989 19.0901C5.38989 17.9101 6.18989 16.9201 7.25989 16.4001C7.43989 15.8701 7.70989 15.3901 8.03989 14.9601H8.04989ZM13.6599 11.4901C14.3899 11.1701 15.1899 11.0001 15.9999 11.0001C17.8999 11.0001 19.6399 11.9201 20.7499 13.3701C20.8799 12.8401 20.9699 12.2901 21.0099 11.7301C21.2899 7.5401 18.9899 3.8601 15.5299 2.1201C14.6599 1.6801 13.7399 2.5901 14.1799 3.4601C14.8899 4.8701 15.1999 6.5101 14.9399 8.2501C14.7699 9.4401 14.2999 10.5401 13.6499 11.5001L13.6599 11.4901ZM19.9099 16.1501C19.5199 14.3501 17.9199 13.0001 15.9999 13.0001C14.4999 13.0001 13.2099 13.8301 12.5299 15.0501C12.3599 15.0201 12.1799 15.0001 11.9999 15.0001C10.3399 15.0001 8.99989 16.3401 8.99989 18.0001C7.89989 18.0001 6.99989 18.9001 6.99989 20.0001C6.99989 21.1001 7.89989 22.0001 8.99989 22.0001H18.9999C20.6599 22.0001 21.9999 20.6601 21.9999 19.0001C21.9999 17.6601 21.1199 16.5401 19.9099 16.1501Z" fill="#141414"/>
</svg>
