<svg width="24" height="24" viewBox="0 0 24 24" fill="none" xmlns="http://www.w3.org/2000/svg">
<path d="M21.95 10.98C21.88 10.31 21.75 9.66 21.55 9.03C21.45 8.72 21.34 8.41 21.21 8.11C21 7.62 20.75 7.17 20.48 6.72C20.09 6.1 19.64 5.51 19.13 4.99C19.11 4.97 19.09 4.95 19.07 4.93C19.05 4.91 19.03 4.89 19.01 4.87C18.49 4.36 17.91 3.91 17.28 3.52C16.84 3.24 16.38 2.99 15.89 2.79C15.59 2.66 15.28 2.55 14.97 2.45C14.34 2.26 13.69 2.12 13.02 2.05C12.68 2.02 12.34 2 12 2C6.48 2 2 6.48 2 12C2 17.52 6.48 22 12 22C12.35 22 12.69 21.98 13.02 21.95C13.69 21.88 14.34 21.75 14.97 21.55C15.6 21.35 16.2 21.1 16.76 20.79C17.89 20.17 18.89 19.35 19.71 18.36C19.91 18.11 20.11 17.86 20.29 17.59C20.65 17.06 20.96 16.49 21.21 15.89C21.72 14.69 22 13.38 22 12C22 11.65 21.98 11.31 21.95 10.98ZM4 12C4 7.59 7.59 4 12 4V20C7.59 20 4 16.41 4 12Z" fill="#141414"/>
</svg>
