<svg width="24" height="24" viewBox="0 0 24 24" fill="none" xmlns="http://www.w3.org/2000/svg">
<path d="M16.49 12C18.423 12 19.99 10.433 19.99 8.5C19.99 6.567 18.423 5 16.49 5C14.557 5 12.99 6.567 12.99 8.5C12.99 10.433 14.557 12 16.49 12Z" fill="#141414"/>
<path d="M19.71 14.89C19.32 14.49 18.69 14.49 18.3 14.89L15.77 17.42C15.39 17.8 14.89 18.01 14.36 18.01H11.01C10.46 18.01 10.01 17.56 10.01 17.01C10.01 16.46 10.46 16.01 11.01 16.01H13.01C13.56 16.01 14.01 15.56 14.01 15.01C14.01 14.46 13.56 14.01 13.01 14.01H9.01001C7.91001 14.01 7.01001 14.91 7.01001 16.01H5.01001C4.46001 16.01 4.01001 16.46 4.01001 17.01V19.01C4.01001 19.56 4.46001 20.01 5.01001 20.01H14.36C15.43 20.01 16.43 19.59 17.19 18.84L19.72 16.31C20.11 15.92 20.11 15.29 19.72 14.9L19.71 14.89Z" fill="#141414"/>
</svg>
