<svg width="24" height="24" viewBox="0 0 24 24" fill="none" xmlns="http://www.w3.org/2000/svg">
<path d="M15 2H9C7.33998 2 6 3.34 6 5V19C6 20.66 7.33998 22 9 22H15C16.66 22 18 20.66 18 19V5C18 3.34 16.66 2 15 2ZM9 20C8.44998 20 7.99998 19.55 7.99998 19C7.99998 18.45 8.44998 18 9 18C9.55002 18 10 18.45 10 19C10 19.55 9.55002 20 9 20ZM9 17C8.44998 17 7.99998 16.55 7.99998 16C7.99998 15.45 8.44998 15 9 15C9.55002 15 10 15.45 10 16C10 16.55 9.55002 17 9 17ZM12 20C11.45 20 11 19.55 11 19C11 18.45 11.45 18 12 18C12.55 18 13 18.45 13 19C13 19.55 12.55 20 12 20ZM12 17C11.45 17 11 16.55 11 16C11 15.45 11.45 15 12 15C12.55 15 13 15.45 13 16C13 16.55 12.55 17 12 17ZM15 20C14.45 20 14 19.55 14 19C14 18.45 14.45 18 15 18C15.55 18 16 18.45 16 19C16 19.55 15.55 20 15 20ZM15 17C14.45 17 14 16.55 14 16C14 15.45 14.45 15 15 15C15.55 15 16 15.45 16 16C16 16.55 15.55 17 15 17ZM16 12C16 12.55 15.55 13 15 13H9C8.44998 13 7.99998 12.55 7.99998 12V5C7.99998 4.45 8.44998 4 9 4H15C15.55 4 16 4.45 16 5V12Z" fill="#141414"/>
</svg>
