<svg width="24" height="24" viewBox="0 0 24 24" fill="none" xmlns="http://www.w3.org/2000/svg">
<path d="M12 15C13.6569 15 15 13.6569 15 12C15 10.3431 13.6569 9 12 9C10.3431 9 9 10.3431 9 12C9 13.6569 10.3431 15 12 15Z" fill="#141414"/>
<path d="M6 19C5.74 19 5.49 18.9 5.29 18.71C4.9 18.32 4.9 17.69 5.29 17.3L16.79 5.8C17.18 5.41 17.81 5.41 18.2 5.8C18.59 6.19 18.59 6.82 18.2 7.21L6.7 18.71C6.5 18.91 6.25 19 5.99 19H6Z" fill="#141414"/>
<path d="M18 9C19.6569 9 21 7.65685 21 6C21 4.34315 19.6569 3 18 3C16.3431 3 15 4.34315 15 6C15 7.65685 16.3431 9 18 9Z" fill="#141414"/>
<path d="M6 21C7.65685 21 9 19.6569 9 18C9 16.3431 7.65685 15 6 15C4.34315 15 3 16.3431 3 18C3 19.6569 4.34315 21 6 21Z" fill="#141414"/>
<path d="M18 15C17.41 15 16.86 15.18 16.39 15.48L8.52 7.61C8.82 7.14 9 6.59 9 6C9 4.34 7.66 3 6 3C4.34 3 3 4.34 3 6C3 7.66 4.34 9 6 9C6.33 9 6.63 8.94 6.93 8.84L15.17 17.08C15.07 17.37 15.01 17.68 15.01 18.01C15.01 19.67 16.35 21.01 18.01 21.01C19.67 21.01 21.01 19.67 21.01 18.01C21.01 16.35 19.67 15.01 18.01 15.01L18 15Z" fill="#141414"/>
</svg>
