<svg width="24" height="24" viewBox="0 0 24 24" fill="none" xmlns="http://www.w3.org/2000/svg">
<path d="M20.1901 11.8001C19.8501 10.2001 18.4701 9.00008 16.8001 9.00008C15.5001 9.00008 14.3801 9.74008 13.7901 10.8201C13.6401 10.7901 13.4901 10.7701 13.3301 10.7701C11.8901 10.7701 10.7301 11.9601 10.7301 13.4401C9.77013 13.4401 9.00013 14.2401 9.00013 15.2201C9.00013 16.2001 9.78013 17.0001 10.7301 17.0001H19.4001C20.8401 17.0001 22.0001 15.8101 22.0001 14.3301C22.0001 13.1401 21.2301 12.1401 20.1901 11.8001ZM10.2001 18.4001L8.70013 20.4001C8.37013 20.8401 8.46013 21.4701 8.90013 21.8001C9.08013 21.9301 9.29013 22.0001 9.50013 22.0001C9.80013 22.0001 10.1001 21.8601 10.3001 21.6001L11.8001 19.6001C12.1301 19.1601 12.0401 18.5301 11.6001 18.2001C11.1601 17.8701 10.5301 17.9601 10.2001 18.4001ZM14.2001 18.4001L12.7001 20.4001C12.3701 20.8401 12.4601 21.4701 12.9001 21.8001C13.0801 21.9301 13.2901 22.0001 13.5001 22.0001C13.8001 22.0001 14.1001 21.8601 14.3001 21.6001L15.8001 19.6001C16.1301 19.1601 16.0401 18.5301 15.6001 18.2001C15.1601 17.8701 14.5301 17.9601 14.2001 18.4001ZM18.2001 18.4001L16.7001 20.4001C16.3701 20.8401 16.4601 21.4701 16.9001 21.8001C17.0801 21.9301 17.2901 22.0001 17.5001 22.0001C17.8001 22.0001 18.1001 21.8601 18.3001 21.6001L19.8001 19.6001C20.1301 19.1601 20.0401 18.5301 19.6001 18.2001C19.1601 17.8701 18.5301 17.9601 18.2001 18.4001ZM12.7801 8.81009C13.1201 8.43009 13.5101 8.11008 13.9301 7.85008C14.0801 5.54008 13.0301 3.47009 11.3501 2.20009C10.6101 1.64009 9.52013 2.37009 9.80013 3.26008C10.1801 4.49009 10.1101 5.91008 9.42013 7.35008C8.99013 8.24008 8.26013 8.97008 7.37013 9.40008C5.93013 10.1001 4.51013 10.1601 3.28013 9.78008C2.39013 9.51008 1.65013 10.5901 2.22013 11.3301C3.38013 12.8701 5.20013 13.8701 7.26013 13.9201C7.58013 13.0301 8.21013 12.3001 9.03013 11.8601C9.61013 10.2201 11.0601 9.01008 12.8101 8.79008L12.7801 8.81009Z" fill="#141414"/>
</svg>
