<svg width="24" height="24" viewBox="0 0 24 24" fill="none" xmlns="http://www.w3.org/2000/svg">
<path d="M20.4901 18.0701C20.4901 18.0701 20.4901 18.0201 20.4901 18.0001C20.4901 16.6201 19.3701 15.5001 17.9901 15.5001C17.1201 15.5001 16.3601 15.9401 15.9101 16.6101C15.7001 16.5401 15.4701 16.5001 15.2401 16.5001C14.0001 16.5001 12.9901 17.5101 12.9901 18.7501C12.9901 18.8401 13.0101 18.9201 13.0201 19.0001C13.0201 19.0001 13.0001 19.0001 12.9901 19.0001C12.1601 19.0001 11.4901 19.6701 11.4901 20.5001C11.4901 21.3301 12.1601 22.0001 12.9901 22.0001H19.9901C21.0901 22.0001 21.9901 21.1001 21.9901 20.0001C21.9901 19.0701 21.3501 18.2901 20.4801 18.0701H20.4901ZM15.1701 14.5001C15.9601 13.8601 16.9501 13.5001 18.0001 13.5001C18.9101 13.5001 19.7501 13.7801 20.4601 14.2501C20.7401 13.4501 20.9201 12.6001 20.9801 11.7301C21.2601 7.5401 18.9601 3.8601 15.5001 2.1201C14.6301 1.6801 13.7101 2.5901 14.1501 3.4601C14.8601 4.8701 15.1701 6.5101 14.9101 8.2501C14.4101 11.6801 11.6301 14.4501 8.21011 14.9501C6.47011 15.2101 4.83011 14.9001 3.42011 14.1901C2.55011 13.7501 1.65011 14.6801 2.08011 15.5401C3.52011 18.3901 6.27011 20.4501 9.54011 20.9301C9.52011 20.7901 9.50011 20.6501 9.50011 20.5101C9.50011 19.2401 10.1801 18.1301 11.1901 17.5201C11.7101 15.8001 13.3001 14.5501 15.1801 14.5101L15.1701 14.5001Z" fill="#141414"/>
</svg>
