<svg width="24" height="24" viewBox="0 0 24 24" fill="none" xmlns="http://www.w3.org/2000/svg">
<path d="M21.12 2.88C20.56 2.32 19.79 2 19 2H11C10.2 2 9.44 2.32 8.88 2.88C8.32 3.44 8 4.21 8 5V6H13C14.33 6 15.6 6.53 16.54 7.46C17.48 8.4 18 9.67 18 11V16H19C19.8 16 20.56 15.68 21.12 15.12C21.68 14.56 22 13.79 22 13V5C22 4.2 21.68 3.44 21.12 2.88ZM13 8H5C4.2 8 3.44 8.32 2.88 8.88C2.32 9.44 2 10.21 2 11V19C2 19.8 2.32 20.56 2.88 21.12C3.44 21.68 4.21 22 5 22H13C13.8 22 14.56 21.68 15.12 21.12C15.68 20.56 16 19.79 16 19V11C16 10.2 15.68 9.44 15.12 8.88C14.56 8.32 13.79 8 13 8ZM12 16H10V18C10 18.55 9.55 19 9 19C8.45 19 8 18.55 8 18V16H6C5.45 16 5 15.55 5 15C5 14.45 5.45 14 6 14H8V12C8 11.45 8.45 11 9 11C9.55 11 10 11.45 10 12V14H12C12.55 14 13 14.45 13 15C13 15.55 12.55 16 12 16Z" fill="#141414"/>
</svg>
