<svg width="24" height="24" viewBox="0 0 24 24" fill="none" xmlns="http://www.w3.org/2000/svg">
<path d="M21 19C20.25 19 19.92 18.7 19.41 18.25C18.82 17.72 18 17 16.5 17C15 17 14.18 17.72 13.59 18.25C13.08 18.7 12.75 19 12 19C11.25 19 10.92 18.7 10.41 18.25C9.82 17.72 9 17 7.5 17C6 17 5.18 17.72 4.59 18.25C4.08 18.7 3.75 19 3 19C2.45 19 2 19.45 2 20C2 20.55 2.45 21 3 21C4.5 21 5.32 20.28 5.91 19.75C6.42 19.3 6.75 19 7.5 19C8.25 19 8.58 19.3 9.09 19.75C9.68 20.28 10.5 21 12 21C13.5 21 14.32 20.28 14.91 19.75C15.42 19.3 15.75 19 16.5 19C17.25 19 17.58 19.3 18.09 19.75C18.68 20.28 19.5 21 21 21C21.55 21 22 20.55 22 20C22 19.45 21.55 19 21 19ZM12 15C11.45 15 11 15.45 11 16C11 16.55 11.45 17 12 17C13.35 17 14.2 16.32 14.87 15.78C15.49 15.28 15.88 15 16.5 15C17.12 15 17.5 15.28 18.13 15.78C18.81 16.32 19.65 17 21 17C21.55 17 22 16.55 22 16C22 15.45 21.55 15 21 15C20.38 15 20 14.72 19.37 14.22C18.69 13.68 17.85 13 16.5 13C15.15 13 14.3 13.68 13.63 14.22C13.01 14.72 12.62 15 12 15ZM9 15.98C9.01 14.36 10.31 13.04 11.92 13C12.04 12.92 12.27 12.74 12.37 12.66C13.02 12.14 14.05 11.33 15.57 11.08C15.79 10.47 15.93 9.82002 15.97 9.15002C16.16 6.40002 14.82 3.95002 12.73 2.54002C11.93 2.01002 10.89 2.79002 11.22 3.69002C11.58 4.68002 11.68 5.79002 11.45 6.95002C10.99 9.19002 9.18 11 6.94 11.46C5.78 11.7 4.67 11.6 3.68 11.23C2.8 10.91 1.99 11.92 2.51 12.71C3.89 14.78 6.29 16.11 8.99 15.99L9 15.98Z" fill="#141414"/>
</svg>
