<svg width="24" height="24" viewBox="0 0 24 24" fill="none" xmlns="http://www.w3.org/2000/svg">
<path d="M15.1699 14.5001C15.9599 13.8601 16.9499 13.5001 17.9999 13.5001C18.9199 13.5001 19.7699 13.7901 20.4899 14.2701C20.7699 13.4601 20.9499 12.6101 21.0099 11.7301C21.2899 7.5401 18.9899 3.8601 15.5299 2.1201C14.6599 1.6801 13.7399 2.5901 14.1799 3.4601C14.8899 4.8701 15.1999 6.5101 14.9399 8.2501C14.4399 11.6801 11.6599 14.4501 8.23989 14.9501C6.49989 15.2101 4.85989 14.9001 3.44989 14.1901C2.57989 13.7501 1.67989 14.6801 2.10989 15.5401C3.53989 18.3801 6.27989 20.4401 9.53989 20.9201C9.51989 20.7801 9.49989 20.6401 9.49989 20.5001C9.49989 19.2301 10.1799 18.1201 11.1899 17.5101C11.7099 15.7901 13.2999 14.5401 15.1799 14.5001H15.1699ZM20.4899 18.0701C20.4899 18.0701 20.4899 18.0201 20.4899 18.0001C20.4899 16.6201 19.3699 15.5001 17.9899 15.5001C17.1199 15.5001 16.3599 15.9401 15.9099 16.6101C15.6999 16.5401 15.4699 16.5001 15.2399 16.5001C13.9999 16.5001 12.9899 17.5101 12.9899 18.7501C12.9899 18.8401 13.0099 18.9201 13.0199 19.0001C13.0199 19.0001 12.9999 19.0001 12.9899 19.0001C12.1599 19.0001 11.4899 19.6701 11.4899 20.5001C11.4899 21.3301 12.1599 22.0001 12.9899 22.0001H19.9899C21.0899 22.0001 21.9899 21.1001 21.9899 20.0001C21.9899 19.0701 21.3499 18.2901 20.4799 18.0701H20.4899ZM4.34989 12.4001C5.00989 12.7301 5.71989 12.9301 6.44989 13.0001H7.47989C7.63989 12.9901 7.78989 12.9901 7.94989 12.9701C10.3699 12.6201 12.3799 10.6701 12.8899 8.2901C12.5799 7.2601 11.6399 6.5001 10.4999 6.5001C9.62989 6.5001 8.86989 6.9401 8.41989 7.6101C8.20989 7.5401 7.97989 7.5001 7.74989 7.5001C6.50989 7.5001 5.49989 8.5101 5.49989 9.7501C5.49989 9.8401 5.51989 9.9201 5.52989 10.0001C5.52989 10.0001 5.50989 10.0001 5.49989 10.0001C4.66989 10.0001 3.99989 10.6701 3.99989 11.5001C3.99989 11.8301 4.10989 12.1301 4.27989 12.3701C4.29989 12.3801 4.32989 12.3801 4.34989 12.4001Z" fill="#141414"/>
</svg>
