<svg width="24" height="24" viewBox="0 0 24 24" fill="none" xmlns="http://www.w3.org/2000/svg">
<path d="M19.77 10.5099C19.36 8.50989 17.65 6.99989 15.6 6.99989C14 6.99989 12.63 7.92989 11.89 9.27989C11.71 9.24989 11.52 9.21989 11.33 9.21989C9.56001 9.21989 8.13001 10.7099 8.13001 12.5499C6.95001 12.5499 6.00001 13.5399 6.00001 14.7699C6.00001 15.9999 6.96001 16.9899 8.13001 16.9899H18.8C20.57 16.9899 22 15.4999 22 13.6599C22 12.1699 21.06 10.9299 19.77 10.4999V10.5099ZM8.71001 18.2999C8.32001 17.9099 7.69001 17.9099 7.30001 18.2999L7.01001 18.5899L6.72001 18.2999C6.33001 17.9099 5.70001 17.9099 5.31001 18.2999C4.92001 18.6899 4.92001 19.3199 5.31001 19.7099L5.60001 19.9999L5.31001 20.2899C4.92001 20.6799 4.92001 21.3099 5.31001 21.6999C5.51001 21.8999 5.76001 21.9899 6.02001 21.9899C6.28001 21.9899 6.53001 21.8899 6.73001 21.6999L7.02001 21.4099L7.31001 21.6999C7.51 21.8999 7.76001 21.9899 8.02001 21.9899C8.28001 21.9899 8.53 21.8899 8.73 21.6999C9.12 21.3099 9.12 20.6799 8.73 20.2899L8.44 19.9999L8.73 19.7099C9.12 19.3199 9.12 18.6899 8.73 18.2999H8.71001ZM14.71 18.2999C14.32 17.9099 13.69 17.9099 13.3 18.2999L13.01 18.5899L12.72 18.2999C12.33 17.9099 11.7 17.9099 11.31 18.2999C10.92 18.6899 10.92 19.3199 11.31 19.7099L11.6 19.9999L11.31 20.2899C10.92 20.6799 10.92 21.3099 11.31 21.6999C11.51 21.8999 11.76 21.9899 12.02 21.9899C12.28 21.9899 12.53 21.8899 12.73 21.6999L13.02 21.4099L13.31 21.6999C13.51 21.8999 13.76 21.9899 14.02 21.9899C14.28 21.9899 14.53 21.8899 14.73 21.6999C15.12 21.3099 15.12 20.6799 14.73 20.2899L14.44 19.9999L14.73 19.7099C15.12 19.3199 15.12 18.6899 14.73 18.2999H14.71ZM20.71 18.2999C20.32 17.9099 19.69 17.9099 19.3 18.2999L19.01 18.5899L18.72 18.2999C18.33 17.9099 17.7 17.9099 17.31 18.2999C16.92 18.6899 16.92 19.3199 17.31 19.7099L17.6 19.9999L17.31 20.2899C16.92 20.6799 16.92 21.3099 17.31 21.6999C17.51 21.8999 17.76 21.9899 18.02 21.9899C18.28 21.9899 18.53 21.8899 18.73 21.6999L19.02 21.4099L19.31 21.6999C19.51 21.8999 19.76 21.9899 20.02 21.9899C20.28 21.9899 20.53 21.8899 20.73 21.6999C21.12 21.3099 21.12 20.6799 20.73 20.2899L20.44 19.9999L20.73 19.7099C21.12 19.3199 21.12 18.6899 20.73 18.2999H20.71ZM6.37001 10.9699C6.99001 8.94989 8.75001 7.44989 10.87 7.24989C11.32 6.71989 11.84 6.26989 12.42 5.90989C12.19 4.38989 11.39 3.05989 10.21 2.17989C9.56001 1.68989 8.61001 2.32989 8.85001 3.11989C9.18001 4.19989 9.13001 5.44989 8.51001 6.71989C8.13001 7.50989 7.49001 8.13989 6.70001 8.52989C5.43001 9.13989 4.18001 9.19989 3.10001 8.86989C2.32001 8.62989 1.67001 9.57989 2.16001 10.2299C2.84001 11.1299 3.79001 11.8099 4.88001 12.1899C5.27001 11.6799 5.78001 11.2599 6.36001 10.9799L6.37001 10.9699Z" fill="#141414"/>
</svg>
