<svg width="24" height="24" viewBox="0 0 24 24" fill="none" xmlns="http://www.w3.org/2000/svg">
<path d="M21.24 8.17C20.87 7.27 20.37 6.44 19.76 5.69L21.01 4.44C21.41 4.04 21.41 3.4 21.01 3C20.61 2.6 19.97 2.6 19.57 3L2.99998 19.56C2.59998 19.96 2.59998 20.6 2.99998 21C3.39998 21.4 4.03998 21.4 4.43998 21L5.69998 19.74C6.95998 20.77 8.43998 21.49 10.05 21.81C11.99 22.2 14 22 15.83 21.24C17.66 20.48 19.22 19.2 20.32 17.56C21.42 15.92 22.01 13.98 22.01 12C22.01 10.69 21.75 9.39 21.25 8.17H21.24ZM18.32 7.12C18.54 7.4 18.74 7.69 18.92 8H17.44L18.32 7.12ZM7.11998 18.32L7.79998 17.64C7.95998 18.15 8.15998 18.66 8.38998 19.15C7.93998 18.92 7.51998 18.63 7.11998 18.32ZM12 20C11.16 20 10.05 18.52 9.44998 16H14.55C14 18.52 12.84 20 12 20ZM14.89 14H11.44L14.92 10.52C14.96 11.01 15 11.5 15 12C15 12.67 14.96 13.34 14.89 14ZM15.56 19.15C16.03 18.15 16.36 17.09 16.56 16H18.87C18.09 17.35 16.94 18.44 15.56 19.15ZM19.74 14H16.91C16.97 13.36 17 12.69 17 12C17 11.31 17 10.64 16.91 10H19.74C20.09 11.31 20.09 12.69 19.74 14ZM5.66998 14H4.25998C4.08998 13.35 3.99998 12.67 3.99998 12C3.99998 11.33 4.08998 10.65 4.25998 10H7.08998C6.99998 10.64 6.99998 11.31 6.99998 12C6.99998 12.23 6.99998 12.44 6.99998 12.67L9.06998 10.6C9.08998 10.4 9.07998 10.2 9.09998 10H9.65998L11.66 8H9.43998C10.04 5.48 11.15 4 11.99 4C12.55 4 13.23 4.67 13.8 5.86L16.55 3.11C16.31 2.99 16.07 2.87 15.81 2.76C14.6 2.26 13.3 2 11.98 2C9.99998 2 8.06998 2.59 6.41998 3.69C4.77998 4.79 3.48998 6.35 2.73998 8.18C1.97998 10.01 1.78998 12.02 2.16998 13.96C2.34998 14.87 2.66998 15.75 3.08998 16.57L5.64998 14.01L5.66998 14ZM8.43998 4.85C7.94998 5.85 7.59998 6.91 7.38998 8H5.07998C5.86998 6.65 7.03998 5.55 8.43998 4.85Z" fill="#141414"/>
</svg>
