<svg width="24" height="24" viewBox="0 0 24 24" fill="none" xmlns="http://www.w3.org/2000/svg">
<path d="M6.70001 18.4001L5.20001 20.4001C4.87001 20.8401 4.96001 21.4701 5.40001 21.8001C5.58001 21.9301 5.79001 22.0001 6.00001 22.0001C6.30001 22.0001 6.60001 21.8601 6.80001 21.6001L8.30001 19.6001C8.63001 19.1601 8.54001 18.5301 8.10001 18.2001C7.66001 17.8701 7.03 17.9601 6.70001 18.4001ZM10.7 18.4001L9.20001 20.4001C8.87001 20.8401 8.96 21.4701 9.4 21.8001C9.58 21.9301 9.79001 22.0001 10 22.0001C10.3 22.0001 10.6 21.8601 10.8 21.6001L12.3 19.6001C12.63 19.1601 12.54 18.5301 12.1 18.2001C11.66 17.8701 11.03 17.9601 10.7 18.4001ZM14.7 18.4001L13.2 20.4001C12.87 20.8401 12.96 21.4701 13.4 21.8001C13.58 21.9301 13.79 22.0001 14 22.0001C14.3 22.0001 14.6 21.8601 14.8 21.6001L16.3 19.6001C16.63 19.1601 16.54 18.5301 16.1 18.2001C15.66 17.8701 15.03 17.9601 14.7 18.4001ZM11.33 9.22012C9.56001 9.22012 8.13001 10.7101 8.13001 12.5501C6.95001 12.5501 6.00001 13.5401 6.00001 14.7701C6.00001 16.0001 6.96001 16.9901 8.13001 16.9901H15C15 16.3501 15.2 15.7201 15.6 15.1901L18.6 11.1901C18.89 10.8001 19.28 10.5001 19.71 10.2901C19.22 8.39012 17.58 6.99012 15.6 6.99012C14 6.99012 12.63 7.92012 11.89 9.27012C11.71 9.24012 11.52 9.21012 11.33 9.21012V9.22012ZM22.39 16.5501C22.22 16.2101 21.87 16.0001 21.5 16.0001H20L21.8 13.6001C22.13 13.1601 22.04 12.5301 21.6 12.2001C21.16 11.8701 20.53 11.9601 20.2 12.4001L17.2 16.4001C16.97 16.7001 16.94 17.1101 17.11 17.4501C17.28 17.7901 17.63 18.0001 18 18.0001H19.5L17.7 20.4001C17.37 20.8401 17.46 21.4701 17.9 21.8001C18.08 21.9301 18.29 22.0001 18.5 22.0001C18.8 22.0001 19.1 21.8601 19.3 21.6001L22.3 17.6001C22.53 17.3001 22.56 16.8901 22.39 16.5501ZM6.37001 10.9601C6.99001 8.94012 8.75001 7.44012 10.87 7.24012C11.32 6.71012 11.84 6.26012 12.42 5.90012C12.19 4.38012 11.39 3.05012 10.21 2.17012C9.56001 1.68012 8.61001 2.32012 8.85001 3.11012C9.18001 4.19012 9.13001 5.44012 8.51001 6.71012C8.13001 7.50012 7.49001 8.13012 6.70001 8.52012C5.43001 9.13012 4.18001 9.19012 3.10001 8.86012C2.32001 8.62012 1.67001 9.57012 2.16001 10.2201C2.84001 11.1201 3.79001 11.8001 4.88001 12.1801C5.27001 11.6701 5.78001 11.2501 6.36001 10.9701L6.37001 10.9601Z" fill="#141414"/>
</svg>
