<svg width="24" height="24" viewBox="0 0 24 24" fill="none" xmlns="http://www.w3.org/2000/svg">
<path d="M20.1901 11.8001C19.8501 10.2001 18.4701 9.00008 16.8001 9.00008C15.5001 9.00008 14.3801 9.74008 13.7901 10.8201C13.6401 10.7901 13.4901 10.7701 13.3301 10.7701C11.8901 10.7701 10.7301 11.9601 10.7301 13.4401C9.77013 13.4401 9.00013 14.2401 9.00013 15.2201C9.00013 16.2001 9.78013 17.0001 10.7301 17.0001H19.4001C20.8401 17.0001 22.0001 15.8101 22.0001 14.3301C22.0001 13.1401 21.2301 12.1401 20.1901 11.8001ZM13.7101 18.2901C13.3201 17.9001 12.6901 17.9001 12.3001 18.2901L12.0101 18.5801L11.7201 18.2901C11.3301 17.9001 10.7001 17.9001 10.3101 18.2901C9.92014 18.6801 9.92014 19.3101 10.3101 19.7001L10.6001 19.9901L10.3101 20.2801C9.92014 20.6701 9.92014 21.3001 10.3101 21.6901C10.5101 21.8901 10.7601 21.9801 11.0201 21.9801C11.2801 21.9801 11.5301 21.8801 11.7301 21.6901L12.0201 21.4001L12.3101 21.6901C12.5101 21.8901 12.7601 21.9801 13.0201 21.9801C13.2801 21.9801 13.5301 21.8801 13.7301 21.6901C14.1201 21.3001 14.1201 20.6701 13.7301 20.2801L13.4401 19.9901L13.7301 19.7001C14.1201 19.3101 14.1201 18.6801 13.7301 18.2901H13.7101ZM19.7101 18.2901C19.3201 17.9001 18.6901 17.9001 18.3001 18.2901L18.0101 18.5801L17.7201 18.2901C17.3301 17.9001 16.7001 17.9001 16.3101 18.2901C15.9201 18.6801 15.9201 19.3101 16.3101 19.7001L16.6001 19.9901L16.3101 20.2801C15.9201 20.6701 15.9201 21.3001 16.3101 21.6901C16.5101 21.8901 16.7601 21.9801 17.0201 21.9801C17.2801 21.9801 17.5301 21.8801 17.7301 21.6901L18.0201 21.4001L18.3101 21.6901C18.5101 21.8901 18.7601 21.9801 19.0201 21.9801C19.2801 21.9801 19.5301 21.8801 19.7301 21.6901C20.1201 21.3001 20.1201 20.6701 19.7301 20.2801L19.4401 19.9901L19.7301 19.7001C20.1201 19.3101 20.1201 18.6801 19.7301 18.2901H19.7101ZM12.7801 8.81009C13.1201 8.43009 13.5101 8.11008 13.9301 7.85008C14.0801 5.54008 13.0301 3.47009 11.3501 2.20009C10.6101 1.64009 9.52013 2.37009 9.80013 3.26008C10.1801 4.49009 10.1101 5.91008 9.42013 7.35008C8.99013 8.24008 8.26013 8.97008 7.37013 9.40008C5.93013 10.1001 4.51013 10.1601 3.28013 9.78008C2.39013 9.51008 1.65013 10.5901 2.22013 11.3301C3.38013 12.8701 5.20013 13.8701 7.26013 13.9201C7.58013 13.0301 8.21013 12.3001 9.03013 11.8601C9.61013 10.2201 11.0601 9.01008 12.8101 8.79008L12.7801 8.81009Z" fill="#141414"/>
</svg>
