<svg width="24" height="24" viewBox="0 0 24 24" fill="none" xmlns="http://www.w3.org/2000/svg">
<path d="M19.77 10.5099C19.36 8.50989 17.65 6.99989 15.6 6.99989C14 6.99989 12.63 7.92989 11.89 9.27989C11.71 9.24989 11.52 9.21989 11.33 9.21989C9.56001 9.21989 8.13001 10.7099 8.13001 12.5499C6.95001 12.5499 6.00001 13.5399 6.00001 14.7699C6.00001 15.9999 6.96001 16.9899 8.13001 16.9899H18.8C20.57 16.9899 22 15.4999 22 13.6599C22 12.1699 21.06 10.9299 19.77 10.4999V10.5099ZM9.20001 18.4099L7.70001 20.4099C7.37001 20.8499 7.46001 21.4799 7.90001 21.8099C8.08001 21.9399 8.29001 22.0099 8.50001 22.0099C8.80001 22.0099 9.10001 21.8699 9.30001 21.6099L10.8 19.6099C11.13 19.1699 11.04 18.5399 10.6 18.2099C10.16 17.8799 9.53 17.9699 9.20001 18.4099ZM13.2 18.4099L11.7 20.4099C11.37 20.8499 11.46 21.4799 11.9 21.8099C12.08 21.9399 12.29 22.0099 12.5 22.0099C12.8 22.0099 13.1 21.8699 13.3 21.6099L14.8 19.6099C15.13 19.1699 15.04 18.5399 14.6 18.2099C14.16 17.8799 13.53 17.9699 13.2 18.4099ZM17.2 18.4099L15.7 20.4099C15.37 20.8499 15.46 21.4799 15.9 21.8099C16.08 21.9399 16.29 22.0099 16.5 22.0099C16.8 22.0099 17.1 21.8699 17.3 21.6099L18.8 19.6099C19.13 19.1699 19.04 18.5399 18.6 18.2099C18.16 17.8799 17.53 17.9699 17.2 18.4099ZM10.87 7.24989C11.32 6.71989 11.84 6.26989 12.42 5.90989C12.19 4.38989 11.39 3.05989 10.21 2.17989C9.56001 1.68989 8.61001 2.32989 8.85001 3.11989C9.18001 4.19989 9.13001 5.44989 8.51001 6.71989C8.13001 7.50989 7.49001 8.13989 6.70001 8.52989C5.43001 9.13989 4.18001 9.19989 3.10001 8.86989C2.32001 8.62989 1.67001 9.57989 2.16001 10.2299C2.84001 11.1299 3.79001 11.8099 4.88001 12.1899C5.27001 11.6799 5.78001 11.2599 6.36001 10.9799C6.98001 8.95989 8.74001 7.45989 10.86 7.25989L10.87 7.24989Z" fill="#141414"/>
</svg>
