<svg width="24" height="24" viewBox="0 0 24 24" fill="none" xmlns="http://www.w3.org/2000/svg">
<path d="M19.77 10.5101C19.36 8.51012 17.65 7.00012 15.6 7.00012C14 7.00012 12.63 7.93012 11.89 9.28012C11.71 9.25012 11.52 9.22012 11.33 9.22012C9.56001 9.22012 8.13001 10.7101 8.13001 12.5501C6.95001 12.5501 6.00001 13.5401 6.00001 14.7701C6.00001 16.0001 6.96001 16.9901 8.13001 16.9901H18.8C20.57 16.9901 22 15.5001 22 13.6601C22 12.1701 21.06 10.9301 19.77 10.5001V10.5101ZM13.5 18.5001C12.67 18.5001 12 19.1701 12 20.0001C12 20.8301 12.67 21.5001 13.5 21.5001C14.33 21.5001 15 20.8301 15 20.0001C15 19.1701 14.33 18.5001 13.5 18.5001ZM18.5 18.5001C17.67 18.5001 17 19.1701 17 20.0001C17 20.8301 17.67 21.5001 18.5 21.5001C19.33 21.5001 20 20.8301 20 20.0001C20 19.1701 19.33 18.5001 18.5 18.5001ZM8.50001 18.5001C7.67001 18.5001 7.00001 19.1701 7.00001 20.0001C7.00001 20.8301 7.67001 21.5001 8.50001 21.5001C9.33001 21.5001 10 20.8301 10 20.0001C10 19.1701 9.33001 18.5001 8.50001 18.5001ZM10.87 7.24012C11.32 6.71012 11.84 6.26012 12.42 5.90012C12.19 4.38012 11.39 3.05012 10.21 2.17012C9.56001 1.68012 8.61001 2.32012 8.85001 3.11012C9.18001 4.19012 9.13001 5.44012 8.51001 6.71012C8.13001 7.50012 7.49001 8.13012 6.70001 8.52012C5.43001 9.13012 4.18001 9.19012 3.10001 8.86012C2.32001 8.62012 1.67001 9.57012 2.16001 10.2201C2.84001 11.1201 3.79001 11.8001 4.88001 12.1801C5.27001 11.6701 5.78001 11.2501 6.36001 10.9701C6.98001 8.95012 8.74001 7.45012 10.86 7.25012L10.87 7.24012Z" fill="#141414"/>
</svg>
