<svg width="24" height="24" viewBox="0 0 24 24" fill="none" xmlns="http://www.w3.org/2000/svg">
<path d="M10.2001 18.4001L8.70013 20.4001C8.37013 20.8401 8.46013 21.4701 8.90013 21.8001C9.08013 21.9301 9.29013 22.0001 9.50013 22.0001C9.80013 22.0001 10.1001 21.8601 10.3001 21.6001L11.8001 19.6001C12.1301 19.1601 12.0401 18.5301 11.6001 18.2001C11.1601 17.8701 10.5301 17.9601 10.2001 18.4001ZM14.2001 18.4001L12.7001 20.4001C12.3701 20.8401 12.4601 21.4701 12.9001 21.8001C13.0801 21.9301 13.2901 22.0001 13.5001 22.0001C13.8001 22.0001 14.1001 21.8601 14.3001 21.6001L15.8001 19.6001C16.1301 19.1601 16.0401 18.5301 15.6001 18.2001C15.1601 17.8701 14.5301 17.9601 14.2001 18.4001ZM13.3301 10.7801C11.8901 10.7801 10.7301 11.9701 10.7301 13.4501C9.77013 13.4501 9.00013 14.2501 9.00013 15.2301C9.00013 16.2101 9.78013 17.0101 10.7301 17.0101H15.0001C15.0001 16.3701 15.2001 15.7401 15.6001 15.2101L18.6001 11.2101C18.8501 10.8701 19.1801 10.6101 19.5401 10.4101C18.9101 9.57008 17.9201 9.01009 16.8001 9.01009C15.5001 9.01009 14.3801 9.75008 13.7901 10.8301C13.6401 10.8001 13.4901 10.7801 13.3301 10.7801ZM22.3901 16.5501C22.2201 16.2101 21.8701 16.0001 21.5001 16.0001H20.0001L21.8001 13.6001C22.1301 13.1601 22.0401 12.5301 21.6001 12.2001C21.1601 11.8701 20.5301 11.9601 20.2001 12.4001L17.2001 16.4001C16.9701 16.7001 16.9401 17.1101 17.1101 17.4501C17.2801 17.7901 17.6301 18.0001 18.0001 18.0001H19.5001L17.7001 20.4001C17.3701 20.8401 17.4601 21.4701 17.9001 21.8001C18.0801 21.9301 18.2901 22.0001 18.5001 22.0001C18.8001 22.0001 19.1001 21.8601 19.3001 21.6001L22.3001 17.6001C22.5301 17.3001 22.5601 16.8901 22.3901 16.5501ZM12.7801 8.81009C13.1201 8.43009 13.5101 8.11008 13.9301 7.85008C14.0801 5.54008 13.0301 3.47009 11.3501 2.20009C10.6101 1.64009 9.52013 2.37009 9.80013 3.26008C10.1801 4.49009 10.1101 5.91008 9.42013 7.35008C8.99013 8.24008 8.26013 8.97008 7.37013 9.40008C5.93013 10.1001 4.51013 10.1601 3.28013 9.78008C2.39013 9.51008 1.65013 10.5901 2.22013 11.3301C3.38013 12.8701 5.20013 13.8701 7.26013 13.9201C7.58013 13.0301 8.21013 12.3001 9.03013 11.8601C9.61013 10.2201 11.0601 9.01008 12.8101 8.79008L12.7801 8.81009Z" fill="#141414"/>
</svg>
