<svg width="24" height="24" viewBox="0 0 24 24" fill="none" xmlns="http://www.w3.org/2000/svg">
<path d="M8 9.99023C8 7.78023 9.79 5.99023 12 5.99023H14V4.99023C14 3.89023 13.1 2.99023 12 2.99023H6C4.9 2.99023 4 3.89023 4 4.99023V13.9902C4 15.0902 4.9 15.9902 6 15.9902H8V9.99023Z" fill="#141414"/>
<path d="M18 7.99023H12C10.8954 7.99023 10 8.88566 10 9.99023V18.9902C10 20.0948 10.8954 20.9902 12 20.9902H18C19.1046 20.9902 20 20.0948 20 18.9902V9.99023C20 8.88566 19.1046 7.99023 18 7.99023Z" fill="#141414"/>
</svg>
