<svg width="24" height="24" viewBox="0 0 24 24" fill="none" xmlns="http://www.w3.org/2000/svg">
<path d="M10.8597 11H5.85971V13H10.8597V11Z" fill="#141414"/>
<path d="M17.8597 11H12.8597V13H17.8597V11Z" fill="#141414"/>
<path d="M9.85971 8.99996C9.59971 8.99996 9.34971 8.89996 9.14971 8.70996C8.75971 8.31996 8.75971 7.68996 9.14971 7.29996L11.1497 5.29996C11.5397 4.90996 12.1697 4.90996 12.5597 5.29996C12.9497 5.68996 12.9497 6.31996 12.5597 6.70996L10.5597 8.70996C10.3597 8.90996 10.1097 8.99996 9.84971 8.99996H9.85971Z" fill="#141414"/>
<path d="M13.8597 8.99996C13.5997 8.99996 13.3497 8.89996 13.1497 8.70996L11.1497 6.70996C10.7597 6.31996 10.7597 5.68996 11.1497 5.29996C11.5397 4.90996 12.1697 4.90996 12.5597 5.29996L14.5597 7.29996C14.9497 7.68996 14.9497 8.31996 14.5597 8.70996C14.3597 8.90996 14.1097 8.99996 13.8497 8.99996H13.8597Z" fill="#141414"/>
<path fill-rule="evenodd" clip-rule="evenodd" d="M14.5668 15.2929C14.9573 15.6834 14.9573 16.3165 14.5668 16.7071L12.5668 18.7071C12.1763 19.0976 11.5431 19.0976 11.1526 18.7071C10.7621 18.3165 10.7621 17.6834 11.1526 17.2929L13.1526 15.2929C13.5431 14.9023 14.1763 14.9023 14.5668 15.2929Z" fill="#141414"/>
<path fill-rule="evenodd" clip-rule="evenodd" d="M9.1526 15.2929C9.54312 14.9023 10.1763 14.9023 10.5668 15.2929L12.5668 17.2929C12.9573 17.6834 12.9573 18.3165 12.5668 18.7071C12.1763 19.0976 11.5431 19.0976 11.1526 18.7071L9.1526 16.7071C8.76208 16.3165 8.76208 15.6834 9.1526 15.2929Z" fill="#141414"/>
<path d="M15.8597 15C15.5997 15 15.3497 14.9 15.1497 14.71C14.7597 14.32 14.7597 13.69 15.1497 13.3L17.1497 11.3C17.5397 10.91 18.1697 10.91 18.5597 11.3C18.9497 11.69 18.9497 12.32 18.5597 12.71L16.5597 14.71C16.3597 14.91 16.1097 15 15.8497 15H15.8597Z" fill="#141414"/>
<path d="M5.85971 13C5.59971 13 5.34971 12.9 5.14971 12.71C4.75971 12.32 4.75971 11.69 5.14971 11.3L7.14971 9.29996C7.53971 8.90996 8.16971 8.90996 8.55971 9.29996C8.94971 9.68996 8.94971 10.32 8.55971 10.71L6.55971 12.71C6.35971 12.91 6.10971 13 5.84971 13H5.85971Z" fill="#141414"/>
<path d="M12.8601 18V13.72C13.4501 13.37 13.8601 12.74 13.8601 12C13.8601 11.26 13.4601 10.62 12.8601 10.28V5.99996H10.8601V10.28C10.2601 10.63 9.86006 11.26 9.86006 12C9.86006 12.74 10.2701 13.38 10.8601 13.72V18H12.8601Z" fill="#141414"/>
<path d="M16.5697 9.28996C16.1797 8.89996 15.5497 8.89996 15.1597 9.28996C14.7697 9.67996 14.7697 10.31 15.1597 10.7L17.1597 12.7C17.3597 12.9 17.6097 12.99 17.8697 12.99C18.1297 12.99 18.3797 12.89 18.5797 12.7C18.9697 12.31 18.9697 11.68 18.5797 11.29L16.5797 9.28996H16.5697Z" fill="#141414"/>
<path d="M6.56971 11.29C6.17971 10.9 5.54971 10.9 5.15971 11.29C4.76971 11.68 4.76971 12.31 5.15971 12.7L7.15971 14.7C7.35971 14.9 7.60971 14.99 7.86971 14.99C8.12971 14.99 8.37971 14.89 8.57971 14.7C8.96971 14.31 8.96971 13.68 8.57971 13.29L6.57971 11.29H6.56971Z" fill="#141414"/>
<path d="M10.4501 4.42996C10.7701 4.23996 11.4201 3.93996 12.2401 4.00996C12.7001 4.04996 13.1501 4.19996 13.5401 4.44996C13.7001 4.54996 13.8901 4.59996 14.0701 4.59996C14.4001 4.59996 14.7301 4.42996 14.9201 4.12996C15.2101 3.65996 15.0701 3.03996 14.6001 2.74996C13.9401 2.33996 13.1801 2.08996 12.4101 2.01996C11.3901 1.92996 10.3301 2.17996 9.43006 2.70996C8.95006 2.98996 8.80006 3.60996 9.08006 4.07996C9.36006 4.54996 9.97006 4.70996 10.4501 4.42996Z" fill="#141414"/>
<path d="M13.5497 19.57C13.2297 19.76 12.5797 20.06 11.7597 19.99C11.2997 19.95 10.8497 19.8 10.4597 19.55C9.98971 19.26 9.36971 19.4 9.07971 19.87C8.78971 20.34 8.92971 20.96 9.39971 21.25C10.0597 21.66 10.8197 21.91 11.5897 21.98C11.7197 21.99 11.8597 22 11.9997 22C12.8897 22 13.7897 21.75 14.5697 21.29C15.0497 21.01 15.1997 20.39 14.9197 19.92C14.6397 19.45 14.0297 19.29 13.5497 19.57Z" fill="#141414"/>
<path d="M21.2897 9.42996C21.0097 8.95996 20.3997 8.79996 19.9197 9.07996C19.4397 9.35996 19.2897 9.97996 19.5697 10.45C19.7597 10.77 20.0597 11.42 19.9897 12.24C19.9497 12.7 19.7997 13.15 19.5497 13.54C19.2597 14.01 19.3997 14.63 19.8697 14.92C20.0297 15.02 20.2197 15.07 20.3997 15.07C20.7297 15.07 21.0597 14.9 21.2497 14.6C21.6597 13.94 21.9097 13.18 21.9797 12.41C22.0697 11.39 21.8197 10.33 21.2897 9.42996Z" fill="#141414"/>
<path d="M4.11971 9.08996C3.64971 8.79996 3.02971 8.93996 2.73971 9.40996C2.32971 10.07 2.07971 10.83 2.00971 11.6C1.91971 12.62 2.16971 13.68 2.69971 14.58C2.88971 14.9 3.21971 15.07 3.55971 15.07C3.72971 15.07 3.90971 15.03 4.06971 14.93C4.54971 14.65 4.69971 14.03 4.41971 13.56C4.22971 13.24 3.92971 12.59 3.99971 11.77C4.03971 11.31 4.18971 10.86 4.43971 10.47C4.72971 9.99996 4.58971 9.37996 4.11971 9.08996Z" fill="#141414"/>
</svg>
