<svg width="24" height="24" viewBox="0 0 24 24" fill="none" xmlns="http://www.w3.org/2000/svg">
<path d="M15.5 7H19.5C19.5 6.47 19.29 5.96 18.91 5.59L15.91 2.59C15.54 2.21 15.03 2 14.5 2V6C14.5 6.27 14.61 6.52 14.79 6.71C14.98 6.9 15.23 7 15.5 7Z" fill="#141414"/>
<path d="M10.69 16.14H10.15C10.15 16.14 10.1 16.15 10.1 16.19V16.83C10.1 16.83 10.11 16.88 10.15 16.88H10.69C10.89 16.88 11.03 16.75 11.03 16.52C11.03 16.29 10.89 16.15 10.69 16.15V16.14Z" fill="#141414"/>
<path d="M7.47 16.14H6.93C6.93 16.14 6.88 16.15 6.88 16.19V16.83C6.88 16.83 6.89 16.88 6.93 16.88H7.47C7.67 16.88 7.81 16.75 7.81 16.52C7.81 16.29 7.67 16.15 7.47 16.15V16.14Z" fill="#141414"/>
<path d="M13.38 8.12C12.82 7.56 12.5 6.79 12.5 6V2H7C6.34 2 5.7 2.26 5.23 2.73C4.76 3.2 4.5 3.83 4.5 4.5V19.5C4.5 20.16 4.76 20.8 5.23 21.27C5.7 21.74 6.33 22 7 22H17C17.66 22 18.3 21.74 18.77 21.27C19.24 20.8 19.5 20.17 19.5 19.5V9H15.5C14.7 9 13.94 8.68 13.38 8.12ZM7.61 17.74H6.94C6.94 17.74 6.89 17.75 6.89 17.79V18.62C6.89 18.92 6.65 19 6.43 19C6.23 19 5.98 18.93 5.98 18.62V15.69C5.98 15.39 6.18 15.28 6.41 15.28H7.6C8.24 15.28 8.74 15.68 8.74 16.52C8.74 17.36 8.24 17.75 7.6 17.75L7.61 17.74ZM10.83 17.74H10.16C10.16 17.74 10.11 17.75 10.11 17.79V18.62C10.11 18.92 9.87 19 9.65 19C9.45 19 9.2 18.93 9.2 18.62V15.69C9.2 15.39 9.4 15.28 9.63 15.28H10.82C11.46 15.28 11.96 15.68 11.96 16.52C11.96 17.36 11.46 17.75 10.82 17.75L10.83 17.74ZM14.63 16.13H14.09C14.09 16.13 14.04 16.14 14.04 16.18V18.61C14.04 18.92 13.8 18.99 13.59 18.99C13.38 18.99 13.13 18.92 13.13 18.61V16.18C13.13 16.18 13.12 16.13 13.08 16.13H12.55C12.25 16.13 12.16 15.92 12.16 15.7C12.16 15.48 12.25 15.27 12.55 15.27H14.61C14.91 15.27 15 15.48 15 15.7C15 15.92 14.91 16.13 14.61 16.13H14.63ZM16.03 15.45L16.58 16.3C16.58 16.3 16.59 16.33 16.61 16.33C16.63 16.33 16.64 16.3 16.64 16.3L17.19 15.45C17.29 15.3 17.4 15.25 17.51 15.25C17.72 15.25 17.99 15.45 17.99 15.69C17.99 15.76 17.96 15.85 17.9 15.94L17.13 17.08C17.13 17.08 17.11 17.11 17.11 17.13C17.11 17.15 17.13 17.17 17.13 17.17L17.91 18.31C17.97 18.41 18 18.49 18 18.57C18 18.8 17.74 19 17.52 19C17.41 19 17.29 18.95 17.2 18.8L16.64 17.95C16.64 17.95 16.63 17.92 16.61 17.92C16.59 17.92 16.58 17.95 16.58 17.95L16.02 18.8C15.93 18.94 15.81 19 15.7 19C15.49 19 15.22 18.8 15.22 18.57C15.22 18.49 15.25 18.41 15.31 18.31L16.09 17.17C16.09 17.17 16.11 17.15 16.11 17.13C16.11 17.11 16.09 17.08 16.09 17.08L15.32 15.94C15.26 15.85 15.23 15.76 15.23 15.69C15.23 15.46 15.49 15.25 15.71 15.25C15.82 15.25 15.94 15.3 16.03 15.45Z" fill="#141414"/>
</svg>
