<svg width="24" height="24" viewBox="0 0 24 24" fill="none" xmlns="http://www.w3.org/2000/svg">
<path d="M7.17994 16.1299H4.43994C3.88994 16.1299 3.43994 15.6799 3.43994 15.1299C3.43994 14.5799 3.88994 14.1299 4.43994 14.1299H7.17994V10.3499C7.17994 9.79989 7.62994 9.34989 8.17994 9.34989C8.72994 9.34989 9.17994 9.79989 9.17994 10.3499V14.1299C9.17994 15.2299 8.27994 16.1299 7.17994 16.1299Z" fill="#141414"/>
<path d="M20.6899 14.1499L13.9999 12.8799C13.8999 12.8499 13.8099 12.8199 13.7599 12.7899L8.72994 9.51989C8.26994 9.21989 7.64994 9.34989 7.34994 9.80989C7.04994 10.2699 7.17994 10.8899 7.63994 11.1899L12.7099 14.4799C12.9599 14.6199 13.2099 14.7299 13.5599 14.8199L20.3199 16.1099C20.3799 16.1199 20.4499 16.1299 20.5099 16.1299C20.9799 16.1299 21.3999 15.7999 21.4899 15.3199C21.5899 14.7799 21.2399 14.2499 20.6999 14.1499H20.6899ZM5.57994 8.97989C5.30994 8.86989 4.99994 8.83989 4.70994 8.88989C4.41994 8.94989 4.14994 9.08989 3.93994 9.29989C3.72994 9.50989 3.58994 9.77989 3.52994 10.0699C3.46994 10.3599 3.49994 10.6599 3.61994 10.9399C3.72994 11.2099 3.92994 11.4499 4.16994 11.6099C4.41994 11.7699 4.70994 11.8599 4.99994 11.8599C5.39994 11.8599 5.77994 11.6999 6.05994 11.4199C6.33994 11.1399 6.49994 10.7599 6.49994 10.3599C6.49994 10.0599 6.40994 9.76989 6.24994 9.52989C6.08994 9.27989 5.84994 9.08989 5.57994 8.97989Z" fill="#141414"/>
</svg>
