<svg width="24" height="24" viewBox="0 0 24 24" fill="none" xmlns="http://www.w3.org/2000/svg">
<path fill-rule="evenodd" clip-rule="evenodd" d="M18.2998 7.2899C18.4998 7.6099 18.6198 7.9699 18.6698 8.3499C20.1098 9.0399 20.7798 11.8699 18.6298 11.9999H16.6898C16.2598 11.9999 15.8298 12.1099 15.4498 12.3099C15.0698 12.5099 14.7398 12.7999 14.4898 13.1599C14.1798 12.7999 13.7998 12.5199 13.3798 12.3199C12.9498 12.1199 12.4898 12.0199 12.0198 12.0199C11.5498 12.0199 11.0898 12.1199 10.6598 12.3199C10.2298 12.5199 9.84977 12.7999 9.54977 13.1599C9.29977 12.7999 8.97977 12.5099 8.58977 12.3099C8.20977 12.1099 7.77977 11.9999 7.34977 11.9999H5.40977C3.24977 11.8799 3.91977 9.0399 5.36977 8.3499C5.43977 7.7799 5.68977 7.2399 6.07977 6.8299C6.47977 6.4099 6.99977 6.1299 7.55977 6.0299C7.76977 5.5699 8.11977 5.1799 8.56977 4.9399C9.01977 4.6999 9.52977 4.6099 10.0298 4.6899C10.2998 4.4299 10.6198 4.2299 10.9798 4.1199C11.3398 4.0099 11.7198 3.9799 12.0798 4.0399C12.4498 4.0999 12.7998 4.2499 13.0998 4.4799C13.3998 4.6999 13.6398 4.9999 13.7998 5.3299C14.4098 5.3599 14.9798 5.6299 15.3998 6.0799C15.7698 5.9899 16.1498 5.9799 16.5198 6.0499C16.8898 6.1199 17.2398 6.2699 17.5498 6.4799C17.8598 6.6999 18.1198 6.9699 18.3198 7.2999L18.2998 7.2899ZM9.52977 8.8599C9.65977 8.7299 9.82977 8.6599 9.99977 8.6599C10.1698 8.6599 10.3498 8.5899 10.4698 8.4599C10.5998 8.3299 10.6698 8.1699 10.6698 7.9899C10.6698 7.8099 10.5998 7.6399 10.4698 7.5199C10.3398 7.3899 10.1698 7.3199 9.99977 7.3199C9.46977 7.3199 8.95977 7.5299 8.57977 7.9099C8.19977 8.2899 7.98977 8.7899 7.98977 9.3299C7.98977 9.5099 8.05977 9.6799 8.18977 9.7999C8.31977 9.9299 8.48977 9.9999 8.65977 9.9999C8.82977 9.9999 9.00977 9.9299 9.12977 9.7999C9.25977 9.6699 9.32977 9.5099 9.32977 9.3299C9.32977 9.1499 9.39977 8.9799 9.52977 8.8599ZM14.8698 10.4699C14.9998 10.5999 15.1698 10.6699 15.3398 10.6699C15.5098 10.6699 15.6898 10.5999 15.8098 10.4699C15.9398 10.3399 16.0098 10.1799 16.0098 9.9999C16.0098 9.4699 15.7998 8.9599 15.4198 8.5799C15.0398 8.1999 14.5298 7.9899 13.9998 7.9899C13.8198 7.9899 13.6498 8.0599 13.5298 8.1899C13.3998 8.3199 13.3298 8.4799 13.3298 8.6599C13.3298 8.8399 13.3998 9.0099 13.5298 9.1299C13.6598 9.2599 13.8298 9.3299 13.9998 9.3299C14.1698 9.3299 14.3498 9.3999 14.4698 9.5299C14.5998 9.6599 14.6698 9.8199 14.6698 9.9999C14.6698 10.1799 14.7398 10.3499 14.8698 10.4699ZM9.24977 19.9999L8.65977 14.6599C8.65977 14.3099 8.51977 13.9699 8.26977 13.7199C8.01977 13.4699 7.67977 13.3299 7.32977 13.3299H5.44977L6.29977 17.5799C6.43977 18.2599 6.80977 18.8799 7.34977 19.3199C7.88977 19.7599 8.56977 19.9999 9.25977 19.9999H9.24977ZM18.5598 13.3299H16.6798C16.3298 13.3299 15.9898 13.4699 15.7398 13.7199C15.4898 13.9699 15.3498 14.3099 15.3498 14.6599L14.7598 19.9999C15.4598 19.9999 16.1298 19.7599 16.6698 19.3199C17.2098 18.8799 17.5798 18.2599 17.7198 17.5799L18.5698 13.3299H18.5598ZM13.9398 15.2499L13.4098 20.0099H10.5998L10.0698 15.2499C10.0698 14.7399 10.2698 14.2399 10.6398 13.8799C10.9998 13.5199 11.4998 13.3099 12.0098 13.3099C12.5198 13.3099 13.0198 13.5099 13.3798 13.8799C13.7398 14.2399 13.9498 14.7299 13.9498 15.2499H13.9398Z" fill="#141414"/>
</svg>
