<svg width="24" height="24" viewBox="0 0 24 24" fill="none" xmlns="http://www.w3.org/2000/svg">
<path d="M9 10.98C10.93 10.98 12.5 9.40998 12.5 7.47998C12.5 5.54998 10.93 3.97998 9 3.97998C7.07 3.97998 5.5 5.54998 5.5 7.47998C5.5 9.40998 7.07 10.98 9 10.98ZM19.24 3.98998H15.76C15.34 3.98998 15 4.32998 15 4.74998V9.48998C15 10.51 15.62 11.39 16.5 11.78V13.19C16.5 13.53 16.71 13.81 17 13.93V18.99H15V17.99C15 14.68 12.31 11.99 9 11.99C5.69 11.99 3 14.68 3 17.99V19.99H17.5C17.78 19.99 18 19.77 18 19.49V13.93C18.29 13.81 18.5 13.52 18.5 13.19V11.78C19.38 11.39 20 10.52 20 9.48998V4.74998C20 4.32998 19.66 3.98998 19.24 3.98998ZM19 6.78998C19 6.89998 18.91 6.98998 18.8 6.98998H18V7.78998C18 7.89998 17.91 7.98998 17.8 7.98998H17.2C17.09 7.98998 17 7.89998 17 7.78998V6.98998H16.2C16.09 6.98998 16 6.89998 16 6.78998V6.18998C16 6.07998 16.09 5.98998 16.2 5.98998H17V5.18998C17 5.07998 17.09 4.98998 17.2 4.98998H17.8C17.91 4.98998 18 5.07998 18 5.18998V5.98998H18.8C18.91 5.98998 19 6.07998 19 6.18998V6.78998Z" fill="#141414"/>
</svg>
