<svg width="24" height="24" viewBox="0 0 24 24" fill="none" xmlns="http://www.w3.org/2000/svg">
<path d="M15.0299 11.27L10.5899 8.16C10.4399 8.06 10.2599 8 10.0799 8C9.93994 8 9.79994 8.03 9.66994 8.1C9.52994 8.17 9.39994 8.29 9.31994 8.43C9.23994 8.57 9.18994 8.73 9.18994 8.89V15.11C9.18994 15.27 9.23994 15.43 9.31994 15.57C9.39994 15.71 9.52994 15.82 9.66994 15.9C9.79994 15.97 9.93994 16 10.0799 16C10.2599 16 10.4399 15.94 10.5899 15.84L15.0299 12.73C15.1499 12.65 15.2399 12.54 15.3099 12.41C15.3799 12.28 15.4099 12.14 15.4099 12C15.4099 11.86 15.3799 11.72 15.3099 11.59C15.2399 11.46 15.1499 11.35 15.0299 11.27Z" fill="#141414"/>
<path d="M17 21H7C4.79 21 3 19.21 3 17V7C3 4.79 4.79 3 7 3H17C19.21 3 21 4.79 21 7V17C21 19.21 19.21 21 17 21ZM7 5C5.9 5 5 5.9 5 7V17C5 18.1 5.9 19 7 19H17C18.1 19 19 18.1 19 17V7C19 5.9 18.1 5 17 5H7Z" fill="#141414"/>
</svg>
