<svg width="24" height="24" viewBox="0 0 24 24" fill="none" xmlns="http://www.w3.org/2000/svg">
<path d="M17.07 8.05977H15.25C15.13 7.61977 14.96 7.19977 14.75 6.80977H17.07C17.84 6.80977 18.47 6.17977 18.47 5.40977C18.47 4.63977 17.84 4.00977 17.07 4.00977H6.93003C6.16003 4.00977 5.53003 4.63977 5.53003 5.40977C5.53003 6.17977 6.16003 6.80977 6.93003 6.80977H9.97003C10.89 6.80977 11.74 7.28977 12.22 8.05977H6.93003C6.16003 8.05977 5.53003 8.68977 5.53003 9.45977C5.53003 10.2298 6.16003 10.8598 6.93003 10.8598H12.22C11.75 11.6098 10.94 12.0798 10.07 12.1098H6.93003C6.44003 12.1098 6.00003 12.3598 5.74003 12.7698C5.35003 13.3798 5.51003 14.1998 6.09003 14.6398L14.2 20.7198C14.45 20.8998 14.74 20.9998 15.04 20.9998C15.11 20.9998 15.17 20.9998 15.24 20.9898C15.61 20.9398 15.94 20.7398 16.16 20.4398C16.38 20.1398 16.48 19.7698 16.43 19.3998C16.38 19.0298 16.18 18.6998 15.88 18.4798L11.01 14.8298C13.04 14.4298 14.71 12.8898 15.25 10.8698H17.07C17.84 10.8698 18.47 10.2398 18.47 9.46977C18.47 8.69977 17.84 8.06977 17.07 8.06977V8.05977Z" fill="#141414"/>
</svg>
