<svg width="24" height="24" viewBox="0 0 24 24" fill="none" xmlns="http://www.w3.org/2000/svg">
<path d="M19.86 16.3C19.77 16.14 19.63 16.01 19.46 15.93C19.29 15.85 19.1 15.83 18.92 15.86C18.74 15.89 18.57 15.98 18.44 16.11L18.05 16.48C18.05 16.48 17.96 16.55 17.91 16.58C17.86 16.6 17.8 16.61 17.74 16.61C17.68 16.61 17.62 16.6 17.57 16.58C17.52 16.56 17.47 16.52 17.42 16.48L16.17 15.25C16 15.09 15.78 15 15.54 15C15.3 15 15.08 15.09 14.91 15.25L13.56 16.53C13.56 16.53 13.46 16.6 13.41 16.62C13.36 16.64 13.29 16.65 13.23 16.64C13.11 16.64 13 16.59 12.92 16.51L12.52 16.12C12.39 15.99 12.23 15.9 12.05 15.86C11.86 15.83 11.67 15.86 11.5 15.93C11.33 16.01 11.19 16.14 11.1 16.3C11.01 16.46 10.97 16.64 10.99 16.83L11.26 19.37H19.71L19.98 16.83C20 16.65 19.96 16.46 19.86 16.3ZM12.43 13.89H12.46L12.49 13.9C12.74 13.95 12.97 14.04 13.2 14.15L13.57 13.8C14.11 13.29 14.82 13 15.57 13C16.32 13 17.03 13.28 17.6 13.82L17.9 14.11C17.9 14.11 17.98 14.09 18.01 14.07V2.84C18.01 2.62 17.92 2.4 17.77 2.25C17.62 2.09 17.41 2 17.2 2H10.29C9.54002 2 8.83002 2.31 8.33002 2.86L4.73002 6.8C4.27002 7.3 4.02002 7.96 4.02002 8.64V21.16C4.02002 21.38 4.11002 21.6 4.26002 21.75C4.41002 21.91 4.62002 22 4.83002 22H9.72002C9.63002 21.8 9.56002 21.59 9.51002 21.37H9.50002L9.48002 21.21C9.47002 21.15 9.46002 21.08 9.45002 21.02L9.39002 20.45L9.30002 19.55L9.03002 17.02C8.97002 16.42 9.10002 15.83 9.39002 15.31C9.69002 14.78 10.14 14.37 10.69 14.11C11.07 13.93 11.49 13.84 11.91 13.84C12.08 13.84 12.25 13.86 12.42 13.89H12.43ZM14.01 5.27C14.01 5.12 14.16 5 14.34 5H15.67C15.76 5 15.84 5.03 15.91 5.08C15.97 5.13 16.01 5.2 16.01 5.27V9.72C16.01 9.79 15.97 9.86 15.91 9.91C15.85 9.96 15.76 9.99 15.67 9.99H14.34C14.16 9.99 14.01 9.87 14.01 9.72V5.27ZM10.01 9.72C10.01 9.79 9.97002 9.86 9.91002 9.91C9.85002 9.96 9.76002 9.99 9.67002 9.99H8.34002C8.16002 9.99 8.01002 9.87 8.01002 9.72V5.27C8.01002 5.12 8.16002 5 8.34002 5H9.67002C9.76002 5 9.84002 5.03 9.91002 5.08C9.98002 5.13 10.01 5.2 10.01 5.27V9.72ZM11.03 9.72V5.27C11.03 5.12 11.18 5 11.36 5H12.68C12.77 5 12.85 5.03 12.91 5.08C12.97 5.13 13.01 5.2 13.01 5.27V9.72C13.01 9.79 12.98 9.86 12.91 9.91C12.85 9.96 12.76 9.99 12.68 9.99H11.36C11.18 9.99 11.03 9.87 11.03 9.72ZM11.39 20.81C11.42 21.14 11.58 21.44 11.83 21.66C12.08 21.88 12.4 22 12.74 22H18.2C18.54 22 18.86 21.88 19.11 21.66C19.36 21.44 19.52 21.14 19.55 20.81L19.61 20.24H11.33L11.39 20.81Z" fill="#141414"/>
</svg>
