<svg width="24" height="24" viewBox="0 0 24 24" fill="none" xmlns="http://www.w3.org/2000/svg">
<path d="M18.1203 2.88C17.5603 2.32 16.8003 2 16.0003 2H11.0003C10.5403 2 10.0903 2.09 9.68033 2.29C9.27033 2.49 8.91033 2.77 8.62033 3.13L5.62033 6.83C5.21033 7.37 4.99033 8.02 5.00033 8.7V19C5.00033 19.8 5.32033 20.56 5.88033 21.12C6.44033 21.68 7.21033 22 8.00033 22H16.0003C16.8003 22 17.5603 21.68 18.1203 21.12C18.6803 20.56 19.0003 19.79 19.0003 19V5C19.0003 4.2 18.6803 3.44 18.1203 2.88ZM8.73033 14.51C8.73033 14.88 8.47033 15 8.20033 15C7.93033 15 7.66033 14.88 7.66033 14.51V10.94C7.66033 10.89 7.66033 10.83 7.62033 10.83C7.59033 10.83 7.56033 10.86 7.53033 10.89L7.27033 11.15C7.15033 11.27 7.02033 11.32 6.91033 11.32C6.65033 11.32 6.36033 11.05 6.36033 10.77C6.36033 10.66 6.40033 10.54 6.52033 10.42L7.75033 9.23C7.94033 9.05 8.08033 9.01 8.22033 9.01C8.48033 9.01 8.72033 9.18 8.72033 9.6V14.53L8.73033 14.51ZM12.7703 14.96H10.2703C9.80033 14.96 9.67033 14.72 9.67033 14.45C9.67033 13.94 9.93033 13.35 10.6203 12.67L11.6903 11.62C12.0203 11.29 12.1303 10.96 12.1303 10.73C12.1303 10.3 11.9003 10.02 11.4403 10.02C11.0703 10.02 10.9003 10.16 10.6103 10.4C10.5303 10.47 10.4303 10.54 10.2703 10.54C10.0203 10.54 9.72033 10.32 9.72033 10.03C9.72033 9.85 9.83033 9.72 9.95033 9.6C10.2703 9.27 10.7803 9 11.4403 9C12.5703 9 13.2403 9.66 13.2403 10.73C13.2403 11.19 13.0803 11.72 12.5303 12.26L11.5603 13.22C11.3703 13.4 11.1903 13.65 11.0903 13.77C11.0903 13.77 11.0503 13.86 11.0503 13.89C11.0503 13.93 11.1003 13.93 11.1303 13.93H12.7603C13.1303 13.93 13.2503 14.17 13.2503 14.44C13.2503 14.71 13.1203 14.95 12.7603 14.95L12.7703 14.96ZM15.6803 14.99C14.7103 14.99 14.2703 14.49 14.0803 14.28C14.0103 14.2 13.9303 14.07 13.9303 13.93C13.9303 13.72 14.2003 13.38 14.5003 13.38C14.6003 13.38 14.7503 13.45 14.8603 13.57C15.0003 13.72 15.2903 13.97 15.6903 13.97C16.2203 13.97 16.5303 13.66 16.5303 13.17C16.5303 12.68 16.2203 12.39 15.6903 12.39H15.6003C15.2403 12.39 15.1103 12.18 15.1103 11.9C15.1103 11.62 15.2403 11.41 15.6003 11.41H15.6903C16.1003 11.41 16.3703 11.15 16.3703 10.73C16.3703 10.31 16.1003 10.02 15.6903 10.02C15.3403 10.02 15.1703 10.13 14.9103 10.37C14.8203 10.45 14.7303 10.51 14.5603 10.51C14.3103 10.51 14.0103 10.29 14.0103 10C14.0103 9.82 14.1203 9.69 14.2403 9.56C14.5603 9.23 15.0503 8.99 15.7003 8.99C16.7703 8.99 17.4903 9.63 17.4903 10.68C17.4903 11.16 17.3303 11.55 17.0203 11.84C16.9903 11.87 16.9903 11.88 16.9903 11.91C16.9903 11.94 16.9903 11.96 17.0203 11.98C17.4203 12.27 17.6503 12.67 17.6503 13.18C17.6503 14.27 16.8903 15 15.7003 15L15.6803 14.99Z" fill="#141414"/>
</svg>
