<svg width="24" height="24" viewBox="0 0 24 24" fill="none" xmlns="http://www.w3.org/2000/svg">
<path d="M18.04 7.99993C18.56 7.99993 19.06 8.09993 19.52 8.28993L18.45 5.35993C18.08 4.33993 16.95 3.81993 15.93 4.18993L5.46 8.03993C5.62 8.00993 5.79 7.99993 5.96 7.99993H18.04ZM20 13.5699V11.9299C19.98 10.8599 19.11 9.99993 18.04 9.99993H5.96C4.88 9.99993 4 10.8799 4 11.9599V13.5699C4.21 13.6399 4.39 13.7499 4.54 13.9099C4.82 14.1699 5 14.5599 5 14.9799C5 15.0299 5 15.0799 4.99 15.1199C4.94 15.7099 4.54 16.1999 4 16.3899V18.0399C4 19.1199 4.88 19.9999 5.96 19.9999H18.04C19.12 19.9999 20 19.1199 20 18.0399V16.3899C19.42 16.1899 19 15.6299 19 14.9799C19 14.3299 19.42 13.7699 20 13.5699ZM8 18.9999C7.45 18.9999 7 18.5499 7 17.9999C7 17.4499 7.45 16.9999 8 16.9999C8.55 16.9999 9 17.4499 9 17.9999C9 18.5499 8.55 18.9999 8 18.9999ZM8 15.9999C7.45 15.9999 7 15.5499 7 14.9999C7 14.4499 7.45 13.9999 8 13.9999C8.55 13.9999 9 14.4499 9 14.9999C9 15.5499 8.55 15.9999 8 15.9999ZM8 12.9999C7.45 12.9999 7 12.5499 7 11.9999C7 11.4499 7.45 10.9999 8 10.9999C8.55 10.9999 9 11.4499 9 11.9999C9 12.5499 8.55 12.9999 8 12.9999Z" fill="#141414"/>
</svg>
