<svg width="24" height="24" viewBox="0 0 24 24" fill="none" xmlns="http://www.w3.org/2000/svg">
<path d="M18.4599 8.5C17.5999 8.5 16.8999 9.2 16.8999 10.06C16.8999 10.92 17.5999 11.62 18.4599 11.62C19.3199 11.62 20.0199 10.92 20.0199 10.06C20.0199 9.2 19.3199 8.5 18.4599 8.5Z" fill="#141414"/>
<path d="M16.3699 12.05C15.8599 11.03 14.6599 10.55 13.5899 10.94L3.63986 14.56C3.11986 14.75 2.84986 15.32 3.03986 15.84C3.18986 16.25 3.56986 16.5 3.97986 16.5C4.08986 16.5 4.20986 16.48 4.31986 16.44L14.2699 12.82C14.3899 12.78 14.5199 12.83 14.5799 12.94L16.0799 15.94C16.3299 16.43 16.9299 16.63 17.4199 16.39C17.9099 16.14 18.1099 15.54 17.8699 15.05L16.3699 12.05Z" fill="#141414"/>
</svg>
