<svg width="24" height="24" viewBox="0 0 24 24" fill="none" xmlns="http://www.w3.org/2000/svg">
<path d="M4.5 5.25C4.5 4.55964 3.94036 4 3.25 4C2.55964 4 2 4.55964 2 5.25C2 5.94036 2.55964 6.5 3.25 6.5C3.94036 6.5 4.5 5.94036 4.5 5.25Z" fill="#141414"/>
<path d="M21.98 11.47C21.7 7.22 17.98 4 13.72 4H6.74C6.05 4 5.49 4.56 5.49 5.25C5.49 5.94 6.05 6.5 6.74 6.5H7.49C8.04 6.5 8.49 6.95 8.49 7.5C8.49 8.05 8.04 8.5 7.49 8.5H3.25C2.56 8.5 2 9.06 2 9.75C2 10.44 2.56 11 3.25 11H5.5C6.05 11 6.5 11.45 6.5 12C6.5 12.55 6.05 13 5.5 13H3.25C2.56 13 2 13.56 2 14.25C2 14.94 2.56 15.5 3.25 15.5H7.5C8.05 15.5 8.5 15.95 8.5 16.5C8.5 17.05 8.05 17.5 7.5 17.5H5.75C5.06 17.5 4.5 18.06 4.5 18.75C4.5 19.44 5.06 20 5.75 20H14C18.59 20 22.28 16.13 21.98 11.47ZM15 17C12.24 17 10 14.76 10 12C10 9.24 12.24 7 15 7C17.76 7 20 9.24 20 12C20 14.76 17.76 17 15 17ZM17.9 10.28L16.43 10.07L15.77 8.74C15.46 8.1 14.55 8.1 14.23 8.74L13.57 10.07L12.1 10.28C11.4 10.38 11.12 11.25 11.62 11.74L12.69 12.78L12.44 14.25C12.32 14.95 13.06 15.48 13.68 15.15L15 14.46L16.32 15.15C16.95 15.48 17.68 14.95 17.56 14.25L17.31 12.78L18.38 11.74C18.89 11.24 18.61 10.38 17.9 10.28Z" fill="#141414"/>
</svg>
