<svg width="24" height="24" viewBox="0 0 24 24" fill="none" xmlns="http://www.w3.org/2000/svg">
<path d="M13.75 3.63984C14.09 3.23984 14.07 2.64984 13.69 2.27984C13.29 1.89984 12.66 1.90984 12.28 2.29984L10.87 3.75984C10.49 4.14984 10.49 4.75984 10.87 5.14984L12.28 6.60984C12.48 6.80984 12.74 6.90984 13 6.90984C13.26 6.90984 13.5 6.81984 13.7 6.62984C13.95 6.38984 14.03 6.05984 13.97 5.74984C16.87 6.63984 19 9.41984 19 12.7198C19 16.7298 15.86 19.9898 12 19.9898C8.14 19.9898 5 16.7298 5 12.7198C5 12.1698 4.55 11.7198 4 11.7198C3.45 11.7198 3 12.1698 3 12.7198C3 17.8298 7.04 21.9898 12 21.9898C16.96 21.9898 21 17.8298 21 12.7198C21 8.22984 17.88 4.46984 13.75 3.62984V3.63984Z" fill="#141414"/>
<path d="M10.19 17.9998H13.8C14.28 17.9998 14.74 17.8098 15.08 17.4698C15.42 17.1298 15.61 16.6698 15.61 16.1798V12.5398C15.61 12.2198 15.52 11.9098 15.37 11.6398C15.21 11.3698 14.98 11.1398 14.71 10.9798V10.7298C14.71 10.0098 14.42 9.30984 13.92 8.79984C13.41 8.28984 12.72 7.99984 12 7.99984C11.28 7.99984 10.59 8.28984 10.08 8.79984C9.57 9.30984 9.29 10.0098 9.29 10.7298V10.9798C9.02 11.1398 8.79 11.3698 8.63 11.6398C8.47 11.9098 8.39 12.2298 8.39 12.5398V16.1798C8.39 16.6598 8.58 17.1198 8.92 17.4698C9.26 17.8098 9.72 17.9998 10.2 17.9998H10.19ZM11.36 10.0798C11.53 9.90984 11.76 9.80984 12 9.80984C12.24 9.80984 12.47 9.90984 12.64 10.0798C12.81 10.2498 12.9 10.4798 12.9 10.7198H11.09C11.09 10.4798 11.19 10.2498 11.35 10.0798H11.36Z" fill="#141414"/>
</svg>
