<svg width="24" height="24" viewBox="0 0 24 24" fill="none" xmlns="http://www.w3.org/2000/svg">
<path d="M16.56 15.06C16.84 14.78 17 14.4 17 14V11.5C17 11.27 16.95 11.05 16.86 10.84C16.76 10.63 16.62 10.45 16.44 10.31L14.59 8.81C14.32 8.6 13.99 8.5 13.66 8.5H8.51C8.11 8.5 7.73 8.66 7.45 8.94C7.17 9.22 7.01 9.6 7.01 10V14C7.01 14.4 7.17 14.78 7.45 15.06C7.73 15.34 8.11 15.5 8.51 15.5H15.51C15.91 15.5 16.29 15.34 16.57 15.06H16.56Z" fill="#141414"/>
<path d="M12 4C13.35 4 14.67 4.35 15.85 5H15C14.8 5 14.61 5.06 14.44 5.17C14.27 5.28 14.15 5.44 14.07 5.62C13.99 5.8 13.97 6.01 14.01 6.2C14.05 6.39 14.15 6.57 14.29 6.71C14.38 6.8 14.49 6.88 14.62 6.93C14.74 6.98 14.87 7 15 7H18C18.27 7 18.52 6.89 18.71 6.71C18.9 6.52 19 6.27 19 6V3C19 2.73 18.89 2.48 18.71 2.29C18.52 2.1 18.27 2 18 2C17.73 2 17.48 2.11 17.29 2.29C17.1 2.48 17 2.73 17 3V3.36C15.48 2.48 13.76 2.01 12 2C10.25 2 8.52 2.46 7.01 3.34C5.49 4.22 4.23 5.48 3.35 7C2.47 8.52 2 10.24 2 12C2 12.27 2.11 12.52 2.29 12.71C2.48 12.9 2.73 13 3 13C3.27 13 3.52 12.89 3.71 12.71C3.9 12.52 4 12.27 4 12C4 9.88 4.84 7.84 6.34 6.34C7.84 4.84 9.88 4 12 4ZM21.71 11.29C21.57 11.15 21.39 11.05 21.2 11.01C21.01 10.97 20.8 10.99 20.62 11.07C20.44 11.15 20.28 11.28 20.17 11.44C20.06 11.61 20 11.8 20 12C20 13.39 19.63 14.75 18.94 15.95C18.25 17.15 17.26 18.16 16.07 18.86C14.88 19.57 13.52 19.95 12.13 19.97C10.74 19.99 9.37 19.66 8.16 18.99H9C9.27 18.99 9.52 18.88 9.71 18.7C9.9 18.51 10 18.26 10 17.99C10 17.72 9.89 17.47 9.71 17.28C9.52 17.09 9.27 16.99 9 16.99H6C5.73 16.99 5.48 17.1 5.29 17.28C5.1 17.47 5 17.72 5 17.99V20.99C5 21.19 5.06 21.38 5.17 21.55C5.28 21.72 5.44 21.84 5.62 21.92C5.8 22 6.01 22.02 6.2 21.98C6.39 21.94 6.57 21.84 6.71 21.7C6.8 21.61 6.88 21.5 6.93 21.37C6.98 21.25 7 21.12 7 20.99V20.63C8.52 21.51 10.24 21.98 12 21.99C13.76 21.99 15.48 21.53 17 20.65C18.52 19.77 19.78 18.51 20.66 16.99C21.54 15.47 22 13.75 22 11.99C22 11.86 21.98 11.73 21.93 11.61C21.88 11.49 21.81 11.38 21.71 11.28V11.29Z" fill="#141414"/>
</svg>
