<svg width="24" height="24" viewBox="0 0 24 24" fill="none" xmlns="http://www.w3.org/2000/svg">
<path d="M21.7101 2.29006C21.3201 1.90006 20.6901 1.90006 20.3001 2.29006L2.29006 20.2901C1.90006 20.6801 1.90006 21.3101 2.29006 21.7001C2.49006 21.9001 2.74006 21.9901 3.00006 21.9901C3.26006 21.9901 3.51006 21.8901 3.71006 21.7001L5.86006 19.5501C7.47006 21.0601 9.63006 21.9901 12.0001 21.9901C16.9601 21.9901 21.0001 17.9501 21.0001 12.9901C21.0001 10.6101 20.0601 8.46006 18.5501 6.85006L21.7101 3.69006C22.1001 3.30006 22.1001 2.67006 21.7101 2.28006V2.29006ZM19.0001 13.0001C19.0001 16.8601 15.8601 20.0001 12.0001 20.0001C10.1801 20.0001 8.52006 19.2901 7.28006 18.1401L17.1401 8.28006C18.2901 9.53006 19.0001 11.1801 19.0001 13.0101V13.0001Z" fill="#141414"/>
<path d="M11.2901 7.70006C11.4401 7.85006 11.6301 7.92006 11.8201 7.96006L12.9601 6.82006C12.9201 6.63006 12.8501 6.44006 12.7001 6.29006L12.4301 6.02006C12.8301 6.04006 13.2101 6.11006 13.5801 6.20006L15.1801 4.60006C14.3001 4.27006 13.3701 4.06006 12.3901 4.02006L12.7001 3.71006C13.0901 3.32006 13.0901 2.69006 12.7001 2.30006C12.3101 1.91006 11.6801 1.91006 11.2901 2.30006L9.29006 4.30006C8.90006 4.69006 8.90006 5.32006 9.29006 5.71006L11.2901 7.71006V7.70006Z" fill="#141414"/>
<path d="M5.19006 14.5901C5.07006 14.0801 5.00006 13.5401 5.00006 12.9901C5.00006 12.4401 4.55006 11.9901 4.00006 11.9901C3.45006 11.9901 3.00006 12.4401 3.00006 12.9901C3.00006 14.1101 3.22006 15.1901 3.60006 16.1801L5.20006 14.5801L5.19006 14.5901Z" fill="#141414"/>
</svg>
