<svg width="24" height="24" viewBox="0 0 24 24" fill="none" xmlns="http://www.w3.org/2000/svg">
<path d="M17 8H14.9C14.75 7.26 14.43 6.58 13.99 6H17C17.55 6 18 5.55 18 5C18 4.45 17.55 4 17 4H6.99999C6.44999 4 5.99999 4.45 5.99999 5C5.99999 5.55 6.44999 6 6.99999 6H9.99999C11.3 6 12.41 6.84 12.82 8H6.99999C6.44999 8 5.99999 8.45 5.99999 9C5.99999 9.55 6.44999 10 6.99999 10H12.83C12.42 11.16 11.32 11.99 10.02 12C10.02 12 10.01 12 9.99999 12H6.99999C6.99999 12 6.92999 12 6.88999 12.01C6.86999 12.01 6.85999 12.01 6.83999 12.01C6.78999 12.01 6.74999 12.03 6.69999 12.04C6.67999 12.04 6.66999 12.04 6.64999 12.05C6.60999 12.07 6.55999 12.09 6.51999 12.11C6.49999 12.11 6.48999 12.13 6.46999 12.14C6.42999 12.16 6.38999 12.19 6.35999 12.22C6.33999 12.23 6.32999 12.24 6.30999 12.26C6.27999 12.29 6.23999 12.33 6.20999 12.36C6.20999 12.37 6.18999 12.38 6.17999 12.39C6.17999 12.39 6.17999 12.39 6.17999 12.4C6.14999 12.44 6.12999 12.48 6.10999 12.52C6.09999 12.54 6.08999 12.56 6.07999 12.58C6.06999 12.61 6.04999 12.65 6.03999 12.68C6.03999 12.71 6.01999 12.74 6.00999 12.77C6.00999 12.8 6.00999 12.82 5.99999 12.85C5.99999 12.89 5.98999 12.93 5.98999 12.97C5.98999 12.97 5.98999 12.98 5.98999 12.99C5.98999 13.01 5.98999 13.02 5.98999 13.04C5.98999 13.08 5.98999 13.13 5.99999 13.17C5.99999 13.19 6.00999 13.21 6.01999 13.23C6.02999 13.27 6.03999 13.31 6.05999 13.36C6.05999 13.38 6.07999 13.4 6.07999 13.41C6.09999 13.45 6.11999 13.49 6.14999 13.53C6.14999 13.54 6.16999 13.56 6.17999 13.57C6.20999 13.61 6.23999 13.65 6.26999 13.68C6.27999 13.69 6.28999 13.7 6.30999 13.71C6.33999 13.73 6.35999 13.76 6.38999 13.78L14.39 19.78C14.57 19.92 14.78 19.98 14.99 19.98C15.29 19.98 15.59 19.84 15.79 19.58C16.12 19.14 16.03 18.51 15.59 18.18L9.98999 13.98C12.4 13.98 14.42 12.26 14.89 9.98H16.99C17.54 9.98 17.99 9.53 17.99 8.98C17.99 8.43 17.54 7.98 16.99 7.98L17 8Z" fill="#141414"/>
</svg>
