<svg width="24" height="24" viewBox="0 0 24 24" fill="none" xmlns="http://www.w3.org/2000/svg">
<path d="M19.91 11.15C19.52 9.35 17.92 8 16 8C14.5 8 13.21 8.83 12.53 10.05C12.36 10.02 12.18 10 12 10C10.34 10 9 11.34 9 13C7.9 13 7 13.9 7 15C7 16.1 7.9 17 9 17H19C20.66 17 22 15.66 22 14C22 12.66 21.12 11.54 19.91 11.15ZM11.53 8.02C12.41 7.03 13.6 6.36 14.89 6.11C14.48 4.33 12.9 3 11 3C9.5 3 8.21 3.83 7.53 5.05C7.36 5.02 7.18 5 7 5C5.34 5 4 6.34 4 8C2.9 8 2 8.9 2 10C2 11.1 2.9 12 4 12H6.36C6.63 11.76 6.94 11.56 7.26 11.4C7.88 9.57 9.54 8.21 11.53 8.02ZM9.2 18.4L7.7 20.4C7.37 20.84 7.46 21.47 7.9 21.8C8.08 21.93 8.29 22 8.5 22C8.8 22 9.1 21.86 9.3 21.6L10.8 19.6C11.13 19.16 11.04 18.53 10.6 18.2C10.16 17.87 9.53 17.96 9.2 18.4ZM13.2 18.4L11.7 20.4C11.37 20.84 11.46 21.47 11.9 21.8C12.08 21.93 12.29 22 12.5 22C12.8 22 13.1 21.86 13.3 21.6L14.8 19.6C15.13 19.16 15.04 18.53 14.6 18.2C14.16 17.87 13.53 17.96 13.2 18.4ZM17.2 18.4L15.7 20.4C15.37 20.84 15.46 21.47 15.9 21.8C16.08 21.93 16.29 22 16.5 22C16.8 22 17.1 21.86 17.3 21.6L18.8 19.6C19.13 19.16 19.04 18.53 18.6 18.2C18.16 17.87 17.53 17.96 17.2 18.4Z" fill="#141414"/>
</svg>
