<svg width="24" height="24" viewBox="0 0 24 24" fill="none" xmlns="http://www.w3.org/2000/svg">
<path d="M7 20H5C4.73 20 4.48 19.89 4.29 19.71C4.1 19.53 4 19.27 4 19V17C4 16.73 3.89 16.48 3.71 16.29C3.52 16.1 3.27 16 3 16C2.73 16 2.48 16.11 2.29 16.29C2.1 16.47 2 16.73 2 17V19C2 19.8 2.32 20.56 2.88 21.12C3.44 21.68 4.21 22 5 22H7C7.27 22 7.52 21.89 7.71 21.71C7.9 21.52 8 21.27 8 21C8 20.73 7.89 20.48 7.71 20.29C7.52 20.1 7.27 20 7 20ZM21.12 2.88C20.56 2.32 19.79 2 19 2H17C16.73 2 16.48 2.11 16.29 2.29C16.1 2.48 16 2.73 16 3C16 3.27 16.11 3.52 16.29 3.71C16.47 3.9 16.73 4 17 4H19C19.27 4 19.52 4.11 19.71 4.29C19.9 4.48 20 4.73 20 5V7C20 7.27 20.11 7.52 20.29 7.71C20.47 7.9 20.73 8 21 8C21.27 8 21.52 7.89 21.71 7.71C21.9 7.53 22 7.27 22 7V5C22 4.2 21.68 3.44 21.12 2.88ZM9.84 13.1H9.79C9.71 13.1 9.69 13.07 9.69 12.99V12.67C9.69 12.04 9.26 11.85 8.79 11.85C8.32 11.85 7.89 12.04 7.89 12.67V12.99C7.89 13.07 7.87 13.1 7.79 13.1H7.23C7.23 13.1 7.13 13.08 7.13 13.02C7.13 12.99 7.15 12.94 7.16 12.91L8.68 9.26C8.75 9.1 8.77 8.98 8.77 8.85C8.77 8.32 8.2 8 7.75 8C7.48 8 7.2 8.14 7.05 8.55L5.28 13.15C5.2 13.37 5.03 13.83 5.03 14.1C5.03 14.59 5.35 14.87 6.06 14.87H7.74C7.82 14.87 7.84 14.9 7.84 14.97V15.17C7.84 15.79 8.31 15.99 8.76 15.99C9.21 15.99 9.68 15.8 9.68 15.17V14.97C9.68 14.9 9.7 14.87 9.78 14.87H9.83C10.45 14.87 10.7 14.53 10.7 13.98C10.7 13.43 10.45 13.09 9.83 13.09L9.84 13.1ZM18.19 11.98C18.19 11.98 18.13 11.92 18.13 11.89C18.13 11.86 18.15 11.82 18.19 11.8C18.55 11.48 18.84 10.98 18.84 10.29C18.84 8.94 17.91 8.01 16.36 8.01C15.41 8.01 14.84 8.32 14.41 8.75C14.23 8.94 14 9.23 14 9.53C14 10.02 14.51 10.4 14.93 10.4C15.23 10.4 15.38 10.29 15.53 10.15C15.81 9.95 16.01 9.75 16.36 9.75C16.74 9.75 16.99 10 16.99 10.41C16.99 10.8 16.72 11.08 16.34 11.08H16.23C15.72 11.08 15.46 11.41 15.46 11.89C15.46 12.37 15.7 12.72 16.22 12.72H16.33C16.78 12.72 17.11 13.04 17.11 13.49C17.11 13.94 16.81 14.25 16.36 14.25C15.95 14.25 15.66 14.01 15.5 13.85C15.2 13.57 15.06 13.53 14.88 13.53C14.39 13.53 13.94 14.06 13.94 14.43C13.94 14.67 14.08 14.91 14.19 15.03C14.45 15.31 15.05 16 16.37 16C18.04 16 18.98 14.93 18.98 13.6C18.98 12.78 18.57 12.28 18.2 11.98H18.19ZM12.25 10.27C11.65 10.27 11.24 10.69 11.24 11.29C11.24 11.89 11.65 12.3 12.25 12.3C12.85 12.3 13.28 11.89 13.28 11.29C13.28 10.69 12.86 10.27 12.25 10.27ZM12.25 13.96C11.65 13.96 11.24 14.38 11.24 14.98C11.24 15.58 11.65 15.99 12.25 15.99C12.85 15.99 13.28 15.58 13.28 14.98C13.28 14.38 12.86 13.96 12.25 13.96Z" fill="#141414"/>
</svg>
