<svg width="24" height="24" viewBox="0 0 24 24" fill="none" xmlns="http://www.w3.org/2000/svg">
<path d="M21.12 2.88C20.56 2.32 19.79 2 19 2H17C16.73 2 16.48 2.11 16.29 2.29C16.1 2.47 16 2.73 16 3C16 3.27 16.11 3.52 16.29 3.71C16.48 3.9 16.73 4 17 4H19C19.27 4 19.52 4.11 19.71 4.29C19.9 4.47 20 4.73 20 5V6C20 6.27 20.11 6.52 20.29 6.71C20.47 6.9 20.73 7 21 7C21.27 7 21.52 6.89 21.71 6.71C21.9 6.53 22 6.27 22 6V5C22 4.2 21.68 3.44 21.12 2.88ZM7 20H5C4.73 20 4.48 19.89 4.29 19.71C4.1 19.53 4 19.27 4 19V17.99C4 17.73 3.89 17.47 3.71 17.28C3.52 17.09 3.27 16.99 3 16.99C2.73 16.99 2.48 17.1 2.29 17.28C2.1 17.46 2 17.72 2 17.99V19C2 19.79 2.32 20.56 2.88 21.12C3.44 21.68 4.21 22 5 22H7C7.27 22 7.52 21.89 7.71 21.71C7.9 21.52 8 21.27 8 21C8 20.73 7.89 20.48 7.71 20.29C7.52 20.1 7.27 20 7 20ZM10.59 8C8.25 8 7.93 9.81 7.93 12C7.93 14.19 8.25 16 10.59 16C12.93 16 13.25 14.19 13.25 12C13.25 9.81 12.93 8 10.59 8ZM11.36 12.06C11.36 13.53 11.3 14.23 10.59 14.23C9.88 14.23 9.82 13.53 9.82 12.06V11.95C9.82 10.48 9.88 9.78 10.59 9.78C11.3 9.78 11.36 10.48 11.36 11.96V12.06ZM3.32 12.79C2.43 13.71 2.1 14.37 2.1 15.08C2.1 15.55 2.37 15.96 3.11 15.96H6.17C6.81 15.96 7.03 15.55 7.03 15.08C7.03 14.61 6.8 14.21 6.17 14.21H4.64C4.64 14.21 4.55 14.21 4.55 14.15C4.55 14.13 4.57 14.09 4.57 14.09C4.65 13.98 4.71 13.9 4.9 13.69L6.1 12.42C6.77 11.7 7.05 11.02 7.05 10.43C7.05 9 6.22 8 4.56 8C3.67 8 2.96 8.36 2.5 8.83C2.32 9.02 2.15 9.22 2.15 9.53C2.15 10.02 2.66 10.43 3.08 10.43C3.36 10.43 3.53 10.32 3.67 10.19C3.97 9.93 4.2 9.77 4.56 9.77C4.98 9.77 5.2 10.04 5.2 10.44C5.2 10.71 5.04 10.97 4.7 11.33L3.31 12.78L3.32 12.79ZM19.23 8.01C17.53 8.01 16.67 9.08 16.67 10.77C16.67 12.35 17.56 13.27 19.11 13.27C19.34 13.27 19.53 13.25 19.77 13.17C19.77 13.17 19.86 13.14 19.88 13.14C19.95 13.14 19.95 13.17 19.95 13.22C19.94 13.47 19.9 13.7 19.82 13.88C19.72 14.13 19.42 14.27 19.04 14.27C18.91 14.27 18.71 14.24 18.46 14.09C18.23 13.95 18.11 13.91 17.91 13.91C17.46 13.91 17.04 14.41 17.04 14.81C17.04 15.21 17.35 15.46 17.57 15.59C18.1 15.92 18.63 16.02 19.06 16.02C21.55 16.02 21.88 14.32 21.88 12.02C21.88 9.72 21.52 8.02 19.22 8.02L19.23 8.01ZM19.92 10.67C19.92 11.03 19.83 11.57 19.23 11.57C18.66 11.57 18.53 11.04 18.53 10.67C18.53 10.3 18.67 9.77 19.23 9.77C19.79 9.77 19.92 10.29 19.92 10.62V10.67ZM14.92 13.98C14.32 13.98 13.91 14.4 13.91 15C13.91 15.6 14.32 16.01 14.92 16.01C15.52 16.01 15.95 15.6 15.95 15C15.95 14.4 15.53 13.98 14.92 13.98ZM14.92 10.29C14.32 10.29 13.91 10.71 13.91 11.31C13.91 11.91 14.32 12.32 14.92 12.32C15.52 12.32 15.95 11.91 15.95 11.31C15.95 10.71 15.53 10.29 14.92 10.29Z" fill="#141414"/>
</svg>
