<svg width="24" height="24" viewBox="0 0 24 24" fill="none" xmlns="http://www.w3.org/2000/svg">
<path d="M17.24 14.38C16.97 14.38 16.84 14.2 16.84 13.91V8.62C16.84 7.96 16.36 7.75 15.86 7.75C15.36 7.75 14.88 7.96 14.88 8.62V14.19C14.88 15.46 15.41 16.25 16.71 16.25C17.6 16.25 17.87 15.89 17.87 15.31C17.87 14.73 17.65 14.38 17.23 14.38H17.24ZM12.7 9.82C12.21 9.82 11.72 10.03 11.72 10.69V13.51C11.72 13.73 11.7 13.93 11.6 14.09C11.49 14.26 11.33 14.37 11.06 14.37C10.82 14.37 10.69 14.25 10.59 14.09C10.49 13.93 10.47 13.69 10.47 13.51V10.69C10.47 10.03 9.98 9.82 9.49 9.82C9 9.82 8.51 10.03 8.51 10.69V14.18C8.51 15.12 8.98 16.25 10.33 16.25C10.99 16.25 11.44 15.91 11.66 15.74C11.66 15.74 11.71 15.7 11.74 15.7C11.79 15.7 11.8 15.72 11.82 15.78C11.95 16.12 12.35 16.24 12.71 16.24C13.18 16.24 13.66 16.03 13.66 15.37V10.68C13.66 10.02 13.17 9.81 12.68 9.81L12.7 9.82ZM7.13 7.81H3.27C2.76 7.81 2.31 8.05 2.31 8.74V15.4C2.31 16.09 2.86 16.26 3.32 16.26C3.8 16.26 4.36 16.09 4.36 15.4V12.96C4.36 12.88 4.38 12.85 4.47 12.85H6.38C7.06 12.85 7.26 12.38 7.26 11.88C7.26 11.38 7.06 10.89 6.38 10.89H4.47C4.39 10.89 4.36 10.87 4.36 10.78V9.86C4.36 9.78 4.38 9.75 4.47 9.75H7.13C7.8 9.75 8.01 9.28 8.01 8.78C8.01 8.28 7.8 7.79 7.13 7.79V7.81ZM21.05 14.38C20.78 14.38 20.65 14.2 20.65 13.91V8.62C20.65 7.96 20.17 7.75 19.67 7.75C19.17 7.75 18.69 7.96 18.69 8.62V14.19C18.69 15.46 19.22 16.25 20.52 16.25C21.41 16.25 21.68 15.89 21.68 15.31C21.68 14.73 21.46 14.38 21.04 14.38H21.05ZM21.12 2.88C20.56 2.32 19.79 2 19 2H17C16.73 2 16.48 2.11 16.29 2.29C16.1 2.47 16 2.73 16 3C16 3.27 16.11 3.52 16.29 3.71C16.48 3.9 16.73 4 17 4H19C19.27 4 19.52 4.11 19.71 4.29C19.9 4.47 20 4.73 20 5V6C20 6.27 20.11 6.52 20.29 6.71C20.47 6.9 20.73 7 21 7C21.27 7 21.52 6.89 21.71 6.71C21.9 6.53 22 6.27 22 6V5C22 4.2 21.68 3.44 21.12 2.88ZM7 20H5C4.73 20 4.48 19.89 4.29 19.71C4.1 19.53 4 19.27 4 19V17.99C4 17.73 3.89 17.47 3.71 17.28C3.52 17.09 3.27 16.99 3 16.99C2.73 16.99 2.48 17.1 2.29 17.28C2.1 17.46 2 17.72 2 17.99V19C2 19.79 2.32 20.56 2.88 21.12C3.44 21.68 4.21 22 5 22H7C7.27 22 7.52 21.89 7.71 21.71C7.9 21.52 8 21.27 8 21C8 20.73 7.89 20.48 7.71 20.29C7.52 20.1 7.27 20 7 20Z" fill="#141414"/>
</svg>
