<svg width="24" height="24" viewBox="0 0 24 24" fill="none" xmlns="http://www.w3.org/2000/svg">
<path d="M21.12 2.88C20.56 2.32 19.79 2 19 2H17C16.73 2 16.48 2.11 16.29 2.29C16.1 2.48 16 2.73 16 3C16 3.27 16.11 3.52 16.29 3.71C16.47 3.9 16.73 4 17 4H19C19.27 4 19.52 4.11 19.71 4.29C19.9 4.48 20 4.73 20 5V7C20 7.27 20.11 7.52 20.29 7.71C20.47 7.9 20.73 8 21 8C21.27 8 21.52 7.89 21.71 7.71C21.9 7.53 22 7.27 22 7V5C22 4.2 21.68 3.44 21.12 2.88ZM7 20H5C4.73 20 4.48 19.89 4.29 19.71C4.1 19.53 4 19.27 4 19V17C4 16.73 3.89 16.48 3.71 16.29C3.52 16.1 3.27 16 3 16C2.73 16 2.48 16.11 2.29 16.29C2.1 16.47 2 16.73 2 17V19C2 19.8 2.32 20.56 2.88 21.12C3.44 21.68 4.21 22 5 22H7C7.27 22 7.52 21.89 7.71 21.71C7.9 21.52 8 21.27 8 21C8 20.73 7.89 20.48 7.71 20.29C7.52 20.1 7.27 20 7 20ZM12.1 13.97C11.5 13.97 11.09 14.39 11.09 14.99C11.09 15.59 11.5 16 12.1 16C12.7 16 13.13 15.59 13.13 14.99C13.13 14.39 12.71 13.97 12.1 13.97ZM9.21 8C9.07 8 8.79 8.05 8.54 8.3L6.86 9.96C6.63 10.19 6.54 10.41 6.54 10.62C6.54 11.11 7.06 11.56 7.52 11.56C7.71 11.56 7.92 11.48 8.12 11.28C8.15 11.25 8.19 11.22 8.22 11.22C8.28 11.22 8.28 11.29 8.28 11.32V15.18C8.28 15.8 8.75 16 9.2 16C9.65 16 10.12 15.81 10.12 15.18V8.96C10.12 8.23 9.67 7.99 9.21 7.99V8ZM16.55 8C16.41 8 16.13 8.05 15.88 8.3L14.2 9.96C13.97 10.19 13.88 10.41 13.88 10.62C13.88 11.11 14.4 11.56 14.86 11.56C15.05 11.56 15.26 11.48 15.46 11.28C15.49 11.25 15.53 11.22 15.56 11.22C15.62 11.22 15.62 11.29 15.62 11.32V15.18C15.62 15.8 16.09 16 16.54 16C16.99 16 17.46 15.81 17.46 15.18V8.96C17.46 8.23 17.01 7.99 16.55 7.99V8ZM12.09 10.27C11.49 10.27 11.08 10.69 11.08 11.29C11.08 11.89 11.49 12.3 12.09 12.3C12.69 12.3 13.12 11.89 13.12 11.29C13.12 10.69 12.7 10.27 12.09 10.27Z" fill="#141414"/>
</svg>
