<svg width="24" height="24" viewBox="0 0 24 24" fill="none" xmlns="http://www.w3.org/2000/svg">
<path d="M19 11H5C3.34 11 2 12.34 2 14V19C2 20.66 3.34 22 5 22H19C20.66 22 22 20.66 22 19V14C22 12.34 20.66 11 19 11ZM11.36 19.29C11.36 19.86 10.9 20 10.51 20C10.12 20 9.67 19.86 9.67 19.29V17.38C9.67 17.31 9.64 17.29 9.58 17.29H7.82C7.75 17.29 7.73 17.31 7.73 17.38V19.29C7.73 19.86 7.27 20 6.88 20C6.49 20 6.04 19.86 6.04 19.29V13.7C6.04 13.13 6.5 12.99 6.88 12.99C7.28 12.99 7.73 13.13 7.73 13.7V15.59C7.73 15.66 7.75 15.68 7.82 15.68H9.58C9.64 15.68 9.67 15.66 9.67 15.59V13.7C9.67 13.13 10.12 12.99 10.51 12.99C10.9 12.99 11.36 13.13 11.36 13.7V19.29ZM17.46 19.11C16.91 19.79 16.17 19.96 15.37 19.96H13.49C13.07 19.96 12.69 19.78 12.69 19.21V13.8C12.69 13.23 13.07 13.03 13.49 13.03H15.37C16.17 13.03 16.91 13.2 17.46 13.88C17.88 14.39 17.97 15.29 17.97 16.49C17.97 17.69 17.88 18.6 17.46 19.11ZM15.3 14.65H14.47C14.4 14.65 14.38 14.67 14.38 14.74V18.26C14.38 18.33 14.4 18.35 14.47 18.35H15.3C15.6 18.35 15.89 18.25 16.05 17.98C16.2 17.72 16.22 17.13 16.22 16.5C16.22 15.87 16.22 15.29 16.05 15.02C15.9 14.76 15.6 14.65 15.3 14.65ZM16.07 10C16.8 10 17.02 9.7 17.02 9.23C17.02 8.76 16.84 8.47 16.49 8.47C16.27 8.47 16.16 8.32 16.16 8.08V3.72C16.16 3.17 15.76 3 15.36 3C14.96 3 14.56 3.17 14.56 3.72V8.31C14.56 9.35 15 10.01 16.07 10.01V10ZM4.83 10C5.23 10 5.68 9.86 5.68 9.29V7.28C5.68 7.21 5.7 7.19 5.77 7.19H7.34C7.9 7.19 8.07 6.8 8.07 6.4C8.07 6 7.9 5.59 7.34 5.59H5.77C5.7 5.59 5.68 5.57 5.68 5.5V4.75C5.68 4.68 5.7 4.66 5.77 4.66H7.96C8.52 4.66 8.68 4.27 8.68 3.87C8.68 3.47 8.51 3.06 7.96 3.06H4.78C4.36 3.06 3.99 3.26 3.99 3.82V9.3C3.99 9.87 4.45 10.01 4.82 10.01L4.83 10ZM19.3 10C20.03 10 20.25 9.7 20.25 9.23C20.25 8.76 20.07 8.47 19.72 8.47C19.5 8.47 19.39 8.32 19.39 8.08V3.72C19.39 3.17 18.99 3 18.59 3C18.19 3 17.79 3.17 17.79 3.72V8.31C17.79 9.35 18.23 10.01 19.3 10.01V10ZM10.71 10C11.26 10 11.62 9.72 11.8 9.58C11.8 9.58 11.84 9.55 11.87 9.55C11.91 9.55 11.92 9.57 11.94 9.62C12.05 9.9 12.38 10 12.67 10C13.06 10 13.45 9.83 13.45 9.28V5.42C13.45 4.87 13.04 4.7 12.65 4.7C12.26 4.7 11.85 4.87 11.85 5.42V7.74C11.85 7.92 11.83 8.09 11.75 8.22C11.66 8.36 11.53 8.45 11.3 8.45C11.1 8.45 10.99 8.35 10.91 8.22C10.83 8.09 10.81 7.89 10.81 7.74V5.42C10.81 4.87 10.4 4.7 10.01 4.7C9.62 4.7 9.21 4.87 9.21 5.42V8.29C9.21 9.06 9.6 10 10.71 10Z" fill="#141414"/>
</svg>
