<svg width="25" height="24" viewBox="0 0 25 24" fill="none" xmlns="http://www.w3.org/2000/svg">
<path d="M21.71 8.79002C21.38 8.46002 20.87 8.43002 20.49 8.66002V7.98002C20.49 5.25002 18.25 3.02002 15.49 3.02002C14.94 3.02002 14.49 3.47002 14.49 4.02002C14.49 4.57002 14.94 5.02002 15.49 5.02002C17.14 5.02002 18.49 6.35002 18.49 7.98002V8.67002C18.11 8.47002 17.64 8.52002 17.32 8.84002C16.93 9.23002 16.93 9.86002 17.32 10.25L18.76 11.69C18.94 11.88 19.2 12.01 19.48 12.01C19.75 12.01 20 11.9 20.19 11.72L21.7 10.21C22.09 9.82002 22.09 9.19002 21.7 8.80002L21.71 8.79002Z" fill="#141414"/>
<path d="M12.39 8.00002H5.65002C4.19751 8.00002 3.02002 9.17751 3.02002 10.63V17.37C3.02002 18.8225 4.19751 20 5.65002 20H12.39C13.8425 20 15.02 18.8225 15.02 17.37V10.63C15.02 9.17751 13.8425 8.00002 12.39 8.00002Z" fill="#141414"/>
</svg>
