<svg width="24" height="24" viewBox="0 0 24 24" fill="none" xmlns="http://www.w3.org/2000/svg">
<path d="M19.44 8.38C19.47 8.17 19.5 7.96 19.5 7.75C19.5 5.13 17.37 3 14.75 3C13.11 3 11.67 3.83 10.82 5.09C10.56 5.03 10.28 5 10 5C8.13 5 6.58 6.28 6.14 8.01C6.09 8.01 6.05 8 6 8C4.34 8 3 9.34 3 11C3 12.66 4.34 14 6 14H18C19.66 14 21 12.66 21 11C21 9.87 20.36 8.89 19.44 8.38ZM8.71 15.79C8.32 15.4 7.69 15.4 7.3 15.79L7.01 16.08L6.72 15.79C6.33 15.4 5.7 15.4 5.31 15.79C4.92 16.18 4.92 16.81 5.31 17.2L5.6 17.49L5.31 17.78C4.92 18.17 4.92 18.8 5.31 19.19C5.51 19.39 5.76 19.48 6.02 19.48C6.28 19.48 6.53 19.38 6.73 19.19L7.02 18.9L7.31 19.19C7.51 19.39 7.76 19.48 8.02 19.48C8.28 19.48 8.53 19.38 8.73 19.19C9.12 18.8 9.12 18.17 8.73 17.78L8.44 17.49L8.73 17.2C9.12 16.81 9.12 16.18 8.73 15.79H8.71ZM13.5 15.63C13.02 15.35 12.41 15.52 12.13 16L10.13 19.46C9.85 19.94 10.02 20.55 10.5 20.83C10.98 21.11 11.59 20.94 11.87 20.46L13.87 17C14.15 16.52 13.98 15.91 13.5 15.63ZM17.5 15.63C17.02 15.35 16.41 15.52 16.13 16L14.13 19.46C13.85 19.94 14.02 20.55 14.5 20.83C14.98 21.11 15.59 20.94 15.87 20.46L17.87 17C18.15 16.52 17.98 15.91 17.5 15.63Z" fill="#141414"/>
</svg>
