<svg width="24" height="24" viewBox="0 0 24 24" fill="none" xmlns="http://www.w3.org/2000/svg">
<path d="M7 20H5C4.73 20 4.48 19.89 4.29 19.71C4.1 19.53 4 19.27 4 19V17.99C4 17.73 3.89 17.47 3.71 17.28C3.52 17.09 3.27 16.99 3 16.99C2.73 16.99 2.48 17.1 2.29 17.28C2.1 17.46 2 17.72 2 17.99V19C2 19.79 2.32 20.56 2.88 21.12C3.44 21.68 4.21 22 5 22H7C7.27 22 7.52 21.89 7.71 21.71C7.9 21.52 8 21.27 8 21C8 20.73 7.89 20.48 7.71 20.29C7.52 20.1 7.27 20 7 20ZM21.12 2.88C20.56 2.32 19.79 2 19 2H17C16.73 2 16.48 2.11 16.29 2.29C16.1 2.47 16 2.73 16 3C16 3.27 16.11 3.52 16.29 3.71C16.48 3.9 16.73 4 17 4H19C19.27 4 19.52 4.11 19.71 4.29C19.9 4.47 20 4.73 20 5V6C20 6.27 20.11 6.52 20.29 6.71C20.47 6.9 20.73 7 21 7C21.27 7 21.52 6.89 21.71 6.71C21.9 6.53 22 6.27 22 6V5C22 4.2 21.68 3.44 21.12 2.88ZM3.64 11.56C3.83 11.56 4.04 11.48 4.24 11.28C4.27 11.25 4.31 11.22 4.34 11.22C4.4 11.22 4.4 11.29 4.4 11.32V15.18C4.4 15.8 4.87 16 5.32 16C5.77 16 6.24 15.81 6.24 15.18V8.96C6.24 8.23 5.79 7.99 5.33 7.99C5.19 7.99 4.91 8.04 4.66 8.29L2.98 9.95C2.75 10.18 2.66 10.4 2.66 10.61C2.66 11.1 3.18 11.55 3.64 11.55V11.56ZM18.67 8C16.97 8 16.11 9.07 16.11 10.76C16.11 12.34 17 13.26 18.55 13.26C18.78 13.26 18.97 13.24 19.21 13.16C19.21 13.16 19.3 13.13 19.32 13.13C19.39 13.13 19.39 13.16 19.39 13.21C19.38 13.46 19.34 13.69 19.26 13.87C19.16 14.12 18.86 14.26 18.48 14.26C18.35 14.26 18.15 14.23 17.9 14.08C17.67 13.94 17.55 13.9 17.35 13.9C16.9 13.9 16.48 14.4 16.48 14.8C16.48 15.2 16.79 15.45 17.01 15.58C17.54 15.91 18.07 16.01 18.5 16.01C20.99 16.01 21.32 14.31 21.32 12.01C21.32 9.71 20.96 8.01 18.66 8.01L18.67 8ZM19.36 10.66C19.36 11.02 19.27 11.56 18.67 11.56C18.1 11.56 17.97 11.03 17.97 10.66C17.97 10.29 18.11 9.76 18.67 9.76C19.23 9.76 19.36 10.28 19.36 10.61V10.66ZM14.36 10.27C13.76 10.27 13.35 10.69 13.35 11.29C13.35 11.89 13.76 12.3 14.36 12.3C14.96 12.3 15.39 11.89 15.39 11.29C15.39 10.69 14.97 10.27 14.36 10.27ZM10.19 10.74C9.96 10.74 9.77 10.76 9.53 10.84C9.53 10.84 9.44 10.87 9.42 10.87C9.35 10.87 9.35 10.84 9.35 10.79C9.36 10.54 9.4 10.31 9.47 10.13C9.57 9.88 9.87 9.74 10.25 9.74C10.37 9.74 10.58 9.77 10.83 9.92C11.06 10.06 11.18 10.1 11.38 10.1C11.83 10.1 12.25 9.6 12.25 9.2C12.25 8.8 11.94 8.55 11.72 8.42C11.19 8.09 10.66 7.99 10.23 7.99C7.74 7.99 7.41 9.69 7.41 11.99C7.41 14.29 7.77 15.99 10.07 15.99C11.77 15.99 12.63 14.92 12.63 13.23C12.63 11.65 11.74 10.73 10.19 10.73V10.74ZM10.08 14.24C9.53 14.24 9.39 13.72 9.39 13.39V13.34C9.39 12.98 9.48 12.44 10.08 12.44C10.65 12.44 10.78 12.97 10.78 13.34C10.78 13.71 10.64 14.24 10.08 14.24ZM14.37 13.97C13.77 13.97 13.36 14.39 13.36 14.99C13.36 15.59 13.77 16 14.37 16C14.97 16 15.4 15.59 15.4 14.99C15.4 14.39 14.98 13.97 14.37 13.97Z" fill="#141414"/>
</svg>
