<svg width="24" height="24" viewBox="0 0 24 24" fill="none" xmlns="http://www.w3.org/2000/svg">
<path d="M19.44 8.38C19.47 8.17 19.5 7.96 19.5 7.75C19.5 5.13 17.37 3 14.75 3C13.11 3 11.67 3.83 10.82 5.09C10.56 5.03 10.28 5 10 5C8.13 5 6.58 6.28 6.14 8.01C6.09 8.01 6.05 8 6 8C4.34 8 3 9.34 3 11C3 12.66 4.34 14 6 14H18C19.66 14 21 12.66 21 11C21 9.87 20.36 8.89 19.44 8.38ZM7.71 15.79C7.32 15.4 6.69 15.4 6.3 15.79L6.01 16.08L5.72 15.79C5.33 15.4 4.7 15.4 4.31 15.79C3.92 16.18 3.92 16.81 4.31 17.2L4.6 17.49L4.31 17.78C3.92 18.17 3.92 18.8 4.31 19.19C4.51 19.39 4.76 19.48 5.02 19.48C5.28 19.48 5.53 19.38 5.73 19.19L6.02 18.9L6.31 19.19C6.51 19.39 6.76 19.48 7.02 19.48C7.28 19.48 7.53 19.38 7.73 19.19C8.12 18.8 8.12 18.17 7.73 17.78L7.44 17.49L7.73 17.2C8.12 16.81 8.12 16.18 7.73 15.79H7.71ZM19.71 15.79C19.32 15.4 18.69 15.4 18.3 15.79L18.01 16.08L17.72 15.79C17.33 15.4 16.7 15.4 16.31 15.79C15.92 16.18 15.92 16.81 16.31 17.2L16.6 17.49L16.31 17.78C15.92 18.17 15.92 18.8 16.31 19.19C16.51 19.39 16.76 19.48 17.02 19.48C17.28 19.48 17.53 19.38 17.73 19.19L18.02 18.9L18.31 19.19C18.51 19.39 18.76 19.48 19.02 19.48C19.28 19.48 19.53 19.38 19.73 19.19C20.12 18.8 20.12 18.17 19.73 17.78L19.44 17.49L19.73 17.2C20.12 16.81 20.12 16.18 19.73 15.79H19.71ZM13.71 17.79C13.32 17.4 12.69 17.4 12.3 17.79L12.01 18.08L11.72 17.79C11.33 17.4 10.7 17.4 10.31 17.79C9.92 18.18 9.92 18.81 10.31 19.2L10.6 19.49L10.31 19.78C9.92 20.17 9.92 20.8 10.31 21.19C10.51 21.39 10.76 21.48 11.02 21.48C11.28 21.48 11.53 21.38 11.73 21.19L12.02 20.9L12.31 21.19C12.51 21.39 12.76 21.48 13.02 21.48C13.28 21.48 13.53 21.38 13.73 21.19C14.12 20.8 14.12 20.17 13.73 19.78L13.44 19.49L13.73 19.2C14.12 18.81 14.12 18.18 13.73 17.79H13.71Z" fill="#141414"/>
</svg>
