<svg width="24" height="24" viewBox="0 0 24 24" fill="none" xmlns="http://www.w3.org/2000/svg">
<path d="M13.24 7H14.03L12.89 8.15C12.82 8.22 12.77 8.31 12.75 8.4C12.73 8.5 12.75 8.6 12.78 8.69C12.82 8.78 12.88 8.86 12.96 8.91C13.04 8.96 13.14 8.99 13.24 9H15.24C15.37 9 15.5 8.95 15.59 8.85C15.68 8.75 15.74 8.63 15.74 8.5C15.74 8.37 15.69 8.24 15.59 8.15C15.49 8.06 15.37 8 15.24 8H14.45L15.59 6.85C15.67 6.79 15.73 6.7 15.75 6.6C15.78 6.5 15.77 6.4 15.74 6.31C15.7 6.21 15.63 6.13 15.54 6.07C15.45 6.01 15.34 5.99 15.24 6H13.24C13.11 6 12.98 6.05 12.89 6.15C12.8 6.25 12.74 6.37 12.74 6.5C12.74 6.63 12.79 6.76 12.89 6.85C12.99 6.94 13.11 7 13.24 7ZM15.74 3H16.53L15.39 4.15C15.32 4.22 15.27 4.31 15.25 4.4C15.23 4.5 15.25 4.6 15.28 4.69C15.32 4.78 15.38 4.86 15.46 4.91C15.54 4.96 15.64 4.99 15.74 5H17.74C17.87 5 18 4.95 18.09 4.85C18.18 4.75 18.24 4.63 18.24 4.5C18.24 4.37 18.19 4.24 18.09 4.15C17.99 4.06 17.87 4 17.74 4H16.95L18.09 2.85C18.16 2.78 18.21 2.69 18.23 2.6C18.25 2.5 18.23 2.4 18.2 2.31C18.16 2.22 18.1 2.14 18.02 2.09C17.94 2.04 17.84 2.01 17.74 2H15.74C15.61 2 15.48 2.05 15.39 2.15C15.3 2.25 15.24 2.37 15.24 2.5C15.24 2.63 15.29 2.76 15.39 2.85C15.49 2.94 15.61 3 15.74 3ZM9 9C9.4 9 9.78 8.88 10.11 8.66C10.44 8.44 10.7 8.13 10.85 7.76C11 7.39 11.04 6.99 10.96 6.6C10.88 6.21 10.69 5.86 10.41 5.58C10.13 5.3 9.77 5.11 9.39 5.03C9.01 4.95 8.6 4.99 8.23 5.14C7.86 5.29 7.55 5.55 7.33 5.88C7.11 6.21 6.99 6.6 6.99 6.99C6.99 7.52 7.2 8.03 7.58 8.4C7.96 8.78 8.46 8.99 8.99 8.99L9 9ZM20.63 14H9V11C9 9.9 8.1 9 7 9C5.9 9 5 9.9 5 11V14H4V8C4 7.45 3.55 7 3 7C2.45 7 2 7.45 2 8V20C2 20.55 2.45 21 3 21C3.55 21 4 20.55 4 20V19H20V20C20 20.55 20.45 21 21 21C21.55 21 22 20.55 22 20V15.37C22 14.61 21.39 14 20.63 14Z" fill="#141414"/>
</svg>
