<svg width="24" height="24" viewBox="0 0 24 24" fill="none" xmlns="http://www.w3.org/2000/svg">
<path d="M3 8C3.27 8 3.52 7.89 3.71 7.71C3.9 7.52 4 7.27 4 7V5C4 4.73 4.11 4.48 4.29 4.29C4.48 4.1 4.73 4 5 4H7C7.27 4 7.52 3.89 7.71 3.71C7.9 3.52 8 3.27 8 3C8 2.73 7.89 2.48 7.71 2.29C7.52 2.1 7.27 2 7 2H5C4.2 2 3.44 2.32 2.88 2.88C2.32 3.44 2 4.21 2 5V7C2 7.27 2.11 7.52 2.29 7.71C2.48 7.9 2.73 8 3 8Z" fill="#141414"/>
<path d="M19 2H17C16.73 2 16.48 2.11 16.29 2.29C16.1 2.48 16 2.73 16 3C16 3.27 16.11 3.52 16.29 3.71C16.48 3.9 16.73 4 17 4H19C19.27 4 19.52 4.11 19.71 4.29C19.9 4.48 20 4.73 20 5V7C20 7.27 20.11 7.52 20.29 7.71C20.48 7.9 20.73 8 21 8C21.27 8 21.52 7.89 21.71 7.71C21.9 7.52 22 7.27 22 7V5C22 4.2 21.68 3.44 21.12 2.88C20.56 2.32 19.79 2 19 2Z" fill="#141414"/>
<path d="M7 20H5C4.73 20 4.48 19.89 4.29 19.71C4.1 19.52 4 19.27 4 19V17C4 16.73 3.89 16.48 3.71 16.29C3.52 16.1 3.27 16 3 16C2.73 16 2.48 16.11 2.29 16.29C2.1 16.48 2 16.73 2 17V19C2 19.8 2.32 20.56 2.88 21.12C3.44 21.68 4.21 22 5 22H7C7.27 22 7.52 21.89 7.71 21.71C7.9 21.52 8 21.27 8 21C8 20.73 7.89 20.48 7.71 20.29C7.52 20.1 7.27 20 7 20Z" fill="#141414"/>
<path d="M21 16C20.73 16 20.48 16.11 20.29 16.29C20.1 16.47 20 16.73 20 17V19C20 19.27 19.89 19.52 19.71 19.71C19.53 19.9 19.27 20 19 20H17C16.73 20 16.48 20.11 16.29 20.29C16.1 20.47 16 20.73 16 21C16 21.27 16.11 21.52 16.29 21.71C16.47 21.9 16.73 22 17 22H19C19.8 22 20.56 21.68 21.12 21.12C21.68 20.56 22 19.79 22 19V17C22 16.73 21.89 16.48 21.71 16.29C21.53 16.1 21.27 16 21 16Z" fill="#141414"/>
<path d="M12 7.80002C12.28 7.80002 12.55 7.72002 12.78 7.56002C13.01 7.41002 13.19 7.19002 13.3 6.93002C13.41 6.67002 13.43 6.39002 13.38 6.12002C13.33 5.85002 13.19 5.60002 13 5.40002C12.8 5.20002 12.55 5.07002 12.28 5.02002C12.01 4.97002 11.73 4.99002 11.47 5.10002C11.21 5.21002 11 5.39002 10.84 5.62002C10.69 5.85002 10.6 6.12002 10.6 6.40002C10.6 6.77002 10.75 7.13002 11.01 7.39002C11.27 7.65002 11.63 7.80002 12 7.80002Z" fill="#141414"/>
<path d="M16.1 17.64C15.25 15.83 14.18 14.13 12.94 12.57V10.99C13.53 11.26 14.31 11.51 15.25 11.52C15.76 11.52 16.19 11.11 16.19 10.59C16.19 10.07 15.78 9.65 15.26 9.65C14.49 9.65 13.85 9.38 13.44 9.16C12.81 8.82 12.09 8.73 11.42 8.9C9.29999 9.46 8.08999 10.85 8.03999 10.91C7.70999 11.3 7.74999 11.88 8.13999 12.22C8.31999 12.37 8.52999 12.45 8.74999 12.45C9.00999 12.45 9.26999 12.34 9.44999 12.13C9.44999 12.13 10.05 11.47 11.08 11V12.85C10.82 14.52 10.1 16.1 9.01999 17.4C8.92999 17.49 8.85999 17.59 8.81999 17.7C8.76999 17.81 8.74999 17.94 8.74999 18.06C8.74999 18.18 8.76999 18.31 8.81999 18.42C8.86999 18.53 8.93999 18.64 9.01999 18.72C9.10999 18.81 9.20999 18.88 9.31999 18.92C9.42999 18.97 9.55999 18.99 9.67999 18.99C9.79999 18.99 9.92999 18.97 10.04 18.92C10.15 18.87 10.26 18.8 10.34 18.72C11.32 17.65 12.04 16.38 12.45 14.99C13.19 16.1 13.86 17.25 14.45 18.44C14.52 18.6 14.64 18.74 14.79 18.84C14.94 18.94 15.11 18.99 15.28 19C15.43 19 15.57 18.97 15.7 18.9C15.92 18.79 16.09 18.59 16.16 18.36C16.24 18.13 16.22 17.87 16.11 17.65L16.1 17.64Z" fill="#141414"/>
</svg>
