<svg width="24" height="24" viewBox="0 0 24 24" fill="none" xmlns="http://www.w3.org/2000/svg">
<path d="M10 5C10.55 5 11 4.55 11 4V3C11 2.45 10.55 2 10 2C9.45 2 9 2.45 9 3V4C9 4.55 9.45 5 10 5ZM5 10C5 9.45 4.55 9 4 9H3C2.45 9 2 9.45 2 10C2 10.55 2.45 11 3 11H4C4.55 11 5 10.55 5 10ZM5.05 6.46C5.44 6.85 6.07 6.85 6.46 6.46C6.85 6.07 6.85 5.44 6.46 5.05L5.75 4.34C5.36 3.95 4.73 3.95 4.34 4.34C3.95 4.73 3.95 5.36 4.34 5.75L5.05 6.46ZM5.05 13.53L4.34 14.24C3.95 14.63 3.95 15.26 4.34 15.65C4.73 16.04 5.36 16.04 5.75 15.65L6.46 14.94C6.85 14.55 6.85 13.92 6.46 13.53C6.07 13.14 5.44 13.14 5.05 13.53ZM13.54 6.46C13.93 6.85 14.56 6.85 14.95 6.46L15.66 5.75C16.05 5.36 16.05 4.73 15.66 4.34C15.27 3.95 14.64 3.95 14.25 4.34L13.54 5.05C13.15 5.44 13.15 6.07 13.54 6.46ZM12.79 8.81C13.01 8.56 13.26 8.34 13.53 8.13C12.86 6.87 11.54 6 10.01 6C7.8 6 6.01 7.79 6.01 10C6.01 11.3 6.64 12.45 7.61 13.18C7.96 12.63 8.44 12.18 9.01 11.88C9.59 10.24 11.04 9.03 12.79 8.81ZM20.19 11.8C19.85 10.2 18.47 9 16.8 9C15.5 9 14.38 9.74 13.79 10.82C13.64 10.79 13.49 10.77 13.33 10.77C11.89 10.77 10.73 11.96 10.73 13.44C9.77 13.44 9 14.24 9 15.22C9 16.2 9.78 17 10.73 17H19.4C20.84 17 22 15.81 22 14.33C22 13.14 21.23 12.14 20.19 11.8ZM19.71 18.29C19.32 17.9 18.69 17.9 18.3 18.29L18.01 18.58L17.72 18.29C17.33 17.9 16.7 17.9 16.31 18.29C15.92 18.68 15.92 19.31 16.31 19.7L16.6 19.99L16.31 20.28C15.92 20.67 15.92 21.3 16.31 21.69C16.51 21.89 16.76 21.98 17.02 21.98C17.28 21.98 17.53 21.88 17.73 21.69L18.02 21.4L18.31 21.69C18.51 21.89 18.76 21.98 19.02 21.98C19.28 21.98 19.53 21.88 19.73 21.69C20.12 21.3 20.12 20.67 19.73 20.28L19.44 19.99L19.73 19.7C20.12 19.31 20.12 18.68 19.73 18.29H19.71ZM13.71 18.29C13.32 17.9 12.69 17.9 12.3 18.29L12.01 18.58L11.72 18.29C11.33 17.9 10.7 17.9 10.31 18.29C9.92 18.68 9.92 19.31 10.31 19.7L10.6 19.99L10.31 20.28C9.92 20.67 9.92 21.3 10.31 21.69C10.51 21.89 10.76 21.98 11.02 21.98C11.28 21.98 11.53 21.88 11.73 21.69L12.02 21.4L12.31 21.69C12.51 21.89 12.76 21.98 13.02 21.98C13.28 21.98 13.53 21.88 13.73 21.69C14.12 21.3 14.12 20.67 13.73 20.28L13.44 19.99L13.73 19.7C14.12 19.31 14.12 18.68 13.73 18.29H13.71Z" fill="#141414"/>
</svg>
