<svg width="24" height="24" viewBox="0 0 24 24" fill="none" xmlns="http://www.w3.org/2000/svg">
<path d="M8.71 16.29C8.32 15.9 7.69 15.9 7.3 16.29L7.01 16.58L6.72 16.29C6.33 15.9 5.7 15.9 5.31 16.29C4.92 16.68 4.92 17.31 5.31 17.7L5.6 17.99L5.31 18.28C4.92 18.67 4.92 19.3 5.31 19.69C5.51 19.89 5.76 19.98 6.02 19.98C6.28 19.98 6.53 19.88 6.73 19.69L7.02 19.4L7.31 19.69C7.51 19.89 7.76 19.98 8.02 19.98C8.28 19.98 8.53 19.88 8.73 19.69C9.12 19.3 9.12 18.67 8.73 18.28L8.44 17.99L8.73 17.7C9.12 17.31 9.12 16.68 8.73 16.29H8.71ZM18.03 16.75C17.75 16.27 17.14 16.11 16.66 16.38L15.99 16.76V15.99C15.99 15.44 15.54 14.99 14.99 14.99C14.44 14.99 13.99 15.44 13.99 15.99V16.76L13.32 16.38C12.84 16.1 12.23 16.27 11.95 16.75C11.67 17.23 11.84 17.84 12.32 18.12L12.99 18.5L12.32 18.88C11.84 19.16 11.68 19.77 11.95 20.25C12.22 20.73 12.84 20.89 13.32 20.62L13.99 20.24V21.01C13.99 21.56 14.44 22.01 14.99 22.01C15.54 22.01 15.99 21.56 15.99 21.01V20.24L16.66 20.62C17.14 20.9 17.75 20.73 18.03 20.25C18.31 19.77 18.14 19.16 17.66 18.88L16.99 18.5L17.66 18.12C18.14 17.84 18.3 17.23 18.03 16.75ZM19.44 8.38C19.47 8.17 19.5 7.96 19.5 7.75C19.5 5.13 17.37 3 14.75 3C13.11 3 11.67 3.83 10.82 5.09C10.56 5.03 10.28 5 10 5C8.13 5 6.58 6.28 6.14 8.01C6.09 8.01 6.05 8 6 8C4.34 8 3 9.34 3 11C3 12.66 4.34 14 6 14H18C19.66 14 21 12.66 21 11C21 9.87 20.36 8.89 19.44 8.38Z" fill="#141414"/>
</svg>
