<svg width="24" height="24" viewBox="0 0 24 24" fill="none" xmlns="http://www.w3.org/2000/svg">
<path d="M19 4H5C3.34 4 2 5.34 2 7V17C2 18.66 3.34 20 5 20H19C20.66 20 22 18.66 22 17V7C22 5.34 20.66 4 19 4ZM8.5 14H10.5C11.05 14 11.5 14.45 11.5 15C11.5 15.55 11.05 16 10.5 16H8.5C6.85 16 5.5 14.65 5.5 13V11C5.5 9.35 6.85 8 8.5 8H10.5C11.05 8 11.5 8.45 11.5 9C11.5 9.55 11.05 10 10.5 10H8.5C7.95 10 7.5 10.45 7.5 11V13C7.5 13.55 7.95 14 8.5 14ZM15.5 14H17.5C18.05 14 18.5 14.45 18.5 15C18.5 15.55 18.05 16 17.5 16H15.5C13.85 16 12.5 14.65 12.5 13V11C12.5 9.35 13.85 8 15.5 8H17.5C18.05 8 18.5 8.45 18.5 9C18.5 9.55 18.05 10 17.5 10H15.5C14.95 10 14.5 10.45 14.5 11V13C14.5 13.55 14.95 14 15.5 14Z" fill="#141414"/>
</svg>
