<svg width="24" height="24" viewBox="0 0 24 24" fill="none" xmlns="http://www.w3.org/2000/svg">
<path d="M10 5C10.55 5 11 4.55 11 4V3C11 2.45 10.55 2 10 2C9.45 2 9 2.45 9 3V4C9 4.55 9.45 5 10 5ZM5 10C5 9.45 4.55 9 4 9H3C2.45 9 2 9.45 2 10C2 10.55 2.45 11 3 11H4C4.55 11 5 10.55 5 10ZM5.05 6.46C5.44 6.85 6.07 6.85 6.46 6.46C6.85 6.07 6.85 5.44 6.46 5.05L5.75 4.34C5.36 3.95 4.73 3.95 4.34 4.34C3.95 4.73 3.95 5.36 4.34 5.75L5.05 6.46ZM5.05 13.53L4.34 14.24C3.95 14.63 3.95 15.26 4.34 15.65C4.73 16.04 5.36 16.04 5.75 15.65L6.46 14.94C6.85 14.55 6.85 13.92 6.46 13.53C6.07 13.14 5.44 13.14 5.05 13.53ZM13.54 6.46C13.93 6.85 14.56 6.85 14.95 6.46L15.66 5.75C16.05 5.36 16.05 4.73 15.66 4.34C15.27 3.95 14.64 3.95 14.25 4.34L13.54 5.05C13.15 5.44 13.15 6.07 13.54 6.46ZM12.79 8.81C13.01 8.56 13.26 8.34 13.53 8.13C12.86 6.87 11.54 6 10.01 6C7.8 6 6.01 7.79 6.01 10C6.01 11.3 6.64 12.45 7.61 13.18C7.96 12.63 8.44 12.18 9.01 11.88C9.59 10.24 11.04 9.03 12.79 8.81ZM10.21 18.4L8.71 20.4C8.38 20.84 8.47 21.47 8.91 21.8C9.09 21.93 9.3 22 9.51 22C9.81 22 10.11 21.86 10.31 21.6L11.81 19.6C12.14 19.16 12.05 18.53 11.61 18.2C11.17 17.87 10.54 17.96 10.21 18.4ZM14.21 18.4L12.71 20.4C12.38 20.84 12.47 21.47 12.91 21.8C13.09 21.93 13.3 22 13.51 22C13.81 22 14.11 21.86 14.31 21.6L15.81 19.6C16.14 19.16 16.05 18.53 15.61 18.2C15.17 17.87 14.54 17.96 14.21 18.4ZM13.8 10.82C13.65 10.79 13.5 10.77 13.34 10.77C11.9 10.77 10.74 11.96 10.74 13.44C9.78 13.44 9.01 14.24 9.01 15.22C9.01 16.2 9.79 17 10.74 17H15.01C15.01 16.36 15.21 15.73 15.61 15.2L18.61 11.2C18.86 10.86 19.19 10.6 19.55 10.4C18.92 9.56 17.93 9 16.81 9C15.51 9 14.39 9.74 13.8 10.82ZM22.41 16.55C22.24 16.21 21.89 16 21.52 16H20.02L21.82 13.6C22.15 13.16 22.06 12.53 21.62 12.2C21.18 11.87 20.55 11.96 20.22 12.4L17.22 16.4C16.99 16.7 16.96 17.11 17.13 17.45C17.3 17.79 17.65 18 18.02 18H19.52L17.72 20.4C17.39 20.84 17.48 21.47 17.92 21.8C18.1 21.93 18.31 22 18.52 22C18.82 22 19.12 21.86 19.32 21.6L22.32 17.6C22.55 17.3 22.58 16.89 22.41 16.55Z" fill="#141414"/>
</svg>
