<svg width="24" height="24" viewBox="0 0 24 24" fill="none" xmlns="http://www.w3.org/2000/svg">
<path d="M6.93983 4.33008C7.05983 4.87008 7.58983 5.21008 8.12983 5.09008C8.66983 4.97008 9.00983 4.44008 8.88983 3.90008L8.66983 2.92008C8.54983 2.38008 8.01983 2.04008 7.47983 2.16008C6.93983 2.28008 6.59983 2.81008 6.71983 3.35008L6.93983 4.33008ZM5.08983 9.86008C4.96983 9.32008 4.43983 8.98008 3.89983 9.10008L2.91983 9.32008C2.37983 9.44008 2.03983 9.97008 2.15983 10.5101C2.27983 11.0501 2.80983 11.3901 3.34983 11.2701L4.32983 11.0501C4.86983 10.9301 5.20983 10.4001 5.08983 9.86008ZM3.39983 6.61008L4.23983 7.15008C4.70983 7.45008 5.31983 7.31008 5.61983 6.84008C5.91983 6.37008 5.77983 5.76008 5.30983 5.46008L4.46983 4.92008C3.99983 4.62008 3.38983 4.76008 3.08983 5.23008C2.78983 5.70008 2.92983 6.31008 3.39983 6.61008ZM11.1498 5.62008C11.6198 5.92008 12.2298 5.78008 12.5298 5.31008L13.0698 4.47008C13.3698 4.00008 13.2298 3.39008 12.7598 3.09008C12.2898 2.79008 11.6798 2.93008 11.3798 3.40008L10.8398 4.24008C10.5398 4.71008 10.6798 5.32008 11.1498 5.62008ZM10.8698 7.24008C10.9598 7.13008 11.0598 7.03008 11.1598 6.93008C10.6098 6.36008 9.84983 6.00008 8.99983 6.00008C7.33983 6.00008 5.99983 7.34008 5.99983 9.00008C5.99983 9.61008 6.17983 10.1701 6.48983 10.6401C7.18983 8.78008 8.85983 7.42008 10.8698 7.24008ZM6.69983 18.4001L5.19983 20.4001C4.86983 20.8401 4.95983 21.4701 5.39983 21.8001C5.57983 21.9301 5.78983 22.0001 5.99983 22.0001C6.29983 22.0001 6.59983 21.8601 6.79983 21.6001L8.29983 19.6001C8.62983 19.1601 8.53983 18.5301 8.09983 18.2001C7.65983 17.8701 7.02983 17.9601 6.69983 18.4001ZM10.6998 18.4001L9.19983 20.4001C8.86983 20.8401 8.95983 21.4701 9.39983 21.8001C9.57983 21.9301 9.78983 22.0001 9.99983 22.0001C10.2998 22.0001 10.5998 21.8601 10.7998 21.6001L12.2998 19.6001C12.6298 19.1601 12.5398 18.5301 12.0998 18.2001C11.6598 17.8701 11.0298 17.9601 10.6998 18.4001ZM14.6998 18.4001L13.1998 20.4001C12.8698 20.8401 12.9598 21.4701 13.3998 21.8001C13.5798 21.9301 13.7898 22.0001 13.9998 22.0001C14.2998 22.0001 14.5998 21.8601 14.7998 21.6001L16.2998 19.6001C16.6298 19.1601 16.5398 18.5301 16.0998 18.2001C15.6598 17.8701 15.0298 17.9601 14.6998 18.4001ZM8.12983 17.0001H14.9998C14.9998 16.3601 15.1998 15.7301 15.5998 15.2001L18.5998 11.2001C18.8898 10.8101 19.2798 10.5101 19.7098 10.3001C19.2198 8.40008 17.5798 7.00008 15.5998 7.00008C13.9998 7.00008 12.6298 7.93008 11.8898 9.28008C11.7098 9.25008 11.5198 9.22008 11.3298 9.22008C9.55983 9.22008 8.12983 10.7101 8.12983 12.5501C6.94983 12.5501 5.99983 13.5401 5.99983 14.7701C5.99983 16.0001 6.95983 16.9901 8.12983 16.9901V17.0001ZM22.3898 16.5501C22.2198 16.2101 21.8698 16.0001 21.4998 16.0001H19.9998L21.7998 13.6001C22.1298 13.1601 22.0398 12.5301 21.5998 12.2001C21.1598 11.8701 20.5298 11.9601 20.1998 12.4001L17.1998 16.4001C16.9698 16.7001 16.9398 17.1101 17.1098 17.4501C17.2798 17.7901 17.6298 18.0001 17.9998 18.0001H19.4998L17.6998 20.4001C17.3698 20.8401 17.4598 21.4701 17.8998 21.8001C18.0798 21.9301 18.2898 22.0001 18.4998 22.0001C18.7998 22.0001 19.0998 21.8601 19.2998 21.6001L22.2998 17.6001C22.5298 17.3001 22.5598 16.8901 22.3898 16.5501Z" fill="#141414"/>
</svg>
