<svg width="24" height="24" viewBox="0 0 24 24" fill="none" xmlns="http://www.w3.org/2000/svg">
<path d="M10 17H4C3.73 17 3.48 17.11 3.29 17.29C3.1 17.48 3 17.73 3 18C3 18.27 3.11 18.52 3.29 18.71C3.48 18.9 3.73 19 4 19H10C10.27 19 10.52 18.89 10.71 18.71C10.9 18.53 11 18.27 11 18C11 17.73 10.89 17.48 10.71 17.29C10.53 17.1 10.27 17 10 17ZM10 11H4C3.73 11 3.48 11.11 3.29 11.29C3.1 11.48 3 11.73 3 12C3 12.27 3.11 12.52 3.29 12.71C3.48 12.9 3.73 13 4 13H10C10.27 13 10.52 12.89 10.71 12.71C10.9 12.53 11 12.27 11 12C11 11.73 10.89 11.48 10.71 11.29C10.53 11.1 10.27 11 10 11ZM14.21 15.22L15.5 13.92V18.01C15.5 18.28 15.61 18.53 15.79 18.72C15.97 18.91 16.23 19.01 16.5 19.01C16.77 19.01 17.02 18.9 17.21 18.72C17.4 18.54 17.5 18.28 17.5 18.01V13.92L18.79 15.22C18.98 15.41 19.23 15.51 19.5 15.51C19.77 15.51 20.02 15.4 20.21 15.22C20.4 15.04 20.5 14.78 20.5 14.51C20.5 14.24 20.39 13.99 20.21 13.8L17.21 10.8C17.12 10.71 17.01 10.63 16.88 10.58C16.76 10.53 16.63 10.5 16.5 10.5C16.37 10.5 16.24 10.53 16.12 10.58C16 10.63 15.89 10.71 15.79 10.8L12.79 13.8C12.7 13.89 12.62 14 12.57 14.13C12.52 14.25 12.49 14.38 12.49 14.51C12.49 14.64 12.52 14.77 12.57 14.89C12.62 15.01 12.69 15.12 12.79 15.22C12.88 15.31 12.99 15.39 13.12 15.44C13.24 15.49 13.37 15.52 13.5 15.52C13.63 15.52 13.76 15.49 13.88 15.44C14 15.39 14.11 15.32 14.21 15.22ZM20 5H4C3.73 5 3.48 5.11 3.29 5.29C3.1 5.48 3 5.73 3 6C3 6.27 3.11 6.52 3.29 6.71C3.48 6.9 3.73 7 4 7H20C20.27 7 20.52 6.89 20.71 6.71C20.9 6.52 21 6.27 21 6C21 5.73 20.89 5.48 20.71 5.29C20.52 5.1 20.27 5 20 5Z" fill="#141414"/>
</svg>
