<svg width="24" height="24" viewBox="0 0 24 24" fill="none" xmlns="http://www.w3.org/2000/svg">
<path d="M12 2C6.48 2 2 6.48 2 12C2 17.52 6.48 22 12 22C17.52 22 22 17.52 22 12C22 6.48 17.52 2 12 2ZM8.95 17C7.31 17 6.59 16.3 6.24 15.86C6.11 15.69 5.93 15.4 5.93 15.1C5.93 14.64 6.5 13.97 7.13 13.97C7.37 13.97 7.59 14.07 7.92 14.38C8.13 14.58 8.45 14.79 8.96 14.79C9.47 14.79 9.86 14.49 9.86 13.48C9.86 12.97 9.77 12.28 8.96 12.28C8.67 12.28 8.42 12.38 8.12 12.62C7.91 12.79 7.72 12.95 7.28 12.95C6.58 12.95 6.01 12.64 6.01 11.82V8.06C6.01 7.39 6.44 6.99 7.05 6.99H10.49C11.36 6.99 11.59 7.55 11.59 8.1C11.59 8.7 11.36 9.21 10.49 9.21H8.45C8.34 9.21 8.32 9.25 8.32 9.34V10.41C8.32 10.47 8.35 10.51 8.42 10.51C8.48 10.51 8.52 10.48 8.71 10.42C9.05 10.32 9.27 10.29 9.61 10.29C11.41 10.29 12.2 11.71 12.2 13.42C12.2 15.83 10.9 16.98 8.97 16.98L8.95 17ZM15.7 17C14.78 17 14.02 16.73 13.56 16.3C13.34 16.1 13.25 15.9 13.25 15.7C13.25 15.25 13.67 14.75 14.16 14.75C14.31 14.75 14.47 14.81 14.64 14.92C14.98 15.15 15.33 15.26 15.7 15.26C15.97 15.26 16.17 15.15 16.17 14.94C16.17 14.76 16.01 14.67 15.7 14.57L15.2 14.41C14.03 14.04 13.37 13.36 13.37 12.48C13.37 11.18 14.3 10.47 15.71 10.47C16.22 10.47 16.88 10.59 17.36 10.9C17.64 11.07 17.79 11.33 17.79 11.59C17.79 12.08 17.46 12.52 16.96 12.52C16.84 12.52 16.71 12.48 16.57 12.42C16.19 12.25 15.97 12.21 15.71 12.21C15.45 12.21 15.29 12.34 15.29 12.49C15.29 12.61 15.41 12.71 15.71 12.81L16.2 12.98C17.53 13.45 18.1 13.96 18.1 14.94C18.1 16.27 17.12 16.99 15.71 16.99L15.7 17Z" fill="#141414"/>
</svg>
