<svg width="24" height="24" viewBox="0 0 24 24" fill="none" xmlns="http://www.w3.org/2000/svg">
<path d="M12 14C12.65 14 13.23 13.68 13.59 13.2C13.85 12.86 14 12.45 14 12C14 10.9 13.1 10 12 10C10.9 10 10 10.9 10 12C10 12.45 10.15 12.86 10.41 13.2C10.77 13.68 11.35 14 12 14ZM15.59 16.8C15.17 16.24 14.62 15.78 13.99 15.47C13.39 15.17 12.72 15 12 15C11.28 15 10.61 15.17 10.01 15.47C9.38 15.78 8.83 16.24 8.41 16.8C8 17.34 7.71 17.97 7.58 18.66C7.53 18.93 7.5 19.21 7.5 19.5C7.5 20.32 8.18 21 9 21H15C15.82 21 16.5 20.32 16.5 19.5C16.5 19.21 16.47 18.93 16.42 18.66C16.29 17.97 16 17.34 15.59 16.8ZM12 6C8.69 6 6 8.69 6 12C6 13.24 6.37 14.38 7.02 15.34C7.45 14.82 7.96 14.37 8.54 14.01C8.2 13.42 8 12.73 8 12C8 9.79 9.79 8 12 8C14.21 8 16 9.79 16 12C16 12.73 15.8 13.42 15.46 14.01C16.04 14.37 16.55 14.82 16.98 15.34C17.63 14.38 18 13.24 18 12C18 8.69 15.31 6 12 6ZM12 2C6.49 2 2 6.49 2 12C2 15.04 3.36 17.76 5.51 19.6C5.5 19.57 5.5 19.53 5.5 19.5C5.5 18.69 5.65 17.91 5.93 17.19C4.73 15.79 4 13.98 4 12C4 7.59 7.59 4 12 4C16.41 4 20 7.59 20 12C20 13.98 19.27 15.79 18.07 17.19C18.35 17.91 18.5 18.69 18.5 19.5C18.5 19.53 18.5 19.57 18.49 19.6C20.64 17.76 22 15.04 22 12C22 6.49 17.51 2 12 2Z" fill="#141414"/>
</svg>
