<svg width="24" height="24" viewBox="0 0 24 24" fill="none" xmlns="http://www.w3.org/2000/svg">
<path d="M12 2C6.48 2 2 6.48 2 12C2 17.52 6.48 22 12 22C17.52 22 22 17.52 22 12C22 6.48 17.52 2 12 2ZM8.98 17C7.33 17 6.58 16.15 6.25 15.79C6.11 15.63 5.94 15.34 5.94 15.04C5.94 14.59 6.51 13.92 7.12 13.92C7.35 13.92 7.53 13.96 7.9 14.32C8.1 14.52 8.47 14.82 8.98 14.82C9.55 14.82 9.92 14.45 9.92 13.87C9.92 13.29 9.51 12.9 8.94 12.9H8.8C8.15 12.9 7.85 12.47 7.85 11.86C7.85 11.25 8.18 10.85 8.82 10.85H8.96C9.43 10.85 9.77 10.49 9.77 10.01C9.77 9.5 9.46 9.19 8.99 9.19C8.55 9.19 8.31 9.43 7.95 9.69C7.77 9.86 7.57 10 7.2 10C6.67 10 6.03 9.52 6.03 8.91C6.03 8.53 6.31 8.17 6.54 7.93C7.08 7.39 7.79 7.01 8.98 7.01C10.91 7.01 12.08 8.18 12.08 9.86C12.08 10.73 11.73 11.35 11.27 11.75C11.23 11.78 11.2 11.82 11.2 11.86C11.2 11.9 11.23 11.93 11.27 11.97C11.74 12.35 12.25 12.98 12.25 14C12.25 15.66 11.07 17 8.98 17ZM15.68 17C14.77 17 14.01 16.73 13.55 16.31C13.33 16.12 13.25 15.91 13.25 15.71C13.25 15.26 13.66 14.76 14.15 14.76C14.3 14.76 14.45 14.82 14.62 14.93C14.96 15.16 15.3 15.27 15.68 15.27C15.95 15.27 16.14 15.16 16.14 14.95C16.14 14.77 15.98 14.68 15.68 14.58L15.18 14.42C14.01 14.05 13.36 13.37 13.36 12.5C13.36 11.21 14.28 10.51 15.68 10.51C16.19 10.51 16.85 10.63 17.32 10.94C17.6 11.11 17.75 11.37 17.75 11.62C17.75 12.11 17.42 12.54 16.92 12.54C16.8 12.54 16.68 12.5 16.53 12.44C16.15 12.27 15.93 12.23 15.68 12.23C15.43 12.23 15.27 12.36 15.27 12.51C15.27 12.63 15.39 12.73 15.68 12.83L16.17 13C17.5 13.46 18.06 13.97 18.06 14.95C18.06 16.28 17.09 16.99 15.69 16.99L15.68 17Z" fill="#141414"/>
</svg>
