<svg width="24" height="24" viewBox="0 0 24 24" fill="none" xmlns="http://www.w3.org/2000/svg">
<path d="M21 19C20.25 19 19.92 18.7 19.41 18.25C18.82 17.72 18 17 16.5 17C15 17 14.18 17.72 13.59 18.25C13.08 18.7 12.75 19 12 19C11.25 19 10.92 18.7 10.41 18.25C9.82 17.72 9 17 7.5 17C6 17 5.18 17.72 4.59 18.25C4.08 18.7 3.75 19 3 19C2.45 19 2 19.45 2 20C2 20.55 2.45 21 3 21C4.5 21 5.32 20.28 5.91 19.75C6.42 19.3 6.75 19 7.5 19C8.25 19 8.58 19.3 9.09 19.75C9.68 20.28 10.5 21 12 21C13.5 21 14.32 20.28 14.91 19.75C15.42 19.3 15.75 19 16.5 19C17.25 19 17.58 19.3 18.09 19.75C18.68 20.28 19.5 21 21 21C21.55 21 22 20.55 22 20C22 19.45 21.55 19 21 19ZM12 6C12.55 6 13 5.55 13 5V3C13 2.45 12.55 2 12 2C11.45 2 11 2.45 11 3V5C11 5.55 11.45 6 12 6ZM3 13H5C5.55 13 6 12.55 6 12C6 11.45 5.55 11 5 11H3C2.45 11 2 11.45 2 12C2 12.55 2.45 13 3 13ZM6.34 7.76C6.73 8.15 7.36 8.15 7.75 7.76C8.14 7.37 8.14 6.74 7.75 6.35L6.34 4.94C5.95 4.55 5.32 4.55 4.93 4.94C4.54 5.33 4.54 5.96 4.93 6.35L6.34 7.76ZM17.65 7.76L19.06 6.35C19.45 5.96 19.45 5.33 19.06 4.94C18.67 4.55 18.04 4.55 17.65 4.94L16.24 6.35C15.85 6.74 15.85 7.37 16.24 7.76C16.63 8.15 17.26 8.15 17.65 7.76ZM13.62 14.22C13 14.72 12.61 15 11.99 15C11.44 15 10.99 15.45 10.99 16C10.99 16.55 11.44 17 11.99 17C13.34 17 14.19 16.32 14.86 15.78C15.48 15.28 15.87 15 16.49 15C17.11 15 17.49 15.28 18.12 15.78C18.8 16.32 19.64 17 20.99 17C21.54 17 21.99 16.55 21.99 16C21.99 15.45 21.54 15 20.99 15C20.37 15 19.99 14.72 19.36 14.22C18.68 13.68 17.84 13 16.49 13C15.14 13 14.29 13.68 13.62 14.22ZM8.05 15.04C8.42 15.08 8.78 15.14 9.1 15.23C9.43 13.97 10.56 13.03 11.91 12.99C12.03 12.91 12.26 12.73 12.36 12.65C13.13 12.03 14.43 10.99 16.48 10.99C16.62 10.99 16.75 11.01 16.88 11.02C16.43 8.73 14.41 6.99 11.98 6.99C9.22 6.99 6.98 9.23 6.98 11.99C6.98 13.14 7.38 14.19 8.04 15.03L8.05 15.04Z" fill="#141414"/>
</svg>
