<svg width="24" height="24" viewBox="0 0 24 24" fill="none" xmlns="http://www.w3.org/2000/svg">
<path d="M12 6C12.27 6 12.52 5.89 12.71 5.71C12.9 5.53 13 5.27 13 5V3C13 2.73 12.89 2.48 12.71 2.29C12.52 2.1 12.27 2 12 2C11.73 2 11.48 2.11 11.29 2.29C11.1 2.48 11 2.73 11 3V5C11 5.27 11.11 5.52 11.29 5.71C11.47 5.9 11.73 6 12 6ZM15.57 7.48C15.66 7.57 15.78 7.65 15.9 7.7C16.02 7.75 16.16 7.77 16.29 7.77C16.42 7.77 16.55 7.74 16.68 7.69C16.81 7.64 16.91 7.56 17 7.46L18.41 6.05C18.51 5.96 18.6 5.85 18.66 5.73C18.72 5.6 18.75 5.47 18.76 5.33C18.76 5.19 18.74 5.06 18.69 4.93C18.64 4.8 18.56 4.68 18.47 4.58C18.37 4.49 18.25 4.41 18.12 4.36C17.99 4.31 17.86 4.29 17.72 4.29C17.58 4.29 17.45 4.33 17.32 4.39C17.2 4.45 17.09 4.54 17 4.64L15.54 6.05C15.45 6.15 15.38 6.26 15.33 6.38C15.28 6.5 15.26 6.64 15.26 6.77C15.26 6.9 15.29 7.03 15.34 7.16C15.39 7.28 15.47 7.39 15.57 7.48ZM20.99 10.8C20.95 10.61 20.85 10.43 20.71 10.29C20.62 10.2 20.51 10.12 20.38 10.07C20.26 10.02 20.13 10 20 10H18C17.73 10 17.48 10.11 17.29 10.29C17.1 10.47 17 10.73 17 11C17 11.27 17.11 11.52 17.29 11.71C17.48 11.9 17.73 12 18 12H20C20.2 12 20.39 11.94 20.56 11.83C20.73 11.72 20.85 11.56 20.93 11.38C21.01 11.2 21.03 10.99 20.99 10.8ZM7.05 7.46C7.24 7.62 7.49 7.71 7.74 7.7C7.99 7.69 8.23 7.59 8.41 7.41C8.59 7.23 8.69 6.99 8.7 6.74C8.7 6.49 8.62 6.24 8.46 6.05L7.05 4.64C6.86 4.48 6.61 4.39 6.36 4.4C6.09 4.4 5.84 4.51 5.65 4.69C5.46 4.88 5.36 5.13 5.36 5.4C5.36 5.65 5.44 5.9 5.6 6.09L7.05 7.46ZM18 14H14.62C15.24 13.47 15.67 12.76 15.88 11.97C16.08 11.18 16.04 10.35 15.75 9.58C15.46 8.82 14.95 8.16 14.28 7.69C13.61 7.23 12.81 6.98 12 6.98C11.19 6.98 10.39 7.23 9.72 7.69C9.05 8.16 8.54 8.81 8.25 9.58C7.96 10.34 7.92 11.18 8.12 11.97C8.32 12.76 8.76 13.47 9.38 14H6C5.73 14 5.48 14.11 5.29 14.29C5.1 14.48 5 14.73 5 15C5 15.27 5.11 15.52 5.29 15.71C5.48 15.9 5.73 16 6 16H18C18.27 16 18.52 15.89 18.71 15.71C18.9 15.52 19 15.27 19 15C19 14.73 18.89 14.48 18.71 14.29C18.53 14.1 18.27 14 18 14ZM6.38 11.93C6.5 11.88 6.61 11.81 6.71 11.71C6.85 11.57 6.95 11.39 6.99 11.2C7.03 11.01 7.01 10.8 6.93 10.62C6.85 10.44 6.72 10.28 6.56 10.17C6.4 10.06 6.2 10 6 10H4C3.73 10 3.48 10.11 3.29 10.29C3.1 10.48 3 10.73 3 11C3 11.27 3.11 11.52 3.29 11.71C3.48 11.9 3.73 12 4 12H6C6.13 12 6.26 11.98 6.38 11.93ZM15 18H9C8.73 18 8.48 18.11 8.29 18.29C8.1 18.48 8 18.73 8 19C8 19.27 8.11 19.52 8.29 19.71C8.48 19.9 8.73 20 9 20H15C15.27 20 15.52 19.89 15.71 19.71C15.9 19.53 16 19.27 16 19C16 18.73 15.89 18.48 15.71 18.29C15.53 18.1 15.27 18 15 18Z" fill="#141414"/>
</svg>
