<svg width="24" height="24" viewBox="0 0 24 24" fill="none" xmlns="http://www.w3.org/2000/svg">
<path d="M10.5 10H4.5C4.22386 10 4 10.2239 4 10.5V13.5C4 13.7761 4.22386 14 4.5 14H10.5C10.7761 14 11 13.7761 11 13.5V10.5C11 10.2239 10.7761 10 10.5 10Z" fill="#141414"/>
<path d="M19.5 10H13.5C13.2239 10 13 10.2239 13 10.5V13.5C13 13.7761 13.2239 14 13.5 14H19.5C19.7761 14 20 13.7761 20 13.5V10.5C20 10.2239 19.7761 10 19.5 10Z" fill="#141414"/>
<path d="M10.5 16H4.5C4.22386 16 4 16.2239 4 16.5V19.5C4 19.7761 4.22386 20 4.5 20H10.5C10.7761 20 11 19.7761 11 19.5V16.5C11 16.2239 10.7761 16 10.5 16Z" fill="#141414"/>
<path d="M19.5 16H13.5C13.2239 16 13 16.2239 13 16.5V19.5C13 19.7761 13.2239 20 13.5 20H19.5C19.7761 20 20 19.7761 20 19.5V16.5C20 16.2239 19.7761 16 19.5 16Z" fill="#141414"/>
<path d="M10.5 4H4.5C4.22386 4 4 4.22386 4 4.5V7.5C4 7.77614 4.22386 8 4.5 8H10.5C10.7761 8 11 7.77614 11 7.5V4.5C11 4.22386 10.7761 4 10.5 4Z" fill="#141414"/>
<path d="M19.5 4H13.5C13.2239 4 13 4.22386 13 4.5V7.5C13 7.77614 13.2239 8 13.5 8H19.5C19.7761 8 20 7.77614 20 7.5V4.5C20 4.22386 19.7761 4 19.5 4Z" fill="#141414"/>
</svg>
