<svg width="24" height="24" viewBox="0 0 24 24" fill="none" xmlns="http://www.w3.org/2000/svg">
<path d="M9.99982 17H4.99982C4.99982 18.1 5.89982 19 6.99982 19H8.99982V20C8.99982 21.1 9.89982 22 10.9998 22H11.9998V19C11.9998 17.9 11.0998 17 9.99982 17ZM12.9998 2.01003C8.67982 2.00003 5.14982 5.45003 5.00982 9.74003L3.09982 13.56C2.84982 14.05 3.04982 14.65 3.54982 14.9L3.75982 15.01H9.99982C12.2098 15.01 13.9998 16.8 13.9998 19.01V22.01H15.9998C17.0998 22.01 17.9998 21.11 17.9998 20.01V16.25C19.8298 14.78 20.9998 12.53 20.9998 10.01C20.9998 5.60003 17.4098 2.01003 12.9998 2.01003ZM13.2998 10C13.4198 10 13.5398 10.05 13.6298 10.15C13.7198 10.25 13.7698 10.37 13.7698 10.5C13.7698 10.63 13.7198 10.76 13.6298 10.85C13.5398 10.94 13.4298 11 13.2998 11H11.4498C11.3598 11 11.2698 10.97 11.1898 10.91C11.1098 10.85 11.0598 10.78 11.0198 10.69C10.9798 10.6 10.9698 10.5 10.9898 10.4C11.0098 10.3 11.0498 10.21 11.1198 10.15L12.1698 9.00003H11.4398C11.3198 9.00003 11.1998 8.95003 11.1098 8.85003C11.0198 8.76003 10.9698 8.63003 10.9698 8.50003C10.9698 8.37003 11.0198 8.24003 11.1098 8.15003C11.1998 8.06003 11.3098 8.00003 11.4398 8.00003H13.2898C13.3898 8.00003 13.4798 8.02003 13.5698 8.07003C13.6498 8.13003 13.7198 8.21003 13.7498 8.31003C13.7798 8.40003 13.7898 8.51003 13.7598 8.60003C13.7398 8.70003 13.6798 8.78003 13.6098 8.85003L12.5598 10H13.2898H13.2998ZM16.8598 7.85003C16.7698 7.94003 16.6598 8.00003 16.5298 8.00003H14.6798C14.5898 8.00003 14.4998 7.97003 14.4198 7.91003C14.3398 7.85003 14.2898 7.78003 14.2498 7.69003C14.2098 7.60003 14.1998 7.50003 14.2198 7.40003C14.2398 7.30003 14.2798 7.21003 14.3498 7.15003L15.3998 6.00003H14.6698C14.5498 6.00003 14.4298 5.95003 14.3398 5.85003C14.2498 5.75003 14.1998 5.63003 14.1998 5.50003C14.1998 5.37003 14.2498 5.24003 14.3398 5.15003C14.4298 5.06003 14.5398 5.00003 14.6698 5.00003H16.5198C16.6098 5.00003 16.6998 5.03003 16.7798 5.09003C16.8598 5.15003 16.9098 5.22003 16.9498 5.31003C16.9898 5.40003 16.9998 5.50003 16.9798 5.60003C16.9598 5.70003 16.9198 5.79003 16.8498 5.85003L15.7998 7.00003H16.5298C16.6498 7.00003 16.7698 7.05003 16.8598 7.15003C16.9498 7.24003 16.9998 7.37003 16.9998 7.50003C16.9998 7.63003 16.9498 7.76003 16.8598 7.85003Z" fill="#141414"/>
</svg>
