<svg width="24" height="24" viewBox="0 0 24 24" fill="none" xmlns="http://www.w3.org/2000/svg">
<path d="M20.7 6.82998C20.51 7.00998 20.26 7.09998 20.02 7.09998C19.75 7.09998 19.49 6.98998 19.29 6.77998L17.89 5.28998V8.63998C17.89 11.06 16.81 13.33 14.93 14.85L13.03 16.39V21C13.03 21.55 12.58 22 12.03 22C11.48 22 11.03 21.55 11.03 21V16.41L9.11001 14.86C7.22001 13.33 6.13001 11.07 6.13001 8.62998V5.26998L4.73001 6.75998C4.53001 6.96998 4.27001 7.07998 4.00001 7.07998C3.75001 7.07998 3.51001 6.98998 3.32001 6.80998C2.92001 6.42998 2.90001 5.79998 3.28001 5.39998L6.05001 2.44998C6.33001 2.14998 6.73001 1.97998 7.14001 1.97998C7.55001 1.97998 7.95001 2.14998 8.23001 2.45998L10.99 5.40998C11.37 5.80998 11.35 6.44998 10.94 6.81998C10.54 7.19998 9.90001 7.17998 9.53001 6.76998L8.13001 5.26998V8.63998C8.13001 10.46 8.94001 12.17 10.36 13.31L12.01 14.64L13.67 13.29C15.08 12.15 15.89 10.45 15.89 8.62998V5.26998L14.49 6.76998C14.11 7.16998 13.48 7.18998 13.08 6.81998C12.68 6.43998 12.66 5.80998 13.03 5.40998L15.79 2.45998C16.07 2.15998 16.47 1.98998 16.88 1.98998C17.29 1.98998 17.69 2.15998 17.97 2.45998L20.74 5.40998C21.12 5.80998 21.1 6.44998 20.7 6.81998V6.82998Z" fill="#141414"/>
</svg>
