<svg width="24" height="24" viewBox="0 0 24 24" fill="none" xmlns="http://www.w3.org/2000/svg">
<path d="M19.1 4.21001L3.91 9.90001C3.36 10.11 3 10.63 3 11.22V13.71C3 14.33 3.4 14.87 3.99 15.05L4.56 15.23C4.31 16.09 4.41 17 4.85 17.79C5.29 18.58 6 19.15 6.86 19.39C7.17 19.48 7.48 19.52 7.79 19.52C8.35 19.52 8.91 19.38 9.41 19.1C10.15 18.69 10.69 18.02 10.96 17.22L19.17 19.79C20.08 20.07 21 19.4 21 18.45V5.53001C21 4.55001 20.02 3.87001 19.1 4.21001ZM8.33 17.14C8.07 17.29 7.77 17.32 7.48 17.24C7.19 17.16 6.96 16.97 6.81 16.71C6.67 16.46 6.64 16.18 6.71 15.91L8.81 16.57C8.72 16.81 8.55 17.02 8.32 17.15L8.33 17.14Z" fill="#141414"/>
</svg>
