<svg width="24" height="24" viewBox="0 0 24 24" fill="none" xmlns="http://www.w3.org/2000/svg">
<path d="M12 6C12.27 6 12.52 5.89 12.71 5.71C12.9 5.53 13 5.27 13 5V3C13 2.73 12.89 2.48 12.71 2.29C12.52 2.1 12.27 2 12 2C11.73 2 11.48 2.11 11.29 2.29C11.1 2.48 11 2.73 11 3V5C11 5.27 11.11 5.52 11.29 5.71C11.47 5.9 11.73 6 12 6ZM7.05 7.46C7.24 7.62 7.49 7.71 7.74 7.7C7.99 7.7 8.23 7.59 8.41 7.41C8.59 7.23 8.69 6.99 8.7 6.74C8.7 6.49 8.62 6.24 8.46 6.05L7.05 4.64C6.86 4.48 6.61 4.39 6.36 4.4C6.09 4.4 5.84 4.51 5.65 4.69C5.46 4.88 5.36 5.13 5.36 5.4C5.36 5.65 5.44 5.9 5.6 6.09L7.05 7.46ZM15.57 7.48C15.66 7.57 15.78 7.65 15.9 7.7C16.02 7.75 16.16 7.77 16.29 7.77C16.42 7.77 16.55 7.74 16.68 7.69C16.81 7.64 16.91 7.56 17 7.46L18.41 6.05C18.51 5.96 18.6 5.85 18.66 5.73C18.72 5.6 18.75 5.47 18.76 5.33C18.76 5.19 18.74 5.06 18.69 4.93C18.64 4.8 18.56 4.68 18.47 4.58C18.37 4.49 18.25 4.41 18.12 4.36C17.99 4.31 17.86 4.29 17.72 4.29C17.58 4.29 17.45 4.33 17.32 4.39C17.2 4.45 17.09 4.54 17 4.64L15.54 6.05C15.45 6.15 15.38 6.26 15.33 6.38C15.28 6.5 15.26 6.64 15.26 6.77C15.26 6.9 15.29 7.03 15.34 7.16C15.39 7.28 15.47 7.39 15.57 7.48ZM20.71 10.29C20.52 10.1 20.27 10 20 10H15.86C15.63 9.15 15.13 8.4 14.43 7.87C13.73 7.34 12.88 7.05 12 7.05C11.12 7.05 10.27 7.34 9.57 7.87C8.87 8.4 8.37 9.15 8.14 10H4C3.73 10 3.48 10.11 3.29 10.29C3.1 10.48 3 10.73 3 11C3 11.27 3.11 11.52 3.29 11.71C3.48 11.9 3.73 12 4 12H20C20.27 12 20.52 11.89 20.71 11.71C20.9 11.52 21 11.27 21 11C21 10.73 20.89 10.48 20.71 10.29ZM16 18H8C7.73 18 7.48 18.11 7.29 18.29C7.1 18.47 7 18.73 7 19C7 19.27 7.11 19.52 7.29 19.71C7.47 19.9 7.73 20 8 20H16C16.27 20 16.52 19.89 16.71 19.71C16.9 19.53 17 19.27 17 19C17 18.73 16.89 18.48 16.71 18.29C16.53 18.1 16.27 18 16 18ZM18 14H6C5.73 14 5.48 14.11 5.29 14.29C5.1 14.47 5 14.73 5 15C5 15.27 5.11 15.52 5.29 15.71C5.47 15.9 5.73 16 6 16H18C18.27 16 18.52 15.89 18.71 15.71C18.9 15.53 19 15.27 19 15C19 14.73 18.89 14.48 18.71 14.29C18.53 14.1 18.27 14 18 14Z" fill="#141414"/>
</svg>
