<svg width="24" height="24" viewBox="0 0 24 24" fill="none" xmlns="http://www.w3.org/2000/svg">
<path d="M12.5 15.67C12.02 15.39 11.41 15.56 11.13 16.04L9.13 19.5C8.85 19.98 9.02 20.59 9.5 20.87C9.98 21.15 10.59 20.98 10.87 20.5L12.87 17.04C13.15 16.56 12.98 15.95 12.5 15.67ZM8.5 15.67C8.02 15.39 7.41 15.56 7.13 16.04L5.13 19.5C4.85 19.98 5.02 20.59 5.5 20.87C5.98 21.15 6.59 20.98 6.87 20.5L8.87 17.04C9.15 16.56 8.98 15.95 8.5 15.67ZM19.44 8.38C19.47 8.17 19.5 7.96 19.5 7.75C19.5 5.13 17.37 3 14.75 3C13.11 3 11.67 3.83 10.82 5.09C10.56 5.03 10.28 5 10 5C8.13 5 6.58 6.28 6.14 8.01C6.09 8.01 6.05 8 6 8C4.34 8 3 9.34 3 11C3 12.66 4.34 14 6 14H18C19.66 14 21 12.66 21 11C21 9.87 20.36 8.89 19.44 8.38ZM16.5 15.67C16.02 15.39 15.41 15.56 15.13 16.04L13.13 19.5C12.85 19.98 13.02 20.59 13.5 20.87C13.98 21.15 14.59 20.98 14.87 20.5L16.87 17.04C17.15 16.56 16.98 15.95 16.5 15.67Z" fill="#141414"/>
</svg>
