<svg width="24" height="24" viewBox="0 0 24 24" fill="none" xmlns="http://www.w3.org/2000/svg">
<path d="M12 2C6.48 2 2 6.48 2 12C2 17.52 6.48 22 12 22C17.52 22 22 17.52 22 12C22 6.48 17.52 2 12 2ZM7.81 15.38C7.81 16.04 7.33 16.25 6.83 16.25C6.33 16.25 5.85 16.04 5.85 15.38V11.27C5.85 11.27 5.85 11.16 5.79 11.16C5.75 11.16 5.72 11.18 5.68 11.22C5.46 11.44 5.25 11.52 5.04 11.52C4.56 11.52 4 11.04 4 10.52C4 10.3 4.1 10.06 4.34 9.82L6.13 8.06C6.4 7.79 6.7 7.75 6.84 7.75C7.32 7.75 7.81 8 7.81 8.78V15.38ZM11.71 16.25C9.22 16.25 8.88 14.33 8.88 12C8.88 9.67 9.22 7.75 11.71 7.75C14.2 7.75 14.53 9.67 14.53 12C14.53 14.33 14.19 16.25 11.71 16.25ZM17.63 16.25C16.72 16.25 15.98 15.98 15.52 15.56C15.3 15.37 15.22 15.16 15.22 14.97C15.22 14.52 15.63 14.03 16.11 14.03C16.26 14.03 16.41 14.09 16.58 14.2C16.92 14.43 17.26 14.54 17.63 14.54C17.9 14.54 18.09 14.43 18.09 14.23C18.09 14.05 17.93 13.96 17.63 13.87L17.14 13.71C15.98 13.35 15.33 12.67 15.33 11.8C15.33 10.52 16.25 9.82 17.64 9.82C18.15 9.82 18.8 9.94 19.27 10.24C19.55 10.41 19.69 10.66 19.69 10.92C19.69 11.4 19.36 11.84 18.87 11.84C18.75 11.84 18.63 11.8 18.48 11.74C18.11 11.57 17.89 11.53 17.63 11.53C17.37 11.53 17.22 11.66 17.22 11.81C17.22 11.93 17.34 12.03 17.63 12.12L18.11 12.29C19.43 12.75 19.98 13.26 19.98 14.22C19.98 15.54 19.01 16.25 17.63 16.25Z" fill="#141414"/>
<path d="M11.72 9.62988C10.96 9.62988 10.9 10.3799 10.9 11.9399V12.0599C10.9 13.6199 10.96 14.3699 11.72 14.3699C12.48 14.3699 12.54 13.6199 12.54 12.0599V11.9499C12.54 10.3799 12.48 9.62988 11.72 9.62988Z" fill="#141414"/>
</svg>
