<svg width="24" height="24" viewBox="0 0 24 24" fill="none" xmlns="http://www.w3.org/2000/svg">
<path d="M12 6C12.55 6 13 5.55 13 5V3C13 2.45 12.55 2 12 2C11.45 2 11 2.45 11 3V5C11 5.55 11.45 6 12 6ZM3 13H5C5.55 13 6 12.55 6 12C6 11.45 5.55 11 5 11H3C2.45 11 2 11.45 2 12C2 12.55 2.45 13 3 13ZM18 12C18 12.55 18.45 13 19 13H21C21.55 13 22 12.55 22 12C22 11.45 21.55 11 21 11H19C18.45 11 18 11.45 18 12ZM6.34 7.76C6.73 8.15 7.36 8.15 7.75 7.76C8.14 7.37 8.14 6.74 7.75 6.35L6.34 4.94C5.95 4.55 5.32 4.55 4.93 4.94C4.54 5.33 4.54 5.96 4.93 6.35L6.34 7.76ZM17.65 7.76L19.06 6.35C19.45 5.96 19.45 5.33 19.06 4.94C18.67 4.55 18.04 4.55 17.65 4.94L16.24 6.35C15.85 6.74 15.85 7.37 16.24 7.76C16.63 8.15 17.26 8.15 17.65 7.76ZM20.49 18.07C20.49 18.07 20.49 18.02 20.49 18C20.49 16.62 19.37 15.5 17.99 15.5C17.12 15.5 16.36 15.94 15.91 16.61C15.7 16.54 15.47 16.5 15.24 16.5C14 16.5 12.99 17.51 12.99 18.75C12.99 18.84 13.01 18.92 13.02 19C13.02 19 13 19 12.99 19C12.16 19 11.49 19.67 11.49 20.5C11.49 21.33 12.16 22 12.99 22H19.99C21.09 22 21.99 21.1 21.99 20C21.99 19.07 21.35 18.29 20.48 18.07H20.49ZM8.5 14C7.63 14 6.87 14.44 6.42 15.11C6.21 15.04 5.98 15 5.75 15C4.51 15 3.5 16.01 3.5 17.25C3.5 17.34 3.52 17.42 3.53 17.5C3.53 17.5 3.51 17.5 3.5 17.5C2.67 17.5 2 18.17 2 19C2 19.83 2.67 20.5 3.5 20.5H9.5C9.5 19.23 10.18 18.12 11.19 17.51C11.27 17.25 11.38 17.01 11.5 16.78C11.5 15.4 9.89 14 8.51 14H8.5ZM7.02 12.25C7.25 12.17 7.5 12.11 7.74 12.06C7.99 12.02 8.24 12 8.49 12C8.71 12 8.92 12.02 9.13 12.05C9.2 12.06 9.27 12.07 9.34 12.08C9.53 12.12 9.73 12.16 9.91 12.23C9.95 12.24 9.99 12.26 10.04 12.28C11.39 12.76 12.54 13.83 13.11 15.09C13.72 14.73 14.41 14.51 15.16 14.5C15.61 14.14 16.12 13.88 16.67 13.71C16.87 13.17 16.99 12.6 16.99 12C16.99 9.24 14.75 7 11.99 7C9.23 7 6.99 9.24 6.99 12C6.99 12.09 7.01 12.17 7.01 12.25H7.02Z" fill="#141414"/>
</svg>
