<svg width="24" height="24" viewBox="0 0 24 24" fill="none" xmlns="http://www.w3.org/2000/svg">
<path d="M12.0202 5.07992C12.3002 5.07992 12.5702 4.99992 12.8002 4.84992C13.0302 4.69992 13.2102 4.47992 13.3102 4.21992C13.4102 3.95992 13.4402 3.67992 13.3902 3.40992C13.3302 3.13992 13.2002 2.88992 13.0102 2.68992C12.8102 2.48992 12.5602 2.35992 12.2902 2.30992C12.0202 2.24992 11.7402 2.27992 11.4802 2.38992C11.2302 2.48992 11.0002 2.67992 10.8502 2.89992C10.7002 3.12992 10.6202 3.39992 10.6202 3.67992C10.6202 4.04992 10.7702 4.40992 11.0302 4.66992C11.2902 4.92992 11.6502 5.07992 12.0202 5.07992ZM19.2902 9.17992C19.4502 8.99992 19.5602 8.76992 19.5602 8.50992C19.5602 7.95992 19.1102 7.50992 18.5602 7.50992H15.7802C15.6302 7.50992 15.4902 7.46992 15.3502 7.38992L13.4302 6.30992C12.9902 6.05992 12.5102 5.93992 12.0202 5.93992C12.0202 5.93992 12.0202 5.93992 12.0102 5.93992C11.9902 5.93992 11.9702 5.94992 11.9402 5.94992C11.4902 5.95992 11.0302 6.07992 10.6202 6.30992L8.70023 7.38992C8.57023 7.45992 8.42023 7.49992 8.28023 7.49992H5.49023C4.94023 7.49992 4.49023 7.94992 4.49023 8.49992C4.49023 8.73992 4.59023 8.95992 4.73023 9.12992C4.65023 9.52992 4.58023 9.92992 4.54023 10.3599C4.51023 10.6599 4.50023 10.9499 4.50023 11.2499C4.50023 14.2599 5.80023 16.9199 7.76023 18.5099L7.39023 19.2499C7.14023 19.7399 7.34023 20.3399 7.84023 20.5899C7.98023 20.6599 8.14023 20.6999 8.29023 20.6999C8.66023 20.6999 9.01023 20.4999 9.19023 20.1499L9.49023 19.5399C10.2802 19.8699 11.1202 20.0599 12.0002 20.0599C16.1402 20.0599 19.5002 16.1099 19.5002 11.2499C19.5002 10.9599 19.4802 10.6799 19.4602 10.3699C19.4302 9.95992 19.3702 9.54992 19.2902 9.15992V9.17992ZM8.22023 17.6099C6.57023 16.1899 5.50023 13.8799 5.50023 11.2699C5.50023 11.0099 5.50023 10.7399 5.54023 10.4699C5.57023 10.1399 5.62023 9.81992 5.67023 9.50992H8.28023C8.77023 9.50992 9.26023 9.37992 9.69023 9.13992L11.0102 8.39992V12.0399L8.22023 17.6099ZM12.0002 19.0799C11.2802 19.0799 10.5802 18.9299 9.93023 18.6699L12.0202 14.4999L12.0702 14.5999C12.4302 15.3099 13.0702 15.8399 13.8202 16.0699C14.0902 16.1499 14.3702 16.1899 14.6402 16.1899C15.1402 16.1899 15.6302 16.0599 16.0702 15.7999L16.9602 15.2899C17.4402 15.0099 17.6002 14.3999 17.3202 13.9199C17.0402 13.4399 16.4302 13.2799 15.9502 13.5599L15.0602 14.0699C14.8502 14.1899 14.6102 14.2199 14.3802 14.1499C14.1502 14.0799 13.9602 13.9199 13.8402 13.6999L13.0102 12.0499V8.38992L14.3502 9.13992C14.7802 9.37992 15.2702 9.50992 15.7602 9.50992H18.3202C18.3802 9.81992 18.4202 10.1499 18.4502 10.4899C18.4702 10.7499 18.4802 10.9999 18.4802 11.2699C18.4802 15.5799 15.5602 19.0799 11.9802 19.0799H12.0002Z" fill="#141414"/>
</svg>
