<svg width="24" height="24" viewBox="0 0 24 24" fill="none" xmlns="http://www.w3.org/2000/svg">
<path d="M17.23 6.01H10.18C9.29999 6.01 8.51999 6.56 8.22999 7.39L5.93999 12.59C5.65999 13.23 5.71999 13.96 6.09999 14.55C6.47999 15.13 7.12999 15.48 7.82999 15.48L11.24 15.5L10.13 20.79C10.01 21.33 10.36 21.86 10.9 21.98C10.97 21.99 11.04 22 11.11 22C11.57 22 11.99 21.68 12.09 21.21L13.18 16.09C13.35 15.47 13.22 14.81 12.83 14.3C12.44 13.79 11.84 13.49 11.19 13.49H7.82999L10.18 8.02H17.23C17.78 8.02 18.23 7.57 18.23 7.02C18.23 6.47 17.78 6.01 17.23 6.01Z" fill="#141414"/>
<path d="M11.26 5C12.0884 5 12.76 4.32843 12.76 3.5C12.76 2.67157 12.0884 2 11.26 2C10.4316 2 9.75999 2.67157 9.75999 3.5C9.75999 4.32843 10.4316 5 11.26 5Z" fill="#141414"/>
</svg>
