<svg width="24" height="24" viewBox="0 0 24 24" fill="none" xmlns="http://www.w3.org/2000/svg">
<path d="M17.62 3H6.38C4.52 3 3 4.51 3 6.38V17.63C3 19.49 4.51 21.01 6.38 21.01H10.93V17.38C8.56 16.95 6.62 15.11 6.13 12.69C6.02 12.15 6.37 11.62 6.91 11.51C7.45 11.4 7.98 11.75 8.09 12.29C8.4 13.82 9.59 14.99 11.06 15.35C11.6 12.8 13.86 10.88 16.56 10.88H21.01V6.38C21.01 4.52 19.5 3 17.63 3H17.62ZM10.29 8.51C10.23 8.83 10.07 9.13 9.84 9.36C9.61 9.59 9.31 9.75 8.99 9.81C8.67 9.87 8.33 9.84 8.03 9.72C7.73 9.59 7.47 9.38 7.28 9.11C7.1 8.84 7 8.52 7 8.19C7 7.75 7.17 7.33 7.49 7.02C7.81 6.71 8.22 6.53 8.66 6.53C8.99 6.53 9.31 6.63 9.58 6.81C9.85 6.99 10.07 7.25 10.19 7.56C10.31 7.87 10.36 8.19 10.29 8.51ZM16.97 8.51C16.91 8.83 16.75 9.13 16.52 9.36C16.29 9.59 15.99 9.75 15.67 9.81C15.35 9.87 15.01 9.84 14.71 9.72C14.41 9.59 14.15 9.38 13.96 9.11C13.78 8.84 13.68 8.52 13.68 8.19C13.68 7.75 13.85 7.33 14.17 7.02C14.49 6.71 14.9 6.53 15.34 6.53C15.67 6.53 15.99 6.63 16.26 6.81C16.53 6.99 16.75 7.25 16.87 7.56C17 7.86 17.04 8.19 16.97 8.51ZM16.55 13.13H21L13.18 21V16.5C13.18 14.64 14.68 13.13 16.55 13.13Z" fill="#141414"/>
</svg>
