<svg width="24" height="24" viewBox="0 0 24 24" fill="none" xmlns="http://www.w3.org/2000/svg">
<path d="M12.0002 6C12.5502 6 13.0002 5.55 13.0002 5V3C13.0002 2.45 12.5502 2 12.0002 2C11.4502 2 11.0002 2.45 11.0002 3V5C11.0002 5.55 11.4502 6 12.0002 6ZM18.0002 12C18.0002 12.55 18.4502 13 19.0002 13H21.0002C21.5502 13 22.0002 12.55 22.0002 12C22.0002 11.45 21.5502 11 21.0002 11H19.0002C18.4502 11 18.0002 11.45 18.0002 12ZM6.34023 7.76C6.73023 8.15 7.36023 8.15 7.75023 7.76C8.14023 7.37 8.14023 6.74 7.75023 6.35L6.34023 4.94C5.95023 4.55 5.32023 4.55 4.93023 4.94C4.54023 5.33 4.54023 5.96 4.93023 6.35L6.34023 7.76ZM17.6502 7.76L19.0602 6.35C19.4502 5.96 19.4502 5.33 19.0602 4.94C18.6702 4.55 18.0402 4.55 17.6502 4.94L16.2402 6.35C15.8502 6.74 15.8502 7.37 16.2402 7.76C16.6302 8.15 17.2602 8.15 17.6502 7.76ZM19.9002 16.16C19.5102 14.36 17.9102 13.01 15.9902 13.01C14.4902 13.01 13.2002 13.84 12.5202 15.06C12.3502 15.03 12.1702 15.01 11.9902 15.01C10.3302 15.01 8.99023 16.35 8.99023 18.01C7.89023 18.01 6.99023 18.91 6.99023 20.01C6.99023 21.11 7.89023 22.01 8.99023 22.01H18.9902C20.6502 22.01 21.9902 20.67 21.9902 19.01C21.9902 17.67 21.1102 16.55 19.9002 16.16ZM12.8502 11.92C13.7802 11.34 14.8702 11.01 16.0002 11.01C16.3102 11.01 16.6102 11.03 16.9102 11.08C16.4702 8.76 14.4502 7.01 12.0002 7.01C10.6002 7.01 9.34023 7.59 8.43023 8.52C8.45023 8.52 8.48023 8.52 8.50023 8.52C10.6002 8.52 12.3602 9.98 12.8502 11.93V11.92ZM11.0802 13.11C11.0802 13.11 11.0202 13.09 10.9902 13.08C10.9902 13.06 10.9902 13.03 10.9902 13.01C10.9902 11.63 9.87023 10.51 8.49023 10.51C7.62023 10.51 6.86023 10.95 6.41023 11.62C6.20023 11.55 5.97023 11.51 5.74023 11.51C4.50023 11.51 3.49023 12.52 3.49023 13.76C3.49023 13.85 3.51023 13.93 3.52023 14.01C3.52023 14.01 3.50023 14.01 3.49023 14.01C2.66023 14.01 1.99023 14.68 1.99023 15.51C1.99023 16.34 2.66023 17.01 3.49023 17.01H6.35023C6.62023 16.77 6.93023 16.57 7.25023 16.41C7.82023 14.72 9.28024 13.45 11.0602 13.11H11.0802Z" fill="#141414"/>
</svg>
