<svg width="24" height="24" viewBox="0 0 24 24" fill="none" xmlns="http://www.w3.org/2000/svg">
<path d="M3.9801 11.65C4.1901 11.65 4.3901 11.51 4.4601 11.3C4.5401 11.04 4.3901 10.76 4.1301 10.67L3.1701 10.37C2.9001 10.29 2.6301 10.44 2.5401 10.7C2.4601 10.96 2.6101 11.24 2.8701 11.33L3.8301 11.63C3.8301 11.63 3.9301 11.65 3.9801 11.65ZM6.0501 10C6.0501 10 6.0801 10 6.1001 10C6.3701 9.97001 6.5801 9.73001 6.5501 9.45001L6.4501 8.46001C6.4201 8.18001 6.1701 7.97001 5.9001 8.01001C5.6301 8.04001 5.4201 8.28001 5.4501 8.56001L5.5501 9.55001C5.5801 9.81001 5.7901 10 6.0501 10ZM4.5001 14.71L5.2101 14C5.4101 13.8 5.4101 13.49 5.2101 13.29C5.0101 13.09 4.7001 13.09 4.5001 13.29L3.7901 14C3.5901 14.2 3.5901 14.51 3.7901 14.71C3.8901 14.81 4.0201 14.86 4.1401 14.86C4.2601 14.86 4.4001 14.81 4.4901 14.71H4.5001ZM19.7301 9.63001C19.1601 7.50001 17.5301 5.94001 15.6601 5.70001C14.2601 5.53001 12.7901 6.17001 11.8901 7.30001C11.7901 7.43001 11.6201 7.50001 11.4201 7.50001C11.1901 7.50001 10.6501 7.47001 10.1501 6.34001C9.9201 5.77001 9.8801 5.11001 9.8501 4.48001L9.8201 4.01001L7.4901 4.08001V4.38001C7.4201 6.11001 7.7901 7.77001 8.5901 9.07001C9.1901 10 10.1601 10.43 10.9201 10.77C11.3501 10.94 11.7501 11.1 11.9501 11.34C12.2501 11.61 12.5801 12.57 12.4501 13.5C12.3501 14.3 11.9501 14.9 11.2801 15.26C10.5801 15.66 9.6801 15.56 8.9101 15.43H8.8101C7.9401 15.3 6.9801 15.13 6.1101 15.5C5.4101 15.8 4.8101 16.4 4.4401 17.2C4.1401 17.87 3.9701 18.63 3.9701 19.5V19.83H6.2001L6.1301 19.43C6.0601 19 6.1601 18.6 6.4001 18.33C6.7301 17.96 7.4001 18 7.8701 18.2C8.1401 18.33 8.4001 18.5 8.6701 18.7C8.9701 18.9 9.2401 19.1 9.5701 19.23C10.8001 19.76 11.9701 20.03 13.0701 20.03C13.9401 20.03 14.7701 19.83 15.5701 19.5C17.8701 18.47 19.0701 16.17 19.3001 15.44C20.0301 13.21 20.1701 11.32 19.7001 9.65001L19.7301 9.63001Z" fill="#141414"/>
</svg>
