<svg width="24" height="24" viewBox="0 0 24 24" fill="none" xmlns="http://www.w3.org/2000/svg">
<path d="M6.34 16.24L4.93 17.65C4.54 18.04 4.54 18.67 4.93 19.06C5.32 19.45 5.95 19.45 6.34 19.06L7.75 17.65C8.14 17.26 8.14 16.63 7.75 16.24C7.36 15.85 6.73 15.85 6.34 16.24ZM6.34 7.74999C6.73 8.13999 7.36 8.13999 7.75 7.74999C8.14 7.35999 8.14 6.72999 7.75 6.33999L6.34 4.92999C5.95 4.53999 5.32 4.53999 4.93 4.92999C4.54 5.31999 4.54 5.94999 4.93 6.33999L6.34 7.74999ZM6 11.99C6 11.44 5.55 10.99 5 10.99H3C2.45 10.99 2 11.44 2 11.99C2 12.54 2.45 12.99 3 12.99H5C5.55 12.99 6 12.54 6 11.99ZM12 5.98999C12.55 5.98999 13 5.53999 13 4.98999V2.98999C13 2.43999 12.55 1.98999 12 1.98999C11.45 1.98999 11 2.43999 11 2.98999V4.98999C11 5.53999 11.45 5.98999 12 5.98999ZM17.66 7.74999L19.07 6.33999C19.46 5.94999 19.46 5.31999 19.07 4.92999C18.68 4.53999 18.05 4.53999 17.66 4.92999L16.25 6.33999C15.86 6.72999 15.86 7.35999 16.25 7.74999C16.64 8.13999 17.27 8.13999 17.66 7.74999ZM21 10.99H19C18.45 10.99 18 11.44 18 11.99C18 12.54 18.45 12.99 19 12.99H21C21.55 12.99 22 12.54 22 11.99C22 11.44 21.55 10.99 21 10.99ZM17.66 16.23C17.27 15.84 16.64 15.84 16.25 16.23C15.86 16.62 15.86 17.25 16.25 17.64L17.66 19.05C18.05 19.44 18.68 19.44 19.07 19.05C19.46 18.66 19.46 18.03 19.07 17.64L17.66 16.23ZM12 17.99C11.45 17.99 11 18.44 11 18.99V20.99C11 21.54 11.45 21.99 12 21.99C12.55 21.99 13 21.54 13 20.99V18.99C13 18.44 12.55 17.99 12 17.99ZM12 6.98999C9.24 6.98999 7 9.22999 7 11.99C7 14.75 9.24 16.99 12 16.99C14.76 16.99 17 14.75 17 11.99C17 9.22999 14.76 6.98999 12 6.98999Z" fill="#141414"/>
</svg>
