<svg width="24" height="24" viewBox="0 0 24 24" fill="none" xmlns="http://www.w3.org/2000/svg">
<path d="M7.67 10.2502C7.42 10.4102 7.23 10.6502 7.12 10.9202C7.01 11.1902 6.98 11.5002 7.03 11.7902C7.09 12.0802 7.23 12.3502 7.44 12.5602C7.65 12.7702 7.92 12.9102 8.21 12.9702C8.5 13.0302 8.8 13.0002 9.08 12.8802C9.35 12.7702 9.59 12.5702 9.75 12.3302C9.92 12.0802 10 11.7902 10 11.5002C10 11.1002 9.84 10.7202 9.56 10.4402C9.28 10.1602 8.9 10.0002 8.5 10.0002C8.2 10.0002 7.91 10.0902 7.67 10.2502Z" fill="#141414"/>
<path d="M6 4.99023H18C18.55 4.99023 19 4.54023 19 3.99023C19 3.44023 18.55 2.99023 18 2.99023H6C5.45 2.99023 5 3.44023 5 3.99023C5 4.54023 5.45 4.99023 6 4.99023Z" fill="#141414"/>
<path d="M17.13 14.2102L15.21 12.2802C15.12 12.1902 15.01 12.1102 14.88 12.0602C14.76 12.0102 14.63 11.9802 14.5 11.9802C14.37 11.9802 14.24 12.0102 14.12 12.0602C14 12.1102 13.89 12.1902 13.79 12.2802L9.5 16.5802L8.21 15.2802C8.12 15.1902 8.01 15.1102 7.88 15.0602C7.76 15.0102 7.63 14.9802 7.5 14.9802C7.37 14.9802 7.24 15.0102 7.12 15.0602C7 15.1102 6.89 15.1902 6.79 15.2802L4 18.0802V8.99023C4 8.73023 4.11 8.47023 4.29 8.28023C4.48 8.09023 4.73 7.99023 5 7.99023H17C17.27 7.99023 17.52 8.10023 17.71 8.28023C17.9 8.47023 18 8.72023 18 8.99023V14.0402C18.17 14.0202 18.33 13.9902 18.5 13.9902C19.03 13.9902 19.52 14.0902 20 14.2402V8.65023C20 7.94023 19.68 7.26023 19.12 6.76023C18.56 6.26023 17.79 5.98023 17 5.98023H5C4.2 5.98023 3.44 6.26023 2.88 6.76023C2.32 7.26023 2 7.94023 2 8.65023V19.3202C2 20.0302 2.32 20.7102 2.88 21.2102C3.44 21.7102 4.21 21.9902 5 21.9902H14.52C13.89 21.1502 13.5 20.1202 13.5 18.9902C13.5 16.7102 15.04 14.8002 17.13 14.2002V14.2102Z" fill="#141414"/>
<path d="M18.87 16.0402C18.64 15.9802 18.39 15.9702 18.16 16.0402C17.93 16.1002 17.72 16.2202 17.55 16.3902C17.38 16.5602 17.26 16.7702 17.2 17.0002C17.14 17.2302 17.14 17.4802 17.2 17.7102C17.26 17.9302 17.38 18.1402 17.54 18.3002C17.7 18.4602 17.91 18.5802 18.13 18.6402C18.36 18.7002 18.61 18.7102 18.84 18.6402C19.07 18.5702 19.28 18.4602 19.45 18.2902C19.62 18.1202 19.74 17.9102 19.8 17.6802C19.86 17.4502 19.86 17.2002 19.8 16.9702C19.74 16.7502 19.62 16.5402 19.46 16.3802C19.3 16.2202 19.09 16.1002 18.87 16.0402Z" fill="#141414"/>
<path d="M20.2 19.7002C19.75 19.2502 19.14 19.0002 18.5 19.0002C17.86 19.0002 17.25 19.2502 16.8 19.7002C16.35 20.1502 16.1 20.7602 16.1 21.4002C16.1 21.5602 16.16 21.7102 16.28 21.8202C16.39 21.9302 16.55 22.0002 16.7 22.0002H20.3C20.46 22.0002 20.61 21.9402 20.72 21.8202C20.83 21.7102 20.9 21.5602 20.9 21.4002C20.9 20.7602 20.65 20.1502 20.2 19.7002Z" fill="#141414"/>
</svg>
