<svg width="24" height="24" viewBox="0 0 24 24" fill="none" xmlns="http://www.w3.org/2000/svg">
<path d="M10 5C10.55 5 11 4.55 11 4V3C11 2.45 10.55 2 10 2C9.45 2 9 2.45 9 3V4C9 4.55 9.45 5 10 5ZM5 10C5 9.45 4.55 9 4 9H3C2.45 9 2 9.45 2 10C2 10.55 2.45 11 3 11H4C4.55 11 5 10.55 5 10ZM5.05 6.46C5.44 6.85 6.07 6.85 6.46 6.46C6.85 6.07 6.85 5.44 6.46 5.05L5.75 4.34C5.36 3.95 4.73 3.95 4.34 4.34C3.95 4.73 3.95 5.36 4.34 5.75L5.05 6.46ZM5.05 13.53L4.34 14.24C3.95 14.63 3.95 15.26 4.34 15.65C4.73 16.04 5.36 16.04 5.75 15.65L6.46 14.94C6.85 14.55 6.85 13.92 6.46 13.53C6.07 13.14 5.44 13.14 5.05 13.53ZM13.54 6.46C13.93 6.85 14.56 6.85 14.95 6.46L15.66 5.75C16.05 5.36 16.05 4.73 15.66 4.34C15.27 3.95 14.64 3.95 14.25 4.34L13.54 5.05C13.15 5.44 13.15 6.07 13.54 6.46ZM12.79 8.81C13.01 8.56 13.26 8.34 13.53 8.13C12.86 6.87 11.54 6 10.01 6C7.8 6 6.01 7.79 6.01 10C6.01 11.3 6.64 12.45 7.61 13.18C7.96 12.63 8.44 12.18 9.01 11.88C9.59 10.24 11.04 9.03 12.79 8.81ZM20.19 11.8C19.85 10.2 18.47 9 16.8 9C15.5 9 14.38 9.74 13.79 10.82C13.64 10.79 13.49 10.77 13.33 10.77C11.89 10.77 10.73 11.96 10.73 13.44C9.77 13.44 9 14.24 9 15.22C9 16.2 9.78 17 10.73 17H19.4C20.84 17 22 15.81 22 14.33C22 13.14 21.23 12.14 20.19 11.8ZM10.2 18.4L8.7 20.4C8.37 20.84 8.46 21.47 8.9 21.8C9.08 21.93 9.29 22 9.5 22C9.8 22 10.1 21.86 10.3 21.6L11.8 19.6C12.13 19.16 12.04 18.53 11.6 18.2C11.16 17.87 10.53 17.96 10.2 18.4ZM14.2 18.4L12.7 20.4C12.37 20.84 12.46 21.47 12.9 21.8C13.08 21.93 13.29 22 13.5 22C13.8 22 14.1 21.86 14.3 21.6L15.8 19.6C16.13 19.16 16.04 18.53 15.6 18.2C15.16 17.87 14.53 17.96 14.2 18.4ZM18.2 18.4L16.7 20.4C16.37 20.84 16.46 21.47 16.9 21.8C17.08 21.93 17.29 22 17.5 22C17.8 22 18.1 21.86 18.3 21.6L19.8 19.6C20.13 19.16 20.04 18.53 19.6 18.2C19.16 17.87 18.53 17.96 18.2 18.4Z" fill="#141414"/>
</svg>
