<svg width="24" height="24" viewBox="0 0 24 24" fill="none" xmlns="http://www.w3.org/2000/svg">
<path d="M21.3697 9.60947C21.2557 9.27681 21.0563 8.98217 20.7904 8.75405C20.5246 8.52594 20.2017 8.38337 19.8504 8.32635L15.6155 7.68003L13.7164 3.59303C13.5645 3.26988 13.3176 2.99424 13.0137 2.79464C12.7099 2.60455 12.3586 2.5 11.9977 2.5C11.6369 2.5 11.2856 2.60455 10.9817 2.79464C10.6779 2.98474 10.431 3.26037 10.2791 3.59303L8.37999 7.68003L4.10708 8.32635C3.76524 8.38337 3.43291 8.52594 3.16704 8.75405C2.90117 8.98217 2.70176 9.27681 2.58782 9.60947C2.48337 9.93263 2.47387 10.2843 2.54984 10.617C2.6258 10.9496 2.79672 11.2633 3.0341 11.5104L6.15808 14.723L5.41744 19.2757C5.36047 19.6274 5.40794 19.9885 5.54088 20.3117C5.67381 20.6349 5.9017 20.92 6.19606 21.1291C6.50941 21.3667 6.89872 21.4998 7.29752 21.5093C7.62986 21.5093 7.9527 21.4332 8.24706 21.2717L12.0357 19.1806L15.8244 21.2717C16.1092 21.4332 16.4416 21.5188 16.7739 21.5093C17.1727 21.5093 17.5525 21.3857 17.8754 21.1576C18.1602 20.9485 18.3881 20.6729 18.5305 20.3402C18.6635 20.0171 18.711 19.6559 18.654 19.3042L17.9133 14.7515L21.0373 11.5389C21.2652 11.2823 21.4076 10.9591 21.4741 10.617C21.5311 10.2748 21.4931 9.92312 21.3697 9.60947Z" fill="#141414"/>
</svg>
