<svg width="24" height="24" viewBox="0 0 24 24" fill="none" xmlns="http://www.w3.org/2000/svg">
<path d="M6.93983 4.33008C7.05983 4.87008 7.58983 5.21008 8.12983 5.09008C8.66983 4.97008 9.00983 4.44008 8.88983 3.90008L8.66983 2.92008C8.54983 2.38008 8.01983 2.04008 7.47983 2.16008C6.93983 2.28008 6.59983 2.81008 6.71983 3.35008L6.93983 4.33008ZM5.08983 9.86008C4.96983 9.32008 4.43983 8.98008 3.89983 9.10008L2.91983 9.32008C2.37983 9.44008 2.03983 9.97008 2.15983 10.5101C2.27983 11.0501 2.80983 11.3901 3.34983 11.2701L4.32983 11.0501C4.86983 10.9301 5.20983 10.4001 5.08983 9.86008ZM3.39983 6.61008L4.23983 7.15008C4.70983 7.45008 5.31983 7.31008 5.61983 6.84008C5.91983 6.37008 5.77983 5.76008 5.30983 5.46008L4.46983 4.92008C3.99983 4.62008 3.38983 4.76008 3.08983 5.23008C2.78983 5.70008 2.92983 6.31008 3.39983 6.61008ZM11.1498 5.62008C11.6198 5.92008 12.2298 5.78008 12.5298 5.31008L13.0698 4.47008C13.3698 4.00008 13.2298 3.39008 12.7598 3.09008C12.2898 2.79008 11.6798 2.93008 11.3798 3.40008L10.8398 4.24008C10.5398 4.71008 10.6798 5.32008 11.1498 5.62008ZM10.8698 7.24008C10.9598 7.13008 11.0598 7.03008 11.1598 6.93008C10.6098 6.36008 9.84983 6.00008 8.99983 6.00008C7.33983 6.00008 5.99983 7.34008 5.99983 9.00008C5.99983 9.61008 6.17983 10.1701 6.48983 10.6401C7.18983 8.78008 8.85983 7.42008 10.8698 7.24008ZM19.7698 10.5001C19.3598 8.50008 17.6498 6.99008 15.5998 6.99008C13.9998 6.99008 12.6298 7.92008 11.8898 9.27008C11.7098 9.24008 11.5198 9.21008 11.3298 9.21008C9.55983 9.21008 8.12983 10.7001 8.12983 12.5401C6.94983 12.5401 5.99983 13.5301 5.99983 14.7601C5.99983 15.9901 6.95983 16.9801 8.12983 16.9801H18.7998C20.5698 16.9801 21.9998 15.4901 21.9998 13.6501C21.9998 12.1601 21.0598 10.9201 19.7698 10.4901V10.5001ZM20.7098 18.2901C20.3198 17.9001 19.6898 17.9001 19.2998 18.2901L19.0098 18.5801L18.7198 18.2901C18.3298 17.9001 17.6998 17.9001 17.3098 18.2901C16.9198 18.6801 16.9198 19.3101 17.3098 19.7001L17.5998 19.9901L17.3098 20.2801C16.9198 20.6701 16.9198 21.3001 17.3098 21.6901C17.5098 21.8901 17.7598 21.9801 18.0198 21.9801C18.2798 21.9801 18.5298 21.8801 18.7298 21.6901L19.0198 21.4001L19.3098 21.6901C19.5098 21.8901 19.7598 21.9801 20.0198 21.9801C20.2798 21.9801 20.5298 21.8801 20.7298 21.6901C21.1198 21.3001 21.1198 20.6701 20.7298 20.2801L20.4398 19.9901L20.7298 19.7001C21.1198 19.3101 21.1198 18.6801 20.7298 18.2901H20.7098ZM14.7098 18.2901C14.3198 17.9001 13.6898 17.9001 13.2998 18.2901L13.0098 18.5801L12.7198 18.2901C12.3298 17.9001 11.6998 17.9001 11.3098 18.2901C10.9198 18.6801 10.9198 19.3101 11.3098 19.7001L11.5998 19.9901L11.3098 20.2801C10.9198 20.6701 10.9198 21.3001 11.3098 21.6901C11.5098 21.8901 11.7598 21.9801 12.0198 21.9801C12.2798 21.9801 12.5298 21.8801 12.7298 21.6901L13.0198 21.4001L13.3098 21.6901C13.5098 21.8901 13.7598 21.9801 14.0198 21.9801C14.2798 21.9801 14.5298 21.8801 14.7298 21.6901C15.1198 21.3001 15.1198 20.6701 14.7298 20.2801L14.4398 19.9901L14.7298 19.7001C15.1198 19.3101 15.1198 18.6801 14.7298 18.2901H14.7098ZM8.70983 18.2901C8.31983 17.9001 7.68983 17.9001 7.29983 18.2901L7.00983 18.5801L6.71983 18.2901C6.32983 17.9001 5.69983 17.9001 5.30983 18.2901C4.91983 18.6801 4.91983 19.3101 5.30983 19.7001L5.59983 19.9901L5.30983 20.2801C4.91983 20.6701 4.91983 21.3001 5.30983 21.6901C5.50983 21.8901 5.75983 21.9801 6.01983 21.9801C6.27983 21.9801 6.52983 21.8801 6.72983 21.6901L7.01983 21.4001L7.30983 21.6901C7.50983 21.8901 7.75983 21.9801 8.01983 21.9801C8.27983 21.9801 8.52983 21.8801 8.72983 21.6901C9.11983 21.3001 9.11983 20.6701 8.72983 20.2801L8.43983 19.9901L8.72983 19.7001C9.11983 19.3101 9.11983 18.6801 8.72983 18.2901H8.70983Z" fill="#141414"/>
</svg>
