<svg width="24" height="24" viewBox="0 0 24 24" fill="none" xmlns="http://www.w3.org/2000/svg">
<path d="M6.93983 4.33008C7.05983 4.87008 7.58983 5.21008 8.12983 5.09008C8.66983 4.97008 9.00983 4.44008 8.88983 3.90008L8.66983 2.92008C8.54983 2.38008 8.01983 2.04008 7.47983 2.16008C6.93983 2.28008 6.59983 2.81008 6.71983 3.35008L6.93983 4.33008ZM3.89983 9.10008L2.91983 9.32008C2.37983 9.44008 2.03983 9.97008 2.15983 10.5101C2.27983 11.0501 2.80983 11.3901 3.34983 11.2701L4.32983 11.0501C4.86983 10.9301 5.20983 10.4001 5.08983 9.86008C4.96983 9.32008 4.43983 8.98008 3.89983 9.10008ZM5.31983 5.46008L4.47983 4.92008C4.00983 4.62008 3.39983 4.76008 3.09983 5.23008C2.79983 5.70008 2.93983 6.31008 3.40983 6.61008L4.24983 7.15008C4.71983 7.45008 5.32983 7.31008 5.62983 6.84008C5.92983 6.37008 5.78983 5.76008 5.31983 5.46008ZM11.1498 5.62008C11.6198 5.92008 12.2298 5.78008 12.5298 5.31008L13.0698 4.47008C13.3698 4.00008 13.2298 3.39008 12.7598 3.09008C12.2898 2.79008 11.6798 2.93008 11.3798 3.40008L10.8398 4.24008C10.5398 4.71008 10.6798 5.32008 11.1498 5.62008ZM10.8698 7.24008C10.9598 7.13008 11.0598 7.03008 11.1598 6.93008C10.6098 6.36008 9.84983 6.00008 8.99983 6.00008C7.33983 6.00008 5.99983 7.34008 5.99983 9.00008C5.99983 9.61008 6.17983 10.1701 6.48983 10.6401C7.18983 8.78008 8.85983 7.42008 10.8698 7.24008ZM19.7698 10.5001C19.3598 8.50008 17.6498 6.99008 15.5998 6.99008C13.9998 6.99008 12.6298 7.92008 11.8898 9.27008C11.7098 9.24008 11.5198 9.21008 11.3298 9.21008C9.55983 9.21008 8.12983 10.7001 8.12983 12.5401C6.94983 12.5401 5.99983 13.5301 5.99983 14.7601C5.99983 15.9901 6.95983 16.9801 8.12983 16.9801H18.7998C20.5698 16.9801 21.9998 15.4901 21.9998 13.6501C21.9998 12.1601 21.0598 10.9201 19.7698 10.4901V10.5001ZM9.19983 18.4001L7.69983 20.4001C7.36983 20.8401 7.45983 21.4701 7.89983 21.8001C8.07983 21.9301 8.28983 22.0001 8.49983 22.0001C8.79983 22.0001 9.09983 21.8601 9.29983 21.6001L10.7998 19.6001C11.1298 19.1601 11.0398 18.5301 10.5998 18.2001C10.1598 17.8701 9.52983 17.9601 9.19983 18.4001ZM13.1998 18.4001L11.6998 20.4001C11.3698 20.8401 11.4598 21.4701 11.8998 21.8001C12.0798 21.9301 12.2898 22.0001 12.4998 22.0001C12.7998 22.0001 13.0998 21.8601 13.2998 21.6001L14.7998 19.6001C15.1298 19.1601 15.0398 18.5301 14.5998 18.2001C14.1598 17.8701 13.5298 17.9601 13.1998 18.4001ZM17.1998 18.4001L15.6998 20.4001C15.3698 20.8401 15.4598 21.4701 15.8998 21.8001C16.0798 21.9301 16.2898 22.0001 16.4998 22.0001C16.7998 22.0001 17.0998 21.8601 17.2998 21.6001L18.7998 19.6001C19.1298 19.1601 19.0398 18.5301 18.5998 18.2001C18.1598 17.8701 17.5298 17.9601 17.1998 18.4001Z" fill="#141414"/>
</svg>
