<svg width="24" height="24" viewBox="0 0 24 24" fill="none" xmlns="http://www.w3.org/2000/svg">
<path d="M19.9102 16.1501C19.5202 14.3501 17.9202 13.0001 16.0002 13.0001C14.5002 13.0001 13.2102 13.8301 12.5302 15.0501C12.3602 15.0201 12.1802 15.0001 12.0002 15.0001C10.3402 15.0001 9.00023 16.3401 9.00023 18.0001C7.90023 18.0001 7.00023 18.9001 7.00023 20.0001C7.00023 21.1001 7.90023 22.0001 9.00023 22.0001H19.0002C20.6602 22.0001 22.0002 20.6601 22.0002 19.0001C22.0002 17.6601 21.1202 16.5401 19.9102 16.1501ZM13.6302 11.5001C14.3702 11.1801 15.1702 11.0001 16.0002 11.0001C17.9002 11.0001 19.6402 11.9201 20.7502 13.3701C20.8802 12.8401 20.9702 12.2901 21.0102 11.7301C21.2902 7.5401 18.9902 3.8601 15.5302 2.1201C14.6602 1.6801 13.7402 2.5901 14.1802 3.4601C14.8902 4.8701 15.2002 6.5101 14.9402 8.2501C14.7602 9.4501 14.2902 10.5501 13.6202 11.5101L13.6302 11.5001ZM5.12023 19.0801C5.12023 19.0801 5.13023 19.0301 5.14023 19.0001H5.01023C5.01023 19.0001 5.09023 19.0501 5.12023 19.0801ZM11.0802 13.1001C11.0802 13.1001 11.0202 13.0801 10.9902 13.0701C10.9902 13.0501 10.9902 13.0201 10.9902 13.0001C10.9902 11.6201 9.87023 10.5001 8.49023 10.5001C7.62023 10.5001 6.86023 10.9401 6.41023 11.6101C6.20023 11.5401 5.97023 11.5001 5.74023 11.5001C4.50023 11.5001 3.49023 12.5101 3.49023 13.7501C3.49023 13.8401 3.51023 13.9201 3.52023 14.0001C3.52023 14.0001 3.50023 14.0001 3.49023 14.0001C2.66023 14.0001 1.99023 14.6701 1.99023 15.5001C1.99023 16.3301 2.66023 17.0001 3.49023 17.0001H6.35023C6.62023 16.7601 6.93023 16.5601 7.25023 16.4001C7.82023 14.7101 9.28024 13.4401 11.0602 13.1001H11.0802Z" fill="#141414"/>
</svg>
