<svg width="24" height="24" viewBox="0 0 24 24" fill="none" xmlns="http://www.w3.org/2000/svg">
<path d="M8.40005 5.92005C8.61005 6.43005 9.20005 6.67005 9.71005 6.46005C10.22 6.25005 10.46 5.66005 10.25 5.15005L9.48005 3.30005C9.27005 2.79005 8.68005 2.55005 8.17005 2.76005C7.66005 2.97005 7.42005 3.56005 7.63005 4.07005L8.40005 5.92005ZM5.15005 13.76L3.30005 14.53C2.79005 14.74 2.55005 15.33 2.76005 15.84C2.97005 16.35 3.56005 16.59 4.07005 16.38L5.92005 15.61C6.43005 15.4 6.67005 14.81 6.46005 14.3C6.25005 13.79 5.66005 13.55 5.15005 13.76ZM18.85 10.25L20.7 9.48005C21.21 9.27005 21.45 8.68005 21.24 8.17005C21.03 7.66005 20.44 7.42005 19.93 7.63005L18.08 8.40005C17.57 8.61005 17.33 9.20005 17.54 9.71005C17.75 10.22 18.34 10.46 18.85 10.25ZM5.92005 8.40005L4.07005 7.63005C3.56005 7.42005 2.97005 7.66005 2.76005 8.17005C2.55005 8.68005 2.79005 9.27005 3.30005 9.48005L5.15005 10.25C5.66005 10.46 6.25005 10.22 6.46005 9.71005C6.67005 9.20005 6.43005 8.61005 5.92005 8.40005ZM14.3 6.46005C14.81 6.67005 15.4 6.43005 15.61 5.92005L16.38 4.07005C16.59 3.56005 16.35 2.97005 15.84 2.76005C15.33 2.55005 14.74 2.79005 14.53 3.30005L13.76 5.15005C13.55 5.66005 13.79 6.25005 14.3 6.46005ZM11.53 13.02C12.66 11.75 14.28 11 16 11C16.31 11 16.61 11.02 16.91 11.07C16.47 8.75005 14.45 7.00005 12 7.00005C9.24005 7.00005 7.00005 9.24005 7.00005 12C7.00005 13.13 7.39005 14.16 8.02005 14.99C8.84005 13.9 10.1 13.15 11.53 13.02ZM19.91 16.15C19.52 14.35 17.92 13 16 13C14.5 13 13.21 13.83 12.53 15.05C12.36 15.02 12.18 15 12 15C10.34 15 9.00005 16.34 9.00005 18C7.90005 18 7.00005 18.9 7.00005 20C7.00005 21.1 7.90005 22 9.00005 22H19C20.66 22 22 20.66 22 19C22 17.66 21.12 16.54 19.91 16.15Z" fill="#141414"/>
</svg>
