<svg width="24" height="24" viewBox="0 0 24 24" fill="none" xmlns="http://www.w3.org/2000/svg">
<path d="M18.93 10.1C18.48 9.88 17.95 10.03 17.67 10.44L15.96 13C15.82 13.21 15.5 13.11 15.5 12.86V5C15.5 4.45 15.05 4 14.5 4C13.95 4 13.5 4.45 13.5 5V10.5C13.5 10.78 13.28 11 13 11C12.72 11 12.5 10.78 12.5 10.5V3C12.5 2.45 12.05 2 11.5 2C10.95 2 10.5 2.45 10.5 3V10.5C10.5 10.78 10.28 11 10 11C9.72 11 9.5 10.78 9.5 10.5V4C9.5 3.45 9.05 3 8.5 3C7.95 3 7.5 3.45 7.5 4V11.5C7.5 11.78 7.28 12 7 12C6.72 12 6.5 11.78 6.5 11.5V7C6.5 6.45 6.05 6 5.5 6C4.95 6 4.5 6.45 4.5 7V14.99C4.5 18.7 7.38 21.92 11.09 22C14.15 22.06 16.81 20.12 17.69 17.2L19.46 11.29C19.6 10.82 19.38 10.31 18.93 10.1ZM6.5 15C6.22 15 6 14.78 6 14.5C6 14.22 6.22 14 6.5 14C6.78 14 7 14.22 7 14.5C7 14.78 6.78 15 6.5 15ZM7.5 19C7.22 19 7 18.78 7 18.5C7 18.22 7.22 18 7.5 18C7.78 18 8 18.22 8 18.5C8 18.78 7.78 19 7.5 19ZM7.5 16C7.22 16 7 15.78 7 15.5C7 15.22 7.22 15 7.5 15C7.78 15 8 15.22 8 15.5C8 15.78 7.78 16 7.5 16ZM7.5 14C7.22 14 7 13.78 7 13.5C7 13.22 7.22 13 7.5 13C7.78 13 8 13.22 8 13.5C8 13.78 7.78 14 7.5 14ZM9.5 20C9.22 20 9 19.78 9 19.5C9 19.22 9.22 19 9.5 19C9.78 19 10 19.22 10 19.5C10 19.78 9.78 20 9.5 20ZM13.5 17C13.22 17 13 16.78 13 16.5C13 16.22 13.22 16 13.5 16C13.78 16 14 16.22 14 16.5C14 16.78 13.78 17 13.5 17ZM14.5 19C14.22 19 14 18.78 14 18.5C14 18.22 14.22 18 14.5 18C14.78 18 15 18.22 15 18.5C15 18.78 14.78 19 14.5 19ZM15.5 16C15.22 16 15 15.78 15 15.5C15 15.22 15.22 15 15.5 15C15.78 15 16 15.22 16 15.5C16 15.78 15.78 16 15.5 16Z" fill="#141414"/>
</svg>
