<svg width="24" height="24" viewBox="0 0 24 24" fill="none" xmlns="http://www.w3.org/2000/svg">
<path d="M19.48 13.0098H4.90001C4.34001 13.0098 3.89001 12.5598 3.89001 11.9998C3.89001 11.4398 4.34001 10.9898 4.90001 10.9898H19.48C20.04 10.9898 20.49 11.4398 20.49 11.9998C20.49 12.5598 20.04 13.0098 19.48 13.0098Z" fill="#141414"/>
<path d="M11.92 4.86979C9.68001 4.86979 8.38001 5.85979 8.38001 7.35979C8.38001 8.59979 9.48001 9.16979 11.1 9.78979L13.82 10.8698C16.76 12.0298 18.57 13.3298 18.57 16.3598C18.57 19.8398 15.85 21.9598 11.92 21.9598C9.00001 21.9598 6.88001 20.9998 5.49001 19.6398C5.26001 19.4098 5.04001 19.0498 5.04001 18.7098C5.04001 18.0598 5.75001 17.1198 6.60001 17.1198C6.94001 17.1198 7.19001 17.2898 7.56001 17.5998C8.55001 18.4498 9.94001 19.1298 11.92 19.1298C14.04 19.1298 15.52 18.0798 15.52 16.3598C15.52 15.0898 14.44 14.2998 12.8 13.6698L10.08 12.5898C7.16001 11.4298 5.32001 10.2998 5.32001 7.34978C5.32001 4.14979 7.98001 2.02979 11.92 2.02979C14.18 2.02979 15.94 2.70979 17.04 3.55979C17.41 3.86979 17.58 4.20978 17.58 4.65979C17.58 5.30979 16.84 6.12979 16.14 6.12979C15.77 6.12979 15.57 6.01979 15.26 5.81979C14.35 5.27979 13.45 4.85979 11.92 4.85979V4.86979Z" fill="#141414"/>
</svg>
