<svg width="24" height="24" viewBox="0 0 24 24" fill="none" xmlns="http://www.w3.org/2000/svg">
<path d="M8.70977 5.12989C9.09977 4.73989 9.14977 4.71989 9.94977 5.24989C10.7098 5.75989 12.1298 6.70989 13.7098 5.12989C14.0998 4.73989 14.1498 4.71989 14.9498 5.24989C15.3998 5.54989 16.0698 5.99989 16.8698 5.99989C17.4298 5.99989 18.0598 5.77989 18.7098 5.12989C19.0998 4.73989 19.0998 4.10989 18.7098 3.71989C18.3198 3.32989 17.6898 3.32989 17.2998 3.71989C16.9098 4.10989 16.8598 4.12988 16.0598 3.59988C15.2998 3.08988 13.8798 2.13989 12.2998 3.71989C11.9098 4.10989 11.8598 4.12988 11.0598 3.59988C10.2998 3.08988 8.87977 2.13989 7.29977 3.71989C6.90977 4.10989 6.90977 4.73989 7.29977 5.12989C7.68977 5.51989 8.31977 5.51989 8.70977 5.12989ZM20.5598 9.71989L16.0098 11.9999V10.5199C16.0098 9.79989 15.2798 9.31989 14.6198 9.59989L9.00977 11.9999V10.5199C9.00977 9.79989 8.27977 9.31989 7.61977 9.59989L6.00977 10.2899V3.99989C6.00977 3.44989 5.55977 2.99989 5.00977 2.99989H4.00977C3.45977 2.99989 3.00977 3.44989 3.00977 3.99989V11.6099C2.39977 11.9699 2.00977 12.5999 2.00977 13.3199V18.9999C2.00977 20.0999 2.90977 20.9999 4.00977 20.9999H20.0098C21.1098 20.9999 22.0098 20.0999 22.0098 18.9999V10.6199C22.0098 9.87988 21.2298 9.38988 20.5598 9.72988V9.71989ZM12.0098 16.9999H10.0098V14.9999H12.0098V16.9999ZM16.0098 16.9999H14.0098V14.9999H16.0098V16.9999ZM20.0098 16.9999H18.0098V14.9999H20.0098V16.9999Z" fill="#141414"/>
</svg>
