<svg width="24" height="24" viewBox="0 0 24 24" fill="none" xmlns="http://www.w3.org/2000/svg">
<path d="M12 6C12.55 6 13 5.55 13 5V3C13 2.45 12.55 2 12 2C11.45 2 11 2.45 11 3V5C11 5.55 11.45 6 12 6ZM6 12C6 11.45 5.55 11 5 11H3C2.45 11 2 11.45 2 12C2 12.55 2.45 13 3 13H5C5.55 13 6 12.55 6 12ZM6.34 7.76C6.73 8.15 7.36 8.15 7.75 7.76C8.14 7.37 8.14 6.74 7.75 6.35L6.34 4.94C5.95 4.55 5.32 4.55 4.93 4.94C4.54 5.33 4.54 5.96 4.93 6.35L6.34 7.76ZM6.34 16.25L4.93 17.66C4.54 18.05 4.54 18.68 4.93 19.07C5.32 19.46 5.95 19.46 6.34 19.07L7.75 17.66C8.14 17.27 8.14 16.64 7.75 16.25C7.36 15.86 6.73 15.86 6.34 16.25ZM17.65 7.76L19.06 6.35C19.45 5.96 19.45 5.33 19.06 4.94C18.67 4.55 18.04 4.55 17.65 4.94L16.24 6.35C15.85 6.74 15.85 7.37 16.24 7.76C16.63 8.15 17.26 8.15 17.65 7.76ZM13.19 18.4L11.69 20.4C11.36 20.84 11.45 21.47 11.89 21.8C12.07 21.93 12.28 22 12.49 22C12.79 22 13.09 21.86 13.29 21.6L14.79 19.6C15.12 19.16 15.03 18.53 14.59 18.2C14.15 17.87 13.52 17.96 13.19 18.4ZM17.19 18.4L15.69 20.4C15.36 20.84 15.45 21.47 15.89 21.8C16.07 21.93 16.28 22 16.49 22C16.79 22 17.09 21.86 17.29 21.6L18.79 19.6C19.12 19.16 19.03 18.53 18.59 18.2C18.15 17.87 17.52 17.96 17.19 18.4ZM15.16 9.5C15.41 9.3 15.68 9.14 15.96 8.99C15.05 7.79 13.61 6.99 11.99 6.99C9.23 6.99 6.99 9.23 6.99 11.99C6.99 13.89 8.06 15.52 9.61 16.36C9.54 16.08 9.49 15.79 9.49 15.49C9.49 14.22 10.17 13.11 11.18 12.5C11.7 10.78 13.29 9.53 15.17 9.49L15.16 9.5ZM20.48 13.07C20.48 13.07 20.48 13.02 20.48 13C20.48 11.62 19.36 10.5 17.98 10.5C17.11 10.5 16.35 10.94 15.9 11.61C15.69 11.54 15.46 11.5 15.23 11.5C13.99 11.5 12.98 12.51 12.98 13.75C12.98 13.84 13 13.92 13.01 14C13.01 14 12.99 14 12.98 14C12.15 14 11.48 14.67 11.48 15.5C11.48 16.33 12.15 17 12.98 17H19.98C21.08 17 21.98 16.1 21.98 15C21.98 14.07 21.34 13.29 20.47 13.07H20.48Z" fill="#141414"/>
</svg>
