<svg width="24" height="24" viewBox="0 0 24 24" fill="none" xmlns="http://www.w3.org/2000/svg">
<path d="M8.71 15.29C8.32 14.9 7.69 14.9 7.3 15.29L7.01 15.58L6.72 15.29C6.33 14.9 5.7 14.9 5.31 15.29C4.92 15.68 4.92 16.31 5.31 16.7L5.6 16.99L5.31 17.28C4.92 17.67 4.92 18.3 5.31 18.69C5.51 18.89 5.76 18.98 6.02 18.98C6.28 18.98 6.53 18.88 6.73 18.69L7.02 18.4L7.31 18.69C7.51 18.89 7.76 18.98 8.02 18.98C8.28 18.98 8.53 18.88 8.73 18.69C9.12 18.3 9.12 17.67 8.73 17.28L8.44 16.99L8.73 16.7C9.12 16.31 9.12 15.68 8.73 15.29H8.71ZM19.44 8.38C19.47 8.17 19.5 7.96 19.5 7.75C19.5 5.13 17.37 3 14.75 3C13.11 3 11.67 3.83 10.82 5.09C10.56 5.03 10.28 5 10 5C8.13 5 6.58 6.28 6.14 8.01C6.09 8.01 6.05 8 6 8C4.34 8 3 9.34 3 11C3 12.66 4.34 14 6 14H18C19.66 14 21 12.66 21 11C21 9.87 20.36 8.89 19.44 8.38ZM12 17C11.5 17 10.5 18.67 10.5 19.5C10.5 20.33 11.17 21 12 21C12.83 21 13.5 20.33 13.5 19.5C13.5 18.67 12.5 17 12 17ZM17 15C16.5 15 15.5 16.67 15.5 17.5C15.5 18.33 16.17 19 17 19C17.83 19 18.5 18.33 18.5 17.5C18.5 16.67 17.5 15 17 15Z" fill="#141414"/>
</svg>
