<svg width="24" height="24" viewBox="0 0 24 24" fill="none" xmlns="http://www.w3.org/2000/svg">
<path d="M12 6C12.55 6 13 5.55 13 5V3C13 2.45 12.55 2 12 2C11.45 2 11 2.45 11 3V5C11 5.55 11.45 6 12 6ZM6 12C6 11.45 5.55 11 5 11H3C2.45 11 2 11.45 2 12C2 12.55 2.45 13 3 13H5C5.55 13 6 12.55 6 12ZM18 12C18 12.55 18.45 13 19 13H21C21.55 13 22 12.55 22 12C22 11.45 21.55 11 21 11H19C18.45 11 18 11.45 18 12ZM6.34 7.76C6.73 8.15 7.36 8.15 7.75 7.76C8.14 7.37 8.14 6.74 7.75 6.35L6.34 4.94C5.95 4.55 5.32 4.55 4.93 4.94C4.54 5.33 4.54 5.96 4.93 6.35L6.34 7.76ZM6.34 16.25L4.93 17.66C4.54 18.05 4.54 18.68 4.93 19.07C5.32 19.46 5.95 19.46 6.34 19.07L7.75 17.66C8.14 17.27 8.14 16.64 7.75 16.25C7.36 15.86 6.73 15.86 6.34 16.25ZM17.65 7.76L19.06 6.35C19.45 5.96 19.45 5.33 19.06 4.94C18.67 4.55 18.04 4.55 17.65 4.94L16.24 6.35C15.85 6.74 15.85 7.37 16.24 7.76C16.63 8.15 17.26 8.15 17.65 7.76ZM15.16 13.5C15.67 13.08 16.28 12.8 16.92 12.64C16.95 12.43 16.98 12.22 16.98 12C16.98 9.24 14.74 7 11.98 7C9.22 7 6.98 9.24 6.98 12C6.98 14.33 8.58 16.27 10.73 16.82C10.87 16.71 11.01 16.6 11.16 16.5C11.68 14.78 13.27 13.53 15.15 13.49L15.16 13.5ZM20.48 17.07C20.48 17.07 20.48 17.02 20.48 17C20.48 15.62 19.36 14.5 17.98 14.5C17.11 14.5 16.35 14.94 15.9 15.61C15.69 15.54 15.46 15.5 15.23 15.5C13.99 15.5 12.98 16.51 12.98 17.75C12.98 17.84 13 17.92 13.01 18C13.01 18 12.99 18 12.98 18C12.15 18 11.48 18.67 11.48 19.5C11.48 20.33 12.15 21 12.98 21H19.98C21.08 21 21.98 20.1 21.98 19C21.98 18.07 21.34 17.29 20.47 17.07H20.48Z" fill="#141414"/>
</svg>
