<svg width="24" height="24" viewBox="0 0 24 24" fill="none" xmlns="http://www.w3.org/2000/svg">
<path d="M12 15.67C11.52 15.39 10.91 15.56 10.63 16.04L8.63 19.5C8.35 19.98 8.52 20.59 9 20.87C9.48 21.15 10.09 20.98 10.37 20.5L12.37 17.04C12.65 16.56 12.48 15.95 12 15.67ZM8 15.67C7.52 15.39 6.91 15.56 6.63 16.04L4.63 19.5C4.35 19.98 4.52 20.59 5 20.87C5.48 21.15 6.09 20.98 6.37 20.5L8.37 17.04C8.65 16.56 8.48 15.95 8 15.67ZM18.5 8C18.83 8 19.15 8.06 19.46 8.16C19.48 8.02 19.5 7.89 19.5 7.75C19.5 5.13 17.37 3 14.75 3C13.11 3 11.67 3.83 10.82 5.09C10.56 5.03 10.28 5 10 5C8.13 5 6.58 6.28 6.14 8.01C6.09 8.01 6.05 8 6 8C4.34 8 3 9.34 3 11C3 12.66 4.34 14 6 14H12.92C12.95 13.95 12.97 13.89 13 13.83L16 9.33C16.56 8.49 17.49 7.99 18.5 7.99V8ZM19.86 14.99C19.68 14.68 19.35 14.5 19 14.5H17.37L19.33 11.55C19.64 11.09 19.51 10.47 19.05 10.16C18.59 9.85 17.97 9.98 17.66 10.44L14.66 14.94C14.46 15.25 14.44 15.64 14.61 15.97C14.78 16.3 15.12 16.5 15.49 16.5H17.29L15.62 19.51C15.35 19.99 15.53 20.6 16.01 20.87C16.16 20.96 16.33 21 16.49 21C16.84 21 17.18 20.81 17.37 20.49L19.87 15.99C20.04 15.68 20.04 15.3 19.86 15V14.99Z" fill="#141414"/>
</svg>
