<svg width="24" height="24" viewBox="0 0 24 24" fill="none" xmlns="http://www.w3.org/2000/svg">
<path d="M3.17647 18.9412H6.70588C7.35563 18.9412 7.88235 18.4145 7.88235 17.7647V14.2353C7.88235 13.5855 7.35563 13.0588 6.70588 13.0588H3.17647C2.52672 13.0588 2 13.5855 2 14.2353V17.7647C2 18.4145 2.52672 18.9412 3.17647 18.9412Z" fill="#141414"/>
<path d="M10.2353 18.9412H13.7647C14.4145 18.9412 14.9412 18.4145 14.9412 17.7647V14.2353C14.9412 13.5855 14.4145 13.0588 13.7647 13.0588H10.2353C9.58555 13.0588 9.05882 13.5855 9.05882 14.2353V17.7647C9.05882 18.4145 9.58555 18.9412 10.2353 18.9412Z" fill="#141414"/>
<path d="M10.2353 11.8824H13.7647C14.4145 11.8824 14.9412 11.3556 14.9412 10.7059V7.17647C14.9412 6.52672 14.4145 6 13.7647 6H10.2353C9.58555 6 9.05882 6.52672 9.05882 7.17647V10.7059C9.05882 11.3556 9.58555 11.8824 10.2353 11.8824Z" fill="#141414"/>
<path d="M17.2941 11.8824H20.8235C21.4733 11.8824 22 11.3556 22 10.7059V7.17647C22 6.52672 21.4733 6 20.8235 6H17.2941C16.6444 6 16.1176 6.52672 16.1176 7.17647V10.7059C16.1176 11.3556 16.6444 11.8824 17.2941 11.8824Z" fill="#141414"/>
</svg>
