<svg width="24" height="24" viewBox="0 0 24 24" fill="none" xmlns="http://www.w3.org/2000/svg">
<path d="M5.01001 15V6.00002C5.01001 5.73002 5.12001 5.48002 5.31001 5.29002C5.50001 5.10002 5.75001 5.00002 6.01001 5.00002H15.65L17.65 3.00002H6.01001C5.22001 3.00002 4.46001 3.31002 3.89001 3.88002C3.33001 4.44002 3.01001 5.20002 3.01001 6.00002V15C3.01001 15.7 3.26001 16.39 3.72001 16.93L5.15001 15.5C5.06001 15.35 5.01001 15.17 5.01001 15Z" fill="#141414"/>
<path d="M10.31 7.29002C10.12 7.48002 10.01 7.73002 10.01 8.00002V10.64L12.01 8.64002V8.00002C12.01 7.73002 11.91 7.48002 11.72 7.29002C11.53 7.10002 11.28 7.00002 11.01 7.00002C10.74 7.00002 10.5 7.10002 10.31 7.29002Z" fill="#141414"/>
<path d="M7.20001 11.23C7.03001 11.42 6.93001 11.66 6.94001 11.92C6.94001 12.17 7.04001 12.41 7.21001 12.6L7.57001 13.08L9.13001 11.52L8.56001 11.13C8.37001 10.97 8.12001 10.89 7.86001 10.91C7.61001 10.93 7.37001 11.04 7.20001 11.23Z" fill="#141414"/>
<path d="M21.67 3.25002C21.28 2.86002 20.65 2.86002 20.26 3.25002L19.87 3.64002L18.43 5.07002C18.43 5.07002 18.43 5.08002 18.44 5.08002L13.12 10.4H13.1L8.80001 14.7H8.81001V14.71L7.52001 16H7.50001L5.54001 17.96H5.56001L4.27001 19.25C3.88001 19.64 3.88001 20.27 4.27001 20.66C4.47001 20.86 4.72001 20.95 4.98001 20.95C5.24001 20.95 5.49001 20.85 5.69001 20.66L8.35001 18H10.03V19C10.03 19.53 10.25 20.04 10.62 20.41C11 20.79 11.5 21 12.03 21H14.03C14.57 21 15.07 20.79 15.45 20.41C15.82 20.04 16.03 19.53 16.03 19V18H18.03C18.83 18 19.59 17.68 20.16 17.12C20.72 16.56 21.03 15.79 21.03 15V6.00002C21.03 5.79002 21.01 5.59002 20.96 5.39002L21.69 4.66002C22.08 4.27002 22.08 3.64002 21.69 3.25002H21.67ZM19.01 15C19.01 15.26 18.91 15.52 18.72 15.71C18.53 15.89 18.28 16 18.01 16H16.01L16.82 13.2V13.05C16.89 12.55 16.76 12.04 16.46 11.63C16.2 11.28 15.85 11.02 15.43 10.9L19.01 7.32002V15Z" fill="#141414"/>
</svg>
