<svg width="24" height="24" viewBox="0 0 24 24" fill="none" xmlns="http://www.w3.org/2000/svg">
<path d="M20 4C20.55 4 21 3.55 21 3C21 2.45 20.55 2 20 2H3C2.45 2 2 2.45 2 3C2 3.55 2.45 4 3 4H20ZM19 6C19 5.45 18.55 5 18 5H4C3.45 5 3 5.45 3 6C3 6.55 3.45 7 4 7H18C18.55 7 19 6.55 19 6ZM21 9C21 8.45 20.55 8 20 8H7C6.45 8 6 8.45 6 9C6 9.55 6.45 10 7 10H20C20.55 10 21 9.55 21 9ZM21 11H10C9.45 11 9 11.45 9 12C9 12.55 9.45 13 10 13H21C21.55 13 22 12.55 22 12C22 11.45 21.55 11 21 11ZM19 14H11C10.45 14 10 14.45 10 15C10 15.55 10.45 16 11 16H19C19.55 16 20 15.55 20 15C20 14.45 19.55 14 19 14ZM14 17H10C9.45 17 9 17.45 9 18C9 18.55 9.45 19 10 19H14C14.55 19 15 18.55 15 18C15 17.45 14.55 17 14 17ZM11 20H10C9.45 20 9 20.45 9 21C9 21.55 9.45 22 10 22H11C11.55 22 12 21.55 12 21C12 20.45 11.55 20 11 20Z" fill="#141414"/>
</svg>
