<svg width="24" height="24" viewBox="0 0 24 24" fill="none" xmlns="http://www.w3.org/2000/svg">
<path d="M11 4H13C13.55 4 14 3.55 14 3C14 2.45 13.55 2 13 2H11C10.45 2 10 2.45 10 3C10 3.55 10.45 4 11 4ZM21 11H19C18.45 11 18 11.45 18 12C18 12.55 18.45 13 19 13H21C21.55 13 22 12.55 22 12C22 11.45 21.55 11 21 11ZM6 12C6 11.45 5.55 11 5 11H3C2.45 11 2 11.45 2 12C2 12.55 2.45 13 3 13H5C5.55 13 6 12.55 6 12ZM6.34 7.76C6.73 8.15 7.36 8.15 7.75 7.76C8.14 7.37 8.14 6.74 7.75 6.35L6.34 4.94C5.95 4.55 5.32 4.55 4.93 4.94C4.54 5.33 4.54 5.96 4.93 6.35L6.34 7.76ZM17.65 16.25C17.26 15.86 16.63 15.86 16.24 16.25C15.85 16.64 15.85 17.27 16.24 17.66L17.65 19.07C18.04 19.46 18.67 19.46 19.06 19.07C19.45 18.68 19.45 18.05 19.06 17.66L17.65 16.25ZM6.34 16.25L4.93 17.66C4.54 18.05 4.54 18.68 4.93 19.07C5.32 19.46 5.95 19.46 6.34 19.07L7.75 17.66C8.14 17.27 8.14 16.64 7.75 16.25C7.36 15.86 6.73 15.86 6.34 16.25ZM17.65 7.76L19.06 6.35C19.45 5.96 19.45 5.33 19.06 4.94C18.67 4.55 18.04 4.55 17.65 4.94L16.24 6.35C15.85 6.74 15.85 7.37 16.24 7.76C16.63 8.15 17.26 8.15 17.65 7.76ZM11.99 18C11.44 18 10.99 18.45 10.99 19V21C10.99 21.55 11.44 22 11.99 22C12.54 22 12.99 21.55 12.99 21V19C12.99 18.45 12.54 18 11.99 18ZM14.5 7.68C14.2 7.5 13.99 7.2 13.99 6.84V5.84C13.99 5.37 13.61 4.99 13.14 4.99H10.8C10.35 4.99 9.99 5.35 9.99 5.8V6.8C9.99 7.14 9.82 7.48 9.52 7.65C7.77 8.64 6.68 10.65 7.06 12.88C7.4 14.85 8.95 16.47 10.91 16.88C14.14 17.55 16.99 15.11 16.99 11.99C16.99 10.15 15.99 8.54 14.5 7.67V7.68Z" fill="#141414"/>
</svg>
