<svg width="24" height="24" viewBox="0 0 24 24" fill="none" xmlns="http://www.w3.org/2000/svg">
<path d="M17 5.99999C17 5.99999 17.7 4.60999 20.25 3.55999C20.71 3.36999 20.65 2.68999 20.16 2.59999C9.65 0.719993 6 6.99999 6 6.99999C6 6.99999 4.61 6.29999 3.57 3.74999C3.38 3.28999 2.7 3.34999 2.61 3.83999C0.730002 14.4 7.01 18 7.01 18C7.01 18 6.32 19.39 3.77 20.43C3.3 20.62 3.37 21.31 3.86 21.39C14.38 23.16 18 16 18 16C18 16 19.4 17.4 20.44 20.19C20.62 20.66 21.31 20.6 21.4 20.1C23.26 9.51999 17 5.98999 17 5.98999V5.99999ZM12 15C10.35 15 9 13.65 9 12C9 10.35 10.35 8.99999 12 8.99999C13.65 8.99999 15 10.35 15 12C15 13.65 13.65 15 12 15Z" fill="#141414"/>
</svg>
