<svg width="24" height="24" viewBox="0 0 24 24" fill="none" xmlns="http://www.w3.org/2000/svg">
<path d="M10.5399 5.00003C10.2699 5.00003 10.0499 5.22003 10.0499 5.49003V6.51003C10.0499 6.78003 10.2699 7.00003 10.5399 7.00003H13.4699C13.7399 7.00003 13.9599 6.78003 13.9599 6.51003V5.49003C13.9599 5.22003 13.7399 5.00003 13.4699 5.00003H10.5399ZM13.4699 20H10.5399C10.2699 20 10.0499 20.22 10.0499 20.49V21.51C10.0499 21.78 10.2699 22 10.5399 22H13.4699C13.7399 22 13.9599 21.78 13.9599 21.51V20.49C13.9599 20.22 13.7399 20 13.4699 20ZM9.68986 3.97003H14.3099C14.5799 3.97003 14.7999 3.75003 14.7999 3.48003V2.52003C14.7999 2.25003 14.5799 2.03003 14.3099 2.03003H9.68986C9.41986 2.03003 9.19986 2.25003 9.19986 2.52003V3.48003C9.19986 3.75003 9.41986 3.97003 9.68986 3.97003ZM13.1599 17.32C12.3999 16.9 11.5699 16.9 10.8399 17.32C10.5999 17.47 10.2199 17.44 10.0399 17.66C9.91986 17.82 10.0399 18.46 10.0399 18.46C10.0399 18.76 10.2599 19 10.5299 19H13.4599C13.7299 19 13.9499 18.76 13.9499 18.46C13.9499 18.46 14.0699 17.82 13.9499 17.66C13.7799 17.43 13.3999 17.47 13.1499 17.32H13.1599ZM19.3799 11.51C19.3799 10.75 19.0599 10.02 18.4999 9.50003C18.7299 8.65003 18.5499 7.74003 18.0099 7.05003C17.4699 6.36003 16.6299 5.98003 15.7499 6.02003C15.3499 6.02003 14.9799 6.23003 14.7599 6.57003C13.0399 9.36003 13.4899 9.16003 11.4699 9.16003C11.0699 9.16003 10.6999 8.95003 10.4799 8.61003L9.21986 6.58003C8.28986 5.08003 4.68986 6.74003 5.47986 9.51003C4.92986 10.03 4.60986 10.76 4.60986 11.52C4.60986 12.28 4.91986 13.01 5.47986 13.53C5.24986 14.37 5.42986 15.28 5.96986 15.97C6.50986 16.66 7.33986 17.05 8.19986 17.01C10.0399 17.01 11.1199 15 13.3799 16.14C14.4499 16.68 14.9299 17.01 15.7799 17.01C16.6499 17.04 17.4799 16.65 18.0099 15.97C18.5499 15.28 18.7299 14.38 18.4999 13.53C19.0499 13.01 19.3599 12.28 19.3599 11.51H19.3799Z" fill="#141414"/>
</svg>
