<svg width="24" height="24" viewBox="0 0 24 24" fill="none" xmlns="http://www.w3.org/2000/svg">
<path d="M9.61 12.74L9.92 11.92L11.68 12.51C11.68 12.51 11.77 12.57 11.78 12.62L12.52 16.34C12.61 16.82 13.03 17.14 13.5 17.14C13.56 17.14 13.63 17.14 13.7 17.12C14.24 17.01 14.59 16.49 14.48 15.94L13.74 12.22C13.59 11.47 13.04 10.85 12.31 10.61L10.62 10.05L11.42 7.91004L13.56 8.98004C14.04 9.22004 14.57 9.26004 15.08 9.09004L17.32 8.34004C17.84 8.17004 18.13 7.60004 17.95 7.08004C17.77 6.56004 17.21 6.27004 16.69 6.45004L14.46 7.20004L12.11 6.03004L11.12 5.56004L8.04 4.79004C7.5 4.66004 6.93 4.76004 6.47 5.06004L4.2 6.57004C3.74 6.88004 3.62 7.50004 3.92 7.96004C4.11 8.25004 4.43 8.41004 4.75 8.41004C4.94 8.41004 5.13 8.36004 5.3 8.24004L7.55 6.73004L9.54 7.23004L7.73 12.05C7.62 12.34 7.34 12.53 7.04 12.53H3C2.45 12.53 2 12.98 2 13.53C2 14.08 2.45 14.53 3 14.53H7.04C8.18 14.53 9.21 13.82 9.61 12.75V12.74Z" fill="#141414"/>
<path d="M13.32 5.04004C13.62 5.04004 13.91 4.95004 14.15 4.79004C14.39 4.63004 14.59 4.39004 14.7 4.12004C14.81 3.85004 14.84 3.54004 14.79 3.25004C14.73 2.96004 14.59 2.69004 14.38 2.48004C14.17 2.27004 13.9 2.13004 13.61 2.07004C13.32 2.01004 13.02 2.04004 12.74 2.16004C12.47 2.27004 12.23 2.47004 12.07 2.71004C11.91 2.95004 11.82 3.25004 11.82 3.54004C11.82 3.94004 11.98 4.32004 12.26 4.60004C12.54 4.88004 12.92 5.04004 13.32 5.04004Z" fill="#141414"/>
<path d="M21.35 10.06C20.83 9.87004 20.26 10.13 20.06 10.64L17.3 17.99H6C5.45 17.99 5 18.44 5 18.99C5 19.54 5.45 19.99 6 19.99H18C18.12 19.99 18.24 19.96 18.35 19.92C18.39 19.91 18.42 19.89 18.45 19.87C18.52 19.83 18.59 19.79 18.65 19.73C18.68 19.7 18.71 19.68 18.73 19.65C18.79 19.58 18.84 19.51 18.88 19.43C18.89 19.4 18.91 19.38 18.92 19.35C18.92 19.35 18.92 19.34 18.93 19.33L21.93 11.33C22.12 10.81 21.86 10.24 21.35 10.04V10.06Z" fill="#141414"/>
</svg>
