<svg width="24" height="24" viewBox="0 0 24 24" fill="none" xmlns="http://www.w3.org/2000/svg">
<path d="M14.5002 15.67C14.0202 15.39 13.4102 15.56 13.1302 16.04L11.1302 19.5C10.8502 19.98 11.0202 20.59 11.5002 20.87C11.9802 21.15 12.5902 20.98 12.8702 20.5L14.8702 17.04C15.1502 16.56 14.9802 15.95 14.5002 15.67ZM10.5002 15.67C10.0202 15.39 9.41023 15.56 9.13023 16.04L7.13023 19.5C6.85023 19.98 7.02023 20.59 7.50023 20.87C7.98023 21.15 8.59023 20.98 8.87023 20.5L10.8702 17.04C11.1502 16.56 10.9802 15.95 10.5002 15.67ZM6.50023 15.67C6.02023 15.39 5.41023 15.56 5.13023 16.04L3.13023 19.5C2.85023 19.98 3.02023 20.59 3.50023 20.87C3.98023 21.15 4.59023 20.98 4.87023 20.5L6.87023 17.04C7.15023 16.56 6.98023 15.95 6.50023 15.67ZM6.00023 14H14.4202C14.4502 13.95 14.4702 13.89 14.5002 13.83L17.5002 9.32999C17.9502 8.63999 18.6702 8.19999 19.4602 8.05999C19.4702 7.95999 19.4902 7.84999 19.4902 7.73999C19.4902 5.11999 17.3602 2.98999 14.7402 2.98999C13.1002 2.98999 11.6602 3.81999 10.8102 5.07999C10.5502 5.01999 10.2702 4.98999 9.99023 4.98999C8.12023 4.98999 6.57023 6.26999 6.13023 7.99999C6.08023 7.99999 6.04023 7.98999 5.99023 7.98999C4.33023 7.98999 2.99023 9.32999 2.99023 10.99C2.99023 12.65 4.33023 13.99 5.99023 13.99L6.00023 14ZM21.3602 14.99C21.1802 14.68 20.8502 14.5 20.5002 14.5H18.8702L20.8302 11.55C21.1402 11.09 21.0102 10.47 20.5502 10.16C20.0902 9.84999 19.4702 9.97999 19.1602 10.44L16.1602 14.94C15.9602 15.25 15.9402 15.64 16.1102 15.97C16.2802 16.3 16.6202 16.5 16.9902 16.5H18.7902L17.1202 19.51C16.8502 19.99 17.0302 20.6 17.5102 20.87C17.6602 20.96 17.8302 21 17.9902 21C18.3402 21 18.6802 20.81 18.8702 20.49L21.3702 15.99C21.5402 15.68 21.5402 15.3 21.3602 15V14.99Z" fill="#141414"/>
</svg>
