<svg width="24" height="24" viewBox="0 0 24 24" fill="none" xmlns="http://www.w3.org/2000/svg">
<path d="M15.8654 11.5223C15.7955 11.4888 15.7245 11.4565 15.6525 11.4257C15.5273 9.11737 14.266 7.79588 12.1481 7.78235C12.1385 7.78229 12.129 7.78229 12.1194 7.78229C10.8526 7.78229 9.7991 8.323 9.15066 9.30693L10.3154 10.1059C10.7998 9.37097 11.5601 9.21429 12.12 9.21429C12.1264 9.21429 12.1329 9.21429 12.1393 9.21435C12.8366 9.2188 13.3629 9.42155 13.7034 9.81693C13.9513 10.1048 14.117 10.5026 14.1991 11.0046C13.5809 10.8995 12.9122 10.8672 12.1974 10.9082C10.1839 11.0242 8.88938 12.1985 8.97632 13.8303C9.02044 14.658 9.4328 15.3701 10.1374 15.8353C10.7331 16.2285 11.5004 16.4209 12.2978 16.3773C13.3508 16.3196 14.177 15.9178 14.7533 15.1831C15.191 14.6252 15.4678 13.9022 15.5901 12.9913C16.0919 13.2941 16.4639 13.6927 16.6693 14.1718C17.0186 14.9863 17.0389 16.3247 15.9469 17.4158C14.9901 18.3717 13.8399 18.7852 12.1018 18.798C10.1737 18.7837 8.71547 18.1653 7.76739 16.9601C6.8796 15.8315 6.42078 14.2014 6.40366 12.115C6.42078 10.0286 6.8796 8.39847 7.76739 7.2699C8.71547 6.06467 10.1736 5.44633 12.1017 5.432C14.0438 5.44644 15.5274 6.06775 16.5118 7.2788C16.9945 7.87268 17.3584 8.61953 17.5983 9.49033L18.9632 9.12616C18.6724 8.0543 18.2149 7.13067 17.5922 6.36468C16.3302 4.81206 14.4846 4.0165 12.1065 4H12.097C9.72374 4.01644 7.89876 4.81503 6.67273 6.37358C5.58174 7.76049 5.01897 9.69028 5.00006 12.1093L5 12.115L5.00006 12.1207C5.01897 14.5397 5.58174 16.4695 6.67273 17.8564C7.89876 19.4149 9.72374 20.2136 12.097 20.23H12.1065C14.2164 20.2154 15.7037 19.663 16.9289 18.4389C18.5319 16.8374 18.4836 14.8301 17.9553 13.5978C17.5762 12.7141 16.8536 11.9963 15.8654 11.5223ZM12.2224 14.9474C11.3399 14.9971 10.4231 14.601 10.3778 13.7525C10.3443 13.1235 10.8255 12.4215 12.2766 12.3379C12.4427 12.3283 12.6058 12.3236 12.766 12.3236C13.293 12.3236 13.7861 12.3748 14.2344 12.4728C14.0672 14.5609 13.0864 14.9 12.2224 14.9474Z" fill="#141414"/>
</svg>
