<svg width="24" height="24" viewBox="0 0 24 24" fill="none" xmlns="http://www.w3.org/2000/svg">
<path d="M21.12 2.88C20.56 2.32 19.79 2 19 2H11C10.2 2 9.44 2.32 8.88 2.88C8.32 3.44 8 4.21 8 5V6H13C14.33 6 15.6 6.53 16.54 7.46C17.48 8.4 18 9.67 18 11V16H19C19.8 16 20.56 15.68 21.12 15.12C21.68 14.56 22 13.79 22 13V5C22 4.2 21.68 3.44 21.12 2.88ZM13 8H5C4.2 8 3.44 8.32 2.88 8.88C2.32 9.44 2 10.21 2 11V19C2 19.8 2.32 20.56 2.88 21.12C3.44 21.68 4.21 22 5 22H13C13.8 22 14.56 21.68 15.12 21.12C15.68 20.56 16 19.79 16 19V11C16 10.2 15.68 9.44 15.12 8.88C14.56 8.32 13.79 8 13 8ZM11.83 16.41C12.22 16.8 12.22 17.43 11.83 17.82C11.44 18.21 10.81 18.21 10.42 17.82L9.01 16.41L7.6 17.82C7.21 18.21 6.58 18.21 6.19 17.82C5.8 17.43 5.8 16.8 6.19 16.41L7.6 15L6.19 13.59C5.8 13.2 5.8 12.57 6.19 12.18C6.58 11.79 7.21 11.79 7.6 12.18L9.01 13.59L10.42 12.18C10.81 11.79 11.44 11.79 11.83 12.18C12.22 12.57 12.22 13.2 11.83 13.59L10.42 15L11.83 16.41Z" fill="#141414"/>
</svg>
