<svg width="24" height="24" viewBox="0 0 24 24" fill="none" xmlns="http://www.w3.org/2000/svg">
<path d="M2.76 6.86005C2.29 7.07005 2 7.54005 2 8.05005V17.38C2 18.01 2.67 18.41 3.22 18.11C4.19 17.58 5.6 16.99 7.28 16.99C9.06 16.99 10.02 17.13 11.5 18.05V7.49005C10.44 6.43005 9.3 5.80005 7.51 5.80005C5.48 5.80005 3.73 6.43005 2.76 6.86005Z" fill="#141414"/>
<path d="M21.24 6.86005C20.26 6.42005 18.51 5.80005 16.49 5.80005C14.7 5.80005 13.56 6.44005 12.5 7.49005V18.05C13.98 17.13 14.94 16.99 16.72 16.99C18.4 16.99 19.81 17.59 20.78 18.11C21.33 18.41 22 18.01 22 17.38V8.05005C22 7.54005 21.71 7.07005 21.24 6.86005Z" fill="#141414"/>
</svg>
