<svg width="24" height="24" viewBox="0 0 24 24" fill="none" xmlns="http://www.w3.org/2000/svg">
<path d="M12.55 8.30014L14.49 6.36014C14.82 6.03014 15.28 5.88014 15.79 5.91014C16.36 5.95014 16.91 6.21014 17.35 6.66014C17.79 7.10014 18.06 7.66014 18.09 8.22014C18.13 8.74014 17.97 9.20014 17.64 9.52014L16.36 10.8001C16.06 11.1001 16 11.5301 16.15 11.9001L16.67 12.4201C17.03 12.5801 17.47 12.5101 17.77 12.2101L19.05 10.9301C19.79 10.1901 20.15 9.18014 20.08 8.08014C20.01 7.03014 19.54 6.02014 18.75 5.24014C17.97 4.46014 16.96 3.99014 15.91 3.91014C14.81 3.83014 13.79 4.20014 13.06 4.94014L11.13 6.87014L12.56 8.30014H12.55Z" fill="#141414"/>
<path d="M5.25997 3.8398C5.25997 3.8398 5.22997 3.7898 5.20997 3.7598L4.72997 3.2798C4.33997 2.8898 3.70997 2.8898 3.31997 3.2798C2.92997 3.6698 2.92997 4.2998 3.31997 4.6898L8.97997 10.3498C8.96996 10.5198 8.94997 10.6798 8.95997 10.8598C9.02997 11.9098 9.49997 12.9198 10.29 13.6998C10.49 13.8998 10.74 13.9898 11 13.9898C11.26 13.9898 11.51 13.8898 11.71 13.6998C11.82 13.5898 11.89 13.4498 11.94 13.3098L12.83 14.1998C12.76 14.3298 12.68 14.4498 12.58 14.5598L9.50997 17.6298C9.18997 17.9598 8.72997 18.1098 8.20997 18.0798C7.63997 18.0398 7.08997 17.7798 6.64997 17.3298C6.20997 16.8898 5.93997 16.3298 5.90997 15.7698C5.86997 15.2498 6.02997 14.7898 6.35997 14.4698L7.63997 13.1898C8.02997 12.7998 8.02997 12.1698 7.63997 11.7798C7.24997 11.3898 6.61997 11.3898 6.22997 11.7798L4.94997 13.0598C4.20997 13.7998 3.84997 14.8098 3.91997 15.9098C3.98997 16.9598 4.45997 17.9698 5.24997 18.7498C6.02997 19.5298 7.03997 19.9998 8.08997 20.0798H8.37997C9.36997 20.0798 10.27 19.7198 10.95 19.0398L14.02 15.9698C14.12 15.8698 14.19 15.7498 14.28 15.6398L19.31 20.6698C19.51 20.8698 19.76 20.9598 20.02 20.9598C20.28 20.9598 20.53 20.8598 20.73 20.6698C21.1 20.2998 21.11 19.7298 20.78 19.3298L5.25997 3.8398Z" fill="#141414"/>
</svg>
