<svg width="24" height="24" viewBox="0 0 24 24" fill="none" xmlns="http://www.w3.org/2000/svg">
<path d="M21.78 8.21C21.63 7.97 21.42 7.78 21.17 7.66C20.92 7.54 20.64 7.48 20.36 7.51C20.08 7.54 19.82 7.64 19.59 7.8L16.99 9.8V9C16.99 8.2 16.67 7.44 16.11 6.88C15.55 6.32 14.78 6 13.99 6H5C4.2 6 3.44 6.32 2.88 6.88C2.32 7.44 2 8.21 2 9V15C2 15.8 2.32 16.56 2.88 17.12C3.44 17.68 4.21 18 5 18H14C14.8 18 15.56 17.68 16.12 17.12C16.68 16.56 17 15.79 17 15V14.25L19.6 16.2C19.82 16.37 20.09 16.47 20.37 16.49C20.65 16.52 20.93 16.46 21.18 16.34C21.43 16.22 21.64 16.02 21.79 15.79C21.94 15.55 22.01 15.28 22.01 15V9C22.01 8.72 21.93 8.45 21.79 8.21H21.78ZM9.5 16C8.62 16 7.8 15.71 7.11 15.19C7.11 15.2 7.11 15.22 7.11 15.23C7.11 15.33 7.04 15.42 6.97 15.49C6.77 15.69 6.42 15.68 6.23 15.49C6.13 15.39 6.08 15.26 6.08 15.12V13.96C6.08 13.82 6.14 13.69 6.23 13.59C6.33 13.49 6.46 13.44 6.6 13.44H7.76C7.9 13.44 8.03 13.5 8.13 13.59C8.23 13.69 8.28 13.82 8.28 13.96C8.28 14.1 8.22 14.23 8.13 14.33C8.05 14.4 7.96 14.46 7.86 14.47C7.86 14.47 7.83 14.47 7.82 14.47C8.31 14.81 8.89 14.99 9.51 14.99C11.16 14.99 12.51 13.64 12.51 11.99C12.51 10.34 11.16 8.99 9.51 8.99C8.19 8.99 7.01 9.87 6.63 11.13C6.55 11.39 6.28 11.54 6.01 11.47C5.75 11.39 5.59 11.11 5.67 10.85C6.17 9.17 7.75 7.99 9.5 7.99C11.71 7.99 13.5 9.78 13.5 11.99C13.5 14.2 11.71 15.99 9.5 15.99V16Z" fill="#141414"/>
</svg>
