<svg width="24" height="24" viewBox="0 0 24 24" fill="none" xmlns="http://www.w3.org/2000/svg">
<path d="M20.46 4.68C20.12 4.31 19.66 4.08 19.16 4.02C16.96 3.79 14.81 3.17 12.82 2.19C12.56 2.06 12.28 2 12 2C11.72 2 11.44 2.07 11.18 2.19C9.21 3.17 7.07 3.79 4.88 4.02C4.38 4.06 3.91 4.29 3.56 4.66C3.21 5.03 3.01 5.51 3 6.02V11.01C3 17.75 9.75 22 12 22C14.25 22 21 17.75 21 11.01V6.02C20.99 5.52 20.8 5.05 20.46 4.68ZM8.97 9.17L7.22 14.17C7.15 14.37 6.96 14.5 6.75 14.5C6.54 14.5 6.35 14.37 6.28 14.17L4.53 9.17C4.44 8.91 4.58 8.62 4.84 8.53C5.1 8.44 5.39 8.58 5.48 8.84L6.76 12.49L8.04 8.84C8.13 8.58 8.42 8.44 8.68 8.53C8.94 8.62 9.08 8.91 8.99 9.17H8.97ZM12.25 12H11V14C11 14.28 10.78 14.5 10.5 14.5C10.22 14.5 10 14.28 10 14V9C10 8.72 10.22 8.5 10.5 8.5H12.25C13.21 8.5 14 9.29 14 10.25C14 11.21 13.21 12 12.25 12ZM19 14C19 14.22 18.85 14.42 18.63 14.48C18.59 14.49 18.54 14.5 18.5 14.5C18.33 14.5 18.16 14.41 18.07 14.26L16 10.81V14.01C16 14.29 15.78 14.51 15.5 14.51C15.22 14.51 15 14.29 15 14.01V9.01C15 8.79 15.15 8.59 15.37 8.53C15.58 8.47 15.82 8.56 15.93 8.75L18 12.2V9C18 8.72 18.22 8.5 18.5 8.5C18.78 8.5 19 8.72 19 9V14ZM12.25 9.5H11V11H12.25C12.66 11 13 10.66 13 10.25C13 9.84 12.66 9.5 12.25 9.5Z" fill="#141414"/>
</svg>
