<svg width="24" height="24" viewBox="0 0 24 24" fill="none" xmlns="http://www.w3.org/2000/svg">
<path d="M6.43003 11.45C6.93003 11.45 7.20003 11.25 7.41003 10.57L9.52003 4.02C9.56003 3.9 9.58003 3.8 9.58003 3.71C9.58003 3.25 9.11003 3 8.73003 3C8.48003 3 8.22003 3.12 8.10003 3.52L6.61003 8.37C6.55003 8.55 6.50003 8.77 6.43003 8.77C6.36003 8.77 6.31003 8.55 6.25003 8.37L4.76003 3.52C4.64003 3.12 4.38003 3 4.13003 3C3.72003 3 3.28003 3.29 3.28003 3.71C3.28003 3.81 3.30003 3.9 3.34003 4.02L5.45003 10.57C5.66003 11.24 5.94003 11.45 6.43003 11.45ZM9.20003 12.2C8.83003 12.2 8.43003 12.34 8.43003 12.89V17.47C8.43003 17.47 8.43003 17.59 8.37003 17.59C8.31003 17.59 8.28003 17.53 8.24003 17.47L5.79003 13.13C5.39003 12.42 5.19003 12.21 4.68003 12.21C4.22003 12.21 3.89003 12.45 3.89003 13.18V20.3C3.89003 20.85 4.31003 20.99 4.66003 20.99C5.01003 20.99 5.43003 20.85 5.43003 20.3V15.72C5.43003 15.72 5.43003 15.58 5.49003 15.58C5.55003 15.58 5.58003 15.64 5.62003 15.72L8.07003 20.06C8.47003 20.77 8.67003 20.98 9.18003 20.98C9.64003 20.98 9.97003 20.74 9.97003 20.01V12.89C9.97003 12.34 9.55003 12.2 9.20003 12.2ZM14.91 8.34C14.91 6.57 14.45 5.23 12.39 5.23C10.33 5.23 9.87003 6.56 9.87003 8.34C9.87003 10.12 10.33 11.45 12.39 11.45C14.45 11.45 14.91 10.12 14.91 8.34ZM11.38 8.34C11.38 7.3 11.44 6.66 12.39 6.66C13.34 6.66 13.4 7.3 13.4 8.34C13.4 9.38 13.34 10.02 12.39 10.02C11.44 10.02 11.38 9.38 11.38 8.34ZM17.66 19.78L16.4 17.57C16.4 17.57 16.39 17.55 16.39 17.52C16.39 17.48 16.4 17.46 16.45 17.43C17.21 16.96 17.76 16.32 17.76 14.91C17.76 13.1 16.67 12.24 15.32 12.24H12.42C12.01 12.24 11.75 12.5 11.75 12.98V20.29C11.75 20.84 12.17 20.98 12.52 20.98C12.87 20.98 13.29 20.84 13.29 20.29V17.7C13.29 17.61 13.31 17.59 13.4 17.59H14.6C14.69 17.59 14.73 17.59 14.79 17.7L16.37 20.57C16.54 20.88 16.76 20.98 16.96 20.98C17.35 20.98 17.8 20.62 17.8 20.21C17.8 20.09 17.75 19.94 17.67 19.79L17.66 19.78ZM15.33 16.03H13.4C13.32 16.03 13.29 16.01 13.29 15.92V13.93C13.29 13.84 13.31 13.82 13.4 13.82H15.27C15.81 13.82 16.17 14.19 16.17 14.93C16.17 15.67 15.8 16.04 15.33 16.04V16.03Z" fill="#141414"/>
</svg>
