<svg width="24" height="24" viewBox="0 0 24 24" fill="none" xmlns="http://www.w3.org/2000/svg">
<path d="M7.64 19.85C7.96 19.31 8.06 18.65 7.95 18.03C7.95 18.01 7.95 17.98 7.94 17.96C7.86 17.57 7.7 17.2 7.45 16.88C7.42 16.84 7.39 16.81 7.35 16.77C7.25 16.66 7.14 16.55 7.01 16.46C6.97 16.43 6.93 16.4 6.89 16.37C6.72 16.26 6.54 16.17 6.33 16.11C6.3 16.1 6.26 16.1 6.22 16.09C6.04 16.04 5.85 16.02 5.65 16.01C5.61 16.01 5.58 16 5.55 16C5.44 16 5.33 16 5.22 16.02C2 16.34 2.39 21.25 5.72 20.99C6.64 20.92 7.27 20.47 7.63 19.86C7.63 19.86 7.63 19.86 7.63 19.85H7.64Z" fill="#141414"/>
<path d="M18.22 3.02C17.33 3.11 16.73 3.55 16.37 4.14C16.04 4.68 15.94 5.35 16.06 5.97C16.06 5.99 16.07 6.03 16.07 6.03C16.15 6.42 16.32 6.79 16.57 7.11C16.6 7.15 16.63 7.18 16.67 7.22C16.78 7.34 16.89 7.44 17.03 7.54C17.06 7.57 17.1 7.59 17.13 7.62C17.3 7.73 17.63 7.84 17.84 7.91C17.79 7.9 17.89 7.92 17.84 7.91C18.01 7.95 18.31 8 18.5 8C18.45 8 18.58 8 18.5 8C18.42 8 18.58 8 18.5 8C18.73 7.98 19.17 7.94 19.36 7.88C21.95 7.07 21.41 2.7 18.22 3.02Z" fill="#141414"/>
<path d="M11.27 11.31H12.15C12.4 11.31 12.59 11.14 12.59 10.85C12.59 10.55 12.4 10.38 12.15 10.38H11.27C11.21 10.38 11.19 10.41 11.19 10.46V11.24C11.19 11.3 11.21 11.31 11.27 11.31Z" fill="#141414"/>
<path d="M12.33 12.67L11.27 12.66C11.21 12.66 11.19 12.69 11.19 12.74V13.54C11.19 13.6 11.21 13.62 11.27 13.62H12.33C12.56 13.62 12.75 13.45 12.75 13.14C12.75 12.83 12.56 12.67 12.33 12.67Z" fill="#141414"/>
<path d="M20.64 9.49C20.11 9.76 19.52 9.93 18.87 9.98C18.74 9.99 18.6 10 18.48 10C16.02 10 14.14 8.2 14.01 5.71C13.97 4.85 14.16 4.05 14.51 3.36C13.71 3.13 12.87 3 12 3C7.03 3 3 7.03 3 12C3 12.87 3.13 13.71 3.36 14.51C3.86 14.26 4.41 14.09 5.02 14.03C5.2 14.01 5.38 14 5.55 14C7.99 14 9.91 15.87 10 18.34C10.03 19.19 9.84 19.96 9.49 20.63C10.29 20.86 11.13 20.99 12 20.99C16.97 20.99 21 16.96 21 11.99C21 11.12 20.87 10.28 20.64 9.48V9.49ZM12.4 15H10.42C10.06 15 9.73 14.84 9.73 14.35V9.66C9.73 9.17 10.06 9 10.42 9H12.18C13.19 9 14.09 9.59 14.09 10.79C14.09 11.44 13.77 11.73 13.67 11.82C13.64 11.85 13.62 11.86 13.62 11.9C13.62 11.92 13.62 11.93 13.65 11.95C13.92 12.22 14.28 12.56 14.28 13.23C14.28 14.34 13.41 15 12.4 15Z" fill="#141414"/>
</svg>
