<svg width="24" height="24" viewBox="0 0 24 24" fill="none" xmlns="http://www.w3.org/2000/svg">
<path d="M6.27994 9.18976C6.67994 9.07976 6.97994 8.71976 6.99994 8.28976C7.02994 7.68976 7.34994 7.12976 7.82994 6.77976C8.27994 6.45976 8.37994 5.82976 8.05994 5.38976C7.73994 4.93976 7.11994 4.82976 6.66994 5.15976C5.67994 5.86976 5.06994 6.96976 4.99994 8.17976C4.96994 8.72976 5.38994 9.19976 5.93994 9.23976C6.05994 9.23976 6.16994 9.23976 6.27994 9.19976V9.18976ZM13.9999 19.9998H9.99994C9.44994 19.9998 8.99994 20.4498 8.99994 20.9998C8.99994 21.5498 9.44994 21.9998 9.99994 21.9998H13.9999C14.5499 21.9998 14.9999 21.5498 14.9999 20.9998C14.9999 20.4498 14.5499 19.9998 13.9999 19.9998ZM6.82994 3.89976C7.32994 3.65976 7.53994 3.05976 7.29994 2.56976C7.05994 2.06976 6.45994 1.85976 5.96994 2.09976C3.27994 3.38976 1.69994 6.23976 2.04994 9.19976C2.10994 9.74976 2.60994 10.1398 3.15994 10.0798C3.21994 10.0798 3.26994 10.0598 3.31994 10.0498C3.77994 9.91976 4.08994 9.46976 4.02994 8.96976C3.78994 6.85976 4.90994 4.81976 6.82994 3.89976ZM11.9999 14.9998C13.3799 14.9998 14.4999 13.8798 14.4999 12.4998V6.49976C14.4999 5.11976 13.3799 3.99976 11.9999 3.99976C10.6199 3.99976 9.49994 5.11976 9.49994 6.49976V12.4998C9.49994 13.8798 10.6199 14.9998 11.9999 14.9998ZM17.4999 11.4998C16.9499 11.4998 16.4999 11.9498 16.4999 12.4998C16.4999 14.9798 14.4799 16.9998 11.9999 16.9998C9.51994 16.9998 7.49994 14.9798 7.49994 12.4998C7.49994 11.9498 7.04994 11.4998 6.49994 11.4998C5.94994 11.4998 5.49994 11.9498 5.49994 12.4998C5.49994 16.0798 8.41994 18.9998 11.9999 18.9998C15.5799 18.9998 18.4999 16.0798 18.4999 12.4998C18.4999 11.9498 18.0499 11.4998 17.4999 11.4998ZM18.0299 2.09976C17.5299 1.85976 16.9299 2.06976 16.6999 2.56976C16.4599 3.06976 16.6699 3.66976 17.1699 3.89976C19.0899 4.81976 20.2099 6.85976 19.9699 8.96976C19.9099 9.45976 20.2199 9.90976 20.6799 10.0498C20.7299 10.0698 20.7899 10.0798 20.8399 10.0798C21.3899 10.1398 21.8799 9.74976 21.9499 9.19976C22.2899 6.23976 20.7199 3.37976 18.0299 2.08976V2.09976ZM17.3199 5.14976C16.8699 4.82976 16.2499 4.92976 15.9299 5.37976C15.6099 5.82976 15.7099 6.44976 16.1599 6.76976C16.6499 7.11976 16.9599 7.67976 16.9899 8.27976C17.0199 8.71976 17.3099 9.06976 17.7099 9.17976C17.8199 9.20976 17.9299 9.21976 18.0499 9.21976C18.5999 9.18976 19.0199 8.71976 18.9899 8.15976C18.9199 6.94976 18.3099 5.84976 17.3199 5.13976V5.14976Z" fill="#141414"/>
</svg>
