<svg width="24" height="24" viewBox="0 0 24 24" fill="none" xmlns="http://www.w3.org/2000/svg">
<path d="M7.64 19.85C7.96 19.3099 8.06 18.65 7.95 18.03C7.95 18.01 7.95 18.0087 7.94 17.9599C7.86 17.5699 7.7 17.1999 7.45 16.8799C7.42 16.8399 7.39 16.81 7.35 16.77C7.25 16.66 7.14 16.5499 7.01 16.4599C6.97 16.4299 6.93 16.4 6.89 16.37C6.72 16.26 6.54 16.17 6.33 16.11C6.3 16.1 6.37 16.12 6.33 16.11C6.15 16.06 5.85 16.02 5.65 16.01C5.61 16.01 5.68 16.01 5.65 16.01C5.54 16.01 5.33 16 5.22 16.02C2 16.34 2.39 21.25 5.72 20.99C6.64 20.92 7.27 20.47 7.63 19.86C7.63 19.86 7.63 19.86 7.63 19.85H7.64Z" fill="#141414"/>
<path d="M18.22 3.02001C17.33 3.11001 16.73 3.55001 16.37 4.14001C16.04 4.68001 15.94 5.35001 16.06 5.97001C16.06 5.99001 16.06 6.01001 16.07 6.03001C16.15 6.42001 16.32 6.79001 16.57 7.11001C16.6 7.15001 16.63 7.18001 16.67 7.22001C16.78 7.34001 16.89 7.44001 17.03 7.54001C17.06 7.57001 17.1 7.59001 17.13 7.62001C17.3 7.73001 17.48 7.81001 17.69 7.88001C17.74 7.89001 17.79 7.90001 17.84 7.91001C18.01 7.95001 18.31 8 18.5 8C18.45 8 18.54 8 18.5 8C18.58 8 18.66 8.00001 18.74 8.00001C18.97 7.98001 19.17 7.94001 19.36 7.88001C19.36 7.88001 19.36 7.88001 19.37 7.88001C21.96 7.07001 21.41 2.70001 18.22 3.02001Z" fill="#141414"/>
<path d="M20.64 9.49C20.11 9.76 19.52 9.93 18.87 9.98C18.74 9.99 18.6 10 18.48 10C16.02 10 14.14 8.2 14.01 5.71C13.97 4.85 14.16 4.05 14.51 3.36C13.71 3.13 12.87 3 12 3C7.03 3 3 7.03 3 12C3 12.87 3.13 13.71 3.36 14.51C3.86 14.26 4.41 14.09 5.02 14.03C5.2 14.01 5.38 14 5.55 14C7.99 14 9.91 15.87 10 18.34C10.03 19.19 9.84 19.96 9.49 20.63C10.29 20.86 11.13 20.99 12 20.99C16.97 20.99 21 16.96 21 11.99C21 11.12 20.87 10.29 20.64 9.49ZM13.85 14.27C13.38 14.86 12.73 15 12.04 15H10.41C10.05 15 9.72 14.84 9.72 14.35V9.66C9.72 9.17 10.05 9 10.41 9H12.04C12.73 9 13.38 9.15 13.85 9.73C14.21 10.17 14.29 10.95 14.29 12C14.29 13.05 14.21 13.83 13.85 14.27Z" fill="#141414"/>
<path d="M11.97 10.4H11.25C11.19 10.4 11.17 10.42 11.17 10.48V13.53C11.17 13.59 11.19 13.61 11.25 13.61H11.97C12.23 13.61 12.48 13.52 12.62 13.29C12.75 13.07 12.77 12.55 12.77 12.01C12.77 11.47 12.77 10.96 12.62 10.73C12.49 10.51 12.23 10.4 11.97 10.4Z" fill="#141414"/>
</svg>
