<svg width="24" height="24" viewBox="0 0 24 24" fill="none" xmlns="http://www.w3.org/2000/svg">
<g clip-path="url(#clip0_28944_150118)">
<path d="M23.79 5.18996L19.86 7.45496C19.455 5.81996 18.18 4.52996 16.53 4.13996L18.81 0.209961C21.255 0.824961 23.175 2.74496 23.79 5.18996Z" fill="white"/>
<path d="M23.79 5.18996L19.86 7.45496C19.455 5.81996 18.18 4.52996 16.53 4.13996L18.81 0.209961C21.255 0.824961 23.175 2.74496 23.79 5.18996Z" fill="white"/>
<path d="M7.45496 4.13996C5.81996 4.54496 4.52996 5.81996 4.12496 7.45496L0.209961 5.18996C0.824961 2.74496 2.74496 0.824961 5.18996 0.209961L7.45496 4.13996Z" fill="#7F4B10"/>
<path d="M4.005 15.4349C4.005 15.8099 4.05 16.1849 4.14 16.5299L0.21 18.8099C0.075 18.2699 0 17.6999 0 17.1149V6.88494C0 6.29994 0.075 5.72994 0.21 5.18994L4.14 7.45494C4.05 7.81494 4.005 8.17494 4.005 8.54994V15.4349Z" fill="#AC660C"/>
<path d="M7.45496 19.8599L5.18996 23.7899C2.74496 23.1749 0.824961 21.2549 0.209961 18.8099L4.13996 16.5449C4.54496 18.1799 5.81996 19.4699 7.46996 19.8749L7.45496 19.8599Z" fill="#FFE3AE"/>
<path d="M18.8099 23.7901C18.2699 23.9251 17.6999 24.0001 17.1149 24.0001H6.88494C6.29994 24.0001 5.72994 23.9251 5.18994 23.7901L7.45494 19.8601C7.81494 19.9501 8.17494 19.9951 8.54994 19.9951H15.4349C15.8099 19.9951 16.1849 19.9501 16.5299 19.8601L18.7949 23.7901H18.8099Z" fill="#FFD947"/>
<path d="M23.7899 18.81C23.1749 21.255 21.2399 23.175 18.8099 23.79L16.5449 19.86C18.1799 19.455 19.4699 18.165 19.8749 16.53L23.8049 18.795L23.7899 18.81Z" fill="#7F4B10"/>
<path d="M18.8099 0.21L16.5449 4.14C16.1999 4.05 15.8249 4.005 15.4499 4.005H8.56494C8.18994 4.005 7.81494 4.05 7.46994 4.14L5.18994 0.21C5.72994 0.075 6.29994 0 6.88494 0H17.1149C17.6999 0 18.2699 0.075 18.7949 0.21H18.8099Z" fill="#FFD947"/>
<path d="M24 6.88508V17.1151C24 17.7001 23.925 18.2701 23.79 18.8101L19.86 16.5451C19.95 16.2001 19.995 15.8251 19.995 15.4501V8.56508C19.995 8.19008 19.95 7.81508 19.86 7.47008L23.79 5.20508C23.925 5.74508 24 6.31508 24 6.90008V6.88508Z" fill="#AC660C"/>
<path d="M21 8.12989V15.8699C21 16.2899 20.94 16.7099 20.85 17.0999C20.4 18.9299 18.945 20.3849 17.115 20.8349C16.725 20.9399 16.305 20.9849 15.87 20.9849H8.13002C7.69501 20.9849 7.29001 20.9249 6.90001 20.8349C5.05501 20.3849 3.61501 18.9299 3.16501 17.0999C3.06001 16.7099 3.01501 16.2899 3.01501 15.8699V8.12989C3.01501 7.70989 3.07501 7.28989 3.16501 6.89989C3.61501 5.05489 5.05501 3.61489 6.90001 3.16489C7.29001 3.05989 7.71002 3.01489 8.13002 3.01489H15.87C16.305 3.01489 16.71 3.07489 17.115 3.16489C18.96 3.61489 20.4 5.05489 20.85 6.89989C20.955 7.28989 21 7.70989 21 8.12989Z" fill="#F7AB20"/>
<path d="M16.995 9.71988L16.86 10.4699L16.02 15.2699C16.005 15.3749 15.915 15.4649 15.825 15.4949C14.61 15.8249 13.32 15.9899 12 15.9899C11.865 15.9899 11.73 15.9899 11.595 15.9899C10.905 15.9749 10.215 15.8999 9.55503 15.7949C9.24003 15.7349 8.91003 15.6749 8.61003 15.5999C8.47503 15.5699 8.32503 15.5249 8.19003 15.4949C8.08503 15.4649 8.01003 15.3749 7.99503 15.2699L7.02003 9.71988C6.97503 9.47988 7.21503 9.29988 7.41003 9.41988L9.63003 10.7099C9.75003 10.7849 9.91503 10.7399 9.99003 10.6199L11.79 7.78488C11.895 7.61988 12.135 7.61988 12.24 7.78488L12.45 8.12988L13.77 10.1999L14.04 10.6199C14.115 10.7399 14.28 10.7849 14.4 10.7099L14.46 10.6799L16.62 9.41988C16.815 9.29988 17.055 9.47988 17.01 9.71988H16.995Z" fill="white"/>
<path d="M16.995 9.71988L16.86 10.4699L16.02 15.2699C16.005 15.3749 15.915 15.4649 15.825 15.4949C14.61 15.8249 13.32 15.9899 12 15.9899C11.865 15.9899 11.73 15.9899 11.595 15.9899C10.905 15.9749 10.215 15.8999 9.55503 15.7949C9.24003 15.7349 8.91003 15.6749 8.61003 15.5999C8.47503 15.5699 8.32503 15.5249 8.19003 15.4949C8.08503 15.4649 8.01003 15.3749 7.99503 15.2699L7.02003 9.71988C6.97503 9.47988 7.21503 9.29988 7.41003 9.41988L9.63003 10.7099C9.75003 10.7849 9.91503 10.7399 9.99003 10.6199L11.79 7.78488C11.895 7.61988 12.135 7.61988 12.24 7.78488L12.45 8.12988L13.77 10.1999L14.04 10.6199C14.115 10.7399 14.28 10.7849 14.4 10.7099L14.46 10.6799L16.62 9.41988C16.815 9.29988 17.055 9.47988 17.01 9.71988H16.995Z" fill="white"/>
</g>
<defs>
<clipPath id="clip0_28944_150118">
<rect width="24" height="24" fill="white"/>
</clipPath>
</defs>
</svg>
