<svg width="24" height="24" viewBox="0 0 24 24" fill="none" xmlns="http://www.w3.org/2000/svg">
<path d="M10.4999 9.00002C10.4999 10.65 11.8499 12 13.4999 12C15.1499 12 16.4999 10.65 16.4999 9.00002V8.50002C16.4999 6.85002 15.1499 5.50002 13.4999 5.50002C11.8499 5.50002 10.4999 6.85002 10.4999 8.50002V9.00002ZM12.4999 8.50002C12.4999 7.95002 12.9499 7.50002 13.4999 7.50002C14.0499 7.50002 14.4999 7.95002 14.4999 8.50002V9.00002C14.4999 9.55002 14.0499 10 13.4999 10C12.9499 10 12.4999 9.55002 12.4999 9.00002V8.50002ZM6.99994 12C7.39994 12 7.75994 11.76 7.91994 11.39L10.9199 4.39002C11.1399 3.88002 10.8999 3.30002 10.3999 3.08002C9.88994 2.86002 9.29994 3.10002 9.08994 3.61002L7.00994 8.46002L4.92994 3.61002C4.70994 3.10002 4.11994 2.86002 3.61994 3.08002C3.10994 3.30002 2.87994 3.89002 3.09994 4.39002L6.09994 11.39C6.25994 11.76 6.61994 12 7.01994 12H6.99994ZM18.9999 19H16.9999V18H18.2499C18.7999 18 19.2499 17.55 19.2499 17C19.2499 16.45 18.7999 16 18.2499 16H16.9999V15H18.9999C19.5499 15 19.9999 14.55 19.9999 14C19.9999 13.45 19.5499 13 18.9999 13H15.9999C15.4499 13 14.9999 13.45 14.9999 14V20C14.9999 20.55 15.4499 21 15.9999 21H18.9999C19.5499 21 19.9999 20.55 19.9999 20C19.9999 19.45 19.5499 19 18.9999 19ZM13.4999 13H8.49994C7.94994 13 7.49994 13.45 7.49994 14C7.49994 14.55 7.94994 15 8.49994 15H9.99994V20C9.99994 20.55 10.4499 21 10.9999 21C11.5499 21 11.9999 20.55 11.9999 20V15H13.4999C14.0499 15 14.4999 14.55 14.4999 14C14.4999 13.45 14.0499 13 13.4999 13ZM7.99994 19H5.99994V14C5.99994 13.45 5.54994 13 4.99994 13C4.44994 13 3.99994 13.45 3.99994 14V20C3.99994 20.55 4.44994 21 4.99994 21H7.99994C8.54994 21 8.99994 20.55 8.99994 20C8.99994 19.45 8.54994 19 7.99994 19Z" fill="#141414"/>
</svg>
