<svg width="24" height="24" viewBox="0 0 24 24" fill="none" xmlns="http://www.w3.org/2000/svg">
<path d="M3 9H13C14.65 9 16 7.65 16 6C16 4.35 14.65 3 13 3C12.45 3 12 3.45 12 4C12 4.55 12.45 5 13 5C13.55 5 14 5.45 14 6C14 6.55 13.55 7 13 7H3C2.45 7 2 7.45 2 8C2 8.55 2.45 9 3 9ZM19 16H9C8.45 16 8 16.45 8 17C8 17.55 8.45 18 9 18H19C19.55 18 20 18.45 20 19C20 19.55 19.55 20 19 20C18.45 20 18 20.45 18 21C18 21.55 18.45 22 19 22C20.65 22 22 20.65 22 19C22 17.35 20.65 16 19 16ZM3 12H19C20.65 12 22 10.65 22 9C22 7.35 20.65 6 19 6C18.45 6 18 6.45 18 7C18 7.55 18.45 8 19 8C19.55 8 20 8.45 20 9C20 9.55 19.55 10 19 10H3C2.45 10 2 10.45 2 11C2 11.55 2.45 12 3 12ZM19 14C19 13.45 18.55 13 18 13H3C2.45 13 2 13.45 2 14C2 14.55 2.45 15 3 15H18C18.55 15 19 14.55 19 14Z" fill="#141414"/>
</svg>
