<svg width="24" height="24" viewBox="0 0 24 24" fill="none" xmlns="http://www.w3.org/2000/svg">
<path d="M16.0001 16H13.0001V13.91C14.4801 13.66 15.8201 12.86 16.7401 11.67C17.6601 10.48 18.1001 8.99 17.9801 7.49C17.8501 5.99 17.1701 4.59 16.0601 3.58C14.9501 2.56 13.5001 2 12.0001 2C10.5001 2 9.05006 2.57 7.94006 3.58C6.83006 4.6 6.15006 6 6.02006 7.49C5.89006 8.99 6.34006 10.48 7.26006 11.67C8.18006 12.86 9.52006 13.66 11.0001 13.91V16H8.00006C7.73006 16 7.48006 16.11 7.29006 16.29C7.10006 16.48 7.00006 16.73 7.00006 17C7.00006 17.27 7.11006 17.52 7.29006 17.71C7.48006 17.9 7.73006 18 8.00006 18H11.0001V21C11.0001 21.27 11.1101 21.52 11.2901 21.71C11.4801 21.9 11.7301 22 12.0001 22C12.2701 22 12.5201 21.89 12.7101 21.71C12.9001 21.52 13.0001 21.27 13.0001 21V18H16.0001C16.2701 18 16.5201 17.89 16.7101 17.71C16.9001 17.52 17.0001 17.27 17.0001 17C17.0001 16.73 16.8901 16.48 16.7101 16.29C16.5201 16.1 16.2701 16 16.0001 16ZM12.0001 12C10.9401 12 9.92006 11.58 9.17006 10.83C8.42006 10.08 8.00006 9.06 8.00006 8C8.00006 7.21 8.23006 6.44 8.67006 5.78C9.11006 5.12 9.73006 4.61 10.4701 4.31C11.2001 4.01 12.0101 3.93 12.7801 4.08C13.5601 4.23 14.2701 4.62 14.8301 5.17C15.3901 5.73 15.7701 6.44 15.9201 7.22C16.0701 8 16.0001 8.8 15.6901 9.53C15.3901 10.26 14.8701 10.89 14.2201 11.33C13.5701 11.77 12.7901 12 12.0001 12ZM13.6501 6.66C13.5401 6.54 13.4101 6.45 13.2601 6.38C13.1101 6.32 12.9601 6.28 12.8001 6.28C12.5001 6.29 12.2201 6.41 12.0001 6.62C11.7801 6.41 11.5001 6.29 11.2001 6.28C11.0401 6.28 10.8801 6.31 10.7401 6.38C10.5901 6.44 10.4601 6.54 10.3501 6.66C10.2401 6.78 10.1501 6.92 10.0901 7.08C10.0301 7.24 10.0001 7.4 10.0001 7.57C10.0001 8.36 10.5801 9.08 11.5901 10.06L11.7001 10.16C11.7801 10.24 11.8901 10.28 12.0001 10.28C12.1101 10.28 12.2201 10.24 12.3001 10.16L12.4101 10.06C13.4201 9.08 14.0001 8.36 14.0001 7.57C14.0001 7.4 13.9701 7.24 13.9101 7.08C13.8501 6.92 13.7601 6.78 13.6501 6.66Z" fill="#141414"/>
</svg>
