<svg width="24" height="24" viewBox="0 0 24 24" fill="none" xmlns="http://www.w3.org/2000/svg">
<path d="M17.0499 5.68H15.7499C14.8199 4.65 13.4799 4 11.9899 4C10.4999 4 9.1599 4.66 8.2299 5.68H6.9299C5.5299 5.68 4.3999 6.81 4.3999 8.21V17.47C4.3999 18.87 5.5299 20 6.9299 20H17.0399C18.4399 20 19.5699 18.87 19.5699 17.47V8.21C19.5699 6.81 18.4399 5.68 17.0399 5.68H17.0499ZM11.9999 11.99C10.3399 11.99 8.9999 10.65 8.9999 8.99C8.9999 7.33 10.3399 5.99 11.9999 5.99C13.6599 5.99 14.9999 7.33 14.9999 8.99C14.9999 10.65 13.6599 11.99 11.9999 11.99ZM11.9999 7.36C11.5399 7.36 11.1599 7.74 11.1599 8.2V9.04C11.1599 9.5 11.5399 9.88 11.9999 9.88C12.4599 9.88 12.8399 9.5 12.8399 9.04V8.2C12.8399 7.74 12.4599 7.36 11.9999 7.36Z" fill="#141414"/>
</svg>
