<svg width="24" height="24" viewBox="0 0 24 24" fill="none" xmlns="http://www.w3.org/2000/svg">
<path d="M19.44 8.38C19.47 8.17 19.5 7.96 19.5 7.75C19.5 5.13 17.37 3 14.75 3C13.11 3 11.67 3.83 10.82 5.09C10.56 5.03 10.28 5 10 5C8.13 5 6.58 6.28 6.14 8.01C6.09 8.01 6.05 8 6 8C4.34 8 3 9.34 3 11C3 12.66 4.34 14 6 14H18C19.66 14 21 12.66 21 11C21 9.87 20.36 8.89 19.44 8.38ZM14.5 15.67C14.02 15.39 13.41 15.56 13.13 16.04L11.13 19.5C10.85 19.98 11.02 20.59 11.5 20.87C11.98 21.15 12.59 20.98 12.87 20.5L14.87 17.04C15.15 16.56 14.98 15.95 14.5 15.67ZM18.5 15.67C18.02 15.39 17.41 15.56 17.13 16.04L15.13 19.5C14.85 19.98 15.02 20.59 15.5 20.87C15.98 21.15 16.59 20.98 16.87 20.5L18.87 17.04C19.15 16.56 18.98 15.95 18.5 15.67ZM9.6 16.5C9.32 16.02 8.71 15.86 8.23 16.13L8 16.26V15.99C8 15.44 7.55 14.99 7 14.99C6.45 14.99 6 15.44 6 15.99V16.26L5.77 16.13C5.29 15.85 4.68 16.02 4.4 16.5C4.12 16.98 4.29 17.59 4.77 17.87L5 18L4.77 18.13C4.29 18.41 4.13 19.02 4.4 19.5C4.68 19.98 5.29 20.14 5.77 19.87L6 19.74V20.01C6 20.56 6.45 21.01 7 21.01C7.55 21.01 8 20.56 8 20.01V19.74L8.23 19.87C8.71 20.15 9.32 19.98 9.6 19.5C9.88 19.02 9.71 18.41 9.23 18.13L9 18L9.23 17.87C9.71 17.59 9.87 16.98 9.6 16.5Z" fill="#141414"/>
</svg>
