<svg width="24" height="24" viewBox="0 0 24 24" fill="none" xmlns="http://www.w3.org/2000/svg">
<path d="M16.76 13.8401C16.18 14.4501 15.46 14.9301 14 15.3801V20.5001C14 21.3301 13.33 22.0001 12.5 22.0001C11.67 22.0001 11 21.3301 11 20.5001V12.4601C10.41 12.4201 9.69999 12.3201 9.29999 12.1401C8.71999 11.9101 8.19999 11.5501 7.75999 11.1001C5.60999 8.94011 5.60999 4.89011 5.60999 4.72011C5.60999 4.53011 5.67999 4.36011 5.80999 4.23011C5.93999 4.10011 6.09999 4.02011 6.28999 4.02011C7.91999 3.87011 9.54999 4.34011 10.88 5.31011C12.21 6.29011 13.42 8.33011 13.46 10.0901C14.28 8.67011 15.99 8.22011 17.32 8.26011C17.5 8.26011 17.67 8.34011 17.8 8.47011C17.93 8.60011 18 8.77011 18 8.96011C18.02 10.8501 17.93 12.3601 16.76 13.8401Z" fill="#141414"/>
<path d="M16.76 13.8401C16.18 14.4501 15.46 14.9301 14 15.3801V20.5001C14 21.3301 13.33 22.0001 12.5 22.0001C11.67 22.0001 11 21.3301 11 20.5001V12.4601C10.41 12.4201 9.69999 12.3201 9.29999 12.1401C8.71999 11.9101 8.19999 11.5501 7.75999 11.1001C5.60999 8.94011 5.60999 4.89011 5.60999 4.72011C5.60999 4.53011 5.67999 4.36011 5.80999 4.23011C5.93999 4.10011 6.09999 4.02011 6.28999 4.02011C7.91999 3.87011 9.54999 4.34011 10.88 5.31011C12.21 6.29011 13.42 8.33011 13.46 10.0901C14.28 8.67011 15.99 8.22011 17.32 8.26011C17.5 8.26011 17.67 8.34011 17.8 8.47011C17.93 8.60011 18 8.77011 18 8.96011C18.02 10.8501 17.93 12.3601 16.76 13.8401Z" fill="#141414"/>
</svg>
