<svg width="24" height="24" viewBox="0 0 24 24" fill="none" xmlns="http://www.w3.org/2000/svg">
<path d="M21.9399 20.62C21.8899 20.5 21.8099 20.39 21.7199 20.29L15.6099 14.19C16.3899 13.15 16.8599 11.91 16.9699 10.62C17.0899 9.33 16.8399 8.03 16.2599 6.87C15.6799 5.71 14.7899 4.73 13.6799 4.05C12.5799 3.37 11.2999 3 10.0099 3C8.89995 3 7.80995 3.26 6.81995 3.77C5.82995 4.27 4.97995 5.01 4.32995 5.91C3.67995 6.81 3.24995 7.85 3.08995 8.95C2.91995 10.05 3.01995 11.17 3.36995 12.22C3.71995 13.27 4.31995 14.23 5.10995 15.01C5.89995 15.79 6.86995 16.37 7.92995 16.7C8.98995 17.03 10.1099 17.11 11.2099 16.92C12.2999 16.73 13.3399 16.29 14.2199 15.62L20.3199 21.73C20.4099 21.82 20.5199 21.9 20.6499 21.95C20.7699 22 20.8999 22.03 21.0299 22.03C21.1599 22.03 21.2899 22 21.4099 21.95C21.5299 21.9 21.6399 21.82 21.7399 21.73C21.8299 21.64 21.9099 21.53 21.9599 21.4C22.0099 21.28 22.0399 21.15 22.0399 21.02C22.0399 20.89 22.0099 20.76 21.9599 20.64L21.9399 20.62ZM14.6299 11.92C14.2499 12.83 13.6099 13.61 12.7899 14.16C11.9699 14.71 10.9999 15 10.0099 15C9.34995 15 8.69995 14.87 8.09995 14.62C7.48995 14.37 6.93995 14 6.47995 13.54C6.01995 13.08 5.64995 12.52 5.39995 11.92C5.14995 11.31 5.01995 10.66 5.01995 10.01C5.01995 9.02 5.30995 8.05 5.85995 7.23C6.40995 6.41 7.18995 5.77 8.09995 5.39C9.00995 5.01 10.0199 4.91 10.9899 5.11C11.9599 5.3 12.8499 5.78 13.5499 6.48C14.2499 7.18 14.7299 8.07 14.9199 9.04C15.1099 10.01 15.0099 11.02 14.6399 11.93L14.6299 11.92ZM11.9999 9.01H10.9999V8.01C10.9999 7.46 10.5499 7.01 9.99995 7.01C9.44995 7.01 8.99995 7.46 8.99995 8.01V9.01H7.99995C7.44995 9.01 6.99995 9.46 6.99995 10.01C6.99995 10.56 7.44995 11.01 7.99995 11.01H8.99995V12.01C8.99995 12.56 9.44995 13.01 9.99995 13.01C10.5499 13.01 10.9999 12.56 10.9999 12.01V11.01H11.9999C12.5499 11.01 12.9999 10.56 12.9999 10.01C12.9999 9.46 12.5499 9.01 11.9999 9.01Z" fill="#141414"/>
</svg>
